<?xml version="1.0" encoding="UTF-8" standalone="no"?><!DOCTYPE svg PUBLIC "-//W3C//DTD SVG 1.1//EN" "http://www.w3.org/Graphics/SVG/1.1/DTD/svg11.dtd"><svg width="100%" height="100%" viewBox="0 0 1182 1182" version="1.1" xmlns="http://www.w3.org/2000/svg" xmlns:xlink="http://www.w3.org/1999/xlink" xml:space="preserve" xmlns:serif="http://www.serif.com/" style="fill-rule:evenodd;clip-rule:evenodd;stroke-linecap:round;stroke-linejoin:round;stroke-miterlimit:1.5;"><g id="left_figure"><g id="gridlines"><path d="M149.661,101.055l0,869.457" style="fill:none;stroke:#ccc;stroke-width:4.17px;"/><path d="M1041.99,101.055l0,869.457" style="fill:none;stroke:#ccc;stroke-width:4.17px;"/><path d="M893.266,183.144l0,787.368" style="fill:none;stroke:#ccc;stroke-width:4.17px;"/><path d="M298.382,183.144l0,787.368" style="fill:none;stroke:#ccc;stroke-width:4.17px;"/><path d="M447.103,293.1l0,677.412" style="fill:none;stroke:#ccc;stroke-width:4.17px;"/><path d="M744.545,293.1l0,677.412" style="fill:none;stroke:#ccc;stroke-width:4.17px;"/></g><g id="histogram"><g id="bars"><rect x="595.824" y="405.247" width="49.574" height="565.266" style="fill:#bed1e8;stroke:#000;stroke-width:4.17px;"/><rect x="645.397" y="543.255" width="49.574" height="427.257" style="fill:#bed1e8;stroke:#000;stroke-width:4.17px;"/><rect x="546.25" y="431.566" width="49.574" height="538.946" style="fill:#bed1e8;stroke:#000;stroke-width:4.17px;"/><rect x="496.677" y="479.107" width="49.574" height="491.405" style="fill:#bed1e8;stroke:#000;stroke-width:4.17px;"/><rect x="447.103" y="596.59" width="49.574" height="373.922" style="fill:#bed1e8;stroke:#000;stroke-width:4.17px;"/><rect x="397.529" y="759.188" width="49.574" height="211.325" style="fill:#d5f4e1;stroke:#000;stroke-width:4.17px;"/><rect x="347.956" y="845.42" width="49.574" height="125.092" style="fill:#d5f4e1;stroke:#000;stroke-width:4.17px;"/><rect x="298.382" y="911.111" width="49.574" height="59.402" style="fill:#d5f4e1;stroke:#000;stroke-width:4.17px;"/><rect x="248.809" y="946.461" width="49.574" height="24.051" style="fill:#f9f6bd;stroke:#000;stroke-width:4.17px;"/><rect x="199.235" y="958.487" width="49.574" height="12.026" style="fill:#f9f6bd;stroke:#000;stroke-width:4.17px;"/><rect x="100.088" y="958.487" width="49.574" height="12.026" style="fill:#fee2c7;stroke:#000;stroke-width:4.17px;"/><rect x="1041.99" y="964.419" width="49.574" height="6.093" style="fill:#fee2c7;stroke:#000;stroke-width:4.17px;"/><rect x="149.661" y="964.499" width="49.574" height="6.013" style="fill:#f9f6bd;stroke:#000;stroke-width:4.17px;"/><rect x="694.971" y="653.805" width="49.574" height="316.707" style="fill:#bed1e8;stroke:#000;stroke-width:4.17px;"/><rect x="744.545" y="797.516" width="49.574" height="172.997" style="fill:#d5f4e1;stroke:#000;stroke-width:4.17px;"/><rect x="794.118" y="864.85" width="49.574" height="105.582" style="fill:#d5f4e1;stroke:#000;stroke-width:4.17px;"/><rect x="843.692" y="911.111" width="49.574" height="59.402" style="fill:#d5f4e1;stroke:#000;stroke-width:4.17px;"/><rect x="893.266" y="946.461" width="49.574" height="24.051" style="fill:#f9f6bd;stroke:#000;stroke-width:4.17px;"/><rect x="942.839" y="958.487" width="49.574" height="12.026" style="fill:#f9f6bd;stroke:#000;stroke-width:4.17px;"/><rect x="992.413" y="958.487" width="49.574" height="11.945" style="fill:#f9f6bd;stroke:#000;stroke-width:4.17px;"/></g><g id="ticks"><path d="M595.824,970.512l0,22.671" style="fill:none;stroke:#000;stroke-width:4.17px;"/><path d="M744.545,970.512l0,22.671" style="fill:none;stroke:#000;stroke-width:4.17px;"/><path d="M149.661,970.512l0,22.671" style="fill:none;stroke:#000;stroke-width:4.17px;"/><path d="M893.266,970.512l0,22.671" style="fill:none;stroke:#000;stroke-width:4.17px;"/><path d="M298.382,970.512l0,22.671" style="fill:none;stroke:#000;stroke-width:4.17px;"/><path d="M1041.99,970.512l0,22.671" style="fill:none;stroke:#000;stroke-width:4.17px;"/><path d="M447.103,970.512l0,22.671" style="fill:none;stroke:#000;stroke-width:4.17px;"/></g><g id="ticklabels"><path d="M595.849,1046.02c6.35,0 10.2,-5.95 10.2,-16.65c0,-10.7 -3.85,-16.45 -10.2,-16.45c-6.4,0 -10.25,5.75 -10.25,16.45c0,10.7 3.85,16.65 10.25,16.65Zm0,-3.3c-3.75,0 -6.25,-4 -6.25,-13.35c0,-9.35 2.5,-13.15 6.25,-13.15c3.7,0 6.2,3.8 6.2,13.15c0,9.35 -2.5,13.35 -6.2,13.35Z" style="fill-rule:nonzero;"/><path d="M736.07,1045.42l18,0l0,-3.4l-6.6,0l0,-28.5l-3.15,0c-1.75,1.05 -3.85,1.85 -6.75,2.35l0,2.65l5.8,0l0,23.5l-7.3,0l0,3.4Z" style="fill-rule:nonzero;"/><rect x="423.953" y="1029.36" width="21.45" height="3.1" style="fill-rule:nonzero;"/><path d="M451.053,1047.41l18,0l0,-3.4l-6.6,0l0,-28.5l-3.15,0c-1.75,1.05 -3.85,1.85 -6.75,2.35l0,2.65l5.8,0l0,23.5l-7.3,0l0,3.4Z" style="fill-rule:nonzero;"/><path d="M882.841,1045.42l20.6,0l0,-3.55l-9.6,0c-1.65,0 -3.6,0.15 -5.35,0.3c7.75,-7.95 13.35,-13.7 13.35,-19.9c0,-5.6 -3.65,-9.35 -9.55,-9.35c-4.1,0 -6.95,1.95 -9.6,4.95l2.3,2.25c1.85,-2.15 4.15,-3.85 6.8,-3.85c4.05,0 6.05,2.6 6.05,6.25c0,5.15 -5.45,11.05 -15,20.4l0,2.5Z" style="fill-rule:nonzero;"/><rect x="275.232" y="1027.37" width="21.45" height="3.1" style="fill-rule:nonzero;"/><path d="M300.382,1045.42l20.6,0l0,-3.55l-9.6,0c-1.65,0 -3.6,0.15 -5.35,0.3c7.75,-7.95 13.35,-13.7 13.35,-19.9c0,-5.6 -3.65,-9.35 -9.55,-9.35c-4.1,0 -6.95,1.95 -9.6,4.95l2.3,2.25c1.85,-2.15 4.15,-3.85 6.8,-3.85c4.05,0 6.05,2.6 6.05,6.25c0,5.15 -5.45,11.05 -15,20.4l0,2.5Z" style="fill-rule:nonzero;"/><path d="M1041.36,1046.02c5.85,0 10.5,-3.45 10.5,-9.1c0,-4.4 -3.05,-7.2 -6.9,-8.1l0,-0.2c3.45,-1.3 5.8,-3.75 5.8,-7.6c0,-5.15 -4,-8.1 -9.55,-8.1c-3.75,0 -6.7,1.7 -9.15,4l2.2,2.6c1.9,-1.9 4.15,-3.25 6.8,-3.25c3.4,0 5.5,1.95 5.5,5.05c0,3.35 -2.25,5.95 -9.05,5.95l0,3.15c7.6,0 10.2,2.55 10.2,6.35c0,3.55 -2.75,5.85 -6.6,5.85c-3.75,0 -6.25,-1.8 -8.15,-3.8l-2.1,2.7c2.15,2.35 5.4,4.5 10.5,4.5Z" style="fill-rule:nonzero;"/><rect x="126.511" y="1027.37" width="21.45" height="3.1" style="fill-rule:nonzero;"/><path d="M161.461,1046.02c5.85,0 10.5,-3.45 10.5,-9.1c0,-4.4 -3.05,-7.2 -6.9,-8.1l0,-0.2c3.45,-1.3 5.8,-3.75 5.8,-7.6c0,-5.15 -4,-8.1 -9.55,-8.1c-3.75,0 -6.7,1.7 -9.15,4l2.2,2.6c1.9,-1.9 4.15,-3.25 6.8,-3.25c3.4,0 5.5,1.95 5.5,5.05c0,3.35 -2.25,5.95 -9.05,5.95l0,3.15c7.6,0 10.2,2.55 10.2,6.35c0,3.55 -2.75,5.85 -6.6,5.85c-3.75,0 -6.25,-1.8 -8.15,-3.8l-2.1,2.7c2.15,2.35 5.4,4.5 10.5,4.5Z" style="fill-rule:nonzero;"/></g><path d="M265.274,1122.35l8.4,0c9.9,0 15.3,-6.1 15.3,-16.55c0,-10.4 -5.4,-16.25 -15.5,-16.25l-8.2,0l0,32.8Zm4.15,-3.4l0,-26l3.75,0c7.65,0 11.5,4.6 11.5,12.85c0,8.3 -3.85,13.15 -11.5,13.15l-3.75,0Z" style="fill-rule:nonzero;"/><path d="M295.624,1122.35l4.1,0l0,-24.3l-4.1,0l0,24.3Zm2.05,-29.3c1.6,0 2.75,-1.05 2.75,-2.7c0,-1.6 -1.15,-2.7 -2.75,-2.7c-1.6,0 -2.75,1.1 -2.75,2.7c0,1.65 1.15,2.7 2.75,2.7Z" style="fill-rule:nonzero;"/><path d="M314.274,1122.95c5.75,0 8.9,-3.3 8.9,-7.25c0,-4.4 -3.7,-6.05 -7.5,-7.4c-3,-1.05 -5.15,-1.95 -5.15,-4.15c0,-1.85 1.4,-3.5 4.45,-3.5c2.2,0 3.95,0.7 5.65,1.9l1.9,-2.35c-1.9,-1.6 -4.55,-2.75 -7.55,-2.75c-5.3,0 -8.4,3 -8.4,6.9c0,4 3.5,5.75 7.15,7.05c2.75,1 5.5,2.05 5.5,4.55c0,2.1 -1.6,3.8 -4.8,3.8c-3,0 -5.2,-0.95 -7.3,-2.7l-1.9,2.4c2.25,2.2 5.5,3.5 9.05,3.5Z" style="fill-rule:nonzero;"/><path d="M335.524,1122.95c1.65,0 3.25,-0.45 4.55,-1.05l-0.85,-2.9c-0.95,0.45 -1.9,0.6 -2.75,0.6c-2.8,0 -3.75,-1.7 -3.75,-4.7l0,-13.5l6.55,0l0,-3.35l-6.55,0l0,-7.8l-3.45,0l-0.5,7.8l-3.8,0.25l0,3.1l3.6,0l0,13.45c0,4.8 1.75,8.1 6.95,8.1Z" style="fill-rule:nonzero;"/><path d="M349.324,1122.95c3.05,0 5.65,-1.55 8.05,-3.5l0.15,0l0.35,2.9l3.4,0l0,-14.9c0,-6.05 -2.55,-10 -8.45,-10c-3.9,0 -7.3,1.65 -9.55,3.15l1.6,2.8c1.9,-1.2 4.45,-2.5 7.25,-2.5c3.95,0 5,2.95 5.05,6c-10.4,1.15 -15,3.7 -15,9.15c0,4.4 3.1,6.9 7.15,6.9Zm1.15,-3.4c-2.35,0 -4.25,-1.05 -4.25,-3.75c0,-3.15 2.75,-5 10.95,-5.95l0,6.55c-2.35,2.1 -4.35,3.15 -6.7,3.15Z" style="fill-rule:nonzero;"/><path d="M368.924,1122.35l4.1,0l0,-17.6c2.45,-2.45 4.15,-3.75 6.65,-3.75c3.2,0 4.6,1.95 4.6,6.5l0,14.85l4.1,0l0,-15.4c0,-6.2 -2.3,-9.5 -7.4,-9.5c-3.35,0 -5.85,1.8 -8.15,4.1l-0.15,0l-0.35,-3.5l-3.4,0l0,24.3Z" style="fill-rule:nonzero;"/><path d="M405.874,1122.95c2.9,0 5.65,-1.1 7.85,-3.1l-1.8,-2.6c-1.45,1.3 -3.45,2.3 -5.7,2.3c-4.45,0 -7.5,-3.75 -7.5,-9.3c0,-5.6 3.2,-9.4 7.6,-9.4c2,0 3.55,0.8 4.9,2.05l2.05,-2.6c-1.7,-1.6 -3.9,-2.85 -7.1,-2.85c-6.25,0 -11.7,4.65 -11.7,12.8c0,8.05 4.95,12.7 11.4,12.7Z" style="fill-rule:nonzero;"/><path d="M427.224,1100.8c3.75,0 5.9,2.55 5.9,7.25l-12.65,0c0.65,-5.2 3.75,-7.25 6.75,-7.25Zm0.65,22.15c3.3,0 5.9,-1.05 8.05,-2.5l-1.5,-2.7c-1.7,1.15 -3.75,1.85 -6.05,1.85c-4.1,0 -7.6,-2.85 -8,-8.3l16.25,0c0.15,-0.8 0.2,-1.6 0.2,-2.45c0,-6.9 -3.4,-11.4 -9.65,-11.4c-5.6,0 -11,4.85 -11,12.75c0,8.05 5.15,12.75 11.7,12.75Z" style="fill-rule:nonzero;"/><path d="M453.524,1122.35l4.1,0l0,-20.95l5.15,0l0,-3.35l-5.15,0l0,-3.85c0,-3.1 1.1,-4.7 3.4,-4.7c0.9,0 1.75,0.15 2.75,0.45l0.9,-3c-1.05,-0.45 -2.55,-0.8 -4.05,-0.8c-4.85,0 -7.1,3.1 -7.1,8.05l0,3.85l-3.3,0.25l0,3.1l3.3,0l0,20.95Z" style="fill-rule:nonzero;"/><path d="M467.424,1122.35l4.1,0l0,-15.6c1.65,-4.1 4.1,-5.6 6.15,-5.6c1,0 1.5,0.1 2.25,0.3l0.9,-3.5c-0.8,-0.35 -1.55,-0.5 -2.6,-0.5c-2.75,0 -5.25,1.95 -6.9,5l-0.15,0l-0.35,-4.4l-3.4,0l0,24.3Z" style="fill-rule:nonzero;"/><path d="M493.724,1122.95c5.95,0 11.25,-4.65 11.25,-12.7c0,-8.15 -5.3,-12.8 -11.25,-12.8c-5.95,0 -11.25,4.65 -11.25,12.8c0,8.05 5.3,12.7 11.25,12.7Zm0,-3.4c-4.15,0 -7,-3.75 -7,-9.3c0,-5.6 2.85,-9.4 7,-9.4c4.2,0 7,3.8 7,9.4c0,5.55 -2.8,9.3 -7,9.3Z" style="fill-rule:nonzero;"/><path d="M511.374,1122.35l4.1,0l0,-17.6c2.25,-2.5 4.3,-3.75 6.1,-3.75c3.1,0 4.55,1.95 4.55,6.5l0,14.85l4.1,0l0,-17.6c2.25,-2.5 4.2,-3.75 6.1,-3.75c3.05,0 4.5,1.95 4.5,6.5l0,14.85l4.1,0l0,-15.4c0,-6.2 -2.4,-9.5 -7.4,-9.5c-2.95,0 -5.45,1.9 -8,4.65c-1,-2.9 -3,-4.65 -6.7,-4.65c-2.9,0 -5.45,1.8 -7.55,4.1l-0.15,0l-0.35,-3.5l-3.4,0l0,24.3Z" style="fill-rule:nonzero;"/><path d="M571.124,1122.95c2.85,0 5.45,-1.6 7.35,-3.45l0.15,0l0.35,2.85l3.4,0l0,-35.6l-4.15,0l0,9.35l0.2,4.15c-2.15,-1.75 -4,-2.8 -6.8,-2.8c-5.55,0 -10.55,4.9 -10.55,12.8c0,8.1 3.95,12.7 10.05,12.7Zm0.9,-3.45c-4.25,0 -6.7,-3.5 -6.7,-9.3c0,-5.55 3.1,-9.3 7,-9.3c2,0 3.85,0.7 5.9,2.55l0,12.7c-2,2.25 -3.95,3.35 -6.2,3.35Z" style="fill-rule:nonzero;"/><path d="M590.574,1122.35l4.1,0l0,-24.3l-4.1,0l0,24.3Zm2.05,-29.3c1.6,0 2.75,-1.05 2.75,-2.7c0,-1.6 -1.15,-2.7 -2.75,-2.7c-1.6,0 -2.75,1.1 -2.75,2.7c0,1.65 1.15,2.7 2.75,2.7Z" style="fill-rule:nonzero;"/><path d="M609.224,1122.95c5.75,0 8.9,-3.3 8.9,-7.25c0,-4.4 -3.7,-6.05 -7.5,-7.4c-3,-1.05 -5.15,-1.95 -5.15,-4.15c0,-1.85 1.4,-3.5 4.45,-3.5c2.2,0 3.95,0.7 5.65,1.9l1.9,-2.35c-1.9,-1.6 -4.55,-2.75 -7.55,-2.75c-5.3,0 -8.4,3 -8.4,6.9c0,4 3.5,5.75 7.15,7.05c2.75,1 5.5,2.05 5.5,4.55c0,2.1 -1.6,3.8 -4.8,3.8c-3,0 -5.2,-0.95 -7.3,-2.7l-1.9,2.4c2.25,2.2 5.5,3.5 9.05,3.5Z" style="fill-rule:nonzero;"/><path d="M630.474,1122.95c1.65,0 3.25,-0.45 4.55,-1.05l-0.85,-2.9c-0.95,0.45 -1.9,0.6 -2.75,0.6c-2.8,0 -3.75,-1.7 -3.75,-4.7l0,-13.5l6.55,0l0,-3.35l-6.55,0l0,-7.8l-3.45,0l-0.5,7.8l-3.8,0.25l0,3.1l3.6,0l0,13.45c0,4.8 1.75,8.1 6.95,8.1Z" style="fill-rule:nonzero;"/><path d="M639.724,1122.35l4.1,0l0,-15.6c1.65,-4.1 4.1,-5.6 6.15,-5.6c1,0 1.5,0.1 2.25,0.3l0.9,-3.5c-0.8,-0.35 -1.55,-0.5 -2.6,-0.5c-2.75,0 -5.25,1.95 -6.9,5l-0.15,0l-0.35,-4.4l-3.4,0l0,24.3Z" style="fill-rule:nonzero;"/><path d="M657.074,1122.35l4.1,0l0,-24.3l-4.1,0l0,24.3Zm2.05,-29.3c1.6,0 2.75,-1.05 2.75,-2.7c0,-1.6 -1.15,-2.7 -2.75,-2.7c-1.6,0 -2.75,1.1 -2.75,2.7c0,1.65 1.15,2.7 2.75,2.7Z" style="fill-rule:nonzero;"/><path d="M680.124,1122.95c5.55,0 10.5,-4.85 10.5,-13.15c0,-7.5 -3.35,-12.35 -9.65,-12.35c-2.7,0 -5.4,1.45 -7.6,3.4l0.1,-4.4l0,-9.7l-4.1,0l0,35.6l3.3,0l0.35,-2.5l0.15,0c2.15,1.95 4.7,3.1 6.95,3.1Zm-0.7,-3.45c-1.6,0 -3.8,-0.7 -5.95,-2.55l0,-12.75c2.3,-2.15 4.45,-3.3 6.5,-3.3c4.6,0 6.4,3.6 6.4,8.95c0,6 -2.95,9.65 -6.95,9.65Z" style="fill-rule:nonzero;"/><path d="M704.124,1122.95c3.35,0 5.75,-1.75 8,-4.4l0.15,0l0.35,3.8l3.4,0l0,-24.3l-4.1,0l0,17.25c-2.3,2.85 -4.05,4.1 -6.55,4.1c-3.2,0 -4.55,-1.95 -4.55,-6.5l0,-14.85l-4.15,0l0,15.4c0,6.2 2.3,9.5 7.45,9.5Z" style="fill-rule:nonzero;"/><path d="M731.874,1122.95c1.65,0 3.25,-0.45 4.55,-1.05l-0.85,-2.9c-0.95,0.45 -1.9,0.6 -2.75,0.6c-2.8,0 -3.75,-1.7 -3.75,-4.7l0,-13.5l6.55,0l0,-3.35l-6.55,0l0,-7.8l-3.45,0l-0.5,7.8l-3.8,0.25l0,3.1l3.6,0l0,13.45c0,4.8 1.75,8.1 6.95,8.1Z" style="fill-rule:nonzero;"/><path d="M741.124,1122.35l4.1,0l0,-24.3l-4.1,0l0,24.3Zm2.05,-29.3c1.6,0 2.75,-1.05 2.75,-2.7c0,-1.6 -1.15,-2.7 -2.75,-2.7c-1.6,0 -2.75,1.1 -2.75,2.7c0,1.65 1.15,2.7 2.75,2.7Z" style="fill-rule:nonzero;"/><path d="M762.874,1122.95c5.95,0 11.25,-4.65 11.25,-12.7c0,-8.15 -5.3,-12.8 -11.25,-12.8c-5.95,0 -11.25,4.65 -11.25,12.8c0,8.05 5.3,12.7 11.25,12.7Zm0,-3.4c-4.15,0 -7,-3.75 -7,-9.3c0,-5.6 2.85,-9.4 7,-9.4c4.2,0 7,3.8 7,9.4c0,5.55 -2.8,9.3 -7,9.3Z" style="fill-rule:nonzero;"/><path d="M780.524,1122.35l4.1,0l0,-17.6c2.45,-2.45 4.15,-3.75 6.65,-3.75c3.2,0 4.6,1.95 4.6,6.5l0,14.85l4.1,0l0,-15.4c0,-6.2 -2.3,-9.5 -7.4,-9.5c-3.35,0 -5.85,1.8 -8.15,4.1l-0.15,0l-0.35,-3.5l-3.4,0l0,24.3Z" style="fill-rule:nonzero;"/><path d="M817.874,1122.35l4.1,0l0,-17.6c2.25,-2.5 4.3,-3.75 6.1,-3.75c3.1,0 4.55,1.95 4.55,6.5l0,14.85l4.1,0l0,-17.6c2.25,-2.5 4.2,-3.75 6.1,-3.75c3.05,0 4.5,1.95 4.5,6.5l0,14.85l4.1,0l0,-15.4c0,-6.2 -2.4,-9.5 -7.4,-9.5c-2.95,0 -5.45,1.9 -8,4.65c-1,-2.9 -3,-4.65 -6.7,-4.65c-2.9,0 -5.45,1.8 -7.55,4.1l-0.15,0l-0.35,-3.5l-3.4,0l0,24.3Z" style="fill-rule:nonzero;"/><path d="M868.524,1100.8c3.75,0 5.9,2.55 5.9,7.25l-12.65,0c0.65,-5.2 3.75,-7.25 6.75,-7.25Zm0.65,22.15c3.3,0 5.9,-1.05 8.05,-2.5l-1.5,-2.7c-1.7,1.15 -3.75,1.85 -6.05,1.85c-4.1,0 -7.6,-2.85 -8,-8.3l16.25,0c0.15,-0.8 0.2,-1.6 0.2,-2.45c0,-6.9 -3.4,-11.4 -9.65,-11.4c-5.6,0 -11,4.85 -11,12.75c0,8.05 5.15,12.75 11.7,12.75Z" style="fill-rule:nonzero;"/><path d="M889.024,1122.95c3.05,0 5.65,-1.55 8.05,-3.5l0.15,0l0.35,2.9l3.4,0l0,-14.9c0,-6.05 -2.55,-10 -8.45,-10c-3.9,0 -7.3,1.65 -9.55,3.15l1.6,2.8c1.9,-1.2 4.45,-2.5 7.25,-2.5c3.95,0 5,2.95 5.05,6c-10.4,1.15 -15,3.7 -15,9.15c0,4.4 3.1,6.9 7.15,6.9Zm1.15,-3.4c-2.35,0 -4.25,-1.05 -4.25,-3.75c0,-3.15 2.75,-5 10.95,-5.95l0,6.55c-2.35,2.1 -4.35,3.15 -6.7,3.15Z" style="fill-rule:nonzero;"/><path d="M908.624,1122.35l4.1,0l0,-17.6c2.45,-2.45 4.15,-3.75 6.65,-3.75c3.2,0 4.6,1.95 4.6,6.5l0,14.85l4.1,0l0,-15.4c0,-6.2 -2.3,-9.5 -7.4,-9.5c-3.35,0 -5.85,1.8 -8.15,4.1l-0.15,0l-0.35,-3.5l-3.4,0l0,24.3Z" style="fill-rule:nonzero;"/></g><g id="errorbars"><g id="bars1" serif:id="bars"><path d="M447.103,251.657l0,125" style="fill:none;stroke:#000;stroke-width:6.25px;stroke-linejoin:miter;stroke-miterlimit:10;"/><path d="M744.545,251.657l0,125" style="fill:none;stroke:#000;stroke-width:6.25px;stroke-linejoin:miter;stroke-miterlimit:10;"/><path d="M447.103,314.157l297.442,0" style="fill:none;stroke:#000;stroke-width:6.25px;"/><path d="M298.382,150.478l0,83.333" style="fill:none;stroke:#545454;stroke-width:4.17px;stroke-linejoin:miter;stroke-miterlimit:10;"/><path d="M893.266,150.478l0,83.333" style="fill:none;stroke:#545454;stroke-width:4.17px;stroke-linejoin:miter;stroke-miterlimit:10;"/><path d="M298.382,192.145l594.884,0" style="fill:none;stroke:#545454;stroke-width:4.17px;"/><path d="M149.661,59.389l0,83.333" style="fill:none;stroke:#545454;stroke-width:4.17px;stroke-linejoin:miter;stroke-miterlimit:10;"/><path d="M1041.99,59.389l0,83.333" style="fill:none;stroke:#545454;stroke-width:4.17px;stroke-linejoin:miter;stroke-miterlimit:10;"/><path d="M149.661,101.055l892.325,0" style="fill:none;stroke:#545454;stroke-width:4.17px;"/></g><g id="labels"><g transform="matrix(1,0,0,1,-39.3129,-4.54635)"><g transform="matrix(50,0,0,50,517.339,284.082)"><path d="M0.079,0l0.36,0l0,-0.068l-0.132,0l0,-0.57l-0.063,0c-0.035,0.021 -0.077,0.037 -0.135,0.047l0,0.053l0.116,0l0,0.47l-0.146,0l0,0.068Z" style="fill-rule:nonzero;"/></g><g transform="matrix(50,0,0,50,542.189,284.082)"><path d="M0.272,0.012c0.138,0 0.223,-0.083 0.223,-0.187c0,-0.097 -0.059,-0.142 -0.135,-0.175l-0.093,-0.04c-0.052,-0.022 -0.109,-0.046 -0.109,-0.109c0,-0.059 0.049,-0.096 0.122,-0.096c0.057,0 0.108,0.024 0.148,0.061l0.046,-0.055c-0.046,-0.046 -0.114,-0.079 -0.194,-0.079c-0.119,0 -0.206,0.074 -0.206,0.174c0,0.096 0.071,0.143 0.133,0.169l0.094,0.041c0.062,0.028 0.109,0.049 0.109,0.116c0,0.064 -0.051,0.107 -0.137,0.107c-0.07,0 -0.137,-0.031 -0.184,-0.08l-0.047,0.055c0.057,0.061 0.136,0.098 0.23,0.098Z" style="fill-rule:nonzero;"/></g><g transform="matrix(50,0,0,50,567.689,284.082)"><path d="M0.235,0.012c0.033,0 0.065,-0.009 0.091,-0.021l-0.017,-0.058c-0.019,0.009 -0.038,0.012 -0.055,0.012c-0.056,0 -0.075,-0.034 -0.075,-0.094l0,-0.27l0.131,0l0,-0.067l-0.131,0l0,-0.156l-0.069,0l-0.01,0.156l-0.076,0.005l0,0.062l0.072,0l0,0.269c0,0.096 0.035,0.162 0.139,0.162Z" style="fill-rule:nonzero;"/></g><g transform="matrix(50,0,0,50,583.889,284.082)"><path d="M0.248,0.012c0.057,0 0.109,-0.032 0.147,-0.069l0.003,0l0.007,0.057l0.068,0l0,-0.712l-0.083,0l0,0.187l0.004,0.083c-0.043,-0.035 -0.08,-0.056 -0.136,-0.056c-0.111,0 -0.211,0.098 -0.211,0.256c0,0.162 0.079,0.254 0.201,0.254Zm0.018,-0.069c-0.085,0 -0.134,-0.07 -0.134,-0.186c0,-0.111 0.062,-0.186 0.14,-0.186c0.04,0 0.077,0.014 0.118,0.051l0,0.254c-0.04,0.045 -0.079,0.067 -0.124,0.067Z" style="fill-rule:nonzero;"/></g><g transform="matrix(50,0,0,50,621.639,284.082)"><path d="M0.305,-0.667l0.145,0.25l-0.05,0l-0.095,-0.165l-0.095,0.165l-0.048,0l0.143,-0.25Zm0.209,0.304l0,0.05l-0.417,0.001l0.001,-0.051l0.416,0Zm0,0.109l0,0.051l-0.417,0l0,-0.05l0.417,-0.001Z" style="fill-rule:nonzero;"/></g><g transform="matrix(50,0,0,50,662.035,284.082)"><path d="M0.261,-0.328c0.079,0 0.118,0.052 0.118,0.135c0,0.084 -0.048,0.14 -0.111,0.14c-0.081,0 -0.13,-0.067 -0.14,-0.191c0.04,-0.059 0.092,-0.084 0.133,-0.084Zm0.007,0.34c0.103,0 0.189,-0.083 0.189,-0.205c0,-0.131 -0.072,-0.197 -0.182,-0.197c-0.052,0 -0.109,0.031 -0.149,0.08c0.004,-0.202 0.079,-0.271 0.168,-0.271c0.04,0 0.079,0.019 0.105,0.05l0.046,-0.051c-0.036,-0.039 -0.085,-0.068 -0.154,-0.068c-0.127,0 -0.243,0.099 -0.243,0.355c0,0.205 0.095,0.307 0.22,0.307Z" style="fill-rule:nonzero;"/></g><g transform="matrix(50,0,0,50,686.885,284.082)"><path d="M0.25,0.012c0.124,0 0.206,-0.075 0.206,-0.17c0,-0.086 -0.054,-0.131 -0.111,-0.164l0,-0.004c0.039,-0.03 0.088,-0.087 0.088,-0.154c0,-0.099 -0.069,-0.17 -0.18,-0.17c-0.103,0 -0.181,0.066 -0.181,0.164c0,0.067 0.042,0.114 0.089,0.147l0,0.004c-0.06,0.032 -0.12,0.089 -0.12,0.172c0,0.101 0.089,0.175 0.209,0.175Zm0.045,-0.36c-0.077,-0.03 -0.147,-0.062 -0.147,-0.138c0,-0.062 0.044,-0.103 0.103,-0.103c0.07,0 0.111,0.05 0.111,0.113c0,0.047 -0.024,0.09 -0.067,0.128Zm-0.043,0.299c-0.078,0 -0.137,-0.051 -0.137,-0.122c0,-0.058 0.038,-0.105 0.089,-0.139c0.092,0.037 0.173,0.067 0.173,0.149c0,0.066 -0.051,0.112 -0.125,0.112Z" style="fill-rule:nonzero;"/></g><g transform="matrix(50,0,0,50,711.735,284.082)"><path d="M0.184,-0.254c0.089,0 0.149,-0.075 0.149,-0.208c0,-0.131 -0.06,-0.206 -0.149,-0.206c-0.09,0 -0.149,0.075 -0.149,0.206c0,0.133 0.059,0.208 0.149,0.208Zm0,-0.051c-0.052,0 -0.087,-0.053 -0.087,-0.157c0,-0.104 0.035,-0.155 0.087,-0.155c0.051,0 0.086,0.051 0.086,0.155c0,0.104 -0.035,0.157 -0.086,0.157Zm0.019,0.317l0.056,0l0.362,-0.68l-0.056,0l-0.362,0.68Zm0.438,0c0.089,0 0.149,-0.075 0.149,-0.208c0,-0.131 -0.06,-0.206 -0.149,-0.206c-0.09,0 -0.149,0.075 -0.149,0.206c0,0.133 0.059,0.208 0.149,0.208Zm0,-0.051c-0.052,0 -0.087,-0.053 -0.087,-0.157c0,-0.104 0.035,-0.155 0.087,-0.155c0.051,0 0.086,0.051 0.086,0.155c0,0.104 -0.035,0.157 -0.086,0.157Z" style="fill-rule:nonzero;"/></g></g><g transform="matrix(1,0,0,1,-188.034,-111.097)"><g transform="matrix(50,0,0,50,666.06,284.082)"><path d="M0.04,0l0.412,0l0,-0.071l-0.192,0c-0.033,0 -0.072,0.003 -0.107,0.006c0.155,-0.159 0.267,-0.274 0.267,-0.398c0,-0.112 -0.073,-0.187 -0.191,-0.187c-0.082,0 -0.139,0.039 -0.192,0.099l0.046,0.045c0.037,-0.043 0.083,-0.077 0.136,-0.077c0.081,0 0.121,0.052 0.121,0.125c0,0.103 -0.109,0.221 -0.3,0.408l0,0.05Z" style="fill-rule:nonzero;"/></g><g transform="matrix(50,0,0,50,690.91,284.082)"><path d="M0.272,0.012c0.138,0 0.223,-0.083 0.223,-0.187c0,-0.097 -0.059,-0.142 -0.135,-0.175l-0.093,-0.04c-0.052,-0.022 -0.109,-0.046 -0.109,-0.109c0,-0.059 0.049,-0.096 0.122,-0.096c0.057,0 0.108,0.024 0.148,0.061l0.046,-0.055c-0.046,-0.046 -0.114,-0.079 -0.194,-0.079c-0.119,0 -0.206,0.074 -0.206,0.174c0,0.096 0.071,0.143 0.133,0.169l0.094,0.041c0.062,0.028 0.109,0.049 0.109,0.116c0,0.064 -0.051,0.107 -0.137,0.107c-0.07,0 -0.137,-0.031 -0.184,-0.08l-0.047,0.055c0.057,0.061 0.136,0.098 0.23,0.098Z" style="fill-rule:nonzero;"/></g><g transform="matrix(50,0,0,50,716.41,284.082)"><path d="M0.235,0.012c0.033,0 0.065,-0.009 0.091,-0.021l-0.017,-0.058c-0.019,0.009 -0.038,0.012 -0.055,0.012c-0.056,0 -0.075,-0.034 -0.075,-0.094l0,-0.27l0.131,0l0,-0.067l-0.131,0l0,-0.156l-0.069,0l-0.01,0.156l-0.076,0.005l0,0.062l0.072,0l0,0.269c0,0.096 0.035,0.162 0.139,0.162Z" style="fill-rule:nonzero;"/></g><g transform="matrix(50,0,0,50,732.61,284.082)"><path d="M0.248,0.012c0.057,0 0.109,-0.032 0.147,-0.069l0.003,0l0.007,0.057l0.068,0l0,-0.712l-0.083,0l0,0.187l0.004,0.083c-0.043,-0.035 -0.08,-0.056 -0.136,-0.056c-0.111,0 -0.211,0.098 -0.211,0.256c0,0.162 0.079,0.254 0.201,0.254Zm0.018,-0.069c-0.085,0 -0.134,-0.07 -0.134,-0.186c0,-0.111 0.062,-0.186 0.14,-0.186c0.04,0 0.077,0.014 0.118,0.051l0,0.254c-0.04,0.045 -0.079,0.067 -0.124,0.067Z" style="fill-rule:nonzero;"/></g><g transform="matrix(50,0,0,50,770.36,284.082)"><path d="M0.305,-0.667l0.145,0.25l-0.05,0l-0.095,-0.165l-0.095,0.165l-0.048,0l0.143,-0.25Zm0.209,0.304l0,0.05l-0.417,0.001l0.001,-0.051l0.416,0Zm0,0.109l0,0.051l-0.417,0l0,-0.05l0.417,-0.001Z" style="fill-rule:nonzero;"/></g><g transform="matrix(50,0,0,50,810.755,284.082)"><path d="M0.117,-0.445c0,-0.084 0.049,-0.14 0.111,-0.14c0.081,0 0.13,0.066 0.141,0.19c-0.041,0.06 -0.092,0.085 -0.134,0.085c-0.079,0 -0.118,-0.052 -0.118,-0.135Zm0.088,0.457c0.127,0 0.243,-0.099 0.243,-0.355c0,-0.205 -0.094,-0.307 -0.22,-0.307c-0.102,0 -0.188,0.083 -0.188,0.205c0,0.131 0.071,0.197 0.181,0.197c0.053,0 0.11,-0.031 0.15,-0.082c-0.003,0.204 -0.079,0.274 -0.169,0.274c-0.04,0 -0.079,-0.02 -0.105,-0.051l-0.046,0.052c0.035,0.038 0.086,0.067 0.154,0.067Z" style="fill-rule:nonzero;"/></g><g transform="matrix(50,0,0,50,835.605,284.082)"><path d="M0.234,0.012c0.111,0 0.215,-0.078 0.215,-0.216c0,-0.138 -0.089,-0.2 -0.198,-0.2c-0.039,0 -0.068,0.01 -0.098,0.026l0.017,-0.189l0.247,0l0,-0.071l-0.319,0l-0.021,0.307l0.044,0.028c0.038,-0.025 0.065,-0.039 0.109,-0.039c0.082,0 0.136,0.052 0.136,0.14c0,0.089 -0.062,0.146 -0.14,0.146c-0.075,0 -0.123,-0.035 -0.161,-0.073l-0.04,0.054c0.044,0.044 0.107,0.087 0.209,0.087Z" style="fill-rule:nonzero;"/></g><g transform="matrix(50,0,0,50,860.455,284.082)"><path d="M0.184,-0.254c0.089,0 0.149,-0.075 0.149,-0.208c0,-0.131 -0.06,-0.206 -0.149,-0.206c-0.09,0 -0.149,0.075 -0.149,0.206c0,0.133 0.059,0.208 0.149,0.208Zm0,-0.051c-0.052,0 -0.087,-0.053 -0.087,-0.157c0,-0.104 0.035,-0.155 0.087,-0.155c0.051,0 0.086,0.051 0.086,0.155c0,0.104 -0.035,0.157 -0.086,0.157Zm0.019,0.317l0.056,0l0.362,-0.68l-0.056,0l-0.362,0.68Zm0.438,0c0.089,0 0.149,-0.075 0.149,-0.208c0,-0.131 -0.06,-0.206 -0.149,-0.206c-0.09,0 -0.149,0.075 -0.149,0.206c0,0.133 0.059,0.208 0.149,0.208Zm0,-0.051c-0.052,0 -0.087,-0.053 -0.087,-0.157c0,-0.104 0.035,-0.155 0.087,-0.155c0.051,0 0.086,0.051 0.086,0.155c0,0.104 -0.035,0.157 -0.086,0.157Z" style="fill-rule:nonzero;"/></g></g><g transform="matrix(1,0,0,1,-188.034,-217.648)"><g transform="matrix(50,0,0,50,647.41,284.082)"><path d="M0.236,0.012c0.117,0 0.21,-0.069 0.21,-0.182c0,-0.088 -0.061,-0.144 -0.138,-0.162l0,-0.004c0.069,-0.026 0.116,-0.075 0.116,-0.152c0,-0.103 -0.08,-0.162 -0.191,-0.162c-0.075,0 -0.134,0.034 -0.183,0.08l0.044,0.052c0.038,-0.038 0.083,-0.065 0.136,-0.065c0.068,0 0.11,0.039 0.11,0.101c0,0.067 -0.045,0.119 -0.181,0.119l0,0.063c0.152,0 0.204,0.051 0.204,0.127c0,0.071 -0.055,0.117 -0.132,0.117c-0.075,0 -0.125,-0.036 -0.163,-0.076l-0.042,0.054c0.043,0.047 0.108,0.09 0.21,0.09Z" style="fill-rule:nonzero;"/></g><g transform="matrix(50,0,0,50,672.26,284.082)"><path d="M0.272,0.012c0.138,0 0.223,-0.083 0.223,-0.187c0,-0.097 -0.059,-0.142 -0.135,-0.175l-0.093,-0.04c-0.052,-0.022 -0.109,-0.046 -0.109,-0.109c0,-0.059 0.049,-0.096 0.122,-0.096c0.057,0 0.108,0.024 0.148,0.061l0.046,-0.055c-0.046,-0.046 -0.114,-0.079 -0.194,-0.079c-0.119,0 -0.206,0.074 -0.206,0.174c0,0.096 0.071,0.143 0.133,0.169l0.094,0.041c0.062,0.028 0.109,0.049 0.109,0.116c0,0.064 -0.051,0.107 -0.137,0.107c-0.07,0 -0.137,-0.031 -0.184,-0.08l-0.047,0.055c0.057,0.061 0.136,0.098 0.23,0.098Z" style="fill-rule:nonzero;"/></g><g transform="matrix(50,0,0,50,697.76,284.082)"><path d="M0.235,0.012c0.033,0 0.065,-0.009 0.091,-0.021l-0.017,-0.058c-0.019,0.009 -0.038,0.012 -0.055,0.012c-0.056,0 -0.075,-0.034 -0.075,-0.094l0,-0.27l0.131,0l0,-0.067l-0.131,0l0,-0.156l-0.069,0l-0.01,0.156l-0.076,0.005l0,0.062l0.072,0l0,0.269c0,0.096 0.035,0.162 0.139,0.162Z" style="fill-rule:nonzero;"/></g><g transform="matrix(50,0,0,50,713.96,284.082)"><path d="M0.248,0.012c0.057,0 0.109,-0.032 0.147,-0.069l0.003,0l0.007,0.057l0.068,0l0,-0.712l-0.083,0l0,0.187l0.004,0.083c-0.043,-0.035 -0.08,-0.056 -0.136,-0.056c-0.111,0 -0.211,0.098 -0.211,0.256c0,0.162 0.079,0.254 0.201,0.254Zm0.018,-0.069c-0.085,0 -0.134,-0.07 -0.134,-0.186c0,-0.111 0.062,-0.186 0.14,-0.186c0.04,0 0.077,0.014 0.118,0.051l0,0.254c-0.04,0.045 -0.079,0.067 -0.124,0.067Z" style="fill-rule:nonzero;"/></g><g transform="matrix(50,0,0,50,751.71,284.082)"><path d="M0.305,-0.667l0.145,0.25l-0.05,0l-0.095,-0.165l-0.095,0.165l-0.048,0l0.143,-0.25Zm0.209,0.304l0,0.05l-0.417,0.001l0.001,-0.051l0.416,0Zm0,0.109l0,0.051l-0.417,0l0,-0.05l0.417,-0.001Z" style="fill-rule:nonzero;"/></g><g transform="matrix(50,0,0,50,792.105,284.082)"><path d="M0.117,-0.445c0,-0.084 0.049,-0.14 0.111,-0.14c0.081,0 0.13,0.066 0.141,0.19c-0.041,0.06 -0.092,0.085 -0.134,0.085c-0.079,0 -0.118,-0.052 -0.118,-0.135Zm0.088,0.457c0.127,0 0.243,-0.099 0.243,-0.355c0,-0.205 -0.094,-0.307 -0.22,-0.307c-0.102,0 -0.188,0.083 -0.188,0.205c0,0.131 0.071,0.197 0.181,0.197c0.053,0 0.11,-0.031 0.15,-0.082c-0.003,0.204 -0.079,0.274 -0.169,0.274c-0.04,0 -0.079,-0.02 -0.105,-0.051l-0.046,0.052c0.035,0.038 0.086,0.067 0.154,0.067Z" style="fill-rule:nonzero;"/></g><g transform="matrix(50,0,0,50,816.955,284.082)"><path d="M0.117,-0.445c0,-0.084 0.049,-0.14 0.111,-0.14c0.081,0 0.13,0.066 0.141,0.19c-0.041,0.06 -0.092,0.085 -0.134,0.085c-0.079,0 -0.118,-0.052 -0.118,-0.135Zm0.088,0.457c0.127,0 0.243,-0.099 0.243,-0.355c0,-0.205 -0.094,-0.307 -0.22,-0.307c-0.102,0 -0.188,0.083 -0.188,0.205c0,0.131 0.071,0.197 0.181,0.197c0.053,0 0.11,-0.031 0.15,-0.082c-0.003,0.204 -0.079,0.274 -0.169,0.274c-0.04,0 -0.079,-0.02 -0.105,-0.051l-0.046,0.052c0.035,0.038 0.086,0.067 0.154,0.067Z" style="fill-rule:nonzero;"/></g><g transform="matrix(50,0,0,50,841.805,284.082)"><path d="M0.125,0.012c0.032,0 0.059,-0.026 0.059,-0.062c0,-0.038 -0.027,-0.064 -0.059,-0.064c-0.033,0 -0.06,0.026 -0.06,0.064c0,0.036 0.027,0.062 0.06,0.062Z" style="fill-rule:nonzero;"/></g><g transform="matrix(50,0,0,50,854.255,284.082)"><path d="M0.171,0l0.085,0c0.011,-0.249 0.045,-0.393 0.199,-0.587l0,-0.051l-0.411,0l0,0.071l0.319,0c-0.13,0.176 -0.181,0.327 -0.192,0.567Z" style="fill-rule:nonzero;"/></g><g transform="matrix(50,0,0,50,879.105,284.082)"><path d="M0.184,-0.254c0.089,0 0.149,-0.075 0.149,-0.208c0,-0.131 -0.06,-0.206 -0.149,-0.206c-0.09,0 -0.149,0.075 -0.149,0.206c0,0.133 0.059,0.208 0.149,0.208Zm0,-0.051c-0.052,0 -0.087,-0.053 -0.087,-0.157c0,-0.104 0.035,-0.155 0.087,-0.155c0.051,0 0.086,0.051 0.086,0.155c0,0.104 -0.035,0.157 -0.086,0.157Zm0.019,0.317l0.056,0l0.362,-0.68l-0.056,0l-0.362,0.68Zm0.438,0c0.089,0 0.149,-0.075 0.149,-0.208c0,-0.131 -0.06,-0.206 -0.149,-0.206c-0.09,0 -0.149,0.075 -0.149,0.206c0,0.133 0.059,0.208 0.149,0.208Zm0,-0.051c-0.052,0 -0.087,-0.053 -0.087,-0.157c0,-0.104 0.035,-0.155 0.087,-0.155c0.051,0 0.086,0.051 0.086,0.155c0,0.104 -0.035,0.157 -0.086,0.157Z" style="fill-rule:nonzero;"/></g></g></g></g></g></svg>