<?xml version="1.0" encoding="UTF-8" standalone="no"?>
<!DOCTYPE svg PUBLIC "-//W3C//DTD SVG 1.1//EN" "http://www.w3.org/Graphics/SVG/1.1/DTD/svg11.dtd">
<svg width="100%" height="100%" viewBox="0 0 171 57" version="1.1" xmlns="http://www.w3.org/2000/svg" xmlns:xlink="http://www.w3.org/1999/xlink" xml:space="preserve" xmlns:serif="http://www.serif.com/" style="fill-rule:evenodd;clip-rule:evenodd;stroke-linecap:round;stroke-linejoin:round;stroke-miterlimit:1.5;">
    <style type="text/css" >
        /* hiding backfaces doesn't seem to work in svg hence this workaround */
        .card .shape {
            transition: 1s, opacity .5s;
            transform: rotateX(0deg);
            transform-origin: 0%;
        }
        .card .front {
            transition: .1s;
            transition-delay: .25s;
            opacity: 1;
        }
        .card .back {
            transition: .1s;
            transition-delay: .25s;
            opacity: 0;
        }
        .card:hover .shape, .card:active .shape {
            transform: rotateX(180deg);
        }
        .card:hover .front, .card:active .front {
            opacity: 0;
        }
        .card:hover .back, .card:active .back {
            opacity: 1;
        }
    </style>
        <g class="card">
        <path class="shape" d="M42.137,4.875c0,-1.015 -0.824,-1.839 -1.839,-1.839l-30.338,0c-1.015,0 -1.839,0.824 -1.839,1.839l0,47.346c0,1.015 0.824,1.839 1.839,1.839l30.338,0c1.015,0 1.839,-0.824 1.839,-1.839l0,-47.346Z" style="fill:#4c78a8;stroke:#1f3145;stroke-width:0.5px;"/>
        <g class="back">
            <path d="M18.872,24.039l0.176,0l2.391,6.234l1.593,-4.025c0.145,-0.363 0.217,-0.668 0.217,-0.914c0,-0.582 -0.449,-0.953 -1.347,-1.113l0,-0.182l3.117,0l0,0.176c-0.254,0.09 -0.486,0.222 -0.695,0.398c-0.209,0.176 -0.399,0.403 -0.571,0.683c-0.172,0.279 -0.342,0.624 -0.51,1.034l-2.343,5.9l-0.159,0l-2.361,-6.216l-2.25,6.216l-0.152,0l-2.531,-6.375c-0.157,-0.39 -0.3,-0.692 -0.431,-0.905c-0.131,-0.213 -0.276,-0.374 -0.434,-0.483c-0.158,-0.11 -0.356,-0.192 -0.594,-0.246l0,-0.182l3.796,0l0,0.182c-0.336,0.019 -0.576,0.054 -0.72,0.105c-0.285,0.094 -0.428,0.277 -0.428,0.551c0,0.168 0.049,0.381 0.146,0.638l1.834,4.788l2.256,-6.264Zm-0.052,0.785l-0.317,0.885l2.344,6.146l0.322,-0.832l-2.349,-6.199Zm-2.473,6.205l-2.086,-5.432c-0.113,-0.308 -0.17,-0.541 -0.17,-0.697c0,-0.125 0.031,-0.234 0.094,-0.328c0.062,-0.094 0.172,-0.197 0.328,-0.31l-1.84,0c0.145,0.117 0.269,0.24 0.372,0.369c0.104,0.129 0.201,0.281 0.293,0.457c0.092,0.176 0.196,0.41 0.314,0.703l2.402,6.07l0.293,-0.832Zm6.381,-6.767c0.246,0.121 0.421,0.249 0.524,0.383c0.104,0.135 0.171,0.318 0.202,0.548c0.196,-0.383 0.446,-0.693 0.75,-0.931l-1.476,0Z" style="fill:#fff;fill-rule:nonzero;"/>
            <path d="M25.447,32.037l0,-0.182c0.421,-0.07 0.728,-0.232 0.919,-0.486c0.149,-0.188 0.223,-0.561 0.223,-1.119l0,-4.424c0,-0.355 -0.019,-0.613 -0.059,-0.773c-0.039,-0.161 -0.111,-0.297 -0.216,-0.411c-0.196,-0.218 -0.485,-0.359 -0.867,-0.421l0,-0.182l3.65,0l0,0.182c-0.422,0.07 -0.731,0.232 -0.926,0.486c-0.078,0.101 -0.135,0.237 -0.17,0.407c-0.035,0.17 -0.053,0.407 -0.053,0.712l0,4.424c0,0.332 0.021,0.583 0.062,0.753c0.041,0.17 0.114,0.313 0.22,0.43c0.195,0.219 0.484,0.36 0.867,0.422l0,0.182l-3.65,0Zm0.82,-0.299l1.711,0l-0.229,-0.17c-0.133,-0.097 -0.218,-0.176 -0.255,-0.234c-0.037,-0.059 -0.055,-0.147 -0.055,-0.264c0,-0.062 -0.001,-0.104 -0.003,-0.126c-0.002,-0.021 -0.003,-0.044 -0.003,-0.067l0,-0.1l0,-5.478l0,-0.1l0.006,-0.193c0,-0.117 0.018,-0.205 0.055,-0.264c0.037,-0.059 0.122,-0.137 0.255,-0.234l0.334,-0.246l-1.922,0l0.334,0.246c0.137,0.097 0.223,0.173 0.258,0.228c0.035,0.055 0.053,0.145 0.053,0.27c0.004,0.066 0.006,0.131 0.006,0.193l0,5.678c0,0.062 -0.002,0.127 -0.006,0.193c0,0.121 -0.018,0.21 -0.053,0.267c-0.035,0.056 -0.121,0.134 -0.258,0.231l-0.228,0.17Z" style="fill:#fff;fill-rule:nonzero;"/>
            <path d="M37.839,32.224l-0.176,0l-6.433,-6.849l0.006,3.931c0,0.438 0.025,0.79 0.076,1.055c0.051,0.266 0.133,0.494 0.246,0.686c0.265,0.429 0.697,0.699 1.295,0.808l0,0.182l-3.065,0l0,-0.182c0.528,-0.195 0.879,-0.564 1.055,-1.107c0.062,-0.18 0.105,-0.378 0.129,-0.595c0.023,-0.217 0.035,-0.491 0.035,-0.823l0,-4.195c-0.305,-0.313 -0.539,-0.528 -0.703,-0.645c-0.164,-0.117 -0.352,-0.207 -0.563,-0.269l0,-0.182l2.274,0c0.094,0.164 0.195,0.312 0.305,0.445c0.023,0.02 0.065,0.067 0.126,0.141c0.06,0.074 0.1,0.123 0.12,0.146c0.066,0.075 0.099,0.112 0.099,0.112l4.951,5.291l0,-4.032c0,-0.41 -0.051,-0.747 -0.155,-1.01c-0.103,-0.264 -0.265,-0.468 -0.486,-0.613c-0.221,-0.144 -0.513,-0.244 -0.876,-0.298l0,-0.182l2.795,0l0,0.182c-0.418,0.113 -0.698,0.3 -0.841,0.562c-0.143,0.262 -0.214,0.715 -0.214,1.359l0,6.082Zm-0.223,-0.369l0,-0.92l-5.496,-5.871c-0.25,-0.261 -0.451,-0.529 -0.603,-0.802l-1.195,0c0.285,0.171 0.576,0.418 0.873,0.738l6.421,6.855Zm-0.714,-7.593c0.187,0.093 0.33,0.189 0.427,0.287c0.098,0.097 0.194,0.24 0.287,0.427c0.071,-0.187 0.129,-0.322 0.176,-0.404c0.047,-0.082 0.125,-0.185 0.235,-0.31l-1.125,0Zm-5.28,7.476c-0.156,-0.172 -0.274,-0.321 -0.354,-0.448c-0.08,-0.127 -0.155,-0.284 -0.226,-0.472c-0.074,0.199 -0.154,0.364 -0.24,0.495c-0.086,0.131 -0.211,0.273 -0.375,0.425l1.195,0Z" style="fill:#fff;fill-rule:nonzero;"/>
        </g>
        <g class="front">
            <path d="M24.418,33.392l-0.615,0.141c-0.469,-1.301 -0.703,-2.28 -0.703,-2.936c0,-0.691 0.149,-1.301 0.448,-1.828c0.299,-0.527 1.023,-1.424 2.171,-2.69c1.008,-1.136 1.676,-2.036 2.004,-2.698c0.328,-0.662 0.492,-1.438 0.492,-2.329c0,-1.266 -0.316,-2.326 -0.949,-3.182c-0.633,-0.855 -1.401,-1.283 -2.303,-1.283c-0.891,0 -1.547,0.405 -1.969,1.213c-0.152,0.34 -0.26,0.639 -0.325,0.897c-0.064,0.257 -0.167,0.755 -0.307,1.494c-0.258,1.383 -0.903,2.074 -1.934,2.074c-0.551,0 -0.993,-0.19 -1.327,-0.571c-0.334,-0.381 -0.501,-0.87 -0.501,-1.468c0,-0.82 0.299,-1.573 0.896,-2.259c0.598,-0.685 1.421,-1.225 2.47,-1.617c1.049,-0.393 2.212,-0.589 3.489,-0.589c1.36,0 2.575,0.24 3.648,0.721c1.072,0.48 1.898,1.169 2.478,2.065c0.58,0.897 0.87,1.925 0.87,3.085c0,0.82 -0.123,1.538 -0.369,2.153c-0.246,0.616 -0.653,1.207 -1.221,1.776c-0.569,0.568 -1.41,1.233 -2.523,1.995c-0.867,0.586 -1.5,1.028 -1.898,1.327c-0.399,0.299 -0.744,0.577 -1.037,0.835c-0.774,0.703 -1.161,1.506 -1.161,2.408c0,0.364 0.059,0.785 0.176,1.266Zm-2.408,4.816c0,-0.621 0.22,-1.151 0.659,-1.591c0.44,-0.439 0.976,-0.659 1.609,-0.659c0.41,0 0.785,0.1 1.125,0.299c0.339,0.199 0.609,0.469 0.808,0.809c0.199,0.34 0.299,0.72 0.299,1.142c0,0.41 -0.1,0.785 -0.299,1.125c-0.199,0.34 -0.469,0.61 -0.808,0.809c-0.34,0.199 -0.715,0.299 -1.125,0.299c-0.633,0 -1.169,-0.22 -1.609,-0.659c-0.439,-0.44 -0.659,-0.964 -0.659,-1.574Zm1.758,-7.558c0.234,-0.633 0.518,-1.14 0.852,-1.521c0.334,-0.381 1.14,-1.087 2.417,-2.118c1.512,-1.242 2.508,-2.224 2.989,-2.944c0.48,-0.721 0.72,-1.585 0.72,-2.593c0,-1.289 -0.392,-2.379 -1.177,-3.27c-0.786,-0.89 -1.864,-1.459 -3.235,-1.705c1.688,0.868 2.531,2.385 2.531,4.553c0,0.645 -0.064,1.21 -0.193,1.696c-0.129,0.487 -0.36,0.988 -0.694,1.503c-0.334,0.516 -0.835,1.166 -1.503,1.951l-1.16,1.319c-0.575,0.656 -0.964,1.186 -1.169,1.591c-0.205,0.404 -0.331,0.917 -0.378,1.538Zm-1.002,-13.992c-0.727,0.21 -1.351,0.501 -1.872,0.87c-0.522,0.369 -0.926,0.791 -1.213,1.265c-0.287,0.475 -0.431,0.982 -0.431,1.521c0,0.363 0.076,0.659 0.229,0.887c0.152,0.229 0.357,0.343 0.615,0.343c0.223,0 0.39,-0.093 0.501,-0.281c0.111,-0.187 0.202,-0.527 0.272,-1.02c0.129,-0.867 0.329,-1.555 0.598,-2.065c0.27,-0.51 0.703,-1.017 1.301,-1.52Zm1.828,22.834l0,-2.584c0,-0.293 -0.141,-0.44 -0.422,-0.44c-0.41,0 -0.776,0.176 -1.099,0.527c-0.322,0.352 -0.483,0.756 -0.483,1.213c0,0.446 0.161,0.844 0.483,1.196c0.323,0.351 0.689,0.527 1.099,0.527c0.281,0 0.422,-0.147 0.422,-0.439Z" style="fill:#fff;fill-rule:nonzero;"/>
        </g>
    </g>
    <g class="card">
        <path class="shape" serif:id="shape" d="M81.388,4.875c0,-1.015 -0.824,-1.839 -1.839,-1.839l-30.338,0c-1.015,0 -1.839,0.824 -1.839,1.839l0,47.346c0,1.015 0.824,1.839 1.839,1.839l30.338,0c1.015,0 1.839,-0.824 1.839,-1.839l0,-47.346Z" style="fill:#4c78a8;stroke:#1f3145;stroke-width:0.5px;"/>
        <g class="back" serif:id="back">
            <path d="M56.222,27.654c0.175,-0.148 0.337,-0.254 0.487,-0.317c0.149,-0.064 0.316,-0.096 0.5,-0.096c0.196,0 0.375,0.033 0.535,0.101c0.161,0.067 0.302,0.161 0.424,0.283c0.122,0.122 0.217,0.264 0.284,0.424c0.067,0.161 0.101,0.339 0.101,0.535c0,0.214 -0.038,0.415 -0.115,0.603c-0.076,0.188 -0.184,0.358 -0.323,0.508c-0.139,0.15 -0.3,0.268 -0.483,0.352c-0.184,0.084 -0.374,0.126 -0.57,0.126c-0.325,0 -0.631,-0.126 -0.916,-0.379l-0.523,0.311l-0.102,0l0,-3.958c0,-0.189 -0.029,-0.325 -0.086,-0.407c-0.056,-0.082 -0.161,-0.134 -0.314,-0.157l0,-0.075l1.101,-0.127l0,2.273Zm0,1.952c0.159,0.146 0.3,0.25 0.423,0.313c0.123,0.062 0.242,0.094 0.356,0.094c0.164,0 0.308,-0.052 0.432,-0.156c0.124,-0.103 0.22,-0.251 0.287,-0.442c0.068,-0.192 0.101,-0.417 0.101,-0.677c0,-0.196 -0.019,-0.375 -0.056,-0.538c-0.038,-0.163 -0.092,-0.306 -0.164,-0.428c-0.072,-0.122 -0.157,-0.216 -0.257,-0.282c-0.099,-0.066 -0.206,-0.099 -0.323,-0.099c-0.125,0 -0.251,0.038 -0.379,0.115c-0.128,0.076 -0.268,0.196 -0.42,0.36l0,1.74Zm1.1,-2.252c0.217,0.141 0.374,0.32 0.472,0.536c0.098,0.217 0.147,0.496 0.147,0.838c0,0.273 -0.033,0.502 -0.098,0.687c-0.064,0.184 -0.176,0.355 -0.333,0.512c0.155,-0.075 0.289,-0.176 0.402,-0.304c0.113,-0.127 0.199,-0.277 0.26,-0.448c0.06,-0.17 0.09,-0.352 0.09,-0.543c0,-0.221 -0.039,-0.422 -0.118,-0.602c-0.078,-0.18 -0.189,-0.329 -0.331,-0.447c-0.143,-0.119 -0.306,-0.195 -0.491,-0.229Zm-1.681,2.58l0.314,-0.198l0,-4.211l-0.561,0.062l0.147,0.106l0.045,0.034c0.023,0.016 0.037,0.039 0.044,0.07c0.007,0.031 0.011,0.085 0.011,0.162l0,3.975Z" style="fill:#fff;fill-rule:nonzero;"/>
            <path d="M58.884,30.105l0,-0.092c0.155,-0.028 0.261,-0.081 0.318,-0.159c0.057,-0.079 0.086,-0.214 0.086,-0.405l0,-3.302c0,-0.191 -0.03,-0.327 -0.088,-0.408c-0.058,-0.081 -0.163,-0.133 -0.316,-0.156l0,-0.075l1.101,-0.127l0,4.068c0,0.189 0.028,0.323 0.084,0.403c0.055,0.08 0.161,0.133 0.316,0.161l0,0.092l-1.501,0Zm0.342,-0.15l0.684,0l-0.082,-0.062c-0.005,-0.004 -0.01,-0.008 -0.014,-0.01l-0.045,-0.034c-0.031,-0.032 -0.049,-0.075 -0.051,-0.13l0,-0.068l0,-0.035l0,-4.091l-0.56,0.062l0.147,0.106l0.044,0.034c0.023,0.016 0.038,0.039 0.044,0.07c0.007,0.031 0.011,0.085 0.011,0.162l0,3.657c0,0.094 -0.005,0.152 -0.014,0.175c-0.009,0.022 -0.036,0.053 -0.082,0.092c0,0 -0.002,0.001 -0.005,0.003c-0.003,0.003 -0.005,0.005 -0.005,0.007l-0.072,0.062Z" style="fill:#fff;fill-rule:nonzero;"/>
            <path d="M62.459,29.787c-0.28,0.237 -0.581,0.356 -0.902,0.356c-0.257,0 -0.463,-0.067 -0.617,-0.2c-0.154,-0.134 -0.231,-0.308 -0.231,-0.525c0,-0.308 0.151,-0.549 0.452,-0.725c0.3,-0.175 0.733,-0.274 1.298,-0.297l0,-0.096l0,-0.047c0,-0.178 -0.008,-0.323 -0.024,-0.436c-0.015,-0.113 -0.038,-0.198 -0.068,-0.255c-0.034,-0.066 -0.082,-0.119 -0.145,-0.159c-0.063,-0.04 -0.131,-0.06 -0.204,-0.06c-0.107,0 -0.191,0.035 -0.252,0.105c-0.062,0.069 -0.101,0.177 -0.117,0.323c-0.018,0.143 -0.047,0.241 -0.089,0.292c-0.041,0.051 -0.111,0.077 -0.211,0.077c-0.078,0 -0.143,-0.028 -0.195,-0.082c-0.053,-0.055 -0.079,-0.126 -0.079,-0.212c0,-0.116 0.042,-0.222 0.127,-0.316c0.084,-0.095 0.201,-0.17 0.35,-0.224c0.149,-0.055 0.313,-0.082 0.49,-0.082c0.231,0 0.432,0.046 0.605,0.138c0.174,0.092 0.302,0.221 0.387,0.385c0.045,0.084 0.078,0.179 0.097,0.283c0.019,0.105 0.029,0.25 0.029,0.434l0,0.985c0,0.189 0.028,0.323 0.084,0.403c0.056,0.08 0.161,0.133 0.316,0.161l0,0.092l-1.101,0l0,-0.318Zm0,-0.15l0,-1.132c-0.221,0.035 -0.41,0.092 -0.569,0.171c-0.158,0.08 -0.279,0.182 -0.364,0.305c-0.084,0.123 -0.126,0.258 -0.126,0.406c0,0.151 0.045,0.275 0.135,0.375c0.09,0.099 0.203,0.148 0.34,0.148c0.169,0 0.363,-0.091 0.584,-0.273Zm0.117,0.318l0.505,0l-0.078,-0.062c0,0 -0.002,-0.002 -0.005,-0.005c-0.004,-0.003 -0.007,-0.005 -0.009,-0.005l-0.044,-0.034c-0.034,-0.034 -0.052,-0.078 -0.052,-0.13l0,-0.068l-0.003,-0.035l0,-1.162c0,-0.317 -0.036,-0.553 -0.109,-0.711c-0.103,-0.209 -0.263,-0.344 -0.482,-0.403c0.146,0.103 0.231,0.265 0.256,0.489c0.014,0.136 0.021,0.348 0.021,0.635l0,1.491Zm-0.869,0.092c-0.387,-0.08 -0.581,-0.292 -0.581,-0.636c0,-0.223 0.09,-0.414 0.27,-0.574c0.08,-0.071 0.234,-0.161 0.462,-0.27c-0.276,0.052 -0.49,0.124 -0.643,0.215c-0.259,0.16 -0.389,0.371 -0.389,0.633c0,0.189 0.069,0.342 0.206,0.459c0.138,0.118 0.317,0.176 0.535,0.176c0.053,0 0.099,-0.001 0.14,-0.003Zm0,-2.7c-0.159,0.041 -0.287,0.107 -0.384,0.2c-0.097,0.092 -0.145,0.195 -0.145,0.309c0,0.043 0.01,0.078 0.03,0.103c0.021,0.025 0.048,0.037 0.082,0.037c0.032,0 0.056,-0.009 0.072,-0.029c0.016,-0.019 0.03,-0.059 0.041,-0.118c0.025,-0.127 0.058,-0.224 0.098,-0.289c0.04,-0.065 0.108,-0.136 0.206,-0.213Z" style="fill:#fff;fill-rule:nonzero;"/>
            <path d="M64.968,27.942c0.141,-0.167 0.277,-0.304 0.407,-0.412c0.13,-0.109 0.255,-0.185 0.376,-0.231c0.121,-0.046 0.252,-0.068 0.393,-0.068c0.173,0 0.334,0.041 0.484,0.123c0.149,0.082 0.263,0.192 0.343,0.331c0.091,0.155 0.137,0.365 0.137,0.629l0,1.135c0,0.189 0.028,0.323 0.084,0.403c0.055,0.08 0.161,0.133 0.316,0.161l0,0.092l-1.501,0l0,-0.092c0.155,-0.028 0.261,-0.081 0.316,-0.161c0.056,-0.08 0.084,-0.214 0.084,-0.403l0,-1.155c0,-0.249 -0.016,-0.421 -0.048,-0.517c-0.034,-0.104 -0.089,-0.186 -0.164,-0.244c-0.075,-0.058 -0.165,-0.087 -0.27,-0.087c-0.146,0 -0.287,0.049 -0.425,0.147c-0.138,0.098 -0.315,0.274 -0.532,0.53l0,1.326c0,0.189 0.028,0.323 0.084,0.403c0.056,0.08 0.161,0.133 0.316,0.161l0,0.092l-1.5,0l0,-0.092c0.155,-0.028 0.261,-0.081 0.317,-0.159c0.057,-0.079 0.086,-0.214 0.086,-0.405l0,-1.436c0,-0.191 -0.029,-0.327 -0.087,-0.408c-0.058,-0.081 -0.164,-0.133 -0.316,-0.156l0,-0.075l1.1,-0.126l0,0.694Zm1.381,2.013l0.68,0l-0.078,-0.062c0,0 -0.002,-0.002 -0.005,-0.005c-0.004,-0.003 -0.007,-0.005 -0.009,-0.005l-0.044,-0.034c-0.035,-0.034 -0.052,-0.078 -0.052,-0.13l0,-0.068l-0.003,-0.035l0,-1.305c0,-0.174 -0.012,-0.31 -0.034,-0.41c-0.023,-0.101 -0.062,-0.188 -0.117,-0.264c-0.141,-0.191 -0.324,-0.287 -0.55,-0.287c-0.023,0 -0.075,0.005 -0.157,0.014c0.141,0.02 0.251,0.062 0.328,0.125c0.078,0.062 0.133,0.156 0.166,0.282c0.033,0.125 0.049,0.298 0.049,0.519l0,1.326c0,0.094 -0.004,0.152 -0.012,0.175c-0.008,0.022 -0.034,0.053 -0.08,0.092l-0.014,0.01l-0.068,0.062Zm-2.14,0l0.684,0l-0.082,-0.062c-0.005,-0.004 -0.009,-0.008 -0.014,-0.01l-0.044,-0.034c-0.032,-0.032 -0.049,-0.075 -0.051,-0.13l0,-0.068l0,-0.701l0,-0.356l0,-1.203l-0.561,0.062l0.147,0.106l0.044,0.034c0.023,0.016 0.038,0.039 0.045,0.07c0.007,0.031 0.01,0.085 0.01,0.162l0,1.791c0,0.094 -0.004,0.152 -0.014,0.175c-0.009,0.022 -0.036,0.053 -0.082,0.092c0,0 -0.001,0.001 -0.005,0.003c-0.003,0.003 -0.005,0.005 -0.005,0.007l-0.072,0.062Z" style="fill:#fff;fill-rule:nonzero;"/>
            <path d="M68.916,28.803l0.981,-0.841c0.157,-0.137 0.236,-0.251 0.236,-0.342c0,-0.132 -0.122,-0.206 -0.366,-0.222l0,-0.092l1.316,0l0,0.092c-0.137,0.014 -0.275,0.058 -0.415,0.133c-0.14,0.076 -0.301,0.192 -0.481,0.349l-0.082,0.068l-0.365,0.308l0.864,1.166l0.065,0.088c0.128,0.169 0.244,0.291 0.347,0.368c0.104,0.076 0.22,0.121 0.347,0.135l0,0.092l-1.781,0l0,-0.092c0.244,-0.016 0.366,-0.088 0.366,-0.216c0,-0.072 -0.045,-0.172 -0.137,-0.297l-0.054,-0.075l-0.533,-0.735l-0.308,0.263l0,0.496c0,0.189 0.028,0.323 0.084,0.403c0.056,0.08 0.161,0.133 0.316,0.161l0,0.092l-1.501,0l0,-0.092c0.155,-0.028 0.261,-0.081 0.318,-0.159c0.057,-0.079 0.086,-0.214 0.086,-0.405l0,-3.302c0,-0.191 -0.029,-0.327 -0.087,-0.408c-0.059,-0.081 -0.164,-0.133 -0.317,-0.156l0,-0.075l1.101,-0.127l0,3.422Zm-0.759,1.152l0.684,0l-0.082,-0.062c-0.005,-0.004 -0.009,-0.008 -0.014,-0.01l-0.044,-0.034c-0.032,-0.032 -0.049,-0.075 -0.052,-0.13l0,-0.068l0,-0.035l0,-4.091l-0.56,0.062l0.147,0.106l0.044,0.034c0.023,0.016 0.038,0.039 0.045,0.07c0.006,0.031 0.01,0.085 0.01,0.162l0,3.657c0,0.094 -0.005,0.152 -0.014,0.175c-0.009,0.022 -0.036,0.053 -0.082,0.092c0,0 -0.002,0.001 -0.005,0.003c-0.003,0.003 -0.005,0.005 -0.005,0.007l-0.072,0.062Zm2.618,-0.007c-0.136,-0.075 -0.282,-0.219 -0.437,-0.431l-0.803,-1.097l-0.226,0.195l0.578,0.789c0.116,0.162 0.174,0.289 0.174,0.38c0,0.057 -0.025,0.111 -0.075,0.164l0.789,0Zm-0.55,-2.253c0.098,-0.098 0.212,-0.192 0.342,-0.283l-0.451,0c0.082,0.066 0.123,0.133 0.123,0.201c0,0.01 -0.005,0.037 -0.014,0.082Z" style="fill:#fff;fill-rule:nonzero;"/>
        </g>
        <g class="front" serif:id="front">
            <path d="M63.669,33.392l-0.615,0.141c-0.468,-1.301 -0.703,-2.28 -0.703,-2.936c0,-0.691 0.15,-1.301 0.448,-1.828c0.299,-0.527 1.023,-1.424 2.171,-2.69c1.008,-1.136 1.676,-2.036 2.004,-2.698c0.328,-0.662 0.492,-1.438 0.492,-2.329c0,-1.266 -0.316,-2.326 -0.949,-3.182c-0.633,-0.855 -1.4,-1.283 -2.303,-1.283c-0.89,0 -1.546,0.405 -1.968,1.213c-0.153,0.34 -0.261,0.639 -0.326,0.897c-0.064,0.257 -0.167,0.755 -0.307,1.494c-0.258,1.383 -0.902,2.074 -1.934,2.074c-0.551,0 -0.993,-0.19 -1.327,-0.571c-0.334,-0.381 -0.501,-0.87 -0.501,-1.468c0,-0.82 0.299,-1.573 0.897,-2.259c0.597,-0.685 1.421,-1.225 2.469,-1.617c1.049,-0.393 2.212,-0.589 3.49,-0.589c1.359,0 2.575,0.24 3.647,0.721c1.072,0.48 1.899,1.169 2.479,2.065c0.58,0.897 0.87,1.925 0.87,3.085c0,0.82 -0.123,1.538 -0.369,2.153c-0.247,0.616 -0.654,1.207 -1.222,1.776c-0.568,0.568 -1.409,1.233 -2.523,1.995c-0.867,0.586 -1.5,1.028 -1.898,1.327c-0.398,0.299 -0.744,0.577 -1.037,0.835c-0.774,0.703 -1.16,1.506 -1.16,2.408c0,0.364 0.058,0.785 0.175,1.266Zm-2.408,4.816c0,-0.621 0.22,-1.151 0.659,-1.591c0.44,-0.439 0.976,-0.659 1.609,-0.659c0.41,0 0.785,0.1 1.125,0.299c0.34,0.199 0.609,0.469 0.808,0.809c0.2,0.34 0.299,0.72 0.299,1.142c0,0.41 -0.099,0.785 -0.299,1.125c-0.199,0.34 -0.468,0.61 -0.808,0.809c-0.34,0.199 -0.715,0.299 -1.125,0.299c-0.633,0 -1.169,-0.22 -1.609,-0.659c-0.439,-0.44 -0.659,-0.964 -0.659,-1.574Zm1.758,-7.558c0.234,-0.633 0.519,-1.14 0.853,-1.521c0.334,-0.381 1.139,-1.087 2.417,-2.118c1.511,-1.242 2.507,-2.224 2.988,-2.944c0.48,-0.721 0.721,-1.585 0.721,-2.593c0,-1.289 -0.393,-2.379 -1.178,-3.27c-0.785,-0.89 -1.863,-1.459 -3.234,-1.705c1.687,0.868 2.531,2.385 2.531,4.553c0,0.645 -0.065,1.21 -0.194,1.696c-0.129,0.487 -0.36,0.988 -0.694,1.503c-0.334,0.516 -0.835,1.166 -1.503,1.951l-1.16,1.319c-0.574,0.656 -0.964,1.186 -1.169,1.591c-0.205,0.404 -0.331,0.917 -0.378,1.538Zm-1.002,-13.992c-0.726,0.21 -1.35,0.501 -1.872,0.87c-0.521,0.369 -0.926,0.791 -1.213,1.265c-0.287,0.475 -0.43,0.982 -0.43,1.521c0,0.363 0.076,0.659 0.228,0.887c0.152,0.229 0.357,0.343 0.615,0.343c0.223,0 0.39,-0.093 0.501,-0.281c0.112,-0.187 0.202,-0.527 0.273,-1.02c0.129,-0.867 0.328,-1.555 0.597,-2.065c0.27,-0.51 0.703,-1.017 1.301,-1.52Zm1.828,22.834l0,-2.584c0,-0.293 -0.14,-0.44 -0.422,-0.44c-0.41,0 -0.776,0.176 -1.098,0.527c-0.322,0.352 -0.484,0.756 -0.484,1.213c0,0.446 0.162,0.844 0.484,1.196c0.322,0.351 0.688,0.527 1.098,0.527c0.282,0 0.422,-0.147 0.422,-0.439Z" style="fill:#fff;fill-rule:nonzero;"/>
        </g>
    </g>
    <g class="card">
        <path class="shape" serif:id="shape" d="M120.639,4.875c0,-1.015 -0.823,-1.839 -1.838,-1.839l-30.339,0c-1.015,0 -1.838,0.824 -1.838,1.839l0,47.346c0,1.015 0.823,1.839 1.838,1.839l30.339,0c1.015,0 1.838,-0.824 1.838,-1.839l0,-47.346Z" style="fill:#f58517;stroke:#5e3004;stroke-width:0.5px;"/>
        <g class="back" serif:id="back">
            <path d="M97.375,24.039l0.176,0l2.39,6.234l1.594,-4.025c0.145,-0.363 0.217,-0.668 0.217,-0.914c0,-0.582 -0.449,-0.953 -1.348,-1.113l0,-0.182l3.117,0l0,0.176c-0.254,0.09 -0.485,0.222 -0.694,0.398c-0.209,0.176 -0.399,0.403 -0.571,0.683c-0.172,0.279 -0.342,0.624 -0.51,1.034l-2.344,5.9l-0.158,0l-2.361,-6.216l-2.25,6.216l-0.153,0l-2.531,-6.375c-0.156,-0.39 -0.3,-0.692 -0.431,-0.905c-0.13,-0.213 -0.275,-0.374 -0.433,-0.483c-0.158,-0.11 -0.357,-0.192 -0.595,-0.246l0,-0.182l3.797,0l0,0.182c-0.336,0.019 -0.576,0.054 -0.721,0.105c-0.285,0.094 -0.427,0.277 -0.427,0.551c0,0.168 0.048,0.381 0.146,0.638l1.834,4.788l2.256,-6.264Zm-0.053,0.785l-0.316,0.885l2.344,6.146l0.322,-0.832l-2.35,-6.199Zm-2.472,6.205l-2.086,-5.432c-0.114,-0.308 -0.17,-0.541 -0.17,-0.697c0,-0.125 0.031,-0.234 0.093,-0.328c0.063,-0.094 0.172,-0.197 0.329,-0.31l-1.84,0c0.144,0.117 0.268,0.24 0.372,0.369c0.103,0.129 0.201,0.281 0.293,0.457c0.092,0.176 0.196,0.41 0.313,0.703l2.403,6.07l0.293,-0.832Zm6.38,-6.767c0.246,0.121 0.421,0.249 0.525,0.383c0.103,0.135 0.171,0.318 0.202,0.548c0.195,-0.383 0.445,-0.693 0.75,-0.931l-1.477,0Z" style="fill:#fff;fill-rule:nonzero;"/>
            <path d="M103.949,32.037l0,-0.182c0.422,-0.07 0.729,-0.232 0.92,-0.486c0.148,-0.188 0.223,-0.561 0.223,-1.119l0,-4.424c0,-0.355 -0.02,-0.613 -0.059,-0.773c-0.039,-0.161 -0.111,-0.297 -0.217,-0.411c-0.195,-0.218 -0.484,-0.359 -0.867,-0.421l0,-0.182l3.651,0l0,0.182c-0.422,0.07 -0.731,0.232 -0.926,0.486c-0.078,0.101 -0.135,0.237 -0.17,0.407c-0.035,0.17 -0.053,0.407 -0.053,0.712l0,4.424c0,0.332 0.021,0.583 0.062,0.753c0.041,0.17 0.114,0.313 0.219,0.43c0.196,0.219 0.485,0.36 0.868,0.422l0,0.182l-3.651,0Zm0.82,-0.299l1.711,0l-0.228,-0.17c-0.133,-0.097 -0.218,-0.176 -0.255,-0.234c-0.037,-0.059 -0.056,-0.147 -0.056,-0.264c0,-0.062 -0.001,-0.104 -0.003,-0.126c-0.002,-0.021 -0.003,-0.044 -0.003,-0.067l0,-0.1l0,-5.478l0,-0.1l0.006,-0.193c0,-0.117 0.019,-0.205 0.056,-0.264c0.037,-0.059 0.122,-0.137 0.255,-0.234l0.334,-0.246l-1.922,0l0.334,0.246c0.137,0.097 0.223,0.173 0.258,0.228c0.035,0.055 0.052,0.145 0.052,0.27c0.004,0.066 0.006,0.131 0.006,0.193l0,5.678c0,0.062 -0.002,0.127 -0.006,0.193c0,0.121 -0.017,0.21 -0.052,0.267c-0.035,0.056 -0.121,0.134 -0.258,0.231l-0.229,0.17Z" style="fill:#fff;fill-rule:nonzero;"/>
            <path d="M116.342,32.224l-0.176,0l-6.434,-6.849l0.006,3.931c0,0.438 0.026,0.79 0.076,1.055c0.051,0.266 0.133,0.494 0.246,0.686c0.266,0.429 0.698,0.699 1.295,0.808l0,0.182l-3.064,0l0,-0.182c0.527,-0.195 0.879,-0.564 1.055,-1.107c0.062,-0.18 0.105,-0.378 0.129,-0.595c0.023,-0.217 0.035,-0.491 0.035,-0.823l0,-4.195c-0.305,-0.313 -0.539,-0.528 -0.703,-0.645c-0.165,-0.117 -0.352,-0.207 -0.563,-0.269l0,-0.182l2.273,0c0.094,0.164 0.196,0.312 0.305,0.445c0.024,0.02 0.066,0.067 0.126,0.141c0.061,0.074 0.101,0.123 0.12,0.146c0.067,0.075 0.1,0.112 0.1,0.112l4.951,5.291l0,-4.032c0,-0.41 -0.052,-0.747 -0.155,-1.01c-0.104,-0.264 -0.266,-0.468 -0.487,-0.613c-0.22,-0.144 -0.512,-0.244 -0.876,-0.298l0,-0.182l2.795,0l0,0.182c-0.418,0.113 -0.698,0.3 -0.84,0.562c-0.143,0.262 -0.214,0.715 -0.214,1.359l0,6.082Zm-0.223,-0.369l0,-0.92l-5.496,-5.871c-0.25,-0.261 -0.451,-0.529 -0.604,-0.802l-1.195,0c0.285,0.171 0.576,0.418 0.873,0.738l6.422,6.855Zm-0.715,-7.593c0.188,0.093 0.33,0.189 0.428,0.287c0.098,0.097 0.193,0.24 0.287,0.427c0.07,-0.187 0.129,-0.322 0.176,-0.404c0.047,-0.082 0.125,-0.185 0.234,-0.31l-1.125,0Zm-5.279,7.476c-0.156,-0.172 -0.275,-0.321 -0.355,-0.448c-0.08,-0.127 -0.155,-0.284 -0.225,-0.472c-0.074,0.199 -0.154,0.364 -0.24,0.495c-0.086,0.131 -0.211,0.273 -0.375,0.425l1.195,0Z" style="fill:#fff;fill-rule:nonzero;"/>
        </g>
        <g class="front" serif:id="front">
            <path d="M102.921,33.392l-0.615,0.141c-0.469,-1.301 -0.704,-2.28 -0.704,-2.936c0,-0.691 0.15,-1.301 0.449,-1.828c0.299,-0.527 1.022,-1.424 2.171,-2.69c1.007,-1.136 1.675,-2.036 2.003,-2.698c0.329,-0.662 0.493,-1.438 0.493,-2.329c0,-1.266 -0.317,-2.326 -0.95,-3.182c-0.632,-0.855 -1.4,-1.283 -2.302,-1.283c-0.891,0 -1.547,0.405 -1.969,1.213c-0.152,0.34 -0.261,0.639 -0.325,0.897c-0.065,0.257 -0.167,0.755 -0.308,1.494c-0.258,1.383 -0.902,2.074 -1.933,2.074c-0.551,0 -0.994,-0.19 -1.328,-0.571c-0.334,-0.381 -0.501,-0.87 -0.501,-1.468c0,-0.82 0.299,-1.573 0.897,-2.259c0.598,-0.685 1.421,-1.225 2.47,-1.617c1.048,-0.393 2.212,-0.589 3.489,-0.589c1.359,0 2.575,0.24 3.647,0.721c1.073,0.48 1.899,1.169 2.479,2.065c0.58,0.897 0.87,1.925 0.87,3.085c0,0.82 -0.123,1.538 -0.369,2.153c-0.246,0.616 -0.653,1.207 -1.222,1.776c-0.568,0.568 -1.409,1.233 -2.522,1.995c-0.867,0.586 -1.5,1.028 -1.899,1.327c-0.398,0.299 -0.744,0.577 -1.037,0.835c-0.773,0.703 -1.16,1.506 -1.16,2.408c0,0.364 0.059,0.785 0.176,1.266Zm-2.408,4.816c0,-0.621 0.219,-1.151 0.659,-1.591c0.439,-0.439 0.975,-0.659 1.608,-0.659c0.41,0 0.785,0.1 1.125,0.299c0.34,0.199 0.61,0.469 0.809,0.809c0.199,0.34 0.299,0.72 0.299,1.142c0,0.41 -0.1,0.785 -0.299,1.125c-0.199,0.34 -0.469,0.61 -0.809,0.809c-0.34,0.199 -0.715,0.299 -1.125,0.299c-0.633,0 -1.169,-0.22 -1.608,-0.659c-0.44,-0.44 -0.659,-0.964 -0.659,-1.574Zm1.757,-7.558c0.235,-0.633 0.519,-1.14 0.853,-1.521c0.334,-0.381 1.14,-1.087 2.417,-2.118c1.512,-1.242 2.508,-2.224 2.988,-2.944c0.481,-0.721 0.721,-1.585 0.721,-2.593c0,-1.289 -0.393,-2.379 -1.178,-3.27c-0.785,-0.89 -1.863,-1.459 -3.234,-1.705c1.687,0.868 2.531,2.385 2.531,4.553c0,0.645 -0.064,1.21 -0.193,1.696c-0.129,0.487 -0.361,0.988 -0.695,1.503c-0.334,0.516 -0.835,1.166 -1.503,1.951l-1.16,1.319c-0.574,0.656 -0.964,1.186 -1.169,1.591c-0.205,0.404 -0.331,0.917 -0.378,1.538Zm-1.002,-13.992c-0.726,0.21 -1.35,0.501 -1.872,0.87c-0.521,0.369 -0.925,0.791 -1.213,1.265c-0.287,0.475 -0.43,0.982 -0.43,1.521c0,0.363 0.076,0.659 0.228,0.887c0.153,0.229 0.358,0.343 0.616,0.343c0.222,0 0.389,-0.093 0.501,-0.281c0.111,-0.187 0.202,-0.527 0.272,-1.02c0.129,-0.867 0.328,-1.555 0.598,-2.065c0.269,-0.51 0.703,-1.017 1.3,-1.52Zm1.829,22.834l0,-2.584c0,-0.293 -0.141,-0.44 -0.422,-0.44c-0.41,0 -0.777,0.176 -1.099,0.527c-0.322,0.352 -0.483,0.756 -0.483,1.213c0,0.446 0.161,0.844 0.483,1.196c0.322,0.351 0.689,0.527 1.099,0.527c0.281,0 0.422,-0.147 0.422,-0.439Z" style="fill:#fff;fill-rule:nonzero;"/>
        </g>
    </g>
    <g class="card" serif:id="card">
        <path class="shape" serif:id="shape" d="M159.891,4.875c0,-1.015 -0.824,-1.839 -1.839,-1.839l-30.338,0c-1.015,0 -1.839,0.824 -1.839,1.839l0,47.346c0,1.015 0.824,1.839 1.839,1.839l30.338,0c1.015,0 1.839,-0.824 1.839,-1.839l0,-47.346Z" style="fill:#f58517;stroke:#5e3004;stroke-width:0.5px;"/>
        <g class="back" serif:id="back">
            <path d="M136.322,27.654c0.176,-0.148 0.338,-0.254 0.488,-0.317c0.149,-0.064 0.316,-0.096 0.5,-0.096c0.196,0 0.375,0.033 0.535,0.101c0.161,0.067 0.302,0.161 0.424,0.283c0.122,0.122 0.216,0.264 0.284,0.424c0.067,0.161 0.101,0.339 0.101,0.535c0,0.214 -0.039,0.415 -0.115,0.603c-0.076,0.188 -0.184,0.358 -0.323,0.508c-0.139,0.15 -0.3,0.268 -0.484,0.352c-0.183,0.084 -0.373,0.126 -0.569,0.126c-0.326,0 -0.631,-0.126 -0.916,-0.379l-0.523,0.311l-0.102,0l0,-3.958c0,-0.189 -0.029,-0.325 -0.086,-0.407c-0.057,-0.082 -0.161,-0.134 -0.314,-0.157l0,-0.075l1.1,-0.127l0,2.273Zm0,1.952c0.16,0.146 0.301,0.25 0.424,0.313c0.123,0.062 0.242,0.094 0.356,0.094c0.164,0 0.308,-0.052 0.432,-0.156c0.124,-0.103 0.22,-0.251 0.287,-0.442c0.067,-0.192 0.101,-0.417 0.101,-0.677c0,-0.196 -0.019,-0.375 -0.056,-0.538c-0.038,-0.163 -0.093,-0.306 -0.164,-0.428c-0.072,-0.122 -0.158,-0.216 -0.257,-0.282c-0.099,-0.066 -0.206,-0.099 -0.323,-0.099c-0.125,0 -0.251,0.038 -0.379,0.115c-0.128,0.076 -0.268,0.196 -0.421,0.36l0,1.74Zm1.101,-2.252c0.217,0.141 0.374,0.32 0.472,0.536c0.098,0.217 0.147,0.496 0.147,0.838c0,0.273 -0.033,0.502 -0.098,0.687c-0.065,0.184 -0.176,0.355 -0.333,0.512c0.155,-0.075 0.289,-0.176 0.402,-0.304c0.112,-0.127 0.199,-0.277 0.259,-0.448c0.061,-0.17 0.091,-0.352 0.091,-0.543c0,-0.221 -0.039,-0.422 -0.118,-0.602c-0.079,-0.18 -0.189,-0.329 -0.331,-0.447c-0.143,-0.119 -0.306,-0.195 -0.491,-0.229Zm-1.682,2.58l0.315,-0.198l0,-4.211l-0.561,0.062l0.147,0.106l0.045,0.034c0.023,0.016 0.037,0.039 0.044,0.07c0.007,0.031 0.01,0.085 0.01,0.162l0,3.975Z" style="fill:#fff;fill-rule:nonzero;"/>
            <path d="M138.985,30.105l0,-0.092c0.155,-0.028 0.261,-0.081 0.318,-0.159c0.057,-0.079 0.085,-0.214 0.085,-0.405l0,-3.302c0,-0.191 -0.029,-0.327 -0.087,-0.408c-0.058,-0.081 -0.163,-0.133 -0.316,-0.156l0,-0.075l1.101,-0.127l0,4.068c0,0.189 0.028,0.323 0.083,0.403c0.056,0.08 0.162,0.133 0.317,0.161l0,0.092l-1.501,0Zm0.342,-0.15l0.683,0l-0.082,-0.062c-0.004,-0.004 -0.009,-0.008 -0.013,-0.01l-0.045,-0.034c-0.032,-0.032 -0.049,-0.075 -0.051,-0.13l0,-0.068l0,-0.035l0,-4.091l-0.56,0.062l0.146,0.106l0.045,0.034c0.023,0.016 0.038,0.039 0.044,0.07c0.007,0.031 0.011,0.085 0.011,0.162l0,3.657c0,0.094 -0.005,0.152 -0.014,0.175c-0.009,0.022 -0.037,0.053 -0.082,0.092c0,0 -0.002,0.001 -0.005,0.003c-0.004,0.003 -0.005,0.005 -0.005,0.007l-0.072,0.062Z" style="fill:#fff;fill-rule:nonzero;"/>
            <path d="M142.56,29.787c-0.28,0.237 -0.581,0.356 -0.902,0.356c-0.258,0 -0.463,-0.067 -0.617,-0.2c-0.154,-0.134 -0.231,-0.308 -0.231,-0.525c0,-0.308 0.151,-0.549 0.451,-0.725c0.301,-0.175 0.734,-0.274 1.299,-0.297l0,-0.096l0,-0.047c0,-0.178 -0.008,-0.323 -0.024,-0.436c-0.016,-0.113 -0.038,-0.198 -0.068,-0.255c-0.034,-0.066 -0.083,-0.119 -0.145,-0.159c-0.063,-0.04 -0.131,-0.06 -0.204,-0.06c-0.107,0 -0.191,0.035 -0.253,0.105c-0.061,0.069 -0.1,0.177 -0.116,0.323c-0.018,0.143 -0.048,0.241 -0.089,0.292c-0.041,0.051 -0.111,0.077 -0.212,0.077c-0.077,0 -0.142,-0.028 -0.194,-0.082c-0.053,-0.055 -0.079,-0.126 -0.079,-0.212c0,-0.116 0.042,-0.222 0.126,-0.316c0.085,-0.095 0.202,-0.17 0.351,-0.224c0.149,-0.055 0.313,-0.082 0.49,-0.082c0.23,0 0.432,0.046 0.605,0.138c0.173,0.092 0.302,0.221 0.387,0.385c0.045,0.084 0.078,0.179 0.097,0.283c0.019,0.105 0.029,0.25 0.029,0.434l0,0.985c0,0.189 0.028,0.323 0.084,0.403c0.056,0.08 0.161,0.133 0.316,0.161l0,0.092l-1.101,0l0,-0.318Zm0,-0.15l0,-1.132c-0.221,0.035 -0.41,0.092 -0.569,0.171c-0.158,0.08 -0.28,0.182 -0.364,0.305c-0.084,0.123 -0.126,0.258 -0.126,0.406c0,0.151 0.045,0.275 0.135,0.375c0.09,0.099 0.203,0.148 0.34,0.148c0.168,0 0.363,-0.091 0.584,-0.273Zm0.116,0.318l0.506,0l-0.078,-0.062c0,0 -0.002,-0.002 -0.005,-0.005c-0.004,-0.003 -0.007,-0.005 -0.009,-0.005l-0.044,-0.034c-0.035,-0.034 -0.052,-0.078 -0.052,-0.13l0,-0.068l-0.003,-0.035l0,-1.162c0,-0.317 -0.037,-0.553 -0.109,-0.711c-0.103,-0.209 -0.264,-0.344 -0.482,-0.403c0.145,0.103 0.231,0.265 0.256,0.489c0.014,0.136 0.02,0.348 0.02,0.635l0,1.491Zm-0.868,0.092c-0.387,-0.08 -0.581,-0.292 -0.581,-0.636c0,-0.223 0.09,-0.414 0.27,-0.574c0.08,-0.071 0.234,-0.161 0.462,-0.27c-0.276,0.052 -0.49,0.124 -0.643,0.215c-0.26,0.16 -0.39,0.371 -0.39,0.633c0,0.189 0.069,0.342 0.207,0.459c0.138,0.118 0.316,0.176 0.535,0.176c0.053,0 0.099,-0.001 0.14,-0.003Zm0,-2.7c-0.159,0.041 -0.287,0.107 -0.384,0.2c-0.097,0.092 -0.145,0.195 -0.145,0.309c0,0.043 0.01,0.078 0.03,0.103c0.021,0.025 0.048,0.037 0.082,0.037c0.032,0 0.056,-0.009 0.072,-0.029c0.016,-0.019 0.03,-0.059 0.041,-0.118c0.025,-0.127 0.058,-0.224 0.098,-0.289c0.039,-0.065 0.108,-0.136 0.206,-0.213Z" style="fill:#fff;fill-rule:nonzero;"/>
            <path d="M145.069,27.942c0.141,-0.167 0.277,-0.304 0.407,-0.412c0.13,-0.109 0.255,-0.185 0.376,-0.231c0.121,-0.046 0.252,-0.068 0.393,-0.068c0.173,0 0.334,0.041 0.483,0.123c0.15,0.082 0.264,0.192 0.344,0.331c0.091,0.155 0.137,0.365 0.137,0.629l0,1.135c0,0.189 0.028,0.323 0.083,0.403c0.056,0.08 0.162,0.133 0.317,0.161l0,0.092l-1.501,0l0,-0.092c0.155,-0.028 0.26,-0.081 0.316,-0.161c0.056,-0.08 0.084,-0.214 0.084,-0.403l0,-1.155c0,-0.249 -0.016,-0.421 -0.048,-0.517c-0.034,-0.104 -0.089,-0.186 -0.164,-0.244c-0.075,-0.058 -0.165,-0.087 -0.27,-0.087c-0.146,0 -0.288,0.049 -0.425,0.147c-0.138,0.098 -0.315,0.274 -0.532,0.53l0,1.326c0,0.189 0.028,0.323 0.084,0.403c0.056,0.08 0.161,0.133 0.316,0.161l0,0.092l-1.501,0l0,-0.092c0.155,-0.028 0.261,-0.081 0.318,-0.159c0.057,-0.079 0.086,-0.214 0.086,-0.405l0,-1.436c0,-0.191 -0.029,-0.327 -0.087,-0.408c-0.058,-0.081 -0.164,-0.133 -0.317,-0.156l0,-0.075l1.101,-0.126l0,0.694Zm1.381,2.013l0.68,0l-0.079,-0.062c0,0 -0.001,-0.002 -0.005,-0.005c-0.003,-0.003 -0.006,-0.005 -0.008,-0.005l-0.045,-0.034c-0.034,-0.034 -0.051,-0.078 -0.051,-0.13l0,-0.068l-0.003,-0.035l0,-1.305c0,-0.174 -0.012,-0.31 -0.034,-0.41c-0.023,-0.101 -0.062,-0.188 -0.117,-0.264c-0.141,-0.191 -0.324,-0.287 -0.55,-0.287c-0.023,0 -0.075,0.005 -0.157,0.014c0.141,0.02 0.25,0.062 0.328,0.125c0.077,0.062 0.133,0.156 0.166,0.282c0.033,0.125 0.049,0.298 0.049,0.519l0,1.326c0,0.094 -0.004,0.152 -0.012,0.175c-0.008,0.022 -0.034,0.053 -0.08,0.092l-0.014,0.01l-0.068,0.062Zm-2.14,0l0.684,0l-0.082,-0.062c-0.005,-0.004 -0.009,-0.008 -0.014,-0.01l-0.044,-0.034c-0.032,-0.032 -0.049,-0.075 -0.052,-0.13l0,-0.068l0,-0.701l0,-0.356l0,-1.203l-0.56,0.062l0.147,0.106l0.044,0.034c0.023,0.016 0.038,0.039 0.045,0.07c0.007,0.031 0.01,0.085 0.01,0.162l0,1.791c0,0.094 -0.005,0.152 -0.014,0.175c-0.009,0.022 -0.036,0.053 -0.082,0.092c0,0 -0.001,0.001 -0.005,0.003c-0.003,0.003 -0.005,0.005 -0.005,0.007l-0.072,0.062Z" style="fill:#fff;fill-rule:nonzero;"/>
            <path d="M149.017,28.803l0.981,-0.841c0.157,-0.137 0.236,-0.251 0.236,-0.342c0,-0.132 -0.122,-0.206 -0.366,-0.222l0,-0.092l1.316,0l0,0.092c-0.137,0.014 -0.275,0.058 -0.415,0.133c-0.141,0.076 -0.301,0.192 -0.481,0.349l-0.082,0.068l-0.365,0.308l0.864,1.166l0.065,0.088c0.128,0.169 0.243,0.291 0.347,0.368c0.104,0.076 0.219,0.121 0.347,0.135l0,0.092l-1.781,0l0,-0.092c0.244,-0.016 0.366,-0.088 0.366,-0.216c0,-0.072 -0.046,-0.172 -0.137,-0.297l-0.054,-0.075l-0.534,-0.735l-0.307,0.263l0,0.496c0,0.189 0.028,0.323 0.084,0.403c0.055,0.08 0.161,0.133 0.316,0.161l0,0.092l-1.501,0l0,-0.092c0.155,-0.028 0.261,-0.081 0.318,-0.159c0.057,-0.079 0.086,-0.214 0.086,-0.405l0,-3.302c0,-0.191 -0.029,-0.327 -0.088,-0.408c-0.058,-0.081 -0.163,-0.133 -0.316,-0.156l0,-0.075l1.101,-0.127l0,3.422Zm-0.759,1.152l0.684,0l-0.082,-0.062c-0.005,-0.004 -0.01,-0.008 -0.014,-0.01l-0.045,-0.034c-0.031,-0.032 -0.048,-0.075 -0.051,-0.13l0,-0.068l0,-0.035l0,-4.091l-0.56,0.062l0.147,0.106l0.044,0.034c0.023,0.016 0.038,0.039 0.045,0.07c0.006,0.031 0.01,0.085 0.01,0.162l0,3.657c0,0.094 -0.005,0.152 -0.014,0.175c-0.009,0.022 -0.036,0.053 -0.082,0.092c0,0 -0.002,0.001 -0.005,0.003c-0.003,0.003 -0.005,0.005 -0.005,0.007l-0.072,0.062Zm2.618,-0.007c-0.137,-0.075 -0.282,-0.219 -0.437,-0.431l-0.804,-1.097l-0.225,0.195l0.578,0.789c0.116,0.162 0.174,0.289 0.174,0.38c0,0.057 -0.025,0.111 -0.075,0.164l0.789,0Zm-0.55,-2.253c0.098,-0.098 0.212,-0.192 0.342,-0.283l-0.451,0c0.082,0.066 0.123,0.133 0.123,0.201c0,0.01 -0.005,0.037 -0.014,0.082Z" style="fill:#fff;fill-rule:nonzero;"/>
        </g>
        <g class="front" serif:id="front">
            <path d="M142.172,33.392l-0.615,0.141c-0.469,-1.301 -0.703,-2.28 -0.703,-2.936c0,-0.691 0.149,-1.301 0.448,-1.828c0.299,-0.527 1.022,-1.424 2.171,-2.69c1.008,-1.136 1.676,-2.036 2.004,-2.698c0.328,-0.662 0.492,-1.438 0.492,-2.329c0,-1.266 -0.316,-2.326 -0.949,-3.182c-0.633,-0.855 -1.401,-1.283 -2.303,-1.283c-0.891,0 -1.547,0.405 -1.969,1.213c-0.152,0.34 -0.26,0.639 -0.325,0.897c-0.064,0.257 -0.167,0.755 -0.308,1.494c-0.257,1.383 -0.902,2.074 -1.933,2.074c-0.551,0 -0.993,-0.19 -1.327,-0.571c-0.334,-0.381 -0.501,-0.87 -0.501,-1.468c0,-0.82 0.299,-1.573 0.896,-2.259c0.598,-0.685 1.421,-1.225 2.47,-1.617c1.049,-0.393 2.212,-0.589 3.489,-0.589c1.36,0 2.575,0.24 3.648,0.721c1.072,0.48 1.898,1.169 2.478,2.065c0.58,0.897 0.87,1.925 0.87,3.085c0,0.82 -0.123,1.538 -0.369,2.153c-0.246,0.616 -0.653,1.207 -1.222,1.776c-0.568,0.568 -1.409,1.233 -2.522,1.995c-0.867,0.586 -1.5,1.028 -1.898,1.327c-0.399,0.299 -0.745,0.577 -1.038,0.835c-0.773,0.703 -1.16,1.506 -1.16,2.408c0,0.364 0.059,0.785 0.176,1.266Zm-2.408,4.816c0,-0.621 0.22,-1.151 0.659,-1.591c0.44,-0.439 0.976,-0.659 1.608,-0.659c0.411,0 0.786,0.1 1.125,0.299c0.34,0.199 0.61,0.469 0.809,0.809c0.199,0.34 0.299,0.72 0.299,1.142c0,0.41 -0.1,0.785 -0.299,1.125c-0.199,0.34 -0.469,0.61 -0.809,0.809c-0.339,0.199 -0.714,0.299 -1.125,0.299c-0.632,0 -1.168,-0.22 -1.608,-0.659c-0.439,-0.44 -0.659,-0.964 -0.659,-1.574Zm1.758,-7.558c0.234,-0.633 0.518,-1.14 0.852,-1.521c0.334,-0.381 1.14,-1.087 2.417,-2.118c1.512,-1.242 2.508,-2.224 2.989,-2.944c0.48,-0.721 0.72,-1.585 0.72,-2.593c0,-1.289 -0.392,-2.379 -1.178,-3.27c-0.785,-0.89 -1.863,-1.459 -3.234,-1.705c1.688,0.868 2.531,2.385 2.531,4.553c0,0.645 -0.064,1.21 -0.193,1.696c-0.129,0.487 -0.36,0.988 -0.694,1.503c-0.334,0.516 -0.835,1.166 -1.503,1.951l-1.16,1.319c-0.575,0.656 -0.964,1.186 -1.169,1.591c-0.205,0.404 -0.331,0.917 -0.378,1.538Zm-1.002,-13.992c-0.727,0.21 -1.351,0.501 -1.872,0.87c-0.522,0.369 -0.926,0.791 -1.213,1.265c-0.287,0.475 -0.431,0.982 -0.431,1.521c0,0.363 0.076,0.659 0.229,0.887c0.152,0.229 0.357,0.343 0.615,0.343c0.223,0 0.39,-0.093 0.501,-0.281c0.111,-0.187 0.202,-0.527 0.272,-1.02c0.129,-0.867 0.328,-1.555 0.598,-2.065c0.27,-0.51 0.703,-1.017 1.301,-1.52Zm1.828,22.834l0,-2.584c0,-0.293 -0.141,-0.44 -0.422,-0.44c-0.41,0 -0.776,0.176 -1.099,0.527c-0.322,0.352 -0.483,0.756 -0.483,1.213c0,0.446 0.161,0.844 0.483,1.196c0.323,0.351 0.689,0.527 1.099,0.527c0.281,0 0.422,-0.147 0.422,-0.439Z" style="fill:#fff;fill-rule:nonzero;"/>
        </g>
    </g>
</svg>
