<?xml version="1.0" encoding="UTF-8" standalone="no"?><!DOCTYPE svg PUBLIC "-//W3C//DTD SVG 1.1//EN" "http://www.w3.org/Graphics/SVG/1.1/DTD/svg11.dtd"><svg width="100%" height="100%" viewBox="0 0 142 142" version="1.1" xmlns="http://www.w3.org/2000/svg" xmlns:xlink="http://www.w3.org/1999/xlink" xml:space="preserve" xmlns:serif="http://www.serif.com/" style="fill-rule:evenodd;clip-rule:evenodd;stroke-linecap:round;stroke-linejoin:round;stroke-miterlimit:1.5;"><g id="orange_stack"><g id="stack_body"><path id="shape" d="M103.216,47.28c-1.015,-0.585 -42.367,-24.748 -43.245,-24.241c-0,0 -0,-0.518 -0,45.529c-0,1.651 -0.098,1.439 0.839,1.981l40.511,23.388c1.015,0.586 2.552,0.65 3.431,0.143l26.274,-15.17c0.485,-0.28 0.623,-0.551 0.593,-1.981l-0.005,-45.176l-28.398,15.527Z" style="fill:url(#_Linear1);stroke:#5e3004;stroke-width:0.5px;"/><path d="M60.619,24.826l13.664,7.889" style="fill:none;stroke:#e3d5c8;stroke-width:0.24px;"/><path d="M61.574,25.944l13.1,7.563" style="fill:none;stroke:#ebe2d9;stroke-width:0.24px;"/><path d="M70.227,31.584l6.765,3.905" style="fill:none;stroke:#ede4dc;stroke-width:0.24px;"/><path d="M93.352,44.829l6.765,3.906" style="fill:none;stroke:#f7e8db;stroke-width:0.24px;"/><path d="M94.977,45.053l6.764,3.906" style="fill:none;stroke:#f9e8d9;stroke-width:0.24px;"/><path d="M112.492,43.985l-6.271,3.5" style="fill:none;stroke:#d9cbbf;stroke-width:0.24px;"/><path d="M131.148,33.214l-6.903,3.986" style="fill:none;stroke:#daccc0;stroke-width:0.24px;"/><path d="M123.303,38.269l-15.102,8.719" style="fill:none;stroke:#d7ccc1;stroke-width:0.24px;"/><path d="M127.656,36.368l-15.102,8.718" style="fill:none;stroke:#d9cfc5;stroke-width:0.24px;"/></g><g id="top_card"><path id="shape1" serif:id="shape" d="M90.269,7.152c-1.015,-0.586 -2.552,-0.65 -3.431,-0.142l-26.274,15.169c-0.879,0.507 -0.769,1.395 0.246,1.981l40.511,23.389c1.015,0.585 2.552,0.649 3.431,0.142l26.274,-15.17c0.878,-0.507 0.768,-1.394 -0.247,-1.98l-40.51,-23.389Z" style="fill:#f58517;stroke:#5e3004;stroke-width:0.5px;"/><g id="front"><path d="M101.722,31.483l-0.392,0.389c-1.707,-0.517 -2.888,-0.965 -3.545,-1.343c-0.691,-0.4 -1.171,-0.826 -1.44,-1.28c-0.268,-0.454 -0.538,-1.333 -0.809,-2.638c-0.264,-1.16 -0.585,-2.014 -0.963,-2.56c-0.378,-0.546 -1.012,-1.077 -1.903,-1.591c-1.265,-0.731 -2.6,-1.185 -4.003,-1.362c-1.404,-0.178 -2.496,-0.041 -3.278,0.41c-0.771,0.446 -0.935,1.007 -0.492,1.685c0.208,0.272 0.413,0.499 0.615,0.68c0.202,0.181 0.611,0.52 1.228,1.017c1.159,0.927 1.292,1.648 0.399,2.164c-0.477,0.275 -1.05,0.387 -1.72,0.334c-0.67,-0.053 -1.304,-0.252 -1.902,-0.597c-0.82,-0.474 -1.314,-1.058 -1.482,-1.753c-0.168,-0.694 0.006,-1.417 0.521,-2.168c0.516,-0.751 1.327,-1.446 2.433,-2.085c1.178,-0.679 2.471,-1.149 3.88,-1.407c1.409,-0.259 2.813,-0.275 4.212,-0.047c1.399,0.227 2.678,0.676 3.838,1.346c0.821,0.473 1.432,0.949 1.834,1.428c0.402,0.478 0.641,1.023 0.717,1.636c0.076,0.612 0.013,1.416 -0.189,2.413c-0.165,0.772 -0.271,1.343 -0.317,1.715c-0.046,0.372 -0.067,0.705 -0.063,1.001c0.033,0.792 0.501,1.449 1.403,1.97c0.363,0.21 0.836,0.424 1.418,0.643Zm2.731,3.985c-0.621,-0.359 -0.961,-0.775 -1.02,-1.248c-0.059,-0.474 0.186,-0.869 0.734,-1.185c0.355,-0.205 0.779,-0.335 1.273,-0.39c0.493,-0.055 0.996,-0.034 1.509,0.063c0.512,0.096 0.979,0.266 1.401,0.51c0.41,0.237 0.699,0.503 0.866,0.799c0.167,0.296 0.204,0.586 0.108,0.871c-0.095,0.285 -0.32,0.53 -0.675,0.735c-0.548,0.316 -1.232,0.458 -2.052,0.424c-0.82,-0.034 -1.535,-0.227 -2.144,-0.579Zm-6.036,-5.243c-0.43,-0.483 -0.691,-0.917 -0.783,-1.304c-0.091,-0.387 -0.1,-1.198 -0.025,-2.432c0.067,-1.473 -0.051,-2.537 -0.356,-3.194c-0.305,-0.656 -0.961,-1.275 -1.969,-1.857c-1.289,-0.744 -2.719,-1.177 -4.289,-1.299c-1.571,-0.121 -3.073,0.09 -4.506,0.633c2.328,-0.343 4.577,0.111 6.745,1.363c0.644,0.372 1.154,0.731 1.528,1.076c0.375,0.345 0.676,0.75 0.902,1.215c0.226,0.465 0.443,1.091 0.65,1.878l0.313,1.341c0.159,0.666 0.352,1.167 0.579,1.503c0.226,0.336 0.63,0.695 1.211,1.077Zm-14.86,-7.577c-0.419,0.485 -0.669,0.964 -0.751,1.438c-0.083,0.474 -0.011,0.92 0.215,1.337c0.226,0.418 0.608,0.782 1.147,1.093c0.364,0.21 0.725,0.343 1.086,0.399c0.36,0.055 0.652,0.019 0.875,-0.11c0.193,-0.111 0.244,-0.249 0.153,-0.413c-0.091,-0.164 -0.352,-0.406 -0.784,-0.725c-0.755,-0.565 -1.271,-1.062 -1.547,-1.491c-0.277,-0.429 -0.408,-0.939 -0.394,-1.528Zm24.417,12.269l-2.584,-1.492c-0.293,-0.169 -0.561,-0.184 -0.805,-0.043c-0.355,0.205 -0.497,0.49 -0.424,0.854c0.072,0.364 0.337,0.678 0.794,0.942c0.446,0.257 0.984,0.406 1.614,0.448c0.631,0.042 1.124,-0.04 1.479,-0.245c0.244,-0.14 0.219,-0.295 -0.074,-0.464Z" style="fill:#fff;fill-rule:nonzero;"/></g></g></g><g id="blue_stack"><g id="stack_body1" serif:id="stack_body"><path id="shape2" serif:id="shape" d="M51.815,76.956c-1.014,-0.586 -42.366,-24.748 -43.245,-24.241c0,0 0,-0.518 0,45.529c0,1.651 -0.097,1.439 0.84,1.98l40.511,23.389c1.014,0.586 2.552,0.65 3.43,0.142l26.274,-15.169c0.486,-0.28 0.624,-0.551 0.594,-1.981l-0.006,-45.176l-28.398,15.527Z" style="fill:url(#_Linear2);stroke:#1f3145;stroke-width:0.5px;"/><path d="M9.219,54.502l13.664,7.889" style="fill:none;stroke:#d6d6d6;stroke-width:0.24px;"/><path d="M10.174,55.62l13.1,7.563" style="fill:none;stroke:#e2e2e2;stroke-width:0.24px;"/><path d="M18.827,61.26l6.764,3.905" style="fill:none;stroke:#e5e5e5;stroke-width:0.24px;"/><path d="M41.952,74.505l6.764,3.906" style="fill:none;stroke:#e9e9e9;stroke-width:0.24px;"/><path d="M43.577,74.729l6.764,3.906" style="fill:none;stroke:#e9e9e9;stroke-width:0.24px;"/><path d="M61.092,73.661l-6.271,3.5" style="fill:none;stroke:#ccc;stroke-width:0.24px;"/><path d="M79.748,62.89l-6.904,3.986" style="fill:none;stroke:#cdcdcd;stroke-width:0.24px;"/><path d="M71.903,67.945l-15.102,8.719" style="fill:none;stroke:#ccc;stroke-width:0.24px;"/><path d="M76.256,66.043l-15.102,8.719" style="fill:none;stroke:#cfcfcf;stroke-width:0.24px;"/></g><g id="top_card1" serif:id="top_card"><path id="shape3" serif:id="shape" d="M38.869,36.828c-1.015,-0.586 -2.553,-0.65 -3.431,-0.142l-26.274,15.169c-0.879,0.507 -0.769,1.395 0.246,1.981l40.511,23.388c1.014,0.586 2.552,0.65 3.43,0.143l26.274,-15.17c0.879,-0.507 0.769,-1.395 -0.246,-1.98l-40.51,-23.389Z" style="fill:#4c78a8;stroke:#1f3145;stroke-width:0.5px;"/><g id="front1" serif:id="front"><path d="M50.322,61.159l-0.392,0.389c-1.707,-0.517 -2.889,-0.965 -3.545,-1.344c-0.691,-0.399 -1.171,-0.825 -1.44,-1.279c-0.268,-0.454 -0.538,-1.333 -0.809,-2.638c-0.264,-1.161 -0.585,-2.014 -0.963,-2.56c-0.378,-0.546 -1.012,-1.077 -1.903,-1.591c-1.265,-0.731 -2.6,-1.185 -4.004,-1.362c-1.403,-0.178 -2.496,-0.041 -3.277,0.41c-0.771,0.446 -0.935,1.007 -0.492,1.685c0.208,0.272 0.413,0.499 0.615,0.68c0.202,0.181 0.611,0.52 1.228,1.017c1.159,0.927 1.292,1.648 0.399,2.164c-0.477,0.275 -1.05,0.387 -1.72,0.334c-0.671,-0.053 -1.304,-0.252 -1.902,-0.597c-0.82,-0.474 -1.315,-1.058 -1.482,-1.753c-0.168,-0.694 0.005,-1.417 0.521,-2.168c0.516,-0.751 1.327,-1.446 2.433,-2.085c1.177,-0.68 2.471,-1.149 3.88,-1.407c1.409,-0.259 2.813,-0.275 4.211,-0.047c1.399,0.227 2.679,0.676 3.839,1.346c0.82,0.473 1.432,0.949 1.834,1.428c0.402,0.478 0.641,1.023 0.717,1.635c0.076,0.613 0.013,1.417 -0.189,2.414c-0.165,0.771 -0.271,1.343 -0.317,1.715c-0.047,0.372 -0.068,0.705 -0.064,1.001c0.034,0.792 0.502,1.449 1.404,1.97c0.363,0.21 0.836,0.424 1.418,0.643Zm2.731,3.985c-0.621,-0.359 -0.961,-0.775 -1.02,-1.248c-0.059,-0.474 0.185,-0.869 0.733,-1.185c0.356,-0.205 0.78,-0.335 1.274,-0.39c0.493,-0.055 0.996,-0.034 1.508,0.063c0.513,0.096 0.98,0.266 1.402,0.51c0.41,0.237 0.699,0.503 0.866,0.799c0.167,0.296 0.203,0.586 0.108,0.871c-0.095,0.285 -0.32,0.53 -0.675,0.735c-0.548,0.316 -1.232,0.457 -2.052,0.423c-0.82,-0.034 -1.535,-0.226 -2.144,-0.578Zm-6.037,-5.243c-0.429,-0.483 -0.69,-0.917 -0.782,-1.304c-0.091,-0.387 -0.1,-1.198 -0.025,-2.432c0.067,-1.473 -0.052,-2.537 -0.356,-3.194c-0.305,-0.656 -0.961,-1.275 -1.969,-1.857c-1.289,-0.744 -2.719,-1.177 -4.289,-1.299c-1.571,-0.121 -3.073,0.09 -4.506,0.633c2.328,-0.343 4.576,0.111 6.744,1.363c0.645,0.372 1.155,0.731 1.529,1.076c0.375,0.345 0.675,0.75 0.902,1.215c0.226,0.464 0.443,1.09 0.649,1.878l0.314,1.341c0.159,0.666 0.352,1.167 0.579,1.503c0.226,0.336 0.63,0.695 1.21,1.077Zm-14.86,-7.578c-0.418,0.486 -0.668,0.965 -0.751,1.439c-0.082,0.474 -0.01,0.919 0.216,1.337c0.226,0.418 0.608,0.782 1.147,1.093c0.363,0.21 0.725,0.343 1.086,0.398c0.36,0.056 0.652,0.02 0.875,-0.109c0.193,-0.112 0.244,-0.249 0.153,-0.413c-0.091,-0.164 -0.352,-0.406 -0.784,-0.725c-0.755,-0.565 -1.271,-1.062 -1.548,-1.491c-0.276,-0.429 -0.407,-0.939 -0.394,-1.529Zm24.418,12.27l-2.584,-1.492c-0.293,-0.169 -0.562,-0.184 -0.805,-0.043c-0.355,0.205 -0.497,0.49 -0.424,0.854c0.072,0.364 0.337,0.678 0.794,0.942c0.445,0.257 0.983,0.406 1.614,0.448c0.631,0.042 1.124,-0.04 1.479,-0.245c0.243,-0.14 0.219,-0.295 -0.074,-0.464Z" style="fill:#fff;fill-rule:nonzero;"/></g></g></g><defs><linearGradient id="_Linear1" x1="0" y1="0" x2="1" y2="0" gradientUnits="userSpaceOnUse" gradientTransform="matrix(6.01487,0,8.88178e-16,6.01487,99.9044,61.3392)"><stop offset="0" style="stop-color:#fef2e6;stop-opacity:1"/><stop offset="1" style="stop-color:#e3d9d0;stop-opacity:1"/></linearGradient><linearGradient id="_Linear2" x1="0" y1="0" x2="1" y2="0" gradientUnits="userSpaceOnUse" gradientTransform="matrix(6.01487,0,8.88178e-16,6.01487,48.5042,91.0151)"><stop offset="0" style="stop-color:#f8f8f8;stop-opacity:1"/><stop offset="1" style="stop-color:#d9d9d9;stop-opacity:1"/></linearGradient></defs></svg>