<?xml version="1.0" encoding="UTF-8" standalone="no"?><!DOCTYPE svg PUBLIC "-//W3C//DTD SVG 1.1//EN" "http://www.w3.org/Graphics/SVG/1.1/DTD/svg11.dtd"><svg width="100%" height="100%" viewBox="0 0 168 120" version="1.1" xmlns="http://www.w3.org/2000/svg" xmlns:xlink="http://www.w3.org/1999/xlink" xml:space="preserve" xmlns:serif="http://www.serif.com/" style="fill-rule:evenodd;clip-rule:evenodd;stroke-linejoin:round;stroke-miterlimit:2;"><g id="Apple"><path d="M8.048,65.562c-1.394,-26.13 15.185,-31.211 19.685,-29.928c5.576,1.591 14.309,2.62 18.632,2.022c6.663,-0.922 32.993,-12.183 32.587,25.581c-0.393,36.539 -23.746,37.905 -27.056,36.009c-5.821,-3.333 -11.173,-2.252 -17.453,-0.887c-23.651,5.141 -26.377,-32.455 -26.395,-32.797Z" style="fill:#c10102;"/><path d="M43.221,35.685c-0.194,-10.063 -12.241,-14.916 -20.693,-15.766c1.399,4.007 7.539,13.737 16.281,15.811c1.522,0.361 3.01,0.382 4.412,-0.045Z" style="fill:#c10102;"/><path d="M41.499,33.314c-1.17,0.659 1.838,6.002 1.838,6.002l1.614,-0.299c-0,-0 -2.282,-6.361 -3.452,-5.703Z" style="fill:#c10102;"/></g><g id="Pear"><path d="M130.459,25.278c5.1,0.784 11.85,1.88 16.082,17.85c1.257,4.743 1.318,6.449 5.658,14.164c6.894,12.255 6.742,25.072 1.92,33.575c-3.456,6.092 -6.658,12.561 -23.716,12.431c-12.283,-0.095 -26.394,-2.752 -30.509,-19.227c-3.024,-12.109 3.172,-21.898 6.121,-27.312c2.949,-5.414 6.714,-11.272 8.61,-20.191c1.896,-8.92 8.846,-12.365 15.834,-11.29Z" style="fill:#b6c94c;"/><path d="M130.193,11.379c0.08,1.675 -0.438,10.97 -3.234,13.504c-1.519,1.376 7.332,4.071 6.514,0.195c-0.751,-3.558 0.584,-12.084 1.249,-14.177c0.665,-2.094 -4.748,-4.098 -4.529,0.478Z" style="fill:#b6c94c;"/></g></svg>