<?xml version="1.0" encoding="UTF-8" standalone="no"?><!DOCTYPE svg PUBLIC "-//W3C//DTD SVG 1.1//EN" "http://www.w3.org/Graphics/SVG/1.1/DTD/svg11.dtd"><svg width="100%" height="100%" viewBox="0 0 1182 591" version="1.1" xmlns="http://www.w3.org/2000/svg" xmlns:xlink="http://www.w3.org/1999/xlink" xml:space="preserve" xmlns:serif="http://www.serif.com/" style="fill-rule:evenodd;clip-rule:evenodd;stroke-linecap:round;stroke-miterlimit:10;"><path d="M483.243,65.446l3.8,0l0,-18.05c0,-2.9 -0.3,-7.15 -0.6,-10.05l0.2,0l2.55,7.9l6.15,16.95l3.05,0l6.15,-16.95l2.55,-7.9l0.2,0c-0.25,2.9 -0.6,7.15 -0.6,10.05l0,18.05l3.9,0l0,-32.8l-5.2,0l-6.2,17.55c-0.8,2.25 -1.4,4.35 -2.1,6.8l-0.2,0c-0.75,-2.45 -1.45,-4.55 -2.2,-6.8l-6.2,-17.55l-5.25,0l0,32.8Z" style="fill-rule:nonzero;"/><path d="M528.393,43.896c3.75,0 5.9,2.55 5.9,7.25l-12.65,0c0.65,-5.2 3.75,-7.25 6.75,-7.25Zm0.65,22.15c3.3,0 5.9,-1.05 8.05,-2.5l-1.5,-2.7c-1.7,1.15 -3.75,1.85 -6.05,1.85c-4.1,0 -7.6,-2.85 -8,-8.3l16.25,0c0.15,-0.8 0.2,-1.6 0.2,-2.45c0,-6.9 -3.4,-11.4 -9.65,-11.4c-5.6,0 -11,4.85 -11,12.75c0,8.05 5.15,12.75 11.7,12.75Z" style="fill-rule:nonzero;"/><path d="M548.893,66.046c3.05,0 5.65,-1.55 8.05,-3.5l0.15,0l0.35,2.9l3.4,0l0,-14.9c0,-6.05 -2.55,-10 -8.45,-10c-3.9,0 -7.3,1.65 -9.55,3.15l1.6,2.8c1.9,-1.2 4.45,-2.5 7.25,-2.5c3.95,0 5,2.95 5.05,6c-10.4,1.15 -15,3.7 -15,9.15c0,4.4 3.1,6.9 7.15,6.9Zm1.15,-3.4c-2.35,0 -4.25,-1.05 -4.25,-3.75c0,-3.15 2.75,-5 10.95,-5.95l0,6.55c-2.35,2.1 -4.35,3.15 -6.7,3.15Z" style="fill-rule:nonzero;"/><path d="M568.493,65.446l4.1,0l0,-17.6c2.45,-2.45 4.15,-3.75 6.65,-3.75c3.2,0 4.6,1.95 4.6,6.5l0,14.85l4.1,0l0,-15.4c0,-6.2 -2.3,-9.5 -7.4,-9.5c-3.35,0 -5.85,1.8 -8.15,4.1l-0.15,0l-0.35,-3.5l-3.4,0l0,24.3Z" style="fill-rule:nonzero;"/><path d="M612.543,59.096l3.25,0l0,-8.85l9.1,0l0,-3.1l-9.1,0l0,-9.5l-3.25,0l0,9.5l-9.1,0l0,3.1l9.1,0l0,8.85Zm-9.1,6.35l21.45,0l0,-3.1l-21.45,0l0,3.1Z" style="fill-rule:nonzero;"/><path d="M640.543,65.446l18,0l0,-3.4l-6.6,0l0,-28.5l-3.15,0c-1.75,1.05 -3.85,1.85 -6.75,2.35l0,2.65l5.8,0l0,23.5l-7.3,0l0,3.4Z" style="fill-rule:nonzero;"/><path d="M667.693,66.046c1.6,0 2.95,-1.3 2.95,-3.1c0,-1.9 -1.35,-3.2 -2.95,-3.2c-1.65,0 -3,1.3 -3,3.2c0,1.8 1.35,3.1 3,3.1Z" style="fill-rule:nonzero;"/><path d="M679.743,43.196c0,-4.2 2.45,-7 5.55,-7c4.05,0 6.5,3.3 7.05,9.5c-2.05,3 -4.6,4.25 -6.7,4.25c-3.95,0 -5.9,-2.6 -5.9,-6.75Zm4.4,22.85c6.35,0 12.15,-4.95 12.15,-17.75c0,-10.25 -4.7,-15.35 -11,-15.35c-5.1,0 -9.4,4.15 -9.4,10.25c0,6.55 3.55,9.85 9.05,9.85c2.65,0 5.5,-1.55 7.5,-4.1c-0.15,10.2 -3.95,13.7 -8.45,13.7c-2,0 -3.95,-1 -5.25,-2.55l-2.3,2.6c1.75,1.9 4.3,3.35 7.7,3.35Z" style="fill-rule:nonzero;"/><path d="M711.793,49.046c3.95,0 5.9,2.6 5.9,6.75c0,4.2 -2.4,7 -5.55,7c-4.05,0 -6.5,-3.35 -7,-9.55c2,-2.95 4.6,-4.2 6.65,-4.2Zm0.35,17c5.15,0 9.45,-4.15 9.45,-10.25c0,-6.55 -3.6,-9.85 -9.1,-9.85c-2.6,0 -5.45,1.55 -7.45,4c0.2,-10.1 3.95,-13.55 8.4,-13.55c2,0 3.95,0.95 5.25,2.5l2.3,-2.55c-1.8,-1.95 -4.25,-3.4 -7.7,-3.4c-6.35,0 -12.15,4.95 -12.15,17.75c0,10.25 4.75,15.35 11,15.35Z" style="fill-rule:nonzero;"/><path d="M737.193,66.046c6.9,0 11.15,-4.15 11.15,-9.35c0,-4.85 -2.95,-7.1 -6.75,-8.75l-4.65,-2c-2.6,-1.1 -5.45,-2.3 -5.45,-5.45c0,-2.95 2.45,-4.8 6.1,-4.8c2.85,0 5.4,1.2 7.4,3.05l2.3,-2.75c-2.3,-2.3 -5.7,-3.95 -9.7,-3.95c-5.95,0 -10.3,3.7 -10.3,8.7c0,4.8 3.55,7.15 6.65,8.45l4.7,2.05c3.1,1.4 5.45,2.45 5.45,5.8c0,3.2 -2.55,5.35 -6.85,5.35c-3.5,0 -6.85,-1.55 -9.2,-4l-2.35,2.75c2.85,3.05 6.8,4.9 11.5,4.9Z" style="fill-rule:nonzero;"/><path d="M754.793,65.446l19.4,0l0,-3.55l-15.25,0l0,-11.9l12.45,0l0,-3.55l-12.45,0l0,-10.3l14.75,0l0,-3.5l-18.9,0l0,32.8Z" style="fill-rule:nonzero;"/><g transform="matrix(1,0,0,1,-1000.91,-143.278)"><g transform="matrix(50,0,0,50,1439.29,270.924)"><path d="M0.305,-0.667l0.145,0.25l-0.05,0l-0.095,-0.165l-0.095,0.165l-0.048,0l0.143,-0.25Zm0.209,0.304l0,0.05l-0.417,0.001l0.001,-0.051l0.416,0Zm0,0.109l0,0.051l-0.417,0l0,-0.05l0.417,-0.001Z" style="fill-rule:nonzero;"/></g><g transform="matrix(50,0,0,50,1479.68,270.924)"><path d="M0.09,0l0.076,0l0,-0.361c0,-0.058 -0.006,-0.143 -0.012,-0.201l0.004,0l0.051,0.158l0.123,0.339l0.061,0l0.123,-0.339l0.051,-0.158l0.004,0c-0.005,0.058 -0.012,0.143 -0.012,0.201l0,0.361l0.078,0l0,-0.656l-0.104,0l-0.124,0.351c-0.016,0.045 -0.028,0.087 -0.042,0.136l-0.004,0c-0.015,-0.049 -0.029,-0.091 -0.044,-0.136l-0.124,-0.351l-0.105,0l0,0.656Z" style="fill-rule:nonzero;"/></g><g transform="matrix(50,0,0,50,1516.03,270.924)"><path d="M0.266,-0.431c0.075,0 0.118,0.051 0.118,0.145l-0.253,0c0.013,-0.104 0.075,-0.145 0.135,-0.145Zm0.013,0.443c0.066,0 0.118,-0.021 0.161,-0.05l-0.03,-0.054c-0.034,0.023 -0.075,0.037 -0.121,0.037c-0.082,0 -0.152,-0.057 -0.16,-0.166l0.325,0c0.003,-0.016 0.004,-0.032 0.004,-0.049c0,-0.138 -0.068,-0.228 -0.193,-0.228c-0.112,0 -0.22,0.097 -0.22,0.255c0,0.161 0.103,0.255 0.234,0.255Z" style="fill-rule:nonzero;"/></g><g transform="matrix(50,0,0,50,1540.13,270.924)"><path d="M0.194,0.012c0.061,0 0.113,-0.031 0.161,-0.07l0.003,0l0.007,0.058l0.068,0l0,-0.298c0,-0.121 -0.051,-0.2 -0.169,-0.2c-0.078,0 -0.146,0.033 -0.191,0.063l0.032,0.056c0.038,-0.024 0.089,-0.05 0.145,-0.05c0.079,0 0.1,0.059 0.101,0.12c-0.208,0.023 -0.3,0.074 -0.3,0.183c0,0.088 0.062,0.138 0.143,0.138Zm0.023,-0.068c-0.047,0 -0.085,-0.021 -0.085,-0.075c0,-0.063 0.055,-0.1 0.219,-0.119l0,0.131c-0.047,0.042 -0.087,0.063 -0.134,0.063Z" style="fill-rule:nonzero;"/></g><g transform="matrix(50,0,0,50,1565.33,270.924)"><path d="M0.082,0l0.082,0l0,-0.352c0.049,-0.049 0.083,-0.075 0.133,-0.075c0.064,0 0.092,0.039 0.092,0.13l0,0.297l0.082,0l0,-0.308c0,-0.124 -0.046,-0.19 -0.148,-0.19c-0.067,0 -0.117,0.036 -0.163,0.082l-0.003,0l-0.007,-0.07l-0.068,0l0,0.486Z" style="fill-rule:nonzero;"/></g><g transform="matrix(50,0,0,50,1602.68,270.924)"><path d="M0.216,-0.127l0.065,0l0,-0.177l0.182,0l0,-0.062l-0.182,0l0,-0.19l-0.065,0l0,0.19l-0.182,0l0,0.062l0.182,0l0,0.177Zm-0.182,0.127l0.429,0l0,-0.062l-0.429,0l0,0.062Z" style="fill-rule:nonzero;"/></g><g transform="matrix(50,0,0,50,1637.53,270.924)"><path d="M0.338,0.012c0.084,0 0.148,-0.034 0.201,-0.095l-0.046,-0.05c-0.042,0.047 -0.089,0.072 -0.152,0.072c-0.124,0 -0.203,-0.104 -0.203,-0.269c0,-0.163 0.082,-0.265 0.206,-0.265c0.056,0 0.099,0.023 0.134,0.06l0.045,-0.052c-0.038,-0.043 -0.1,-0.081 -0.18,-0.081c-0.167,0 -0.291,0.129 -0.291,0.34c0,0.214 0.122,0.34 0.286,0.34Z" style="fill-rule:nonzero;"/></g><g transform="matrix(50,0,0,50,1666.08,270.924)"><rect x="0.09" y="-0.656" width="0.083" height="0.656" style="fill-rule:nonzero;"/></g></g><g transform="matrix(1,0,0,1,-1145.25,432.322)"><g transform="matrix(50,0,0,50,1284.84,54.98)"><path d="M0.332,0.012c0.165,0 0.281,-0.132 0.281,-0.343c0,-0.209 -0.116,-0.337 -0.281,-0.337c-0.165,0 -0.28,0.127 -0.28,0.337c0,0.211 0.115,0.343 0.28,0.343Zm0,-0.073c-0.117,0 -0.194,-0.106 -0.194,-0.27c0,-0.163 0.077,-0.264 0.194,-0.264c0.117,0 0.194,0.101 0.194,0.264c0,0.164 -0.077,0.27 -0.194,0.27Z" style="fill-rule:nonzero;"/></g><g transform="matrix(50,0,0,50,1318.04,54.98)"><path d="M0.297,0.012c0.111,0 0.21,-0.097 0.21,-0.263c0,-0.15 -0.067,-0.247 -0.193,-0.247c-0.054,0 -0.108,0.029 -0.152,0.068l0.002,-0.088l0,-0.194l-0.082,0l0,0.712l0.066,0l0.007,-0.05l0.003,0c0.043,0.039 0.094,0.062 0.139,0.062Zm-0.014,-0.069c-0.032,0 -0.076,-0.014 -0.119,-0.051l0,-0.255c0.046,-0.043 0.089,-0.066 0.13,-0.066c0.092,0 0.128,0.072 0.128,0.179c0,0.12 -0.059,0.193 -0.139,0.193Z" style="fill-rule:nonzero;"/></g><g transform="matrix(50,0,0,50,1345.69,54.98)"><path d="M0.209,0.012c0.115,0 0.178,-0.066 0.178,-0.145c0,-0.088 -0.074,-0.121 -0.15,-0.148c-0.06,-0.021 -0.103,-0.039 -0.103,-0.083c0,-0.037 0.028,-0.07 0.089,-0.07c0.044,0 0.079,0.014 0.113,0.038l0.038,-0.047c-0.038,-0.032 -0.091,-0.055 -0.151,-0.055c-0.106,0 -0.168,0.06 -0.168,0.138c0,0.08 0.07,0.115 0.143,0.141c0.055,0.02 0.11,0.041 0.11,0.091c0,0.042 -0.032,0.076 -0.096,0.076c-0.06,0 -0.104,-0.019 -0.146,-0.054l-0.038,0.048c0.045,0.044 0.11,0.07 0.181,0.07Z" style="fill-rule:nonzero;"/></g><g transform="matrix(50,0,0,50,1366.64,54.98)"><path d="M0.266,-0.431c0.075,0 0.118,0.051 0.118,0.145l-0.253,0c0.013,-0.104 0.075,-0.145 0.135,-0.145Zm0.013,0.443c0.066,0 0.118,-0.021 0.161,-0.05l-0.03,-0.054c-0.034,0.023 -0.075,0.037 -0.121,0.037c-0.082,0 -0.152,-0.057 -0.16,-0.166l0.325,0c0.003,-0.016 0.004,-0.032 0.004,-0.049c0,-0.138 -0.068,-0.228 -0.193,-0.228c-0.112,0 -0.22,0.097 -0.22,0.255c0,0.161 0.103,0.255 0.234,0.255Z" style="fill-rule:nonzero;"/></g><g transform="matrix(50,0,0,50,1391.44,54.98)"><path d="M0.082,0l0.082,0l0,-0.312c0.033,-0.082 0.082,-0.112 0.123,-0.112c0.02,0 0.03,0.002 0.045,0.006l0.018,-0.07c-0.016,-0.007 -0.031,-0.01 -0.052,-0.01c-0.055,0 -0.105,0.039 -0.138,0.1l-0.003,0l-0.007,-0.088l-0.068,0l0,0.486Z" style="fill-rule:nonzero;"/></g><g transform="matrix(50,0,0,50,1410.04,54.98)"><path d="M0.187,0l0.096,0l0.172,-0.486l-0.081,0l-0.092,0.276c-0.014,0.048 -0.03,0.097 -0.044,0.143l-0.004,0c-0.015,-0.046 -0.031,-0.095 -0.045,-0.143l-0.092,-0.276l-0.085,0l0.175,0.486Z" style="fill-rule:nonzero;"/></g><g transform="matrix(50,0,0,50,1433.19,54.98)"><path d="M0.266,-0.431c0.075,0 0.118,0.051 0.118,0.145l-0.253,0c0.013,-0.104 0.075,-0.145 0.135,-0.145Zm0.013,0.443c0.066,0 0.118,-0.021 0.161,-0.05l-0.03,-0.054c-0.034,0.023 -0.075,0.037 -0.121,0.037c-0.082,0 -0.152,-0.057 -0.16,-0.166l0.325,0c0.003,-0.016 0.004,-0.032 0.004,-0.049c0,-0.138 -0.068,-0.228 -0.193,-0.228c-0.112,0 -0.22,0.097 -0.22,0.255c0,0.161 0.103,0.255 0.234,0.255Z" style="fill-rule:nonzero;"/></g><g transform="matrix(50,0,0,50,1457.99,54.98)"><path d="M0.248,0.012c0.057,0 0.109,-0.032 0.147,-0.069l0.003,0l0.007,0.057l0.068,0l0,-0.712l-0.083,0l0,0.187l0.004,0.083c-0.043,-0.035 -0.08,-0.056 -0.136,-0.056c-0.111,0 -0.211,0.098 -0.211,0.256c0,0.162 0.079,0.254 0.201,0.254Zm0.018,-0.069c-0.085,0 -0.134,-0.07 -0.134,-0.186c0,-0.111 0.062,-0.186 0.14,-0.186c0.04,0 0.077,0.014 0.118,0.051l0,0.254c-0.04,0.045 -0.079,0.067 -0.124,0.067Z" style="fill-rule:nonzero;"/></g><g transform="matrix(50,0,0,50,1495.74,54.98)"><path d="M0.082,0l0.082,0l0,-0.352c0.045,-0.05 0.086,-0.075 0.122,-0.075c0.062,0 0.091,0.039 0.091,0.13l0,0.297l0.082,0l0,-0.352c0.045,-0.05 0.084,-0.075 0.122,-0.075c0.061,0 0.09,0.039 0.09,0.13l0,0.297l0.082,0l0,-0.308c0,-0.124 -0.048,-0.19 -0.148,-0.19c-0.059,0 -0.109,0.038 -0.16,0.093c-0.02,-0.058 -0.06,-0.093 -0.134,-0.093c-0.058,0 -0.109,0.036 -0.151,0.082l-0.003,0l-0.007,-0.07l-0.068,0l0,0.486Z" style="fill-rule:nonzero;"/></g><g transform="matrix(50,0,0,50,1537.19,54.98)"><path d="M0.266,-0.431c0.075,0 0.118,0.051 0.118,0.145l-0.253,0c0.013,-0.104 0.075,-0.145 0.135,-0.145Zm0.013,0.443c0.066,0 0.118,-0.021 0.161,-0.05l-0.03,-0.054c-0.034,0.023 -0.075,0.037 -0.121,0.037c-0.082,0 -0.152,-0.057 -0.16,-0.166l0.325,0c0.003,-0.016 0.004,-0.032 0.004,-0.049c0,-0.138 -0.068,-0.228 -0.193,-0.228c-0.112,0 -0.22,0.097 -0.22,0.255c0,0.161 0.103,0.255 0.234,0.255Z" style="fill-rule:nonzero;"/></g><g transform="matrix(50,0,0,50,1561.29,54.98)"><path d="M0.194,0.012c0.061,0 0.113,-0.031 0.161,-0.07l0.003,0l0.007,0.058l0.068,0l0,-0.298c0,-0.121 -0.051,-0.2 -0.169,-0.2c-0.078,0 -0.146,0.033 -0.191,0.063l0.032,0.056c0.038,-0.024 0.089,-0.05 0.145,-0.05c0.079,0 0.1,0.059 0.101,0.12c-0.208,0.023 -0.3,0.074 -0.3,0.183c0,0.088 0.062,0.138 0.143,0.138Zm0.023,-0.068c-0.047,0 -0.085,-0.021 -0.085,-0.075c0,-0.063 0.055,-0.1 0.219,-0.119l0,0.131c-0.047,0.042 -0.087,0.063 -0.134,0.063Z" style="fill-rule:nonzero;"/></g><g transform="matrix(50,0,0,50,1586.49,54.98)"><path d="M0.082,0l0.082,0l0,-0.352c0.049,-0.049 0.083,-0.075 0.133,-0.075c0.064,0 0.092,0.039 0.092,0.13l0,0.297l0.082,0l0,-0.308c0,-0.124 -0.046,-0.19 -0.148,-0.19c-0.067,0 -0.117,0.036 -0.163,0.082l-0.003,0l-0.007,-0.07l-0.068,0l0,0.486Z" style="fill-rule:nonzero;"/></g><g transform="matrix(50,0,0,50,1623.84,54.98)"><path d="M0.082,0l0.082,0l0,-0.486l-0.082,0l0,0.486Zm0.041,-0.586c0.032,0 0.055,-0.021 0.055,-0.054c0,-0.032 -0.023,-0.054 -0.055,-0.054c-0.032,0 -0.055,0.022 -0.055,0.054c0,0.033 0.023,0.054 0.055,0.054Z" style="fill-rule:nonzero;"/></g><g transform="matrix(50,0,0,50,1636.14,54.98)"><path d="M0.209,0.012c0.115,0 0.178,-0.066 0.178,-0.145c0,-0.088 -0.074,-0.121 -0.15,-0.148c-0.06,-0.021 -0.103,-0.039 -0.103,-0.083c0,-0.037 0.028,-0.07 0.089,-0.07c0.044,0 0.079,0.014 0.113,0.038l0.038,-0.047c-0.038,-0.032 -0.091,-0.055 -0.151,-0.055c-0.106,0 -0.168,0.06 -0.168,0.138c0,0.08 0.07,0.115 0.143,0.141c0.055,0.02 0.11,0.041 0.11,0.091c0,0.042 -0.032,0.076 -0.096,0.076c-0.06,0 -0.104,-0.019 -0.146,-0.054l-0.038,0.048c0.045,0.044 0.11,0.07 0.181,0.07Z" style="fill-rule:nonzero;"/></g><g transform="matrix(50,0,0,50,1667.09,54.98)"><path d="M0.209,0.012c0.115,0 0.178,-0.066 0.178,-0.145c0,-0.088 -0.074,-0.121 -0.15,-0.148c-0.06,-0.021 -0.103,-0.039 -0.103,-0.083c0,-0.037 0.028,-0.07 0.089,-0.07c0.044,0 0.079,0.014 0.113,0.038l0.038,-0.047c-0.038,-0.032 -0.091,-0.055 -0.151,-0.055c-0.106,0 -0.168,0.06 -0.168,0.138c0,0.08 0.07,0.115 0.143,0.141c0.055,0.02 0.11,0.041 0.11,0.091c0,0.042 -0.032,0.076 -0.096,0.076c-0.06,0 -0.104,-0.019 -0.146,-0.054l-0.038,0.048c0.045,0.044 0.11,0.07 0.181,0.07Z" style="fill-rule:nonzero;"/></g><g transform="matrix(50,0,0,50,1688.04,54.98)"><path d="M0.082,0l0.082,0l0,-0.486l-0.082,0l0,0.486Zm0.041,-0.586c0.032,0 0.055,-0.021 0.055,-0.054c0,-0.032 -0.023,-0.054 -0.055,-0.054c-0.032,0 -0.055,0.022 -0.055,0.054c0,0.033 0.023,0.054 0.055,0.054Z" style="fill-rule:nonzero;"/></g><g transform="matrix(50,0,0,50,1700.34,54.98)"><path d="M0.246,0.224c0.151,0 0.246,-0.078 0.246,-0.168c0,-0.081 -0.057,-0.116 -0.17,-0.116l-0.094,0c-0.066,0 -0.086,-0.022 -0.086,-0.053c0,-0.027 0.014,-0.043 0.031,-0.058c0.022,0.011 0.049,0.017 0.073,0.017c0.099,0 0.178,-0.065 0.178,-0.169c0,-0.041 -0.017,-0.078 -0.04,-0.1l0.1,0l0,-0.063l-0.169,0c-0.018,-0.007 -0.042,-0.012 -0.069,-0.012c-0.099,0 -0.183,0.067 -0.183,0.173c0,0.058 0.031,0.105 0.063,0.131l0,0.004c-0.025,0.017 -0.053,0.049 -0.053,0.09c0,0.038 0.019,0.064 0.043,0.079l0,0.004c-0.044,0.03 -0.071,0.069 -0.071,0.11c0,0.084 0.082,0.131 0.201,0.131Zm0,-0.433c-0.056,0 -0.103,-0.045 -0.103,-0.116c0,-0.071 0.046,-0.113 0.103,-0.113c0.057,0 0.103,0.042 0.103,0.113c0,0.071 -0.047,0.116 -0.103,0.116Zm0.012,0.376c-0.088,0 -0.141,-0.033 -0.141,-0.085c0,-0.028 0.015,-0.057 0.05,-0.082c0.021,0.006 0.044,0.008 0.063,0.008l0.084,0c0.063,0 0.098,0.015 0.098,0.06c0,0.051 -0.061,0.099 -0.154,0.099Z" style="fill-rule:nonzero;"/></g><g transform="matrix(50,0,0,50,1725.54,54.98)"><path d="M0.082,0l0.082,0l0,-0.352c0.049,-0.049 0.083,-0.075 0.133,-0.075c0.064,0 0.092,0.039 0.092,0.13l0,0.297l0.082,0l0,-0.308c0,-0.124 -0.046,-0.19 -0.148,-0.19c-0.067,0 -0.117,0.036 -0.163,0.082l-0.003,0l-0.007,-0.07l-0.068,0l0,0.486Z" style="fill-rule:nonzero;"/></g><g transform="matrix(50,0,0,50,1752.89,54.98)"><path d="M0.082,0l0.082,0l0,-0.486l-0.082,0l0,0.486Zm0.041,-0.586c0.032,0 0.055,-0.021 0.055,-0.054c0,-0.032 -0.023,-0.054 -0.055,-0.054c-0.032,0 -0.055,0.022 -0.055,0.054c0,0.033 0.023,0.054 0.055,0.054Z" style="fill-rule:nonzero;"/></g><g transform="matrix(50,0,0,50,1765.19,54.98)"><path d="M0.096,0l0.082,0l0,-0.419l0.103,0l0,-0.067l-0.103,0l0,-0.077c0,-0.062 0.022,-0.094 0.068,-0.094c0.018,0 0.035,0.003 0.055,0.009l0.018,-0.06c-0.021,-0.009 -0.051,-0.016 -0.081,-0.016c-0.097,0 -0.142,0.062 -0.142,0.161l0,0.077l-0.066,0.005l0,0.062l0.066,0l0,0.419Z" style="fill-rule:nonzero;"/></g><g transform="matrix(50,0,0,50,1779.79,54.98)"><path d="M0.082,0l0.082,0l0,-0.486l-0.082,0l0,0.486Zm0.041,-0.586c0.032,0 0.055,-0.021 0.055,-0.054c0,-0.032 -0.023,-0.054 -0.055,-0.054c-0.032,0 -0.055,0.022 -0.055,0.054c0,0.033 0.023,0.054 0.055,0.054Z" style="fill-rule:nonzero;"/></g><g transform="matrix(50,0,0,50,1792.09,54.98)"><path d="M0.274,0.012c0.058,0 0.113,-0.022 0.157,-0.062l-0.036,-0.052c-0.029,0.026 -0.069,0.046 -0.114,0.046c-0.089,0 -0.15,-0.075 -0.15,-0.186c0,-0.112 0.064,-0.188 0.152,-0.188c0.04,0 0.071,0.016 0.098,0.041l0.041,-0.052c-0.034,-0.032 -0.078,-0.057 -0.142,-0.057c-0.125,0 -0.234,0.093 -0.234,0.256c0,0.161 0.099,0.254 0.228,0.254Z" style="fill-rule:nonzero;"/></g><g transform="matrix(50,0,0,50,1814.39,54.98)"><path d="M0.194,0.012c0.061,0 0.113,-0.031 0.161,-0.07l0.003,0l0.007,0.058l0.068,0l0,-0.298c0,-0.121 -0.051,-0.2 -0.169,-0.2c-0.078,0 -0.146,0.033 -0.191,0.063l0.032,0.056c0.038,-0.024 0.089,-0.05 0.145,-0.05c0.079,0 0.1,0.059 0.101,0.12c-0.208,0.023 -0.3,0.074 -0.3,0.183c0,0.088 0.062,0.138 0.143,0.138Zm0.023,-0.068c-0.047,0 -0.085,-0.021 -0.085,-0.075c0,-0.063 0.055,-0.1 0.219,-0.119l0,0.131c-0.047,0.042 -0.087,0.063 -0.134,0.063Z" style="fill-rule:nonzero;"/></g><g transform="matrix(50,0,0,50,1839.59,54.98)"><path d="M0.082,0l0.082,0l0,-0.352c0.049,-0.049 0.083,-0.075 0.133,-0.075c0.064,0 0.092,0.039 0.092,0.13l0,0.297l0.082,0l0,-0.308c0,-0.124 -0.046,-0.19 -0.148,-0.19c-0.067,0 -0.117,0.036 -0.163,0.082l-0.003,0l-0.007,-0.07l-0.068,0l0,0.486Z" style="fill-rule:nonzero;"/></g><g transform="matrix(50,0,0,50,1866.94,54.98)"><path d="M0.235,0.012c0.033,0 0.065,-0.009 0.091,-0.021l-0.017,-0.058c-0.019,0.009 -0.038,0.012 -0.055,0.012c-0.056,0 -0.075,-0.034 -0.075,-0.094l0,-0.27l0.131,0l0,-0.067l-0.131,0l0,-0.156l-0.069,0l-0.01,0.156l-0.076,0.005l0,0.062l0.072,0l0,0.269c0,0.096 0.035,0.162 0.139,0.162Z" style="fill-rule:nonzero;"/></g><g transform="matrix(50,0,0,50,1883.84,54.98)"><path d="M0.169,0.012c0.02,0 0.036,-0.003 0.047,-0.009l-0.011,-0.061c-0.008,0.002 -0.012,0.002 -0.017,0.002c-0.013,0 -0.024,-0.009 -0.024,-0.036l0,-0.62l-0.082,0l0,0.614c0,0.071 0.025,0.11 0.087,0.11Z" style="fill-rule:nonzero;"/></g><g transform="matrix(50,0,0,50,1896.59,54.98)"><path d="M0.09,0.209c0.098,0 0.148,-0.073 0.182,-0.169l0.183,-0.526l-0.08,0l-0.087,0.269c-0.013,0.043 -0.027,0.093 -0.041,0.137l-0.004,0c-0.015,-0.045 -0.032,-0.095 -0.047,-0.137l-0.099,-0.269l-0.085,0l0.195,0.487l-0.011,0.036c-0.02,0.06 -0.055,0.104 -0.11,0.104c-0.011,0 -0.023,-0.002 -0.035,-0.006l-0.018,0.064c0.016,0.006 0.035,0.01 0.057,0.01Z" style="fill-rule:nonzero;"/></g><g transform="matrix(50,0,0,50,1929.94,54.98)"><path d="M0.297,0.012c0.111,0 0.21,-0.097 0.21,-0.263c0,-0.15 -0.067,-0.247 -0.193,-0.247c-0.054,0 -0.108,0.029 -0.152,0.068l0.002,-0.088l0,-0.194l-0.082,0l0,0.712l0.066,0l0.007,-0.05l0.003,0c0.043,0.039 0.094,0.062 0.139,0.062Zm-0.014,-0.069c-0.032,0 -0.076,-0.014 -0.119,-0.051l0,-0.255c0.046,-0.043 0.089,-0.066 0.13,-0.066c0.092,0 0.128,0.072 0.128,0.179c0,0.12 -0.059,0.193 -0.139,0.193Z" style="fill-rule:nonzero;"/></g><g transform="matrix(50,0,0,50,1957.59,54.98)"><path d="M0.082,0l0.082,0l0,-0.486l-0.082,0l0,0.486Zm0.041,-0.586c0.032,0 0.055,-0.021 0.055,-0.054c0,-0.032 -0.023,-0.054 -0.055,-0.054c-0.032,0 -0.055,0.022 -0.055,0.054c0,0.033 0.023,0.054 0.055,0.054Z" style="fill-rule:nonzero;"/></g><g transform="matrix(50,0,0,50,1969.89,54.98)"><path d="M0.246,0.224c0.151,0 0.246,-0.078 0.246,-0.168c0,-0.081 -0.057,-0.116 -0.17,-0.116l-0.094,0c-0.066,0 -0.086,-0.022 -0.086,-0.053c0,-0.027 0.014,-0.043 0.031,-0.058c0.022,0.011 0.049,0.017 0.073,0.017c0.099,0 0.178,-0.065 0.178,-0.169c0,-0.041 -0.017,-0.078 -0.04,-0.1l0.1,0l0,-0.063l-0.169,0c-0.018,-0.007 -0.042,-0.012 -0.069,-0.012c-0.099,0 -0.183,0.067 -0.183,0.173c0,0.058 0.031,0.105 0.063,0.131l0,0.004c-0.025,0.017 -0.053,0.049 -0.053,0.09c0,0.038 0.019,0.064 0.043,0.079l0,0.004c-0.044,0.03 -0.071,0.069 -0.071,0.11c0,0.084 0.082,0.131 0.201,0.131Zm0,-0.433c-0.056,0 -0.103,-0.045 -0.103,-0.116c0,-0.071 0.046,-0.113 0.103,-0.113c0.057,0 0.103,0.042 0.103,0.113c0,0.071 -0.047,0.116 -0.103,0.116Zm0.012,0.376c-0.088,0 -0.141,-0.033 -0.141,-0.085c0,-0.028 0.015,-0.057 0.05,-0.082c0.021,0.006 0.044,0.008 0.063,0.008l0.084,0c0.063,0 0.098,0.015 0.098,0.06c0,0.051 -0.061,0.099 -0.154,0.099Z" style="fill-rule:nonzero;"/></g><g transform="matrix(50,0,0,50,1995.09,54.98)"><path d="M0.246,0.224c0.151,0 0.246,-0.078 0.246,-0.168c0,-0.081 -0.057,-0.116 -0.17,-0.116l-0.094,0c-0.066,0 -0.086,-0.022 -0.086,-0.053c0,-0.027 0.014,-0.043 0.031,-0.058c0.022,0.011 0.049,0.017 0.073,0.017c0.099,0 0.178,-0.065 0.178,-0.169c0,-0.041 -0.017,-0.078 -0.04,-0.1l0.1,0l0,-0.063l-0.169,0c-0.018,-0.007 -0.042,-0.012 -0.069,-0.012c-0.099,0 -0.183,0.067 -0.183,0.173c0,0.058 0.031,0.105 0.063,0.131l0,0.004c-0.025,0.017 -0.053,0.049 -0.053,0.09c0,0.038 0.019,0.064 0.043,0.079l0,0.004c-0.044,0.03 -0.071,0.069 -0.071,0.11c0,0.084 0.082,0.131 0.201,0.131Zm0,-0.433c-0.056,0 -0.103,-0.045 -0.103,-0.116c0,-0.071 0.046,-0.113 0.103,-0.113c0.057,0 0.103,0.042 0.103,0.113c0,0.071 -0.047,0.116 -0.103,0.116Zm0.012,0.376c-0.088,0 -0.141,-0.033 -0.141,-0.085c0,-0.028 0.015,-0.057 0.05,-0.082c0.021,0.006 0.044,0.008 0.063,0.008l0.084,0c0.063,0 0.098,0.015 0.098,0.06c0,0.051 -0.061,0.099 -0.154,0.099Z" style="fill-rule:nonzero;"/></g><g transform="matrix(50,0,0,50,2019.59,54.98)"><path d="M0.266,-0.431c0.075,0 0.118,0.051 0.118,0.145l-0.253,0c0.013,-0.104 0.075,-0.145 0.135,-0.145Zm0.013,0.443c0.066,0 0.118,-0.021 0.161,-0.05l-0.03,-0.054c-0.034,0.023 -0.075,0.037 -0.121,0.037c-0.082,0 -0.152,-0.057 -0.16,-0.166l0.325,0c0.003,-0.016 0.004,-0.032 0.004,-0.049c0,-0.138 -0.068,-0.228 -0.193,-0.228c-0.112,0 -0.22,0.097 -0.22,0.255c0,0.161 0.103,0.255 0.234,0.255Z" style="fill-rule:nonzero;"/></g><g transform="matrix(50,0,0,50,2044.39,54.98)"><path d="M0.082,0l0.082,0l0,-0.312c0.033,-0.082 0.082,-0.112 0.123,-0.112c0.02,0 0.03,0.002 0.045,0.006l0.018,-0.07c-0.016,-0.007 -0.031,-0.01 -0.052,-0.01c-0.055,0 -0.105,0.039 -0.138,0.1l-0.003,0l-0.007,-0.088l-0.068,0l0,0.486Z" style="fill-rule:nonzero;"/></g><g transform="matrix(50,0,0,50,2071.74,54.98)"><path d="M0.235,0.012c0.033,0 0.065,-0.009 0.091,-0.021l-0.017,-0.058c-0.019,0.009 -0.038,0.012 -0.055,0.012c-0.056,0 -0.075,-0.034 -0.075,-0.094l0,-0.27l0.131,0l0,-0.067l-0.131,0l0,-0.156l-0.069,0l-0.01,0.156l-0.076,0.005l0,0.062l0.072,0l0,0.269c0,0.096 0.035,0.162 0.139,0.162Z" style="fill-rule:nonzero;"/></g><g transform="matrix(50,0,0,50,2088.64,54.98)"><path d="M0.082,0l0.082,0l0,-0.352c0.049,-0.049 0.083,-0.075 0.133,-0.075c0.064,0 0.092,0.039 0.092,0.13l0,0.297l0.082,0l0,-0.308c0,-0.124 -0.046,-0.19 -0.148,-0.19c-0.067,0 -0.116,0.036 -0.162,0.08l0.003,-0.1l0,-0.194l-0.082,0l0,0.712Z" style="fill-rule:nonzero;"/></g><g transform="matrix(50,0,0,50,2115.84,54.98)"><path d="M0.194,0.012c0.061,0 0.113,-0.031 0.161,-0.07l0.003,0l0.007,0.058l0.068,0l0,-0.298c0,-0.121 -0.051,-0.2 -0.169,-0.2c-0.078,0 -0.146,0.033 -0.191,0.063l0.032,0.056c0.038,-0.024 0.089,-0.05 0.145,-0.05c0.079,0 0.1,0.059 0.101,0.12c-0.208,0.023 -0.3,0.074 -0.3,0.183c0,0.088 0.062,0.138 0.143,0.138Zm0.023,-0.068c-0.047,0 -0.085,-0.021 -0.085,-0.075c0,-0.063 0.055,-0.1 0.219,-0.119l0,0.131c-0.047,0.042 -0.087,0.063 -0.134,0.063Z" style="fill-rule:nonzero;"/></g><g transform="matrix(50,0,0,50,2141.04,54.98)"><path d="M0.082,0l0.082,0l0,-0.352c0.049,-0.049 0.083,-0.075 0.133,-0.075c0.064,0 0.092,0.039 0.092,0.13l0,0.297l0.082,0l0,-0.308c0,-0.124 -0.046,-0.19 -0.148,-0.19c-0.067,0 -0.117,0.036 -0.163,0.082l-0.003,0l-0.007,-0.07l-0.068,0l0,0.486Z" style="fill-rule:nonzero;"/></g><g transform="matrix(50,0,0,50,2178.39,54.98)"><path d="M0.249,0.012c0.127,0 0.204,-0.119 0.204,-0.333c0,-0.214 -0.077,-0.329 -0.204,-0.329c-0.128,0 -0.205,0.115 -0.205,0.329c0,0.214 0.077,0.333 0.205,0.333Zm0,-0.066c-0.075,0 -0.125,-0.08 -0.125,-0.267c0,-0.187 0.05,-0.263 0.125,-0.263c0.074,0 0.124,0.076 0.124,0.263c0,0.187 -0.05,0.267 -0.124,0.267Z" style="fill-rule:nonzero;"/></g><g transform="matrix(50,0,0,50,2203.24,54.98)"><path d="M0.125,0.012c0.032,0 0.059,-0.026 0.059,-0.062c0,-0.038 -0.027,-0.064 -0.059,-0.064c-0.033,0 -0.06,0.026 -0.06,0.064c0,0.036 0.027,0.062 0.06,0.062Z" style="fill-rule:nonzero;"/></g><g transform="matrix(50,0,0,50,1444.54,104.98)"><path d="M0.09,0l0.083,0l0,-0.26l0.108,0c0.144,0 0.242,-0.065 0.242,-0.203c0,-0.144 -0.099,-0.193 -0.246,-0.193l-0.187,0l0,0.656Zm0.083,-0.328l0,-0.261l0.094,0c0.115,0 0.173,0.031 0.173,0.126c0,0.093 -0.055,0.135 -0.169,0.135l-0.098,0Z" style="fill-rule:nonzero;"/></g><g transform="matrix(50,0,0,50,1472.84,104.98)"><path d="M0.082,0l0.082,0l0,-0.312c0.033,-0.082 0.082,-0.112 0.123,-0.112c0.02,0 0.03,0.002 0.045,0.006l0.018,-0.07c-0.016,-0.007 -0.031,-0.01 -0.052,-0.01c-0.055,0 -0.105,0.039 -0.138,0.1l-0.003,0l-0.007,-0.088l-0.068,0l0,0.486Z" style="fill-rule:nonzero;"/></g><g transform="matrix(50,0,0,50,1489.69,104.98)"><path d="M0.271,0.012c0.119,0 0.225,-0.093 0.225,-0.254c0,-0.163 -0.106,-0.256 -0.225,-0.256c-0.119,0 -0.225,0.093 -0.225,0.256c0,0.161 0.106,0.254 0.225,0.254Zm0,-0.068c-0.083,0 -0.14,-0.075 -0.14,-0.186c0,-0.112 0.057,-0.188 0.14,-0.188c0.084,0 0.14,0.076 0.14,0.188c0,0.111 -0.056,0.186 -0.14,0.186Z" style="fill-rule:nonzero;"/></g><g transform="matrix(50,0,0,50,1516.79,104.98)"><path d="M0.297,0.012c0.111,0 0.21,-0.097 0.21,-0.263c0,-0.15 -0.067,-0.247 -0.193,-0.247c-0.054,0 -0.108,0.029 -0.152,0.068l0.002,-0.088l0,-0.194l-0.082,0l0,0.712l0.066,0l0.007,-0.05l0.003,0c0.043,0.039 0.094,0.062 0.139,0.062Zm-0.014,-0.069c-0.032,0 -0.076,-0.014 -0.119,-0.051l0,-0.255c0.046,-0.043 0.089,-0.066 0.13,-0.066c0.092,0 0.128,0.072 0.128,0.179c0,0.12 -0.059,0.193 -0.139,0.193Z" style="fill-rule:nonzero;"/></g><g transform="matrix(50,0,0,50,1543.74,104.98)"><path d="M0.194,0.012c0.061,0 0.113,-0.031 0.161,-0.07l0.003,0l0.007,0.058l0.068,0l0,-0.298c0,-0.121 -0.051,-0.2 -0.169,-0.2c-0.078,0 -0.146,0.033 -0.191,0.063l0.032,0.056c0.038,-0.024 0.089,-0.05 0.145,-0.05c0.079,0 0.1,0.059 0.101,0.12c-0.208,0.023 -0.3,0.074 -0.3,0.183c0,0.088 0.062,0.138 0.143,0.138Zm0.023,-0.068c-0.047,0 -0.085,-0.021 -0.085,-0.075c0,-0.063 0.055,-0.1 0.219,-0.119l0,0.131c-0.047,0.042 -0.087,0.063 -0.134,0.063Z" style="fill-rule:nonzero;"/></g><g transform="matrix(50,0,0,50,1568.94,104.98)"><path d="M0.297,0.012c0.111,0 0.21,-0.097 0.21,-0.263c0,-0.15 -0.067,-0.247 -0.193,-0.247c-0.054,0 -0.108,0.029 -0.152,0.068l0.002,-0.088l0,-0.194l-0.082,0l0,0.712l0.066,0l0.007,-0.05l0.003,0c0.043,0.039 0.094,0.062 0.139,0.062Zm-0.014,-0.069c-0.032,0 -0.076,-0.014 -0.119,-0.051l0,-0.255c0.046,-0.043 0.089,-0.066 0.13,-0.066c0.092,0 0.128,0.072 0.128,0.179c0,0.12 -0.059,0.193 -0.139,0.193Z" style="fill-rule:nonzero;"/></g><g transform="matrix(50,0,0,50,1596.59,104.98)"><path d="M0.082,0l0.082,0l0,-0.486l-0.082,0l0,0.486Zm0.041,-0.586c0.032,0 0.055,-0.021 0.055,-0.054c0,-0.032 -0.023,-0.054 -0.055,-0.054c-0.032,0 -0.055,0.022 -0.055,0.054c0,0.033 0.023,0.054 0.055,0.054Z" style="fill-rule:nonzero;"/></g><g transform="matrix(50,0,0,50,1608.89,104.98)"><path d="M0.169,0.012c0.02,0 0.036,-0.003 0.047,-0.009l-0.011,-0.061c-0.008,0.002 -0.012,0.002 -0.017,0.002c-0.013,0 -0.024,-0.009 -0.024,-0.036l0,-0.62l-0.082,0l0,0.614c0,0.071 0.025,0.11 0.087,0.11Z" style="fill-rule:nonzero;"/></g><g transform="matrix(50,0,0,50,1621.64,104.98)"><path d="M0.082,0l0.082,0l0,-0.486l-0.082,0l0,0.486Zm0.041,-0.586c0.032,0 0.055,-0.021 0.055,-0.054c0,-0.032 -0.023,-0.054 -0.055,-0.054c-0.032,0 -0.055,0.022 -0.055,0.054c0,0.033 0.023,0.054 0.055,0.054Z" style="fill-rule:nonzero;"/></g><g transform="matrix(50,0,0,50,1633.94,104.98)"><path d="M0.235,0.012c0.033,0 0.065,-0.009 0.091,-0.021l-0.017,-0.058c-0.019,0.009 -0.038,0.012 -0.055,0.012c-0.056,0 -0.075,-0.034 -0.075,-0.094l0,-0.27l0.131,0l0,-0.067l-0.131,0l0,-0.156l-0.069,0l-0.01,0.156l-0.076,0.005l0,0.062l0.072,0l0,0.269c0,0.096 0.035,0.162 0.139,0.162Z" style="fill-rule:nonzero;"/></g><g transform="matrix(50,0,0,50,1650.84,104.98)"><path d="M0.09,0.209c0.098,0 0.148,-0.073 0.182,-0.169l0.183,-0.526l-0.08,0l-0.087,0.269c-0.013,0.043 -0.027,0.093 -0.041,0.137l-0.004,0c-0.015,-0.045 -0.032,-0.095 -0.047,-0.137l-0.099,-0.269l-0.085,0l0.195,0.487l-0.011,0.036c-0.02,0.06 -0.055,0.104 -0.11,0.104c-0.011,0 -0.023,-0.002 -0.035,-0.006l-0.018,0.064c0.016,0.006 0.035,0.01 0.057,0.01Z" style="fill-rule:nonzero;"/></g><g transform="matrix(50,0,0,50,1684.19,104.98)"><path d="M0.235,0.012c0.033,0 0.065,-0.009 0.091,-0.021l-0.017,-0.058c-0.019,0.009 -0.038,0.012 -0.055,0.012c-0.056,0 -0.075,-0.034 -0.075,-0.094l0,-0.27l0.131,0l0,-0.067l-0.131,0l0,-0.156l-0.069,0l-0.01,0.156l-0.076,0.005l0,0.062l0.072,0l0,0.269c0,0.096 0.035,0.162 0.139,0.162Z" style="fill-rule:nonzero;"/></g><g transform="matrix(50,0,0,50,1701.09,104.98)"><path d="M0.082,0l0.082,0l0,-0.352c0.049,-0.049 0.083,-0.075 0.133,-0.075c0.064,0 0.092,0.039 0.092,0.13l0,0.297l0.082,0l0,-0.308c0,-0.124 -0.046,-0.19 -0.148,-0.19c-0.067,0 -0.116,0.036 -0.162,0.08l0.003,-0.1l0,-0.194l-0.082,0l0,0.712Z" style="fill-rule:nonzero;"/></g><g transform="matrix(50,0,0,50,1728.29,104.98)"><path d="M0.194,0.012c0.061,0 0.113,-0.031 0.161,-0.07l0.003,0l0.007,0.058l0.068,0l0,-0.298c0,-0.121 -0.051,-0.2 -0.169,-0.2c-0.078,0 -0.146,0.033 -0.191,0.063l0.032,0.056c0.038,-0.024 0.089,-0.05 0.145,-0.05c0.079,0 0.1,0.059 0.101,0.12c-0.208,0.023 -0.3,0.074 -0.3,0.183c0,0.088 0.062,0.138 0.143,0.138Zm0.023,-0.068c-0.047,0 -0.085,-0.021 -0.085,-0.075c0,-0.063 0.055,-0.1 0.219,-0.119l0,0.131c-0.047,0.042 -0.087,0.063 -0.134,0.063Z" style="fill-rule:nonzero;"/></g><g transform="matrix(50,0,0,50,1752.79,104.98)"><path d="M0.235,0.012c0.033,0 0.065,-0.009 0.091,-0.021l-0.017,-0.058c-0.019,0.009 -0.038,0.012 -0.055,0.012c-0.056,0 -0.075,-0.034 -0.075,-0.094l0,-0.27l0.131,0l0,-0.067l-0.131,0l0,-0.156l-0.069,0l-0.01,0.156l-0.076,0.005l0,0.062l0.072,0l0,0.269c0,0.096 0.035,0.162 0.139,0.162Z" style="fill-rule:nonzero;"/></g><g transform="matrix(50,0,0,50,1779.69,104.98)"><path d="M0.082,0l0.082,0l0,-0.486l-0.082,0l0,0.486Zm0.041,-0.586c0.032,0 0.055,-0.021 0.055,-0.054c0,-0.032 -0.023,-0.054 -0.055,-0.054c-0.032,0 -0.055,0.022 -0.055,0.054c0,0.033 0.023,0.054 0.055,0.054Z" style="fill-rule:nonzero;"/></g><g transform="matrix(50,0,0,50,1791.99,104.98)"><path d="M0.235,0.012c0.033,0 0.065,-0.009 0.091,-0.021l-0.017,-0.058c-0.019,0.009 -0.038,0.012 -0.055,0.012c-0.056,0 -0.075,-0.034 -0.075,-0.094l0,-0.27l0.131,0l0,-0.067l-0.131,0l0,-0.156l-0.069,0l-0.01,0.156l-0.076,0.005l0,0.062l0.072,0l0,0.269c0,0.096 0.035,0.162 0.139,0.162Z" style="fill-rule:nonzero;"/></g><g transform="matrix(50,0,0,50,1818.89,104.98)"><path d="M0.082,0l0.082,0l0,-0.486l-0.082,0l0,0.486Zm0.041,-0.586c0.032,0 0.055,-0.021 0.055,-0.054c0,-0.032 -0.023,-0.054 -0.055,-0.054c-0.032,0 -0.055,0.022 -0.055,0.054c0,0.033 0.023,0.054 0.055,0.054Z" style="fill-rule:nonzero;"/></g><g transform="matrix(50,0,0,50,1831.19,104.98)"><path d="M0.209,0.012c0.115,0 0.178,-0.066 0.178,-0.145c0,-0.088 -0.074,-0.121 -0.15,-0.148c-0.06,-0.021 -0.103,-0.039 -0.103,-0.083c0,-0.037 0.028,-0.07 0.089,-0.07c0.044,0 0.079,0.014 0.113,0.038l0.038,-0.047c-0.038,-0.032 -0.091,-0.055 -0.151,-0.055c-0.106,0 -0.168,0.06 -0.168,0.138c0,0.08 0.07,0.115 0.143,0.141c0.055,0.02 0.11,0.041 0.11,0.091c0,0.042 -0.032,0.076 -0.096,0.076c-0.06,0 -0.104,-0.019 -0.146,-0.054l-0.038,0.048c0.045,0.044 0.11,0.07 0.181,0.07Z" style="fill-rule:nonzero;"/></g><g transform="matrix(50,0,0,50,1862.14,104.98)"><path d="M0.082,0l0.082,0l0,-0.352c0.049,-0.049 0.083,-0.075 0.133,-0.075c0.064,0 0.092,0.039 0.092,0.13l0,0.297l0.082,0l0,-0.308c0,-0.124 -0.046,-0.19 -0.148,-0.19c-0.067,0 -0.117,0.036 -0.163,0.082l-0.003,0l-0.007,-0.07l-0.068,0l0,0.486Z" style="fill-rule:nonzero;"/></g><g transform="matrix(50,0,0,50,1889.49,104.98)"><path d="M0.271,0.012c0.119,0 0.225,-0.093 0.225,-0.254c0,-0.163 -0.106,-0.256 -0.225,-0.256c-0.119,0 -0.225,0.093 -0.225,0.256c0,0.161 0.106,0.254 0.225,0.254Zm0,-0.068c-0.083,0 -0.14,-0.075 -0.14,-0.186c0,-0.112 0.057,-0.188 0.14,-0.188c0.084,0 0.14,0.076 0.14,0.188c0,0.111 -0.056,0.186 -0.14,0.186Z" style="fill-rule:nonzero;"/></g><g transform="matrix(50,0,0,50,1915.74,104.98)"><path d="M0.235,0.012c0.033,0 0.065,-0.009 0.091,-0.021l-0.017,-0.058c-0.019,0.009 -0.038,0.012 -0.055,0.012c-0.056,0 -0.075,-0.034 -0.075,-0.094l0,-0.27l0.131,0l0,-0.067l-0.131,0l0,-0.156l-0.069,0l-0.01,0.156l-0.076,0.005l0,0.062l0.072,0l0,0.269c0,0.096 0.035,0.162 0.139,0.162Z" style="fill-rule:nonzero;"/></g><g transform="matrix(50,0,0,50,1942.64,104.98)"><path d="M0.463,-0.131l0,-0.071l-0.211,-0.078l-0.134,-0.05l0,-0.004l0.134,-0.05l0.211,-0.078l0,-0.071l-0.429,0.168l0,0.066l0.429,0.168Z" style="fill-rule:nonzero;"/></g><g transform="matrix(50,0,0,50,1977.49,104.98)"><path d="M0.234,0.012c0.111,0 0.215,-0.078 0.215,-0.216c0,-0.138 -0.089,-0.2 -0.198,-0.2c-0.039,0 -0.068,0.01 -0.098,0.026l0.017,-0.189l0.247,0l0,-0.071l-0.319,0l-0.021,0.307l0.044,0.028c0.038,-0.025 0.065,-0.039 0.109,-0.039c0.082,0 0.136,0.052 0.136,0.14c0,0.089 -0.062,0.146 -0.14,0.146c-0.075,0 -0.123,-0.035 -0.161,-0.073l-0.04,0.054c0.044,0.044 0.107,0.087 0.209,0.087Z" style="fill-rule:nonzero;"/></g><g transform="matrix(50,0,0,50,2002.34,104.98)"><path d="M0.184,-0.254c0.089,0 0.149,-0.075 0.149,-0.208c0,-0.131 -0.06,-0.206 -0.149,-0.206c-0.09,0 -0.149,0.075 -0.149,0.206c0,0.133 0.059,0.208 0.149,0.208Zm0,-0.051c-0.052,0 -0.087,-0.053 -0.087,-0.157c0,-0.104 0.035,-0.155 0.087,-0.155c0.051,0 0.086,0.051 0.086,0.155c0,0.104 -0.035,0.157 -0.086,0.157Zm0.019,0.317l0.056,0l0.362,-0.68l-0.056,0l-0.362,0.68Zm0.438,0c0.089,0 0.149,-0.075 0.149,-0.208c0,-0.131 -0.06,-0.206 -0.149,-0.206c-0.09,0 -0.149,0.075 -0.149,0.206c0,0.133 0.059,0.208 0.149,0.208Zm0,-0.051c-0.052,0 -0.087,-0.053 -0.087,-0.157c0,-0.104 0.035,-0.155 0.087,-0.155c0.051,0 0.086,0.051 0.086,0.155c0,0.104 -0.035,0.157 -0.086,0.157Z" style="fill-rule:nonzero;"/></g><g transform="matrix(50,0,0,50,2043.54,104.98)"><path d="M0.125,0.012c0.032,0 0.059,-0.026 0.059,-0.062c0,-0.038 -0.027,-0.064 -0.059,-0.064c-0.033,0 -0.06,0.026 -0.06,0.064c0,0.036 0.027,0.062 0.06,0.062Z" style="fill-rule:nonzero;"/></g></g><path d="M316.223,113.405l0,125" style="fill:none;stroke:#000;stroke-width:6.25px;"/><path d="M911.106,113.405l0,125" style="fill:none;stroke:#000;stroke-width:6.25px;"/><path d="M316.223,175.905l594.883,0" style="fill:none;stroke:#000;stroke-width:6.25px;stroke-linejoin:round;stroke-miterlimit:1.5;"/><path d="M1107.05,270.144l-1012.65,0" style="fill:none;stroke:#000;stroke-width:4.17px;stroke-linejoin:round;stroke-miterlimit:1.5;"/><circle cx="613.665" cy="175.905" r="21.658"/><g id="ticks"><path d="M221.008,341.945c6.35,0 10.2,-5.95 10.2,-16.65c0,-10.7 -3.85,-16.45 -10.2,-16.45c-6.4,0 -10.25,5.75 -10.25,16.45c0,10.7 3.85,16.65 10.25,16.65Zm0,-3.3c-3.75,0 -6.25,-4 -6.25,-13.35c0,-9.35 2.5,-13.15 6.25,-13.15c3.7,0 6.2,3.8 6.2,13.15c0,9.35 -2.5,13.35 -6.2,13.35Z" style="fill-rule:nonzero;"/><path d="M339.09,341.345l18,0l0,-3.4l-6.6,0l0,-28.5l-3.15,0c-1.75,1.05 -3.85,1.85 -6.75,2.35l0,2.65l5.8,0l0,23.5l-7.3,0l0,3.4Z" style="fill-rule:nonzero;"/><path d="M463.721,341.345l20.6,0l0,-3.55l-9.6,0c-1.65,0 -3.6,0.15 -5.35,0.3c7.75,-7.95 13.35,-13.7 13.35,-19.9c0,-5.6 -3.65,-9.35 -9.55,-9.35c-4.1,0 -6.95,1.95 -9.6,4.95l2.3,2.25c1.85,-2.15 4.15,-3.85 6.8,-3.85c4.05,0 6.05,2.6 6.05,6.25c0,5.15 -5.45,11.05 -15,20.4l0,2.5Z" style="fill-rule:nonzero;"/><path d="M600.103,341.945c5.85,0 10.5,-3.45 10.5,-9.1c0,-4.4 -3.05,-7.2 -6.9,-8.1l0,-0.2c3.45,-1.3 5.8,-3.75 5.8,-7.6c0,-5.15 -4,-8.1 -9.55,-8.1c-3.75,0 -6.7,1.7 -9.15,4l2.2,2.6c1.9,-1.9 4.15,-3.25 6.8,-3.25c3.4,0 5.5,1.95 5.5,5.05c0,3.35 -2.25,5.95 -9.05,5.95l0,3.15c7.6,0 10.2,2.55 10.2,6.35c0,3.55 -2.75,5.85 -6.6,5.85c-3.75,0 -6.25,-1.8 -8.15,-3.8l-2.1,2.7c2.15,2.35 5.4,4.5 10.5,4.5Z" style="fill-rule:nonzero;"/><path d="M720.084,329.245l7.45,-10.9c0.9,-1.55 1.8,-2.95 2.6,-4.5l0.2,0c-0.1,1.7 -0.25,4.45 -0.25,6.15l0,9.25l-10,0Zm10,12.1l3.9,0l0,-8.8l4.35,0l0,-3.3l-4.35,0l0,-19.8l-4.6,0l-13.65,20.4l0,2.7l14.35,0l0,8.8Z" style="fill-rule:nonzero;"/><path d="M853.166,341.945c5.55,0 10.75,-3.9 10.75,-10.8c0,-6.9 -4.45,-10 -9.9,-10c-1.95,0 -3.4,0.5 -4.9,1.3l0.85,-9.45l12.35,0l0,-3.55l-15.95,0l-1.05,15.35l2.2,1.4c1.9,-1.25 3.25,-1.95 5.45,-1.95c4.1,0 6.8,2.6 6.8,7c0,4.45 -3.1,7.3 -7,7.3c-3.75,0 -6.15,-1.75 -8.05,-3.65l-2,2.7c2.2,2.2 5.35,4.35 10.45,4.35Z" style="fill-rule:nonzero;"/><path d="M981.097,324.945c3.95,0 5.9,2.6 5.9,6.75c0,4.2 -2.4,7 -5.55,7c-4.05,0 -6.5,-3.35 -7,-9.55c2,-2.95 4.6,-4.2 6.65,-4.2Zm0.35,17c5.15,0 9.45,-4.15 9.45,-10.25c0,-6.55 -3.6,-9.85 -9.1,-9.85c-2.6,0 -5.45,1.55 -7.45,4c0.2,-10.1 3.95,-13.55 8.4,-13.55c2,0 3.95,0.95 5.25,2.5l2.3,-2.55c-1.8,-1.95 -4.25,-3.4 -7.7,-3.4c-6.35,0 -12.15,4.95 -12.15,17.75c0,10.25 4.75,15.35 11,15.35Z" style="fill-rule:nonzero;"/><path d="M1103.18,341.345l4.25,0c0.55,-12.45 2.25,-19.65 9.95,-29.35l0,-2.55l-20.55,0l0,3.55l15.95,0c-6.5,8.8 -9.05,16.35 -9.6,28.35Z" style="fill-rule:nonzero;"/><rect x="71.252" y="323.295" width="21.45" height="3.1" style="fill-rule:nonzero;"/><path d="M98.352,341.345l18,0l0,-3.4l-6.6,0l0,-28.5l-3.15,0c-1.75,1.05 -3.85,1.85 -6.75,2.35l0,2.65l5.8,0l0,23.5l-7.3,0l0,3.4Z" style="fill-rule:nonzero;"/><path d="M474.146,271.144l0,22.67" style="fill:none;stroke:#000;stroke-width:4.17px;stroke-linejoin:round;stroke-miterlimit:1.5;"/><path d="M600.728,271.144l0,22.67" style="fill:none;stroke:#000;stroke-width:4.17px;stroke-linejoin:round;stroke-miterlimit:1.5;"/><path d="M94.402,270.144l0,22.67" style="fill:none;stroke:#000;stroke-width:4.17px;stroke-linejoin:round;stroke-miterlimit:1.5;"/><path d="M727.309,271.144l0,22.67" style="fill:none;stroke:#000;stroke-width:4.17px;stroke-linejoin:round;stroke-miterlimit:1.5;"/><path d="M220.983,271.144l0,22.67" style="fill:none;stroke:#000;stroke-width:4.17px;stroke-linejoin:round;stroke-miterlimit:1.5;"/><path d="M853.891,271.144l0,22.67" style="fill:none;stroke:#000;stroke-width:4.17px;stroke-linejoin:round;stroke-miterlimit:1.5;"/><path d="M980.472,272.144l0,22.67" style="fill:none;stroke:#000;stroke-width:4.17px;stroke-linejoin:round;stroke-miterlimit:1.5;"/><path d="M1107.05,272.144l0,22.67" style="fill:none;stroke:#000;stroke-width:4.17px;stroke-linejoin:round;stroke-miterlimit:1.5;"/><path d="M347.565,272.144l0,22.67" style="fill:none;stroke:#000;stroke-width:4.17px;stroke-linejoin:round;stroke-miterlimit:1.5;"/></g></svg>