<?xml version="1.0" encoding="UTF-8" standalone="no"?><!DOCTYPE svg PUBLIC "-//W3C//DTD SVG 1.1//EN" "http://www.w3.org/Graphics/SVG/1.1/DTD/svg11.dtd"><svg width="100%" height="100%" viewBox="0 0 284 142" version="1.1" xmlns="http://www.w3.org/2000/svg" xmlns:xlink="http://www.w3.org/1999/xlink" xml:space="preserve" xmlns:serif="http://www.serif.com/" style="fill-rule:evenodd;clip-rule:evenodd;stroke-linecap:round;stroke-miterlimit:10;"><path d="M117.22,7.403l0,8.598l-1.02,0l0,-6.318c0,-0.084 0.003,-0.174 0.009,-0.27c0.006,-0.096 0.013,-0.194 0.021,-0.294l-2.952,5.376c-0.092,0.18 -0.232,0.27 -0.42,0.27l-0.168,0c-0.188,0 -0.328,-0.09 -0.42,-0.27l-3.012,-5.4c0.024,0.212 0.036,0.408 0.036,0.588l0,6.318l-1.02,0l0,-8.598l0.858,0c0.104,0 0.184,0.01 0.24,0.03c0.056,0.02 0.11,0.076 0.162,0.168l2.97,5.292c0.048,0.096 0.095,0.196 0.141,0.3c0.046,0.104 0.089,0.21 0.129,0.318c0.04,-0.108 0.082,-0.215 0.126,-0.321c0.044,-0.106 0.092,-0.207 0.144,-0.303l2.916,-5.286c0.048,-0.092 0.101,-0.148 0.159,-0.168c0.058,-0.02 0.139,-0.03 0.243,-0.03l0.858,0Z" style="fill-rule:nonzero;"/><path d="M123.046,12.299c0,-0.248 -0.035,-0.475 -0.105,-0.681c-0.07,-0.206 -0.172,-0.384 -0.306,-0.534c-0.134,-0.15 -0.297,-0.266 -0.489,-0.348c-0.192,-0.082 -0.41,-0.123 -0.654,-0.123c-0.512,0 -0.917,0.149 -1.215,0.447c-0.298,0.298 -0.483,0.711 -0.555,1.239l3.324,0Zm0.864,2.85c-0.132,0.16 -0.29,0.299 -0.474,0.417c-0.184,0.118 -0.381,0.215 -0.591,0.291c-0.21,0.076 -0.427,0.133 -0.651,0.171c-0.224,0.038 -0.446,0.057 -0.666,0.057c-0.42,0 -0.807,-0.071 -1.161,-0.213c-0.354,-0.142 -0.66,-0.35 -0.918,-0.624c-0.258,-0.274 -0.459,-0.613 -0.603,-1.017c-0.144,-0.404 -0.216,-0.868 -0.216,-1.392c0,-0.424 0.065,-0.82 0.195,-1.188c0.13,-0.368 0.317,-0.687 0.561,-0.957c0.244,-0.27 0.542,-0.482 0.894,-0.636c0.352,-0.154 0.748,-0.231 1.188,-0.231c0.364,0 0.701,0.061 1.011,0.183c0.31,0.122 0.578,0.298 0.804,0.528c0.226,0.23 0.403,0.514 0.531,0.852c0.128,0.338 0.192,0.723 0.192,1.155c0,0.168 -0.018,0.28 -0.054,0.336c-0.036,0.056 -0.104,0.084 -0.204,0.084l-4.062,0c0.012,0.384 0.065,0.718 0.159,1.002c0.094,0.284 0.225,0.521 0.393,0.711c0.168,0.19 0.368,0.332 0.6,0.426c0.232,0.094 0.492,0.141 0.78,0.141c0.268,0 0.499,-0.031 0.693,-0.093c0.194,-0.062 0.361,-0.129 0.501,-0.201c0.14,-0.072 0.257,-0.139 0.351,-0.201c0.094,-0.062 0.175,-0.093 0.243,-0.093c0.088,0 0.156,0.034 0.204,0.102l0.3,0.39Z" style="fill-rule:nonzero;"/><path d="M128.608,13.265c-0.492,0.016 -0.911,0.055 -1.257,0.117c-0.346,0.062 -0.628,0.143 -0.846,0.243c-0.218,0.1 -0.376,0.218 -0.474,0.354c-0.098,0.136 -0.147,0.288 -0.147,0.456c0,0.16 0.026,0.298 0.078,0.414c0.052,0.116 0.123,0.211 0.213,0.285c0.09,0.074 0.196,0.128 0.318,0.162c0.122,0.034 0.253,0.051 0.393,0.051c0.188,0 0.36,-0.019 0.516,-0.057c0.156,-0.038 0.303,-0.093 0.441,-0.165c0.138,-0.072 0.27,-0.158 0.396,-0.258c0.126,-0.1 0.249,-0.214 0.369,-0.342l0,-1.26Zm-3.45,-2.484c0.336,-0.324 0.698,-0.566 1.086,-0.726c0.388,-0.16 0.818,-0.24 1.29,-0.24c0.34,0 0.642,0.056 0.906,0.168c0.264,0.112 0.486,0.268 0.666,0.468c0.18,0.2 0.316,0.442 0.408,0.726c0.092,0.284 0.138,0.596 0.138,0.936l0,3.888l-0.474,0c-0.104,0 -0.184,-0.017 -0.24,-0.051c-0.056,-0.034 -0.1,-0.101 -0.132,-0.201l-0.12,-0.576c-0.16,0.148 -0.316,0.279 -0.468,0.393c-0.152,0.114 -0.312,0.21 -0.48,0.288c-0.168,0.078 -0.347,0.138 -0.537,0.18c-0.19,0.042 -0.401,0.063 -0.633,0.063c-0.236,0 -0.458,-0.033 -0.666,-0.099c-0.208,-0.066 -0.389,-0.165 -0.543,-0.297c-0.154,-0.132 -0.276,-0.299 -0.366,-0.501c-0.09,-0.202 -0.135,-0.441 -0.135,-0.717c0,-0.24 0.066,-0.471 0.198,-0.693c0.132,-0.222 0.346,-0.419 0.642,-0.591c0.296,-0.172 0.682,-0.313 1.158,-0.423c0.476,-0.11 1.06,-0.173 1.752,-0.189l0,-0.474c0,-0.472 -0.102,-0.829 -0.306,-1.071c-0.204,-0.242 -0.502,-0.363 -0.894,-0.363c-0.264,0 -0.485,0.033 -0.663,0.099c-0.178,0.066 -0.332,0.14 -0.462,0.222c-0.13,0.082 -0.242,0.156 -0.336,0.222c-0.094,0.066 -0.187,0.099 -0.279,0.099c-0.072,0 -0.134,-0.019 -0.186,-0.057c-0.052,-0.038 -0.096,-0.085 -0.132,-0.141l-0.192,-0.342Z" style="fill-rule:nonzero;"/><path d="M132.286,10.805c0.132,-0.148 0.272,-0.282 0.42,-0.402c0.148,-0.12 0.305,-0.223 0.471,-0.309c0.166,-0.086 0.342,-0.152 0.528,-0.198c0.186,-0.046 0.387,-0.069 0.603,-0.069c0.332,0 0.625,0.055 0.879,0.165c0.254,0.11 0.466,0.266 0.636,0.468c0.17,0.202 0.299,0.445 0.387,0.729c0.088,0.284 0.132,0.598 0.132,0.942l0,3.87l-1.074,0l0,-3.87c0,-0.46 -0.105,-0.817 -0.315,-1.071c-0.21,-0.254 -0.529,-0.381 -0.957,-0.381c-0.316,0 -0.611,0.076 -0.885,0.228c-0.274,0.152 -0.527,0.358 -0.759,0.618l0,4.476l-1.074,0l0,-6.078l0.642,0c0.152,0 0.246,0.074 0.282,0.222l0.084,0.66Z" style="fill-rule:nonzero;"/><path d="M140.806,14.711l5.748,0l0,0.81l-5.748,0l0,-0.81Zm5.748,-3.666l0,0.816l-2.442,0l0,2.208l-0.876,0l0,-2.208l-2.43,0l0,-0.816l2.43,0l0,-2.256l0.876,0l0,2.256l2.442,0Z" style="fill-rule:nonzero;"/><path d="M156.34,15.185l0,0.816l-4.608,0l0,-0.816l1.842,0l0,-5.862c0,-0.176 0.006,-0.354 0.018,-0.534l-1.53,1.314c-0.052,0.044 -0.104,0.071 -0.156,0.081c-0.052,0.01 -0.1,0.011 -0.144,0.003c-0.044,-0.008 -0.085,-0.024 -0.123,-0.048c-0.038,-0.024 -0.067,-0.05 -0.087,-0.078l-0.336,-0.462l2.562,-2.214l0.87,0l0,7.8l1.692,0Z" style="fill-rule:nonzero;"/><path d="M157.858,15.341c0,-0.104 0.019,-0.202 0.057,-0.294c0.038,-0.092 0.09,-0.172 0.156,-0.24c0.066,-0.068 0.145,-0.122 0.237,-0.162c0.092,-0.04 0.19,-0.06 0.294,-0.06c0.104,0 0.202,0.02 0.294,0.06c0.092,0.04 0.172,0.094 0.24,0.162c0.068,0.068 0.122,0.148 0.162,0.24c0.04,0.092 0.06,0.19 0.06,0.294c0,0.108 -0.02,0.207 -0.06,0.297c-0.04,0.09 -0.094,0.169 -0.162,0.237c-0.068,0.068 -0.148,0.121 -0.24,0.159c-0.092,0.038 -0.19,0.057 -0.294,0.057c-0.104,0 -0.202,-0.019 -0.294,-0.057c-0.092,-0.038 -0.171,-0.091 -0.237,-0.159c-0.066,-0.068 -0.118,-0.147 -0.156,-0.237c-0.038,-0.09 -0.057,-0.189 -0.057,-0.297Z" style="fill-rule:nonzero;"/><path d="M161.722,9.929c0,0.272 0.039,0.515 0.117,0.729c0.078,0.214 0.19,0.395 0.336,0.543c0.146,0.148 0.324,0.26 0.534,0.336c0.21,0.076 0.445,0.114 0.705,0.114c0.288,0 0.543,-0.047 0.765,-0.141c0.222,-0.094 0.409,-0.219 0.561,-0.375c0.152,-0.156 0.268,-0.336 0.348,-0.54c0.08,-0.204 0.12,-0.416 0.12,-0.636c0,-0.268 -0.043,-0.511 -0.129,-0.729c-0.086,-0.218 -0.205,-0.403 -0.357,-0.555c-0.152,-0.152 -0.333,-0.269 -0.543,-0.351c-0.21,-0.082 -0.441,-0.123 -0.693,-0.123c-0.264,0 -0.504,0.043 -0.72,0.129c-0.216,0.086 -0.402,0.205 -0.558,0.357c-0.156,0.152 -0.276,0.334 -0.36,0.546c-0.084,0.212 -0.126,0.444 -0.126,0.696Zm2.496,2.646c0.088,-0.116 0.17,-0.226 0.246,-0.33c0.076,-0.104 0.148,-0.208 0.216,-0.312c-0.22,0.176 -0.468,0.31 -0.744,0.402c-0.276,0.092 -0.568,0.138 -0.876,0.138c-0.324,0 -0.631,-0.054 -0.921,-0.162c-0.29,-0.108 -0.545,-0.267 -0.765,-0.477c-0.22,-0.21 -0.395,-0.468 -0.525,-0.774c-0.13,-0.306 -0.195,-0.657 -0.195,-1.053c0,-0.376 0.07,-0.728 0.21,-1.056c0.14,-0.328 0.336,-0.614 0.588,-0.858c0.252,-0.244 0.552,-0.436 0.9,-0.576c0.348,-0.14 0.73,-0.21 1.146,-0.21c0.412,0 0.786,0.068 1.122,0.204c0.336,0.136 0.624,0.326 0.864,0.57c0.24,0.244 0.425,0.536 0.555,0.876c0.13,0.34 0.195,0.716 0.195,1.128c0,0.248 -0.023,0.483 -0.069,0.705c-0.046,0.222 -0.112,0.44 -0.198,0.654c-0.086,0.214 -0.191,0.426 -0.315,0.636c-0.124,0.21 -0.264,0.425 -0.42,0.645l-2.094,3.024c-0.052,0.076 -0.126,0.137 -0.222,0.183c-0.096,0.046 -0.206,0.069 -0.33,0.069l-0.984,0l2.616,-3.426Z" style="fill-rule:nonzero;"/><path d="M170.452,15.209c0.288,0 0.549,-0.046 0.783,-0.138c0.234,-0.092 0.434,-0.22 0.6,-0.384c0.166,-0.164 0.294,-0.358 0.384,-0.582c0.09,-0.224 0.135,-0.468 0.135,-0.732c0,-0.28 -0.044,-0.533 -0.132,-0.759c-0.088,-0.226 -0.213,-0.418 -0.375,-0.576c-0.162,-0.158 -0.355,-0.279 -0.579,-0.363c-0.224,-0.084 -0.47,-0.126 -0.738,-0.126c-0.288,0 -0.548,0.049 -0.78,0.147c-0.232,0.098 -0.429,0.23 -0.591,0.396c-0.162,0.166 -0.286,0.358 -0.372,0.576c-0.086,0.218 -0.129,0.445 -0.129,0.681c0,0.276 0.04,0.528 0.12,0.756c0.08,0.228 0.197,0.424 0.351,0.588c0.154,0.164 0.342,0.291 0.564,0.381c0.222,0.09 0.475,0.135 0.759,0.135Zm-0.624,-4.584c-0.076,0.096 -0.149,0.189 -0.219,0.279c-0.07,0.09 -0.137,0.179 -0.201,0.267c0.204,-0.14 0.428,-0.248 0.672,-0.324c0.244,-0.076 0.51,-0.114 0.798,-0.114c0.348,0 0.676,0.057 0.984,0.171c0.308,0.114 0.577,0.28 0.807,0.498c0.23,0.218 0.413,0.486 0.549,0.804c0.136,0.318 0.204,0.681 0.204,1.089c0,0.396 -0.072,0.764 -0.216,1.104c-0.144,0.34 -0.345,0.636 -0.603,0.888c-0.258,0.252 -0.568,0.45 -0.93,0.594c-0.362,0.144 -0.761,0.216 -1.197,0.216c-0.432,0 -0.824,-0.069 -1.176,-0.207c-0.352,-0.138 -0.651,-0.334 -0.897,-0.588c-0.246,-0.254 -0.436,-0.562 -0.57,-0.924c-0.134,-0.362 -0.201,-0.767 -0.201,-1.215c0,-0.376 0.083,-0.777 0.249,-1.203c0.166,-0.426 0.431,-0.881 0.795,-1.365l2.184,-2.934c0.056,-0.072 0.133,-0.133 0.231,-0.183c0.098,-0.05 0.211,-0.075 0.339,-0.075l0.948,0l-2.55,3.222Z" style="fill-rule:nonzero;"/><path d="M179.44,8.747c-0.036,0.06 -0.075,0.105 -0.117,0.135c-0.042,0.03 -0.093,0.045 -0.153,0.045c-0.068,0 -0.148,-0.034 -0.24,-0.102c-0.092,-0.068 -0.207,-0.143 -0.345,-0.225c-0.138,-0.082 -0.304,-0.157 -0.498,-0.225c-0.194,-0.068 -0.429,-0.102 -0.705,-0.102c-0.26,0 -0.489,0.035 -0.687,0.105c-0.198,0.07 -0.364,0.165 -0.498,0.285c-0.134,0.12 -0.235,0.261 -0.303,0.423c-0.068,0.162 -0.102,0.337 -0.102,0.525c0,0.24 0.059,0.439 0.177,0.597c0.118,0.158 0.274,0.293 0.468,0.405c0.194,0.112 0.414,0.209 0.66,0.291c0.246,0.082 0.498,0.167 0.756,0.255c0.258,0.088 0.51,0.187 0.756,0.297c0.246,0.11 0.466,0.249 0.66,0.417c0.194,0.168 0.35,0.374 0.468,0.618c0.118,0.244 0.177,0.544 0.177,0.9c0,0.376 -0.064,0.729 -0.192,1.059c-0.128,0.33 -0.315,0.617 -0.561,0.861c-0.246,0.244 -0.548,0.436 -0.906,0.576c-0.358,0.14 -0.765,0.21 -1.221,0.21c-0.56,0 -1.068,-0.101 -1.524,-0.303c-0.456,-0.202 -0.846,-0.475 -1.17,-0.819l0.336,-0.552c0.032,-0.044 0.071,-0.081 0.117,-0.111c0.046,-0.03 0.097,-0.045 0.153,-0.045c0.052,0 0.111,0.021 0.177,0.063c0.066,0.042 0.141,0.095 0.225,0.159c0.084,0.064 0.18,0.134 0.288,0.21c0.108,0.076 0.231,0.146 0.369,0.21c0.138,0.064 0.295,0.117 0.471,0.159c0.176,0.042 0.374,0.063 0.594,0.063c0.276,0 0.522,-0.038 0.738,-0.114c0.216,-0.076 0.399,-0.183 0.549,-0.321c0.15,-0.138 0.265,-0.303 0.345,-0.495c0.08,-0.192 0.12,-0.406 0.12,-0.642c0,-0.26 -0.059,-0.473 -0.177,-0.639c-0.118,-0.166 -0.273,-0.305 -0.465,-0.417c-0.192,-0.112 -0.412,-0.207 -0.66,-0.285c-0.248,-0.078 -0.5,-0.158 -0.756,-0.24c-0.256,-0.082 -0.508,-0.177 -0.756,-0.285c-0.248,-0.108 -0.468,-0.248 -0.66,-0.42c-0.192,-0.172 -0.347,-0.387 -0.465,-0.645c-0.118,-0.258 -0.177,-0.577 -0.177,-0.957c0,-0.304 0.059,-0.598 0.177,-0.882c0.118,-0.284 0.29,-0.536 0.516,-0.756c0.226,-0.22 0.504,-0.396 0.834,-0.528c0.33,-0.132 0.709,-0.198 1.137,-0.198c0.48,0 0.917,0.076 1.311,0.228c0.394,0.152 0.741,0.372 1.041,0.66l-0.282,0.552Z" style="fill-rule:nonzero;"/><path d="M186.856,15.053l-0.006,0.948l-5.298,0l0,-8.598l5.298,0l0,0.948l-4.134,0l0,2.856l3.348,0l0,0.912l-3.348,0l0,2.934l4.14,0Z" style="fill-rule:nonzero;"/><g transform="matrix(0.24,0,0,0.24,-248.58,-34.3866)"><g transform="matrix(50,0,0,50,1439.29,272.149)"><path d="M0.305,-0.667l0.145,0.25l-0.05,0l-0.095,-0.165l-0.095,0.165l-0.048,0l0.143,-0.25Zm0.209,0.304l0,0.05l-0.417,0.001l0.001,-0.051l0.416,0Zm0,0.109l0,0.051l-0.417,0l0,-0.05l0.417,-0.001Z" style="fill-rule:nonzero;"/></g><g transform="matrix(50,0,0,50,1482.48,272.149)"><path d="M0.837,-0.717l0,0.717l-0.085,0l0,-0.527c0,-0.006 0,-0.014 0.001,-0.022c0,-0.008 0.001,-0.016 0.002,-0.024l-0.246,0.448c-0.008,0.015 -0.02,0.022 -0.035,0.022l-0.014,0c-0.016,0 -0.028,-0.007 -0.035,-0.022l-0.251,-0.45c0.002,0.017 0.003,0.034 0.003,0.049l0,0.526l-0.085,0l0,-0.717l0.071,0c0.009,0 0.015,0.001 0.02,0.003c0.005,0.002 0.009,0.006 0.014,0.014l0.247,0.441c0.004,0.008 0.008,0.016 0.012,0.025c0.004,0.009 0.007,0.017 0.011,0.026c0.003,-0.009 0.006,-0.017 0.01,-0.026c0.004,-0.009 0.008,-0.018 0.012,-0.026l0.243,-0.44c0.004,-0.008 0.008,-0.012 0.013,-0.014c0.005,-0.002 0.012,-0.003 0.021,-0.003l0.071,0Z" style="fill-rule:nonzero;"/></g><g transform="matrix(50,0,0,50,1528.13,272.149)"><path d="M0.41,-0.309c-0.001,-0.02 -0.003,-0.039 -0.009,-0.056c-0.006,-0.017 -0.015,-0.032 -0.026,-0.045c-0.011,-0.012 -0.025,-0.022 -0.04,-0.029c-0.017,-0.007 -0.035,-0.01 -0.055,-0.01c-0.043,0 -0.076,0.012 -0.101,0.037c-0.025,0.025 -0.041,0.059 -0.047,0.104l0.278,0Zm0.071,0.237c-0.011,0.013 -0.024,0.025 -0.039,0.035c-0.015,0.01 -0.032,0.018 -0.049,0.024c-0.018,0.006 -0.036,0.011 -0.055,0.014c-0.018,0.003 -0.037,0.005 -0.055,0.005c-0.035,0 -0.067,-0.006 -0.097,-0.018c-0.029,-0.012 -0.055,-0.029 -0.076,-0.052c-0.022,-0.023 -0.039,-0.051 -0.051,-0.084c-0.012,-0.034 -0.018,-0.073 -0.018,-0.116c0,-0.036 0.006,-0.069 0.017,-0.099c0.011,-0.031 0.026,-0.058 0.046,-0.08c0.021,-0.023 0.046,-0.04 0.075,-0.053c0.029,-0.013 0.062,-0.019 0.099,-0.019c0.03,0 0.058,0.005 0.084,0.015c0.026,0.01 0.048,0.025 0.067,0.044c0.019,0.019 0.034,0.043 0.044,0.071c0.011,0.028 0.016,0.06 0.016,0.096c0,0.014 -0.001,0.023 -0.004,0.028c-0.003,0.005 -0.009,0.007 -0.017,0.007l-0.339,0c0.001,0.032 0.006,0.06 0.014,0.084c0.008,0.023 0.018,0.043 0.032,0.059c0.014,0.016 0.031,0.027 0.05,0.035c0.02,0.008 0.041,0.012 0.065,0.012c0.023,0 0.042,-0.003 0.058,-0.008c0.016,-0.005 0.03,-0.01 0.042,-0.016c0.012,-0.006 0.021,-0.012 0.029,-0.017c0.008,-0.005 0.015,-0.008 0.02,-0.008c0.008,0 0.013,0.003 0.017,0.009l0.025,0.032Z" style="fill-rule:nonzero;"/></g><g transform="matrix(50,0,0,50,1554.53,272.149)"><path d="M0.345,-0.228c-0.041,0.001 -0.076,0.005 -0.105,0.01c-0.029,0.005 -0.052,0.012 -0.07,0.02c-0.018,0.008 -0.032,0.018 -0.04,0.029c-0.008,0.012 -0.012,0.025 -0.012,0.039c0,0.013 0.002,0.024 0.006,0.034c0.005,0.01 0.011,0.018 0.018,0.024c0.008,0.006 0.017,0.01 0.027,0.013c0.01,0.003 0.021,0.005 0.032,0.005c0.016,0 0.03,-0.002 0.043,-0.005c0.013,-0.003 0.026,-0.008 0.037,-0.014c0.012,-0.006 0.023,-0.013 0.033,-0.021c0.011,-0.009 0.021,-0.018 0.031,-0.029l0,-0.105Zm-0.288,-0.207c0.028,-0.027 0.059,-0.047 0.091,-0.06c0.032,-0.014 0.068,-0.02 0.107,-0.02c0.029,0 0.054,0.004 0.076,0.013c0.022,0.01 0.04,0.023 0.055,0.039c0.015,0.017 0.027,0.037 0.034,0.061c0.008,0.024 0.012,0.05 0.012,0.078l0,0.324l-0.04,0c-0.008,0 -0.015,-0.001 -0.02,-0.004c-0.004,-0.003 -0.008,-0.009 -0.011,-0.017l-0.01,-0.048c-0.013,0.012 -0.026,0.023 -0.039,0.033c-0.012,0.009 -0.026,0.017 -0.04,0.024c-0.014,0.006 -0.028,0.011 -0.044,0.015c-0.016,0.003 -0.034,0.005 -0.053,0.005c-0.02,0 -0.038,-0.003 -0.056,-0.008c-0.017,-0.006 -0.032,-0.014 -0.045,-0.025c-0.013,-0.011 -0.023,-0.025 -0.03,-0.042c-0.008,-0.017 -0.012,-0.036 -0.012,-0.059c0,-0.02 0.006,-0.04 0.017,-0.058c0.011,-0.019 0.029,-0.035 0.053,-0.05c0.025,-0.014 0.057,-0.026 0.097,-0.035c0.04,-0.009 0.088,-0.014 0.146,-0.016l0,-0.039c0,-0.039 -0.009,-0.069 -0.026,-0.089c-0.017,-0.02 -0.041,-0.03 -0.074,-0.03c-0.022,0 -0.04,0.002 -0.055,0.008c-0.015,0.005 -0.028,0.011 -0.039,0.018c-0.011,0.007 -0.02,0.013 -0.028,0.019c-0.008,0.005 -0.015,0.008 -0.023,0.008c-0.006,0 -0.011,-0.002 -0.016,-0.005c-0.004,-0.003 -0.008,-0.007 -0.011,-0.012l-0.016,-0.028Z" style="fill-rule:nonzero;"/></g><g transform="matrix(50,0,0,50,1579.38,272.149)"><path d="M0.155,-0.433c0.011,-0.012 0.022,-0.023 0.035,-0.034c0.012,-0.01 0.025,-0.018 0.039,-0.025c0.014,-0.007 0.028,-0.013 0.044,-0.017c0.015,-0.004 0.032,-0.005 0.05,-0.005c0.028,0 0.052,0.004 0.073,0.013c0.021,0.009 0.039,0.022 0.053,0.039c0.014,0.017 0.025,0.037 0.032,0.061c0.008,0.024 0.012,0.05 0.012,0.079l-0.001,0.322l-0.089,0l0,-0.323c0,-0.038 -0.009,-0.068 -0.026,-0.089c-0.018,-0.021 -0.044,-0.031 -0.08,-0.031c-0.026,0 -0.051,0.006 -0.074,0.019c-0.023,0.012 -0.044,0.029 -0.063,0.051l0,0.373l-0.089,0l0,-0.506l0.053,-0.001c0.013,0 0.021,0.007 0.024,0.019l0.007,0.055Z" style="fill-rule:nonzero;"/></g><g transform="matrix(50,0,0,50,1620.08,272.149)"><path d="M0.051,-0.108l0.478,0.001l0,0.067l-0.479,0l0.001,-0.068Zm0.478,-0.305l0,0.068l-0.203,0l0,0.184l-0.073,0l0,-0.184l-0.203,0l0.001,-0.068l0.202,0l0,-0.188l0.073,0l0,0.188l0.203,0Z" style="fill-rule:nonzero;"/></g><g transform="matrix(50,0,0,50,1661.88,272.149)"><path d="M0.595,-0.148c0.005,0 0.01,0.002 0.014,0.006l0.038,0.042c-0.029,0.034 -0.065,0.06 -0.107,0.079c-0.042,0.019 -0.092,0.029 -0.152,0.029c-0.051,0 -0.098,-0.009 -0.14,-0.027c-0.042,-0.018 -0.077,-0.043 -0.107,-0.075c-0.03,-0.032 -0.053,-0.071 -0.069,-0.116c-0.016,-0.045 -0.025,-0.094 -0.025,-0.148c0.001,-0.054 0.009,-0.104 0.026,-0.149c0.017,-0.044 0.041,-0.083 0.072,-0.116c0.031,-0.032 0.067,-0.057 0.11,-0.075c0.043,-0.018 0.091,-0.027 0.143,-0.027c0.051,0 0.096,0.009 0.135,0.025c0.039,0.016 0.073,0.038 0.103,0.066l-0.032,0.045c-0.002,0.003 -0.005,0.006 -0.008,0.008c-0.003,0.002 -0.007,0.003 -0.012,0.003c-0.006,0 -0.014,-0.003 -0.022,-0.009c-0.009,-0.007 -0.02,-0.014 -0.034,-0.022c-0.014,-0.008 -0.032,-0.015 -0.053,-0.022c-0.021,-0.006 -0.047,-0.01 -0.077,-0.01c-0.037,0 -0.071,0.007 -0.102,0.02c-0.031,0.013 -0.057,0.031 -0.079,0.055c-0.022,0.025 -0.04,0.054 -0.052,0.089c-0.012,0.035 -0.018,0.075 -0.018,0.119c0,0.045 0.006,0.084 0.019,0.119c0.013,0.035 0.03,0.065 0.052,0.089c0.022,0.024 0.049,0.043 0.079,0.055c0.03,0.013 0.063,0.019 0.098,0.019c0.021,0 0.04,-0.001 0.057,-0.003c0.017,-0.003 0.033,-0.007 0.048,-0.012c0.014,-0.005 0.028,-0.012 0.04,-0.02c0.013,-0.008 0.025,-0.018 0.038,-0.03c0.005,-0.005 0.011,-0.007 0.017,-0.007Z" style="fill-rule:nonzero;"/></g><g transform="matrix(50,0,0,50,1695.28,272.149)"><rect x="0.092" y="-0.717" width="0.097" height="0.717" style="fill-rule:nonzero;"/></g></g><g transform="matrix(0.24,0,0,0.24,-274.859,103.757)"><g transform="matrix(50,0,0,50,1261.68,56.205)"><path d="M0.754,-0.358c0,0.054 -0.009,0.103 -0.026,0.148c-0.017,0.045 -0.041,0.083 -0.072,0.115c-0.031,0.033 -0.068,0.058 -0.112,0.076c-0.043,0.018 -0.091,0.026 -0.144,0.026c-0.053,0 -0.101,-0.008 -0.144,-0.026c-0.043,-0.018 -0.08,-0.043 -0.111,-0.076c-0.031,-0.032 -0.055,-0.07 -0.072,-0.115c-0.017,-0.045 -0.026,-0.094 -0.026,-0.148c0,-0.054 0.009,-0.103 0.026,-0.148c0.017,-0.045 0.041,-0.083 0.072,-0.116c0.031,-0.032 0.068,-0.057 0.111,-0.076c0.043,-0.018 0.091,-0.027 0.144,-0.027c0.053,0 0.101,0.009 0.144,0.027c0.044,0.018 0.081,0.044 0.112,0.076c0.031,0.033 0.055,0.071 0.072,0.116c0.017,0.045 0.026,0.094 0.026,0.148Zm-0.1,0c0,-0.044 -0.006,-0.084 -0.018,-0.119c-0.012,-0.034 -0.029,-0.064 -0.051,-0.088c-0.022,-0.024 -0.049,-0.043 -0.08,-0.056c-0.031,-0.013 -0.066,-0.019 -0.105,-0.019c-0.038,0 -0.073,0.006 -0.105,0.019c-0.031,0.013 -0.058,0.032 -0.08,0.056c-0.022,0.024 -0.039,0.053 -0.051,0.088c-0.012,0.035 -0.018,0.075 -0.018,0.119c0,0.044 0.006,0.083 0.018,0.118c0.012,0.035 0.029,0.065 0.051,0.089c0.022,0.024 0.049,0.042 0.08,0.055c0.032,0.013 0.067,0.02 0.105,0.02c0.039,-0.001 0.074,-0.007 0.105,-0.02c0.031,-0.013 0.058,-0.031 0.08,-0.055c0.022,-0.024 0.039,-0.054 0.051,-0.089c0.012,-0.035 0.018,-0.074 0.018,-0.118Z" style="fill-rule:nonzero;"/></g><g transform="matrix(50,0,0,50,1301.23,56.205)"><path d="M0.16,-0.122c0.016,0.022 0.034,0.037 0.054,0.047c0.019,0.008 0.041,0.013 0.064,0.013c0.048,0 0.084,-0.017 0.109,-0.051c0.026,-0.033 0.038,-0.083 0.038,-0.15c0.001,-0.062 -0.011,-0.108 -0.033,-0.137c-0.023,-0.029 -0.055,-0.043 -0.097,-0.043c-0.029,-0.001 -0.054,0.006 -0.075,0.02c-0.022,0.013 -0.042,0.032 -0.06,0.056l0,0.245Zm0,-0.312c0.021,-0.024 0.045,-0.044 0.072,-0.058c0.027,-0.015 0.058,-0.022 0.093,-0.022c0.03,0 0.056,0.005 0.08,0.017c0.024,0.011 0.044,0.027 0.061,0.049c0.017,0.021 0.029,0.047 0.038,0.078c0.009,0.031 0.013,0.065 0.013,0.103c0,0.041 -0.005,0.079 -0.015,0.113c-0.01,0.033 -0.024,0.062 -0.043,0.086c-0.019,0.024 -0.042,0.042 -0.069,0.055c-0.027,0.013 -0.057,0.02 -0.091,0.02c-0.033,0 -0.061,-0.006 -0.084,-0.019c-0.023,-0.012 -0.043,-0.03 -0.06,-0.053l-0.004,0.046c-0.003,0.013 -0.01,0.019 -0.023,0.019l-0.058,0l0,-0.737l0.09,0l0,0.304Z" style="fill-rule:nonzero;"/></g><g transform="matrix(50,0,0,50,1329.23,56.205)"><path d="M0.366,-0.423c-0.005,0.007 -0.011,0.011 -0.019,0.011c-0.005,0 -0.011,-0.002 -0.017,-0.006c-0.006,-0.003 -0.014,-0.007 -0.023,-0.012c-0.009,-0.004 -0.02,-0.008 -0.033,-0.012c-0.013,-0.004 -0.028,-0.006 -0.045,-0.006c-0.015,0 -0.028,0.002 -0.04,0.006c-0.012,0.004 -0.023,0.009 -0.031,0.016c-0.009,0.006 -0.015,0.014 -0.02,0.023c-0.004,0.009 -0.006,0.018 -0.006,0.028c0,0.013 0.003,0.024 0.011,0.033c0.007,0.009 0.017,0.016 0.03,0.022c0.012,0.007 0.026,0.012 0.042,0.017c0.015,0.005 0.031,0.01 0.048,0.016c0.016,0.005 0.032,0.011 0.048,0.018c0.016,0.007 0.03,0.015 0.042,0.025c0.012,0.01 0.022,0.022 0.03,0.037c0.007,0.014 0.011,0.032 0.011,0.052c0,0.023 -0.004,0.045 -0.012,0.065c-0.009,0.02 -0.021,0.037 -0.037,0.051c-0.017,0.015 -0.037,0.026 -0.06,0.034c-0.024,0.009 -0.051,0.013 -0.082,0.013c-0.036,0 -0.068,-0.006 -0.096,-0.017c-0.029,-0.012 -0.053,-0.027 -0.073,-0.045l0.021,-0.034c0.002,-0.004 0.005,-0.007 0.009,-0.01c0.004,-0.002 0.008,-0.003 0.014,-0.003c0.006,0 0.012,0.002 0.019,0.007c0.007,0.005 0.015,0.01 0.024,0.015c0.01,0.006 0.021,0.011 0.035,0.016c0.014,0.005 0.031,0.007 0.051,0.007c0.017,0 0.033,-0.002 0.046,-0.007c0.013,-0.004 0.023,-0.01 0.032,-0.018c0.009,-0.008 0.015,-0.017 0.019,-0.027c0.004,-0.01 0.007,-0.02 0.007,-0.032c0,-0.014 -0.004,-0.025 -0.012,-0.034c-0.007,-0.009 -0.017,-0.017 -0.029,-0.024c-0.013,-0.006 -0.027,-0.012 -0.043,-0.017c-0.016,-0.005 -0.032,-0.01 -0.048,-0.015c-0.017,-0.005 -0.033,-0.011 -0.049,-0.018c-0.016,-0.007 -0.03,-0.016 -0.042,-0.026c-0.012,-0.01 -0.022,-0.023 -0.03,-0.038c-0.007,-0.015 -0.011,-0.034 -0.011,-0.056c0,-0.019 0.004,-0.037 0.012,-0.055c0.008,-0.018 0.02,-0.034 0.035,-0.047c0.015,-0.014 0.034,-0.025 0.057,-0.033c0.022,-0.008 0.047,-0.012 0.076,-0.012c0.033,0 0.063,0.006 0.09,0.016c0.026,0.011 0.049,0.025 0.069,0.043l-0.02,0.033Z" style="fill-rule:nonzero;"/></g><g transform="matrix(50,0,0,50,1350.88,56.205)"><path d="M0.41,-0.309c-0.001,-0.02 -0.003,-0.039 -0.009,-0.056c-0.006,-0.017 -0.015,-0.032 -0.026,-0.045c-0.011,-0.012 -0.025,-0.022 -0.04,-0.029c-0.017,-0.007 -0.035,-0.01 -0.055,-0.01c-0.043,0 -0.076,0.012 -0.101,0.037c-0.025,0.025 -0.041,0.059 -0.047,0.104l0.278,0Zm0.071,0.237c-0.011,0.013 -0.024,0.025 -0.039,0.035c-0.015,0.01 -0.032,0.018 -0.049,0.024c-0.018,0.006 -0.036,0.011 -0.055,0.014c-0.018,0.003 -0.037,0.005 -0.055,0.005c-0.035,0 -0.067,-0.006 -0.097,-0.018c-0.029,-0.012 -0.055,-0.029 -0.076,-0.052c-0.022,-0.023 -0.039,-0.051 -0.051,-0.084c-0.012,-0.034 -0.018,-0.073 -0.018,-0.116c0,-0.036 0.006,-0.069 0.017,-0.099c0.011,-0.031 0.026,-0.058 0.046,-0.08c0.021,-0.023 0.046,-0.04 0.075,-0.053c0.029,-0.013 0.062,-0.019 0.099,-0.019c0.03,0 0.058,0.005 0.084,0.015c0.026,0.01 0.048,0.025 0.067,0.044c0.019,0.019 0.034,0.043 0.044,0.071c0.011,0.028 0.016,0.06 0.016,0.096c0,0.014 -0.001,0.023 -0.004,0.028c-0.003,0.005 -0.009,0.007 -0.017,0.007l-0.339,0c0.001,0.032 0.006,0.06 0.014,0.084c0.008,0.023 0.018,0.043 0.032,0.059c0.014,0.016 0.031,0.027 0.05,0.035c0.02,0.008 0.041,0.012 0.065,0.012c0.023,0 0.042,-0.003 0.058,-0.008c0.016,-0.005 0.03,-0.01 0.042,-0.016c0.012,-0.006 0.021,-0.012 0.029,-0.017c0.008,-0.005 0.015,-0.008 0.02,-0.008c0.008,0 0.013,0.003 0.017,0.009l0.025,0.032Z" style="fill-rule:nonzero;"/></g><g transform="matrix(50,0,0,50,1377.28,56.205)"><path d="M0.155,-0.405c0.016,-0.035 0.036,-0.062 0.059,-0.081c0.023,-0.02 0.052,-0.029 0.085,-0.029c0.011,0 0.021,0.001 0.031,0.003c0.01,0.002 0.019,0.006 0.027,0.011l-0.007,0.067c-0.002,0.008 -0.007,0.012 -0.015,0.012c-0.005,0 -0.011,-0.001 -0.02,-0.003c-0.009,-0.002 -0.02,-0.003 -0.031,-0.003c-0.016,0 -0.03,0.002 -0.043,0.007c-0.012,0.005 -0.023,0.012 -0.033,0.021c-0.01,0.009 -0.019,0.02 -0.027,0.034c-0.008,0.013 -0.015,0.029 -0.021,0.046l0,0.32l-0.089,0l0,-0.507l0.051,0c0.009,0 0.016,0.002 0.02,0.006c0.003,0.004 0.006,0.01 0.007,0.019l0.006,0.077Z" style="fill-rule:nonzero;"/></g><g transform="matrix(50,0,0,50,1395.48,56.205)"><path d="M0.505,-0.507l-0.207,0.507l-0.08,0l-0.206,-0.507l0.072,0c0.007,0 0.013,0.002 0.018,0.006c0.005,0.004 0.008,0.008 0.01,0.013l0.128,0.326c0.004,0.012 0.008,0.024 0.011,0.036c0.003,0.012 0.005,0.023 0.008,0.035c0.003,-0.012 0.006,-0.023 0.009,-0.035c0.003,-0.012 0.006,-0.024 0.011,-0.036l0.13,-0.326c0.002,-0.005 0.005,-0.01 0.01,-0.013c0.004,-0.004 0.01,-0.006 0.016,-0.006l0.07,0Z" style="fill-rule:nonzero;"/></g><g transform="matrix(50,0,0,50,1420.58,56.205)"><path d="M0.41,-0.309c-0.001,-0.02 -0.003,-0.039 -0.009,-0.056c-0.006,-0.017 -0.015,-0.032 -0.026,-0.045c-0.011,-0.012 -0.025,-0.022 -0.04,-0.029c-0.017,-0.007 -0.035,-0.01 -0.055,-0.01c-0.043,0 -0.076,0.012 -0.101,0.037c-0.025,0.025 -0.041,0.059 -0.047,0.104l0.278,0Zm0.071,0.237c-0.011,0.013 -0.024,0.025 -0.039,0.035c-0.015,0.01 -0.032,0.018 -0.049,0.024c-0.018,0.006 -0.036,0.011 -0.055,0.014c-0.018,0.003 -0.037,0.005 -0.055,0.005c-0.035,0 -0.067,-0.006 -0.097,-0.018c-0.029,-0.012 -0.055,-0.029 -0.076,-0.052c-0.022,-0.023 -0.039,-0.051 -0.051,-0.084c-0.012,-0.034 -0.018,-0.073 -0.018,-0.116c0,-0.036 0.006,-0.069 0.017,-0.099c0.011,-0.031 0.026,-0.058 0.046,-0.08c0.021,-0.023 0.046,-0.04 0.075,-0.053c0.029,-0.013 0.062,-0.019 0.099,-0.019c0.03,0 0.058,0.005 0.084,0.015c0.026,0.01 0.048,0.025 0.067,0.044c0.019,0.019 0.034,0.043 0.044,0.071c0.011,0.028 0.016,0.06 0.016,0.096c0,0.014 -0.001,0.023 -0.004,0.028c-0.003,0.005 -0.009,0.007 -0.017,0.007l-0.339,0c0.001,0.032 0.006,0.06 0.014,0.084c0.008,0.023 0.018,0.043 0.032,0.059c0.014,0.016 0.031,0.027 0.05,0.035c0.02,0.008 0.041,0.012 0.065,0.012c0.023,0 0.042,-0.003 0.058,-0.008c0.016,-0.005 0.03,-0.01 0.042,-0.016c0.012,-0.006 0.021,-0.012 0.029,-0.017c0.008,-0.005 0.015,-0.008 0.02,-0.008c0.008,0 0.013,0.003 0.017,0.009l0.025,0.032Z" style="fill-rule:nonzero;"/></g><g transform="matrix(50,0,0,50,1446.98,56.205)"><path d="M0.401,-0.386c-0.017,-0.022 -0.035,-0.038 -0.054,-0.047c-0.02,-0.009 -0.041,-0.013 -0.066,-0.013c-0.047,0 -0.083,0.017 -0.108,0.05c-0.025,0.034 -0.038,0.082 -0.038,0.145c0,0.033 0.003,0.061 0.008,0.084c0.006,0.024 0.014,0.043 0.025,0.058c0.011,0.015 0.025,0.026 0.041,0.033c0.016,0.007 0.034,0.011 0.054,0.011c0.03,0 0.055,-0.007 0.077,-0.02c0.022,-0.013 0.042,-0.032 0.06,-0.057l0,-0.244Zm0.089,-0.351l0,0.737l-0.053,0c-0.012,0 -0.02,-0.006 -0.024,-0.018l-0.008,-0.062c-0.021,0.026 -0.046,0.047 -0.074,0.063c-0.027,0.016 -0.059,0.024 -0.096,0.024c-0.029,0 -0.055,-0.006 -0.079,-0.017c-0.023,-0.011 -0.043,-0.027 -0.06,-0.049c-0.017,-0.022 -0.03,-0.049 -0.039,-0.081c-0.009,-0.032 -0.013,-0.069 -0.013,-0.111c0,-0.038 0.005,-0.073 0.015,-0.105c0.01,-0.032 0.024,-0.06 0.043,-0.083c0.019,-0.024 0.042,-0.043 0.069,-0.056c0.027,-0.014 0.057,-0.02 0.091,-0.02c0.031,0 0.058,0.005 0.08,0.015c0.022,0.011 0.042,0.025 0.059,0.044l0,-0.28l0.089,0Z" style="fill-rule:nonzero;"/></g><g transform="matrix(50,0,0,50,1487.78,56.205)"><path d="M0.071,0l-0.001,-0.507l0.054,0c0.013,0 0.02,0.007 0.023,0.019l0.007,0.052c0.019,-0.023 0.04,-0.042 0.063,-0.056c0.023,-0.015 0.05,-0.022 0.081,-0.022c0.034,0 0.062,0.009 0.083,0.028c0.021,0.019 0.036,0.045 0.045,0.077c0.008,-0.018 0.017,-0.034 0.029,-0.048c0.011,-0.013 0.024,-0.024 0.038,-0.033c0.015,-0.008 0.03,-0.015 0.046,-0.019c0.016,-0.004 0.033,-0.005 0.049,-0.005c0.027,0 0.051,0.004 0.072,0.012c0.021,0.009 0.038,0.021 0.053,0.037c0.014,0.017 0.025,0.037 0.033,0.061c0.008,0.024 0.011,0.051 0.011,0.082l0,0.322l-0.089,0l0,-0.323c0,-0.039 -0.009,-0.069 -0.026,-0.09c-0.017,-0.02 -0.042,-0.03 -0.075,-0.03c-0.015,0 -0.029,0.002 -0.042,0.007c-0.013,0.005 -0.025,0.013 -0.035,0.023c-0.01,0.01 -0.017,0.023 -0.023,0.038c-0.006,0.015 -0.009,0.033 -0.009,0.053l0,0.322l-0.09,0l0,-0.322c0,-0.041 -0.008,-0.071 -0.024,-0.091c-0.016,-0.02 -0.04,-0.03 -0.072,-0.03c-0.022,0 -0.042,0.005 -0.061,0.017c-0.018,0.012 -0.035,0.028 -0.051,0.049l0,0.377l-0.09,0Z" style="fill-rule:nonzero;"/></g><g transform="matrix(50,0,0,50,1528.9,56.205)"><path d="M0.41,-0.309c-0.001,-0.02 -0.003,-0.039 -0.009,-0.056c-0.006,-0.017 -0.015,-0.032 -0.026,-0.045c-0.011,-0.012 -0.025,-0.022 -0.04,-0.029c-0.017,-0.007 -0.035,-0.01 -0.055,-0.01c-0.043,0 -0.076,0.012 -0.101,0.037c-0.025,0.025 -0.041,0.059 -0.047,0.104l0.278,0Zm0.071,0.237c-0.011,0.013 -0.024,0.025 -0.039,0.035c-0.015,0.01 -0.032,0.018 -0.049,0.024c-0.018,0.006 -0.036,0.011 -0.055,0.014c-0.018,0.003 -0.037,0.005 -0.055,0.005c-0.035,0 -0.067,-0.006 -0.097,-0.018c-0.029,-0.012 -0.055,-0.029 -0.076,-0.052c-0.022,-0.023 -0.039,-0.051 -0.051,-0.084c-0.012,-0.034 -0.018,-0.073 -0.018,-0.116c0,-0.036 0.006,-0.069 0.017,-0.099c0.011,-0.031 0.026,-0.058 0.046,-0.08c0.021,-0.023 0.046,-0.04 0.075,-0.053c0.029,-0.013 0.062,-0.019 0.099,-0.019c0.03,0 0.058,0.005 0.084,0.015c0.026,0.01 0.048,0.025 0.067,0.044c0.019,0.019 0.034,0.043 0.044,0.071c0.011,0.028 0.016,0.06 0.016,0.096c0,0.014 -0.001,0.023 -0.004,0.028c-0.003,0.005 -0.009,0.007 -0.017,0.007l-0.339,0c0.001,0.032 0.006,0.06 0.014,0.084c0.008,0.023 0.018,0.043 0.032,0.059c0.014,0.016 0.031,0.027 0.05,0.035c0.02,0.008 0.041,0.012 0.065,0.012c0.023,0 0.042,-0.003 0.058,-0.008c0.016,-0.005 0.03,-0.01 0.042,-0.016c0.012,-0.006 0.021,-0.012 0.029,-0.017c0.008,-0.005 0.015,-0.008 0.02,-0.008c0.008,0 0.013,0.003 0.017,0.009l0.025,0.032Z" style="fill-rule:nonzero;"/></g><g transform="matrix(50,0,0,50,1555.3,56.205)"><path d="M0.345,-0.228c-0.041,0.001 -0.076,0.005 -0.105,0.01c-0.029,0.005 -0.052,0.012 -0.07,0.02c-0.018,0.008 -0.032,0.018 -0.04,0.029c-0.008,0.012 -0.012,0.025 -0.012,0.039c0,0.013 0.002,0.024 0.006,0.034c0.005,0.01 0.011,0.018 0.018,0.024c0.008,0.006 0.017,0.01 0.027,0.013c0.01,0.003 0.021,0.005 0.032,0.005c0.016,0 0.03,-0.002 0.043,-0.005c0.013,-0.003 0.026,-0.008 0.037,-0.014c0.012,-0.006 0.023,-0.013 0.033,-0.021c0.011,-0.009 0.021,-0.018 0.031,-0.029l0,-0.105Zm-0.288,-0.207c0.028,-0.027 0.059,-0.047 0.091,-0.06c0.032,-0.014 0.068,-0.02 0.107,-0.02c0.029,0 0.054,0.004 0.076,0.013c0.022,0.01 0.04,0.023 0.055,0.039c0.015,0.017 0.027,0.037 0.034,0.061c0.008,0.024 0.012,0.05 0.012,0.078l0,0.324l-0.04,0c-0.008,0 -0.015,-0.001 -0.02,-0.004c-0.004,-0.003 -0.008,-0.009 -0.011,-0.017l-0.01,-0.048c-0.013,0.012 -0.026,0.023 -0.039,0.033c-0.012,0.009 -0.026,0.017 -0.04,0.024c-0.014,0.006 -0.028,0.011 -0.044,0.015c-0.016,0.003 -0.034,0.005 -0.053,0.005c-0.02,0 -0.038,-0.003 -0.056,-0.008c-0.017,-0.006 -0.032,-0.014 -0.045,-0.025c-0.013,-0.011 -0.023,-0.025 -0.03,-0.042c-0.008,-0.017 -0.012,-0.036 -0.012,-0.059c0,-0.02 0.006,-0.04 0.017,-0.058c0.011,-0.019 0.029,-0.035 0.053,-0.05c0.025,-0.014 0.057,-0.026 0.097,-0.035c0.04,-0.009 0.088,-0.014 0.146,-0.016l0,-0.039c0,-0.039 -0.009,-0.069 -0.026,-0.089c-0.017,-0.02 -0.041,-0.03 -0.074,-0.03c-0.022,0 -0.04,0.002 -0.055,0.008c-0.015,0.005 -0.028,0.011 -0.039,0.018c-0.011,0.007 -0.02,0.013 -0.028,0.019c-0.008,0.005 -0.015,0.008 -0.023,0.008c-0.006,0 -0.011,-0.002 -0.016,-0.005c-0.004,-0.003 -0.008,-0.007 -0.011,-0.012l-0.016,-0.028Z" style="fill-rule:nonzero;"/></g><g transform="matrix(50,0,0,50,1580.15,56.205)"><path d="M0.155,-0.433c0.011,-0.012 0.022,-0.023 0.035,-0.034c0.012,-0.01 0.025,-0.018 0.039,-0.025c0.014,-0.007 0.028,-0.013 0.044,-0.017c0.015,-0.004 0.032,-0.005 0.05,-0.005c0.028,0 0.052,0.004 0.073,0.013c0.021,0.009 0.039,0.022 0.053,0.039c0.014,0.017 0.025,0.037 0.032,0.061c0.008,0.024 0.012,0.05 0.012,0.079l-0.001,0.322l-0.089,0l0,-0.323c0,-0.038 -0.009,-0.068 -0.026,-0.089c-0.018,-0.021 -0.044,-0.031 -0.08,-0.031c-0.026,0 -0.051,0.006 -0.074,0.019c-0.023,0.012 -0.044,0.029 -0.063,0.051l0,0.373l-0.089,0l0,-0.506l0.053,-0.001c0.013,0 0.021,0.007 0.024,0.019l0.007,0.055Z" style="fill-rule:nonzero;"/></g><g transform="matrix(50,0,0,50,1620.85,56.205)"><path d="M0.165,-0.507l-0.001,0.507l-0.089,0l0,-0.507l0.09,0Zm0.018,-0.158c0.001,0.008 -0.001,0.016 -0.005,0.024c-0.003,0.007 -0.008,0.014 -0.014,0.02c-0.006,0.006 -0.012,0.01 -0.02,0.013c-0.008,0.004 -0.016,0.005 -0.025,0.005c-0.009,0 -0.017,-0.001 -0.024,-0.005c-0.008,-0.003 -0.014,-0.007 -0.02,-0.013c-0.006,-0.006 -0.01,-0.013 -0.013,-0.02c-0.004,-0.008 -0.005,-0.016 -0.005,-0.024c-0.001,-0.009 0.001,-0.017 0.004,-0.025c0.004,-0.008 0.008,-0.015 0.014,-0.021c0.006,-0.006 0.012,-0.01 0.02,-0.013c0.007,-0.004 0.015,-0.006 0.024,-0.005c0.009,-0.001 0.017,0.001 0.025,0.005c0.008,0.003 0.014,0.007 0.02,0.013c0.006,0.006 0.011,0.013 0.014,0.021c0.004,0.008 0.006,0.016 0.006,0.025Z" style="fill-rule:nonzero;"/></g><g transform="matrix(50,0,0,50,1632.85,56.205)"><path d="M0.366,-0.423c-0.005,0.007 -0.011,0.011 -0.019,0.011c-0.005,0 -0.011,-0.002 -0.017,-0.006c-0.006,-0.003 -0.014,-0.007 -0.023,-0.012c-0.009,-0.004 -0.02,-0.008 -0.033,-0.012c-0.013,-0.004 -0.028,-0.006 -0.045,-0.006c-0.015,0 -0.028,0.002 -0.04,0.006c-0.012,0.004 -0.023,0.009 -0.031,0.016c-0.009,0.006 -0.015,0.014 -0.02,0.023c-0.004,0.009 -0.006,0.018 -0.006,0.028c0,0.013 0.003,0.024 0.011,0.033c0.007,0.009 0.017,0.016 0.03,0.022c0.012,0.007 0.026,0.012 0.042,0.017c0.015,0.005 0.031,0.01 0.048,0.016c0.016,0.005 0.032,0.011 0.048,0.018c0.016,0.007 0.03,0.015 0.042,0.025c0.012,0.01 0.022,0.022 0.03,0.037c0.007,0.014 0.011,0.032 0.011,0.052c0,0.023 -0.004,0.045 -0.012,0.065c-0.009,0.02 -0.021,0.037 -0.037,0.051c-0.017,0.015 -0.037,0.026 -0.06,0.034c-0.024,0.009 -0.051,0.013 -0.082,0.013c-0.036,0 -0.068,-0.006 -0.096,-0.017c-0.029,-0.012 -0.053,-0.027 -0.073,-0.045l0.021,-0.034c0.002,-0.004 0.005,-0.007 0.009,-0.01c0.004,-0.002 0.008,-0.003 0.014,-0.003c0.006,0 0.012,0.002 0.019,0.007c0.007,0.005 0.015,0.01 0.024,0.015c0.01,0.006 0.021,0.011 0.035,0.016c0.014,0.005 0.031,0.007 0.051,0.007c0.017,0 0.033,-0.002 0.046,-0.007c0.013,-0.004 0.023,-0.01 0.032,-0.018c0.009,-0.008 0.015,-0.017 0.019,-0.027c0.004,-0.01 0.007,-0.02 0.007,-0.032c0,-0.014 -0.004,-0.025 -0.012,-0.034c-0.007,-0.009 -0.017,-0.017 -0.029,-0.024c-0.013,-0.006 -0.027,-0.012 -0.043,-0.017c-0.016,-0.005 -0.032,-0.01 -0.048,-0.015c-0.017,-0.005 -0.033,-0.011 -0.049,-0.018c-0.016,-0.007 -0.03,-0.016 -0.042,-0.026c-0.012,-0.01 -0.022,-0.023 -0.03,-0.038c-0.007,-0.015 -0.011,-0.034 -0.011,-0.056c0,-0.019 0.004,-0.037 0.012,-0.055c0.008,-0.018 0.02,-0.034 0.035,-0.047c0.015,-0.014 0.034,-0.025 0.057,-0.033c0.022,-0.008 0.047,-0.012 0.076,-0.012c0.033,0 0.063,0.006 0.09,0.016c0.026,0.011 0.049,0.025 0.069,0.043l-0.02,0.033Z" style="fill-rule:nonzero;"/></g><g transform="matrix(50,0,0,50,1667.3,56.205)"><path d="M0.366,-0.423c-0.005,0.007 -0.011,0.011 -0.019,0.011c-0.005,0 -0.011,-0.002 -0.017,-0.006c-0.006,-0.003 -0.014,-0.007 -0.023,-0.012c-0.009,-0.004 -0.02,-0.008 -0.033,-0.012c-0.013,-0.004 -0.028,-0.006 -0.045,-0.006c-0.015,0 -0.028,0.002 -0.04,0.006c-0.012,0.004 -0.023,0.009 -0.031,0.016c-0.009,0.006 -0.015,0.014 -0.02,0.023c-0.004,0.009 -0.006,0.018 -0.006,0.028c0,0.013 0.003,0.024 0.011,0.033c0.007,0.009 0.017,0.016 0.03,0.022c0.012,0.007 0.026,0.012 0.042,0.017c0.015,0.005 0.031,0.01 0.048,0.016c0.016,0.005 0.032,0.011 0.048,0.018c0.016,0.007 0.03,0.015 0.042,0.025c0.012,0.01 0.022,0.022 0.03,0.037c0.007,0.014 0.011,0.032 0.011,0.052c0,0.023 -0.004,0.045 -0.012,0.065c-0.009,0.02 -0.021,0.037 -0.037,0.051c-0.017,0.015 -0.037,0.026 -0.06,0.034c-0.024,0.009 -0.051,0.013 -0.082,0.013c-0.036,0 -0.068,-0.006 -0.096,-0.017c-0.029,-0.012 -0.053,-0.027 -0.073,-0.045l0.021,-0.034c0.002,-0.004 0.005,-0.007 0.009,-0.01c0.004,-0.002 0.008,-0.003 0.014,-0.003c0.006,0 0.012,0.002 0.019,0.007c0.007,0.005 0.015,0.01 0.024,0.015c0.01,0.006 0.021,0.011 0.035,0.016c0.014,0.005 0.031,0.007 0.051,0.007c0.017,0 0.033,-0.002 0.046,-0.007c0.013,-0.004 0.023,-0.01 0.032,-0.018c0.009,-0.008 0.015,-0.017 0.019,-0.027c0.004,-0.01 0.007,-0.02 0.007,-0.032c0,-0.014 -0.004,-0.025 -0.012,-0.034c-0.007,-0.009 -0.017,-0.017 -0.029,-0.024c-0.013,-0.006 -0.027,-0.012 -0.043,-0.017c-0.016,-0.005 -0.032,-0.01 -0.048,-0.015c-0.017,-0.005 -0.033,-0.011 -0.049,-0.018c-0.016,-0.007 -0.03,-0.016 -0.042,-0.026c-0.012,-0.01 -0.022,-0.023 -0.03,-0.038c-0.007,-0.015 -0.011,-0.034 -0.011,-0.056c0,-0.019 0.004,-0.037 0.012,-0.055c0.008,-0.018 0.02,-0.034 0.035,-0.047c0.015,-0.014 0.034,-0.025 0.057,-0.033c0.022,-0.008 0.047,-0.012 0.076,-0.012c0.033,0 0.063,0.006 0.09,0.016c0.026,0.011 0.049,0.025 0.069,0.043l-0.02,0.033Z" style="fill-rule:nonzero;"/></g><g transform="matrix(50,0,0,50,1688.95,56.205)"><path d="M0.165,-0.507l-0.001,0.507l-0.089,0l0,-0.507l0.09,0Zm0.018,-0.158c0.001,0.008 -0.001,0.016 -0.005,0.024c-0.003,0.007 -0.008,0.014 -0.014,0.02c-0.006,0.006 -0.012,0.01 -0.02,0.013c-0.008,0.004 -0.016,0.005 -0.025,0.005c-0.009,0 -0.017,-0.001 -0.024,-0.005c-0.008,-0.003 -0.014,-0.007 -0.02,-0.013c-0.006,-0.006 -0.01,-0.013 -0.013,-0.02c-0.004,-0.008 -0.005,-0.016 -0.005,-0.024c-0.001,-0.009 0.001,-0.017 0.004,-0.025c0.004,-0.008 0.008,-0.015 0.014,-0.021c0.006,-0.006 0.012,-0.01 0.02,-0.013c0.007,-0.004 0.015,-0.006 0.024,-0.005c0.009,-0.001 0.017,0.001 0.025,0.005c0.008,0.003 0.014,0.007 0.02,0.013c0.006,0.006 0.011,0.013 0.014,0.021c0.004,0.008 0.006,0.016 0.006,0.025Z" style="fill-rule:nonzero;"/></g><g transform="matrix(50,0,0,50,1700.95,56.205)"><path d="M0.247,-0.248c0.018,0.001 0.034,-0.002 0.047,-0.007c0.014,-0.005 0.026,-0.012 0.035,-0.021c0.009,-0.009 0.016,-0.02 0.021,-0.032c0.005,-0.013 0.007,-0.026 0.007,-0.041c0,-0.032 -0.009,-0.056 -0.028,-0.074c-0.019,-0.019 -0.046,-0.028 -0.082,-0.028c-0.036,0 -0.063,0.009 -0.082,0.028c-0.019,0.018 -0.028,0.042 -0.028,0.074c0,0.015 0.002,0.028 0.007,0.041c0.005,0.012 0.012,0.023 0.021,0.032c0.009,0.009 0.021,0.016 0.035,0.021c0.013,0.005 0.029,0.008 0.047,0.008Zm0.161,0.275c0,-0.013 -0.004,-0.023 -0.011,-0.031c-0.007,-0.007 -0.016,-0.013 -0.028,-0.018c-0.012,-0.004 -0.026,-0.007 -0.041,-0.009c-0.016,-0.002 -0.033,-0.003 -0.05,-0.004c-0.018,-0.001 -0.035,-0.002 -0.053,-0.003c-0.018,-0.001 -0.036,-0.003 -0.052,-0.005c-0.019,0.009 -0.034,0.02 -0.046,0.033c-0.012,0.013 -0.018,0.028 -0.018,0.046c0,0.011 0.003,0.022 0.009,0.032c0.006,0.01 0.015,0.018 0.027,0.025c0.012,0.007 0.027,0.013 0.045,0.017c0.018,0.004 0.039,0.006 0.064,0.006c0.024,0 0.046,-0.002 0.065,-0.006c0.019,-0.004 0.035,-0.011 0.048,-0.019c0.013,-0.008 0.023,-0.017 0.03,-0.028c0.007,-0.011 0.011,-0.023 0.011,-0.037Zm0.09,-0.514l0,0.033c0,0.011 -0.007,0.018 -0.021,0.021l-0.057,0.008c0.011,0.022 0.017,0.046 0.017,0.073c0,0.025 -0.005,0.047 -0.015,0.067c-0.009,0.02 -0.022,0.038 -0.039,0.052c-0.017,0.014 -0.037,0.025 -0.06,0.033c-0.023,0.008 -0.049,0.011 -0.076,0.011c-0.024,0 -0.046,-0.002 -0.067,-0.008c-0.011,0.007 -0.019,0.014 -0.024,0.021c-0.006,0.008 -0.009,0.015 -0.009,0.023c0,0.012 0.005,0.021 0.015,0.027c0.01,0.006 0.023,0.011 0.039,0.013c0.016,0.003 0.034,0.005 0.054,0.005c0.021,0.001 0.042,0.002 0.063,0.004c0.022,0.001 0.043,0.004 0.063,0.007c0.021,0.004 0.039,0.01 0.055,0.018c0.016,0.009 0.029,0.02 0.039,0.035c0.01,0.015 0.015,0.034 0.015,0.057c0,0.022 -0.006,0.043 -0.017,0.063c-0.011,0.02 -0.026,0.038 -0.046,0.054c-0.021,0.016 -0.046,0.029 -0.075,0.038c-0.03,0.01 -0.063,0.014 -0.1,0.014c-0.037,0 -0.069,-0.003 -0.097,-0.011c-0.028,-0.007 -0.051,-0.017 -0.069,-0.029c-0.018,-0.012 -0.032,-0.027 -0.041,-0.043c-0.009,-0.016 -0.014,-0.033 -0.014,-0.051c0,-0.025 0.008,-0.046 0.024,-0.063c0.015,-0.017 0.037,-0.031 0.064,-0.042c-0.015,-0.006 -0.027,-0.015 -0.036,-0.026c-0.009,-0.011 -0.013,-0.027 -0.013,-0.046c0,-0.007 0.001,-0.014 0.004,-0.022c0.003,-0.008 0.007,-0.016 0.012,-0.024c0.006,-0.008 0.013,-0.015 0.021,-0.022c0.008,-0.007 0.017,-0.013 0.028,-0.019c-0.025,-0.014 -0.045,-0.032 -0.059,-0.055c-0.014,-0.023 -0.021,-0.05 -0.021,-0.081c0,-0.025 0.005,-0.047 0.014,-0.067c0.01,-0.02 0.023,-0.038 0.04,-0.052c0.017,-0.014 0.037,-0.025 0.061,-0.033c0.023,-0.007 0.049,-0.011 0.077,-0.011c0.022,0 0.043,0.002 0.062,0.007c0.019,0.005 0.036,0.012 0.052,0.021l0.137,0Z" style="fill-rule:nonzero;"/></g><g transform="matrix(50,0,0,50,1726.95,56.205)"><path d="M0.155,-0.433c0.011,-0.012 0.022,-0.023 0.035,-0.034c0.012,-0.01 0.025,-0.018 0.039,-0.025c0.014,-0.007 0.028,-0.013 0.044,-0.017c0.015,-0.004 0.032,-0.005 0.05,-0.005c0.028,0 0.052,0.004 0.073,0.013c0.021,0.009 0.039,0.022 0.053,0.039c0.014,0.017 0.025,0.037 0.032,0.061c0.008,0.024 0.012,0.05 0.012,0.079l-0.001,0.322l-0.089,0l0,-0.323c0,-0.038 -0.009,-0.068 -0.026,-0.089c-0.018,-0.021 -0.044,-0.031 -0.08,-0.031c-0.026,0 -0.051,0.006 -0.074,0.019c-0.023,0.012 -0.044,0.029 -0.063,0.051l0,0.373l-0.089,0l0,-0.506l0.053,-0.001c0.013,0 0.021,0.007 0.024,0.019l0.007,0.055Z" style="fill-rule:nonzero;"/></g><g transform="matrix(50,0,0,50,1754.85,56.205)"><path d="M0.165,-0.507l-0.001,0.507l-0.089,0l0,-0.507l0.09,0Zm0.018,-0.158c0.001,0.008 -0.001,0.016 -0.005,0.024c-0.003,0.007 -0.008,0.014 -0.014,0.02c-0.006,0.006 -0.012,0.01 -0.02,0.013c-0.008,0.004 -0.016,0.005 -0.025,0.005c-0.009,0 -0.017,-0.001 -0.024,-0.005c-0.008,-0.003 -0.014,-0.007 -0.02,-0.013c-0.006,-0.006 -0.01,-0.013 -0.013,-0.02c-0.004,-0.008 -0.005,-0.016 -0.005,-0.024c-0.001,-0.009 0.001,-0.017 0.004,-0.025c0.004,-0.008 0.008,-0.015 0.014,-0.021c0.006,-0.006 0.012,-0.01 0.02,-0.013c0.007,-0.004 0.015,-0.006 0.024,-0.005c0.009,-0.001 0.017,0.001 0.025,0.005c0.008,0.003 0.014,0.007 0.02,0.013c0.006,0.006 0.011,0.013 0.014,0.021c0.004,0.008 0.006,0.016 0.006,0.025Z" style="fill-rule:nonzero;"/></g><g transform="matrix(50,0,0,50,1766.85,56.205)"><path d="M0.105,0l-0.001,-0.431l-0.055,-0.006c-0.008,-0.002 -0.014,-0.004 -0.018,-0.008c-0.004,-0.003 -0.006,-0.008 -0.006,-0.015l0,-0.036l0.08,-0.001l-0.001,-0.027c0.001,-0.031 0.005,-0.06 0.015,-0.086c0.01,-0.026 0.024,-0.048 0.044,-0.067c0.019,-0.018 0.043,-0.033 0.072,-0.043c0.029,-0.01 0.062,-0.015 0.1,-0.015c0.013,0 0.026,0 0.039,0.002c0.013,0.002 0.025,0.004 0.035,0.008l-0.004,0.046c0,0.003 -0.002,0.006 -0.004,0.007c-0.002,0.001 -0.005,0.002 -0.008,0.003c-0.004,0 -0.009,0 -0.014,0c-0.006,0 -0.012,0 -0.019,0c-0.059,0 -0.102,0.012 -0.129,0.036c-0.027,0.025 -0.04,0.062 -0.04,0.111l0,0.026l0.306,-0.001l0,0.497l-0.089,0l0,-0.432l-0.214,0l0,0.432l-0.089,0Z" style="fill-rule:nonzero;"/></g><g transform="matrix(50,0,0,50,1795.48,56.205)"><path d="M0.423,-0.417c-0.003,0.004 -0.005,0.007 -0.008,0.009c-0.003,0.002 -0.006,0.003 -0.011,0.003c-0.005,0 -0.01,-0.002 -0.016,-0.006c-0.006,-0.004 -0.014,-0.009 -0.023,-0.014c-0.009,-0.005 -0.019,-0.01 -0.032,-0.014c-0.013,-0.004 -0.029,-0.006 -0.047,-0.006c-0.025,0 -0.047,0.004 -0.066,0.013c-0.019,0.009 -0.035,0.022 -0.048,0.038c-0.013,0.017 -0.023,0.037 -0.029,0.061c-0.007,0.024 -0.01,0.05 -0.01,0.08c0,0.03 0.004,0.057 0.011,0.081c0.007,0.024 0.016,0.044 0.029,0.06c0.013,0.016 0.029,0.029 0.047,0.037c0.018,0.009 0.038,0.013 0.061,0.013c0.022,0 0.04,-0.003 0.054,-0.008c0.014,-0.005 0.025,-0.011 0.034,-0.017c0.009,-0.006 0.017,-0.012 0.023,-0.017c0.006,-0.005 0.013,-0.008 0.019,-0.008c0.007,0 0.012,0.003 0.016,0.008l0.025,0.033c-0.011,0.014 -0.023,0.025 -0.037,0.035c-0.014,0.01 -0.029,0.018 -0.045,0.024c-0.016,0.007 -0.033,0.011 -0.051,0.014c-0.018,0.003 -0.036,0.005 -0.054,0.005c-0.032,0 -0.061,-0.006 -0.088,-0.018c-0.027,-0.011 -0.051,-0.028 -0.071,-0.05c-0.02,-0.022 -0.036,-0.05 -0.047,-0.082c-0.011,-0.032 -0.017,-0.069 -0.017,-0.111c0,-0.037 0.005,-0.072 0.016,-0.104c0.01,-0.032 0.026,-0.06 0.046,-0.083c0.02,-0.023 0.045,-0.041 0.074,-0.054c0.03,-0.013 0.064,-0.019 0.102,-0.019c0.036,0 0.067,0.005 0.094,0.017c0.027,0.011 0.051,0.027 0.072,0.048l-0.023,0.033Z" style="fill-rule:nonzero;"/></g><g transform="matrix(50,0,0,50,1819.35,56.205)"><path d="M0.345,-0.228c-0.041,0.001 -0.076,0.005 -0.105,0.01c-0.029,0.005 -0.052,0.012 -0.07,0.02c-0.018,0.008 -0.032,0.018 -0.04,0.029c-0.008,0.012 -0.012,0.025 -0.012,0.039c0,0.013 0.002,0.024 0.006,0.034c0.005,0.01 0.011,0.018 0.018,0.024c0.008,0.006 0.017,0.01 0.027,0.013c0.01,0.003 0.021,0.005 0.032,0.005c0.016,0 0.03,-0.002 0.043,-0.005c0.013,-0.003 0.026,-0.008 0.037,-0.014c0.012,-0.006 0.023,-0.013 0.033,-0.021c0.011,-0.009 0.021,-0.018 0.031,-0.029l0,-0.105Zm-0.288,-0.207c0.028,-0.027 0.059,-0.047 0.091,-0.06c0.032,-0.014 0.068,-0.02 0.107,-0.02c0.029,0 0.054,0.004 0.076,0.013c0.022,0.01 0.04,0.023 0.055,0.039c0.015,0.017 0.027,0.037 0.034,0.061c0.008,0.024 0.012,0.05 0.012,0.078l0,0.324l-0.04,0c-0.008,0 -0.015,-0.001 -0.02,-0.004c-0.004,-0.003 -0.008,-0.009 -0.011,-0.017l-0.01,-0.048c-0.013,0.012 -0.026,0.023 -0.039,0.033c-0.012,0.009 -0.026,0.017 -0.04,0.024c-0.014,0.006 -0.028,0.011 -0.044,0.015c-0.016,0.003 -0.034,0.005 -0.053,0.005c-0.02,0 -0.038,-0.003 -0.056,-0.008c-0.017,-0.006 -0.032,-0.014 -0.045,-0.025c-0.013,-0.011 -0.023,-0.025 -0.03,-0.042c-0.008,-0.017 -0.012,-0.036 -0.012,-0.059c0,-0.02 0.006,-0.04 0.017,-0.058c0.011,-0.019 0.029,-0.035 0.053,-0.05c0.025,-0.014 0.057,-0.026 0.097,-0.035c0.04,-0.009 0.088,-0.014 0.146,-0.016l0,-0.039c0,-0.039 -0.009,-0.069 -0.026,-0.089c-0.017,-0.02 -0.041,-0.03 -0.074,-0.03c-0.022,0 -0.04,0.002 -0.055,0.008c-0.015,0.005 -0.028,0.011 -0.039,0.018c-0.011,0.007 -0.02,0.013 -0.028,0.019c-0.008,0.005 -0.015,0.008 -0.023,0.008c-0.006,0 -0.011,-0.002 -0.016,-0.005c-0.004,-0.003 -0.008,-0.007 -0.011,-0.012l-0.016,-0.028Z" style="fill-rule:nonzero;"/></g><g transform="matrix(50,0,0,50,1844.2,56.205)"><path d="M0.155,-0.433c0.011,-0.012 0.022,-0.023 0.035,-0.034c0.012,-0.01 0.025,-0.018 0.039,-0.025c0.014,-0.007 0.028,-0.013 0.044,-0.017c0.015,-0.004 0.032,-0.005 0.05,-0.005c0.028,0 0.052,0.004 0.073,0.013c0.021,0.009 0.039,0.022 0.053,0.039c0.014,0.017 0.025,0.037 0.032,0.061c0.008,0.024 0.012,0.05 0.012,0.079l-0.001,0.322l-0.089,0l0,-0.323c0,-0.038 -0.009,-0.068 -0.026,-0.089c-0.018,-0.021 -0.044,-0.031 -0.08,-0.031c-0.026,0 -0.051,0.006 -0.074,0.019c-0.023,0.012 -0.044,0.029 -0.063,0.051l0,0.373l-0.089,0l0,-0.506l0.053,-0.001c0.013,0 0.021,0.007 0.024,0.019l0.007,0.055Z" style="fill-rule:nonzero;"/></g><g transform="matrix(50,0,0,50,1871.75,56.205)"><path d="M0.226,0.008c-0.04,0 -0.071,-0.011 -0.092,-0.034c-0.022,-0.022 -0.033,-0.054 -0.033,-0.096l0.001,-0.31l-0.062,0c-0.005,0 -0.009,-0.002 -0.013,-0.005c-0.004,-0.003 -0.006,-0.008 -0.006,-0.015l0,-0.035l0.083,-0.011l0.021,-0.156c0.001,-0.005 0.003,-0.009 0.007,-0.012c0.003,-0.003 0.008,-0.005 0.013,-0.005l0.045,0l0.001,0.175l0.146,-0.001l0,0.065l-0.146,0l0,0.304c0,0.021 0.005,0.037 0.015,0.048c0.01,0.01 0.024,0.015 0.04,0.015c0.009,0 0.017,-0.001 0.024,-0.004c0.007,-0.002 0.013,-0.005 0.018,-0.008c0.005,-0.003 0.009,-0.006 0.013,-0.008c0.003,-0.003 0.006,-0.004 0.009,-0.004c0.005,0 0.009,0.003 0.013,0.009l0.026,0.042c-0.016,0.014 -0.034,0.026 -0.056,0.034c-0.022,0.008 -0.044,0.012 -0.067,0.012Z" style="fill-rule:nonzero;"/></g><g transform="matrix(50,0,0,50,1889.68,56.205)"><rect x="0.074" y="-0.737" width="0.089" height="0.737" style="fill-rule:nonzero;"/></g><g transform="matrix(50,0,0,50,1901.48,56.205)"><path d="M0.508,-0.507l-0.283,0.657c-0.003,0.006 -0.007,0.011 -0.011,0.015c-0.005,0.004 -0.012,0.006 -0.021,0.006l-0.066,0l0.093,-0.201l-0.209,-0.477l0.077,0c0.007,0 0.013,0.002 0.018,0.006c0.004,0.004 0.007,0.008 0.009,0.013l0.136,0.319c0.005,0.014 0.009,0.029 0.013,0.044c0.005,-0.016 0.01,-0.031 0.015,-0.045l0.132,-0.318c0.002,-0.005 0.005,-0.01 0.01,-0.013c0.005,-0.004 0.01,-0.006 0.016,-0.006l0.071,0Z" style="fill-rule:nonzero;"/></g><g transform="matrix(50,0,0,50,1938.83,56.205)"><path d="M0.16,-0.122c0.016,0.022 0.034,0.037 0.054,0.047c0.019,0.008 0.041,0.013 0.064,0.013c0.048,0 0.084,-0.017 0.109,-0.051c0.026,-0.033 0.038,-0.083 0.038,-0.15c0.001,-0.062 -0.011,-0.108 -0.033,-0.137c-0.023,-0.029 -0.055,-0.043 -0.097,-0.043c-0.029,-0.001 -0.054,0.006 -0.075,0.02c-0.022,0.013 -0.042,0.032 -0.06,0.056l0,0.245Zm0,-0.312c0.021,-0.024 0.045,-0.044 0.072,-0.058c0.027,-0.015 0.058,-0.022 0.093,-0.022c0.03,0 0.056,0.005 0.08,0.017c0.024,0.011 0.044,0.027 0.061,0.049c0.017,0.021 0.029,0.047 0.038,0.078c0.009,0.031 0.013,0.065 0.013,0.103c0,0.041 -0.005,0.079 -0.015,0.113c-0.01,0.033 -0.024,0.062 -0.043,0.086c-0.019,0.024 -0.042,0.042 -0.069,0.055c-0.027,0.013 -0.057,0.02 -0.091,0.02c-0.033,0 -0.061,-0.006 -0.084,-0.019c-0.023,-0.012 -0.043,-0.03 -0.06,-0.053l-0.004,0.046c-0.003,0.013 -0.01,0.019 -0.023,0.019l-0.058,0l0,-0.737l0.09,0l0,0.304Z" style="fill-rule:nonzero;"/></g><g transform="matrix(50,0,0,50,1966.83,56.205)"><path d="M0.165,-0.507l-0.001,0.507l-0.089,0l0,-0.507l0.09,0Zm0.018,-0.158c0.001,0.008 -0.001,0.016 -0.005,0.024c-0.003,0.007 -0.008,0.014 -0.014,0.02c-0.006,0.006 -0.012,0.01 -0.02,0.013c-0.008,0.004 -0.016,0.005 -0.025,0.005c-0.009,0 -0.017,-0.001 -0.024,-0.005c-0.008,-0.003 -0.014,-0.007 -0.02,-0.013c-0.006,-0.006 -0.01,-0.013 -0.013,-0.02c-0.004,-0.008 -0.005,-0.016 -0.005,-0.024c-0.001,-0.009 0.001,-0.017 0.004,-0.025c0.004,-0.008 0.008,-0.015 0.014,-0.021c0.006,-0.006 0.012,-0.01 0.02,-0.013c0.007,-0.004 0.015,-0.006 0.024,-0.005c0.009,-0.001 0.017,0.001 0.025,0.005c0.008,0.003 0.014,0.007 0.02,0.013c0.006,0.006 0.011,0.013 0.014,0.021c0.004,0.008 0.006,0.016 0.006,0.025Z" style="fill-rule:nonzero;"/></g><g transform="matrix(50,0,0,50,1978.83,56.205)"><path d="M0.247,-0.248c0.018,0.001 0.034,-0.002 0.047,-0.007c0.014,-0.005 0.026,-0.012 0.035,-0.021c0.009,-0.009 0.016,-0.02 0.021,-0.032c0.005,-0.013 0.007,-0.026 0.007,-0.041c0,-0.032 -0.009,-0.056 -0.028,-0.074c-0.019,-0.019 -0.046,-0.028 -0.082,-0.028c-0.036,0 -0.063,0.009 -0.082,0.028c-0.019,0.018 -0.028,0.042 -0.028,0.074c0,0.015 0.002,0.028 0.007,0.041c0.005,0.012 0.012,0.023 0.021,0.032c0.009,0.009 0.021,0.016 0.035,0.021c0.013,0.005 0.029,0.008 0.047,0.008Zm0.161,0.275c0,-0.013 -0.004,-0.023 -0.011,-0.031c-0.007,-0.007 -0.016,-0.013 -0.028,-0.018c-0.012,-0.004 -0.026,-0.007 -0.041,-0.009c-0.016,-0.002 -0.033,-0.003 -0.05,-0.004c-0.018,-0.001 -0.035,-0.002 -0.053,-0.003c-0.018,-0.001 -0.036,-0.003 -0.052,-0.005c-0.019,0.009 -0.034,0.02 -0.046,0.033c-0.012,0.013 -0.018,0.028 -0.018,0.046c0,0.011 0.003,0.022 0.009,0.032c0.006,0.01 0.015,0.018 0.027,0.025c0.012,0.007 0.027,0.013 0.045,0.017c0.018,0.004 0.039,0.006 0.064,0.006c0.024,0 0.046,-0.002 0.065,-0.006c0.019,-0.004 0.035,-0.011 0.048,-0.019c0.013,-0.008 0.023,-0.017 0.03,-0.028c0.007,-0.011 0.011,-0.023 0.011,-0.037Zm0.09,-0.514l0,0.033c0,0.011 -0.007,0.018 -0.021,0.021l-0.057,0.008c0.011,0.022 0.017,0.046 0.017,0.073c0,0.025 -0.005,0.047 -0.015,0.067c-0.009,0.02 -0.022,0.038 -0.039,0.052c-0.017,0.014 -0.037,0.025 -0.06,0.033c-0.023,0.008 -0.049,0.011 -0.076,0.011c-0.024,0 -0.046,-0.002 -0.067,-0.008c-0.011,0.007 -0.019,0.014 -0.024,0.021c-0.006,0.008 -0.009,0.015 -0.009,0.023c0,0.012 0.005,0.021 0.015,0.027c0.01,0.006 0.023,0.011 0.039,0.013c0.016,0.003 0.034,0.005 0.054,0.005c0.021,0.001 0.042,0.002 0.063,0.004c0.022,0.001 0.043,0.004 0.063,0.007c0.021,0.004 0.039,0.01 0.055,0.018c0.016,0.009 0.029,0.02 0.039,0.035c0.01,0.015 0.015,0.034 0.015,0.057c0,0.022 -0.006,0.043 -0.017,0.063c-0.011,0.02 -0.026,0.038 -0.046,0.054c-0.021,0.016 -0.046,0.029 -0.075,0.038c-0.03,0.01 -0.063,0.014 -0.1,0.014c-0.037,0 -0.069,-0.003 -0.097,-0.011c-0.028,-0.007 -0.051,-0.017 -0.069,-0.029c-0.018,-0.012 -0.032,-0.027 -0.041,-0.043c-0.009,-0.016 -0.014,-0.033 -0.014,-0.051c0,-0.025 0.008,-0.046 0.024,-0.063c0.015,-0.017 0.037,-0.031 0.064,-0.042c-0.015,-0.006 -0.027,-0.015 -0.036,-0.026c-0.009,-0.011 -0.013,-0.027 -0.013,-0.046c0,-0.007 0.001,-0.014 0.004,-0.022c0.003,-0.008 0.007,-0.016 0.012,-0.024c0.006,-0.008 0.013,-0.015 0.021,-0.022c0.008,-0.007 0.017,-0.013 0.028,-0.019c-0.025,-0.014 -0.045,-0.032 -0.059,-0.055c-0.014,-0.023 -0.021,-0.05 -0.021,-0.081c0,-0.025 0.005,-0.047 0.014,-0.067c0.01,-0.02 0.023,-0.038 0.04,-0.052c0.017,-0.014 0.037,-0.025 0.061,-0.033c0.023,-0.007 0.049,-0.011 0.077,-0.011c0.022,0 0.043,0.002 0.062,0.007c0.019,0.005 0.036,0.012 0.052,0.021l0.137,0Z" style="fill-rule:nonzero;"/></g><g transform="matrix(50,0,0,50,2004.73,56.205)"><path d="M0.247,-0.248c0.018,0.001 0.034,-0.002 0.047,-0.007c0.014,-0.005 0.026,-0.012 0.035,-0.021c0.009,-0.009 0.016,-0.02 0.021,-0.032c0.005,-0.013 0.007,-0.026 0.007,-0.041c0,-0.032 -0.009,-0.056 -0.028,-0.074c-0.019,-0.019 -0.046,-0.028 -0.082,-0.028c-0.036,0 -0.063,0.009 -0.082,0.028c-0.019,0.018 -0.028,0.042 -0.028,0.074c0,0.015 0.002,0.028 0.007,0.041c0.005,0.012 0.012,0.023 0.021,0.032c0.009,0.009 0.021,0.016 0.035,0.021c0.013,0.005 0.029,0.008 0.047,0.008Zm0.161,0.275c0,-0.013 -0.004,-0.023 -0.011,-0.031c-0.007,-0.007 -0.016,-0.013 -0.028,-0.018c-0.012,-0.004 -0.026,-0.007 -0.041,-0.009c-0.016,-0.002 -0.033,-0.003 -0.05,-0.004c-0.018,-0.001 -0.035,-0.002 -0.053,-0.003c-0.018,-0.001 -0.036,-0.003 -0.052,-0.005c-0.019,0.009 -0.034,0.02 -0.046,0.033c-0.012,0.013 -0.018,0.028 -0.018,0.046c0,0.011 0.003,0.022 0.009,0.032c0.006,0.01 0.015,0.018 0.027,0.025c0.012,0.007 0.027,0.013 0.045,0.017c0.018,0.004 0.039,0.006 0.064,0.006c0.024,0 0.046,-0.002 0.065,-0.006c0.019,-0.004 0.035,-0.011 0.048,-0.019c0.013,-0.008 0.023,-0.017 0.03,-0.028c0.007,-0.011 0.011,-0.023 0.011,-0.037Zm0.09,-0.514l0,0.033c0,0.011 -0.007,0.018 -0.021,0.021l-0.057,0.008c0.011,0.022 0.017,0.046 0.017,0.073c0,0.025 -0.005,0.047 -0.015,0.067c-0.009,0.02 -0.022,0.038 -0.039,0.052c-0.017,0.014 -0.037,0.025 -0.06,0.033c-0.023,0.008 -0.049,0.011 -0.076,0.011c-0.024,0 -0.046,-0.002 -0.067,-0.008c-0.011,0.007 -0.019,0.014 -0.024,0.021c-0.006,0.008 -0.009,0.015 -0.009,0.023c0,0.012 0.005,0.021 0.015,0.027c0.01,0.006 0.023,0.011 0.039,0.013c0.016,0.003 0.034,0.005 0.054,0.005c0.021,0.001 0.042,0.002 0.063,0.004c0.022,0.001 0.043,0.004 0.063,0.007c0.021,0.004 0.039,0.01 0.055,0.018c0.016,0.009 0.029,0.02 0.039,0.035c0.01,0.015 0.015,0.034 0.015,0.057c0,0.022 -0.006,0.043 -0.017,0.063c-0.011,0.02 -0.026,0.038 -0.046,0.054c-0.021,0.016 -0.046,0.029 -0.075,0.038c-0.03,0.01 -0.063,0.014 -0.1,0.014c-0.037,0 -0.069,-0.003 -0.097,-0.011c-0.028,-0.007 -0.051,-0.017 -0.069,-0.029c-0.018,-0.012 -0.032,-0.027 -0.041,-0.043c-0.009,-0.016 -0.014,-0.033 -0.014,-0.051c0,-0.025 0.008,-0.046 0.024,-0.063c0.015,-0.017 0.037,-0.031 0.064,-0.042c-0.015,-0.006 -0.027,-0.015 -0.036,-0.026c-0.009,-0.011 -0.013,-0.027 -0.013,-0.046c0,-0.007 0.001,-0.014 0.004,-0.022c0.003,-0.008 0.007,-0.016 0.012,-0.024c0.006,-0.008 0.013,-0.015 0.021,-0.022c0.008,-0.007 0.017,-0.013 0.028,-0.019c-0.025,-0.014 -0.045,-0.032 -0.059,-0.055c-0.014,-0.023 -0.021,-0.05 -0.021,-0.081c0,-0.025 0.005,-0.047 0.014,-0.067c0.01,-0.02 0.023,-0.038 0.04,-0.052c0.017,-0.014 0.037,-0.025 0.061,-0.033c0.023,-0.007 0.049,-0.011 0.077,-0.011c0.022,0 0.043,0.002 0.062,0.007c0.019,0.005 0.036,0.012 0.052,0.021l0.137,0Z" style="fill-rule:nonzero;"/></g><g transform="matrix(50,0,0,50,2030.33,56.205)"><path d="M0.41,-0.309c-0.001,-0.02 -0.003,-0.039 -0.009,-0.056c-0.006,-0.017 -0.015,-0.032 -0.026,-0.045c-0.011,-0.012 -0.025,-0.022 -0.04,-0.029c-0.017,-0.007 -0.035,-0.01 -0.055,-0.01c-0.043,0 -0.076,0.012 -0.101,0.037c-0.025,0.025 -0.041,0.059 -0.047,0.104l0.278,0Zm0.071,0.237c-0.011,0.013 -0.024,0.025 -0.039,0.035c-0.015,0.01 -0.032,0.018 -0.049,0.024c-0.018,0.006 -0.036,0.011 -0.055,0.014c-0.018,0.003 -0.037,0.005 -0.055,0.005c-0.035,0 -0.067,-0.006 -0.097,-0.018c-0.029,-0.012 -0.055,-0.029 -0.076,-0.052c-0.022,-0.023 -0.039,-0.051 -0.051,-0.084c-0.012,-0.034 -0.018,-0.073 -0.018,-0.116c0,-0.036 0.006,-0.069 0.017,-0.099c0.011,-0.031 0.026,-0.058 0.046,-0.08c0.021,-0.023 0.046,-0.04 0.075,-0.053c0.029,-0.013 0.062,-0.019 0.099,-0.019c0.03,0 0.058,0.005 0.084,0.015c0.026,0.01 0.048,0.025 0.067,0.044c0.019,0.019 0.034,0.043 0.044,0.071c0.011,0.028 0.016,0.06 0.016,0.096c0,0.014 -0.001,0.023 -0.004,0.028c-0.003,0.005 -0.009,0.007 -0.017,0.007l-0.339,0c0.001,0.032 0.006,0.06 0.014,0.084c0.008,0.023 0.018,0.043 0.032,0.059c0.014,0.016 0.031,0.027 0.05,0.035c0.02,0.008 0.041,0.012 0.065,0.012c0.023,0 0.042,-0.003 0.058,-0.008c0.016,-0.005 0.03,-0.01 0.042,-0.016c0.012,-0.006 0.021,-0.012 0.029,-0.017c0.008,-0.005 0.015,-0.008 0.02,-0.008c0.008,0 0.013,0.003 0.017,0.009l0.025,0.032Z" style="fill-rule:nonzero;"/></g><g transform="matrix(50,0,0,50,2056.73,56.205)"><path d="M0.155,-0.405c0.016,-0.035 0.036,-0.062 0.059,-0.081c0.023,-0.02 0.052,-0.029 0.085,-0.029c0.011,0 0.021,0.001 0.031,0.003c0.01,0.002 0.019,0.006 0.027,0.011l-0.007,0.067c-0.002,0.008 -0.007,0.012 -0.015,0.012c-0.005,0 -0.011,-0.001 -0.02,-0.003c-0.009,-0.002 -0.02,-0.003 -0.031,-0.003c-0.016,0 -0.03,0.002 -0.043,0.007c-0.012,0.005 -0.023,0.012 -0.033,0.021c-0.01,0.009 -0.019,0.02 -0.027,0.034c-0.008,0.013 -0.015,0.029 -0.021,0.046l0,0.32l-0.089,0l0,-0.507l0.051,0c0.009,0 0.016,0.002 0.02,0.006c0.003,0.004 0.006,0.01 0.007,0.019l0.006,0.077Z" style="fill-rule:nonzero;"/></g><g transform="matrix(50,0,0,50,2086.68,56.205)"><path d="M0.226,0.008c-0.04,0 -0.071,-0.011 -0.092,-0.034c-0.022,-0.022 -0.033,-0.054 -0.033,-0.096l0.001,-0.31l-0.062,0c-0.005,0 -0.009,-0.002 -0.013,-0.005c-0.004,-0.003 -0.006,-0.008 -0.006,-0.015l0,-0.035l0.083,-0.011l0.021,-0.156c0.001,-0.005 0.003,-0.009 0.007,-0.012c0.003,-0.003 0.008,-0.005 0.013,-0.005l0.045,0l0.001,0.175l0.146,-0.001l0,0.065l-0.146,0l0,0.304c0,0.021 0.005,0.037 0.015,0.048c0.01,0.01 0.024,0.015 0.04,0.015c0.009,0 0.017,-0.001 0.024,-0.004c0.007,-0.002 0.013,-0.005 0.018,-0.008c0.005,-0.003 0.009,-0.006 0.013,-0.008c0.003,-0.003 0.006,-0.004 0.009,-0.004c0.005,0 0.009,0.003 0.013,0.009l0.026,0.042c-0.016,0.014 -0.034,0.026 -0.056,0.034c-0.022,0.008 -0.044,0.012 -0.067,0.012Z" style="fill-rule:nonzero;"/></g><g transform="matrix(50,0,0,50,2104.6,56.205)"><path d="M0.16,-0.439c0.022,-0.023 0.046,-0.041 0.072,-0.055c0.026,-0.014 0.057,-0.02 0.091,-0.02c0.028,0 0.052,0.004 0.073,0.013c0.021,0.009 0.039,0.022 0.053,0.039c0.014,0.017 0.025,0.037 0.032,0.061c0.008,0.024 0.012,0.05 0.012,0.079l-0.001,0.322l-0.089,0l0,-0.323c0,-0.038 -0.009,-0.068 -0.026,-0.089c-0.018,-0.021 -0.044,-0.031 -0.08,-0.031c-0.026,0 -0.051,0.006 -0.074,0.019c-0.023,0.012 -0.044,0.029 -0.063,0.051l0,0.373l-0.089,0l0,-0.736l0.089,-0.001l0,0.298Z" style="fill-rule:nonzero;"/></g><g transform="matrix(50,0,0,50,2132.5,56.205)"><path d="M0.345,-0.228c-0.041,0.001 -0.076,0.005 -0.105,0.01c-0.029,0.005 -0.052,0.012 -0.07,0.02c-0.018,0.008 -0.032,0.018 -0.04,0.029c-0.008,0.012 -0.012,0.025 -0.012,0.039c0,0.013 0.002,0.024 0.006,0.034c0.005,0.01 0.011,0.018 0.018,0.024c0.008,0.006 0.017,0.01 0.027,0.013c0.01,0.003 0.021,0.005 0.032,0.005c0.016,0 0.03,-0.002 0.043,-0.005c0.013,-0.003 0.026,-0.008 0.037,-0.014c0.012,-0.006 0.023,-0.013 0.033,-0.021c0.011,-0.009 0.021,-0.018 0.031,-0.029l0,-0.105Zm-0.288,-0.207c0.028,-0.027 0.059,-0.047 0.091,-0.06c0.032,-0.014 0.068,-0.02 0.107,-0.02c0.029,0 0.054,0.004 0.076,0.013c0.022,0.01 0.04,0.023 0.055,0.039c0.015,0.017 0.027,0.037 0.034,0.061c0.008,0.024 0.012,0.05 0.012,0.078l0,0.324l-0.04,0c-0.008,0 -0.015,-0.001 -0.02,-0.004c-0.004,-0.003 -0.008,-0.009 -0.011,-0.017l-0.01,-0.048c-0.013,0.012 -0.026,0.023 -0.039,0.033c-0.012,0.009 -0.026,0.017 -0.04,0.024c-0.014,0.006 -0.028,0.011 -0.044,0.015c-0.016,0.003 -0.034,0.005 -0.053,0.005c-0.02,0 -0.038,-0.003 -0.056,-0.008c-0.017,-0.006 -0.032,-0.014 -0.045,-0.025c-0.013,-0.011 -0.023,-0.025 -0.03,-0.042c-0.008,-0.017 -0.012,-0.036 -0.012,-0.059c0,-0.02 0.006,-0.04 0.017,-0.058c0.011,-0.019 0.029,-0.035 0.053,-0.05c0.025,-0.014 0.057,-0.026 0.097,-0.035c0.04,-0.009 0.088,-0.014 0.146,-0.016l0,-0.039c0,-0.039 -0.009,-0.069 -0.026,-0.089c-0.017,-0.02 -0.041,-0.03 -0.074,-0.03c-0.022,0 -0.04,0.002 -0.055,0.008c-0.015,0.005 -0.028,0.011 -0.039,0.018c-0.011,0.007 -0.02,0.013 -0.028,0.019c-0.008,0.005 -0.015,0.008 -0.023,0.008c-0.006,0 -0.011,-0.002 -0.016,-0.005c-0.004,-0.003 -0.008,-0.007 -0.011,-0.012l-0.016,-0.028Z" style="fill-rule:nonzero;"/></g><g transform="matrix(50,0,0,50,2157.35,56.205)"><path d="M0.155,-0.433c0.011,-0.012 0.022,-0.023 0.035,-0.034c0.012,-0.01 0.025,-0.018 0.039,-0.025c0.014,-0.007 0.028,-0.013 0.044,-0.017c0.015,-0.004 0.032,-0.005 0.05,-0.005c0.028,0 0.052,0.004 0.073,0.013c0.021,0.009 0.039,0.022 0.053,0.039c0.014,0.017 0.025,0.037 0.032,0.061c0.008,0.024 0.012,0.05 0.012,0.079l-0.001,0.322l-0.089,0l0,-0.323c0,-0.038 -0.009,-0.068 -0.026,-0.089c-0.018,-0.021 -0.044,-0.031 -0.08,-0.031c-0.026,0 -0.051,0.006 -0.074,0.019c-0.023,0.012 -0.044,0.029 -0.063,0.051l0,0.373l-0.089,0l0,-0.506l0.053,-0.001c0.013,0 0.021,0.007 0.024,0.019l0.007,0.055Z" style="fill-rule:nonzero;"/></g><g transform="matrix(50,0,0,50,2198.05,56.205)"><path d="M0.55,-0.358c0,0.063 -0.007,0.117 -0.02,0.163c-0.014,0.046 -0.032,0.083 -0.055,0.113c-0.024,0.03 -0.051,0.053 -0.083,0.067c-0.032,0.015 -0.066,0.022 -0.103,0.022c-0.036,0 -0.07,-0.007 -0.102,-0.022c-0.031,-0.014 -0.059,-0.037 -0.082,-0.067c-0.023,-0.03 -0.042,-0.067 -0.055,-0.113c-0.013,-0.046 -0.02,-0.1 -0.02,-0.163c0,-0.063 0.007,-0.117 0.02,-0.163c0.013,-0.046 0.032,-0.084 0.055,-0.114c0.023,-0.03 0.051,-0.053 0.082,-0.068c0.032,-0.014 0.066,-0.021 0.102,-0.021c0.037,0 0.071,0.007 0.103,0.022c0.032,0.014 0.059,0.037 0.083,0.067c0.023,0.03 0.041,0.068 0.055,0.114c0.013,0.046 0.02,0.1 0.02,0.163Zm-0.093,0c0,-0.055 -0.004,-0.101 -0.013,-0.138c-0.009,-0.037 -0.022,-0.067 -0.037,-0.09c-0.016,-0.022 -0.034,-0.038 -0.054,-0.048c-0.02,-0.01 -0.042,-0.015 -0.064,-0.015c-0.022,0 -0.043,0.005 -0.063,0.015c-0.02,0.01 -0.038,0.026 -0.054,0.048c-0.015,0.023 -0.027,0.053 -0.036,0.09c-0.009,0.037 -0.014,0.083 -0.014,0.138c0,0.055 0.005,0.1 0.014,0.137c0.009,0.037 0.021,0.067 0.036,0.09c0.016,0.023 0.034,0.039 0.054,0.049c0.02,0.01 0.041,0.014 0.063,0.014c0.022,0 0.044,-0.004 0.064,-0.014c0.02,-0.01 0.038,-0.026 0.054,-0.049c0.015,-0.023 0.028,-0.053 0.037,-0.09c0.009,-0.037 0.013,-0.082 0.013,-0.137Z" style="fill-rule:nonzero;"/></g><g transform="matrix(50,0,0,50,2227.05,56.205)"><path d="M0.056,-0.055c-0.001,-0.009 0.001,-0.017 0.004,-0.025c0.003,-0.007 0.008,-0.014 0.013,-0.02c0.006,-0.005 0.012,-0.01 0.02,-0.013c0.008,-0.003 0.016,-0.005 0.025,-0.005c0.008,0 0.016,0.002 0.024,0.005c0.008,0.003 0.014,0.008 0.02,0.013c0.006,0.006 0.01,0.013 0.014,0.021c0.003,0.007 0.005,0.015 0.005,0.024c-0.001,0.009 -0.002,0.017 -0.005,0.025c-0.004,0.007 -0.008,0.014 -0.014,0.019c-0.006,0.006 -0.012,0.011 -0.02,0.014c-0.008,0.003 -0.016,0.004 -0.024,0.004c-0.009,0 -0.017,-0.001 -0.025,-0.004c-0.008,-0.003 -0.014,-0.008 -0.02,-0.014c-0.005,-0.005 -0.01,-0.012 -0.013,-0.019c-0.003,-0.008 -0.004,-0.016 -0.004,-0.025Z" style="fill-rule:nonzero;"/></g><g transform="matrix(50,0,0,50,1427.04,106.205)"><path d="M0.303,-0.345c0.028,0 0.052,-0.004 0.073,-0.011c0.021,-0.007 0.039,-0.018 0.054,-0.031c0.014,-0.013 0.025,-0.029 0.033,-0.047c0.007,-0.018 0.011,-0.038 0.011,-0.061c0,-0.045 -0.015,-0.081 -0.043,-0.107c-0.028,-0.025 -0.071,-0.038 -0.128,-0.038l-0.115,0l0,0.295l0.115,0Zm0,-0.372c0.045,0.001 0.085,0.006 0.118,0.016c0.034,0.011 0.062,0.026 0.084,0.045c0.021,0.019 0.038,0.043 0.049,0.07c0.011,0.027 0.016,0.058 0.016,0.092c0,0.033 -0.006,0.063 -0.018,0.091c-0.011,0.028 -0.028,0.052 -0.051,0.072c-0.022,0.02 -0.05,0.035 -0.083,0.046c-0.033,0.011 -0.072,0.017 -0.115,0.017l-0.115,0l0,0.268l-0.097,0l0.001,-0.716l0.211,0Z" style="fill-rule:nonzero;"/></g><g transform="matrix(50,0,0,50,1456.59,106.205)"><path d="M0.155,-0.405c0.016,-0.035 0.036,-0.062 0.059,-0.081c0.023,-0.02 0.052,-0.029 0.085,-0.029c0.011,0 0.021,0.001 0.031,0.003c0.01,0.002 0.019,0.006 0.027,0.011l-0.007,0.067c-0.002,0.008 -0.007,0.012 -0.015,0.012c-0.005,0 -0.011,-0.001 -0.02,-0.003c-0.009,-0.002 -0.02,-0.003 -0.031,-0.003c-0.016,0 -0.03,0.002 -0.043,0.007c-0.012,0.005 -0.023,0.012 -0.033,0.021c-0.01,0.009 -0.019,0.02 -0.027,0.034c-0.008,0.013 -0.015,0.029 -0.021,0.046l0,0.32l-0.089,0l0,-0.507l0.051,0c0.009,0 0.016,0.002 0.02,0.006c0.003,0.004 0.006,0.01 0.007,0.019l0.006,0.077Z" style="fill-rule:nonzero;"/></g><g transform="matrix(50,0,0,50,1473.77,106.205)"><path d="M0.284,-0.515c0.037,0.001 0.07,0.007 0.1,0.019c0.03,0.012 0.055,0.03 0.076,0.052c0.021,0.023 0.037,0.051 0.048,0.083c0.011,0.032 0.017,0.068 0.017,0.107c0,0.04 -0.006,0.077 -0.017,0.109c-0.011,0.032 -0.027,0.059 -0.048,0.082c-0.021,0.022 -0.046,0.04 -0.076,0.052c-0.03,0.012 -0.063,0.018 -0.1,0.018c-0.037,0 -0.071,-0.006 -0.101,-0.018c-0.03,-0.012 -0.055,-0.03 -0.076,-0.052c-0.021,-0.023 -0.037,-0.05 -0.048,-0.082c-0.011,-0.032 -0.017,-0.069 -0.017,-0.108c0,-0.04 0.006,-0.076 0.017,-0.108c0.011,-0.032 0.027,-0.06 0.048,-0.083c0.021,-0.022 0.046,-0.04 0.076,-0.052c0.03,-0.012 0.064,-0.018 0.101,-0.018Zm0,0.452c0.05,-0.001 0.087,-0.017 0.112,-0.051c0.025,-0.033 0.037,-0.08 0.037,-0.14c0,-0.06 -0.012,-0.107 -0.037,-0.141c-0.025,-0.034 -0.062,-0.05 -0.112,-0.05c-0.025,0 -0.047,0.004 -0.066,0.013c-0.019,0.008 -0.035,0.021 -0.047,0.037c-0.013,0.016 -0.022,0.036 -0.028,0.06c-0.006,0.024 -0.01,0.051 -0.01,0.081c0,0.06 0.013,0.107 0.038,0.14c0.025,0.034 0.062,0.05 0.113,0.05Z" style="fill-rule:nonzero;"/></g><g transform="matrix(50,0,0,50,1502.12,106.205)"><path d="M0.16,-0.122c0.016,0.022 0.034,0.037 0.054,0.047c0.019,0.008 0.041,0.013 0.064,0.013c0.048,0 0.084,-0.017 0.109,-0.051c0.026,-0.033 0.038,-0.083 0.038,-0.15c0.001,-0.062 -0.011,-0.108 -0.033,-0.137c-0.023,-0.029 -0.055,-0.043 -0.097,-0.043c-0.029,-0.001 -0.054,0.006 -0.075,0.02c-0.022,0.013 -0.042,0.032 -0.06,0.056l0,0.245Zm0,-0.312c0.021,-0.024 0.045,-0.044 0.072,-0.058c0.027,-0.015 0.058,-0.022 0.093,-0.022c0.03,0 0.056,0.005 0.08,0.017c0.024,0.011 0.044,0.027 0.061,0.049c0.017,0.021 0.029,0.047 0.038,0.078c0.009,0.031 0.013,0.065 0.013,0.103c0,0.041 -0.005,0.079 -0.015,0.113c-0.01,0.033 -0.024,0.062 -0.043,0.086c-0.019,0.024 -0.042,0.042 -0.069,0.055c-0.027,0.013 -0.057,0.02 -0.091,0.02c-0.033,0 -0.061,-0.006 -0.084,-0.019c-0.023,-0.012 -0.043,-0.03 -0.06,-0.053l-0.004,0.046c-0.003,0.013 -0.01,0.019 -0.023,0.019l-0.058,0l0,-0.737l0.09,0l0,0.304Z" style="fill-rule:nonzero;"/></g><g transform="matrix(50,0,0,50,1530.12,106.205)"><path d="M0.345,-0.228c-0.041,0.001 -0.076,0.005 -0.105,0.01c-0.029,0.005 -0.052,0.012 -0.07,0.02c-0.018,0.008 -0.032,0.018 -0.04,0.029c-0.008,0.012 -0.012,0.025 -0.012,0.039c0,0.013 0.002,0.024 0.006,0.034c0.005,0.01 0.011,0.018 0.018,0.024c0.008,0.006 0.017,0.01 0.027,0.013c0.01,0.003 0.021,0.005 0.032,0.005c0.016,0 0.03,-0.002 0.043,-0.005c0.013,-0.003 0.026,-0.008 0.037,-0.014c0.012,-0.006 0.023,-0.013 0.033,-0.021c0.011,-0.009 0.021,-0.018 0.031,-0.029l0,-0.105Zm-0.288,-0.207c0.028,-0.027 0.059,-0.047 0.091,-0.06c0.032,-0.014 0.068,-0.02 0.107,-0.02c0.029,0 0.054,0.004 0.076,0.013c0.022,0.01 0.04,0.023 0.055,0.039c0.015,0.017 0.027,0.037 0.034,0.061c0.008,0.024 0.012,0.05 0.012,0.078l0,0.324l-0.04,0c-0.008,0 -0.015,-0.001 -0.02,-0.004c-0.004,-0.003 -0.008,-0.009 -0.011,-0.017l-0.01,-0.048c-0.013,0.012 -0.026,0.023 -0.039,0.033c-0.012,0.009 -0.026,0.017 -0.04,0.024c-0.014,0.006 -0.028,0.011 -0.044,0.015c-0.016,0.003 -0.034,0.005 -0.053,0.005c-0.02,0 -0.038,-0.003 -0.056,-0.008c-0.017,-0.006 -0.032,-0.014 -0.045,-0.025c-0.013,-0.011 -0.023,-0.025 -0.03,-0.042c-0.008,-0.017 -0.012,-0.036 -0.012,-0.059c0,-0.02 0.006,-0.04 0.017,-0.058c0.011,-0.019 0.029,-0.035 0.053,-0.05c0.025,-0.014 0.057,-0.026 0.097,-0.035c0.04,-0.009 0.088,-0.014 0.146,-0.016l0,-0.039c0,-0.039 -0.009,-0.069 -0.026,-0.089c-0.017,-0.02 -0.041,-0.03 -0.074,-0.03c-0.022,0 -0.04,0.002 -0.055,0.008c-0.015,0.005 -0.028,0.011 -0.039,0.018c-0.011,0.007 -0.02,0.013 -0.028,0.019c-0.008,0.005 -0.015,0.008 -0.023,0.008c-0.006,0 -0.011,-0.002 -0.016,-0.005c-0.004,-0.003 -0.008,-0.007 -0.011,-0.012l-0.016,-0.028Z" style="fill-rule:nonzero;"/></g><g transform="matrix(50,0,0,50,1554.97,106.205)"><path d="M0.16,-0.122c0.016,0.022 0.034,0.037 0.054,0.047c0.019,0.008 0.041,0.013 0.064,0.013c0.048,0 0.084,-0.017 0.109,-0.051c0.026,-0.033 0.038,-0.083 0.038,-0.15c0.001,-0.062 -0.011,-0.108 -0.033,-0.137c-0.023,-0.029 -0.055,-0.043 -0.097,-0.043c-0.029,-0.001 -0.054,0.006 -0.075,0.02c-0.022,0.013 -0.042,0.032 -0.06,0.056l0,0.245Zm0,-0.312c0.021,-0.024 0.045,-0.044 0.072,-0.058c0.027,-0.015 0.058,-0.022 0.093,-0.022c0.03,0 0.056,0.005 0.08,0.017c0.024,0.011 0.044,0.027 0.061,0.049c0.017,0.021 0.029,0.047 0.038,0.078c0.009,0.031 0.013,0.065 0.013,0.103c0,0.041 -0.005,0.079 -0.015,0.113c-0.01,0.033 -0.024,0.062 -0.043,0.086c-0.019,0.024 -0.042,0.042 -0.069,0.055c-0.027,0.013 -0.057,0.02 -0.091,0.02c-0.033,0 -0.061,-0.006 -0.084,-0.019c-0.023,-0.012 -0.043,-0.03 -0.06,-0.053l-0.004,0.046c-0.003,0.013 -0.01,0.019 -0.023,0.019l-0.058,0l0,-0.737l0.09,0l0,0.304Z" style="fill-rule:nonzero;"/></g><g transform="matrix(50,0,0,50,1582.97,106.205)"><path d="M0.165,-0.507l-0.001,0.507l-0.089,0l0,-0.507l0.09,0Zm0.018,-0.158c0.001,0.008 -0.001,0.016 -0.005,0.024c-0.003,0.007 -0.008,0.014 -0.014,0.02c-0.006,0.006 -0.012,0.01 -0.02,0.013c-0.008,0.004 -0.016,0.005 -0.025,0.005c-0.009,0 -0.017,-0.001 -0.024,-0.005c-0.008,-0.003 -0.014,-0.007 -0.02,-0.013c-0.006,-0.006 -0.01,-0.013 -0.013,-0.02c-0.004,-0.008 -0.005,-0.016 -0.005,-0.024c-0.001,-0.009 0.001,-0.017 0.004,-0.025c0.004,-0.008 0.008,-0.015 0.014,-0.021c0.006,-0.006 0.012,-0.01 0.02,-0.013c0.007,-0.004 0.015,-0.006 0.024,-0.005c0.009,-0.001 0.017,0.001 0.025,0.005c0.008,0.003 0.014,0.007 0.02,0.013c0.006,0.006 0.011,0.013 0.014,0.021c0.004,0.008 0.006,0.016 0.006,0.025Z" style="fill-rule:nonzero;"/></g><g transform="matrix(50,0,0,50,1594.97,106.205)"><rect x="0.074" y="-0.737" width="0.089" height="0.737" style="fill-rule:nonzero;"/></g><g transform="matrix(50,0,0,50,1606.77,106.205)"><path d="M0.165,-0.507l-0.001,0.507l-0.089,0l0,-0.507l0.09,0Zm0.018,-0.158c0.001,0.008 -0.001,0.016 -0.005,0.024c-0.003,0.007 -0.008,0.014 -0.014,0.02c-0.006,0.006 -0.012,0.01 -0.02,0.013c-0.008,0.004 -0.016,0.005 -0.025,0.005c-0.009,0 -0.017,-0.001 -0.024,-0.005c-0.008,-0.003 -0.014,-0.007 -0.02,-0.013c-0.006,-0.006 -0.01,-0.013 -0.013,-0.02c-0.004,-0.008 -0.005,-0.016 -0.005,-0.024c-0.001,-0.009 0.001,-0.017 0.004,-0.025c0.004,-0.008 0.008,-0.015 0.014,-0.021c0.006,-0.006 0.012,-0.01 0.02,-0.013c0.007,-0.004 0.015,-0.006 0.024,-0.005c0.009,-0.001 0.017,0.001 0.025,0.005c0.008,0.003 0.014,0.007 0.02,0.013c0.006,0.006 0.011,0.013 0.014,0.021c0.004,0.008 0.006,0.016 0.006,0.025Z" style="fill-rule:nonzero;"/></g><g transform="matrix(50,0,0,50,1618.77,106.205)"><path d="M0.226,0.008c-0.04,0 -0.071,-0.011 -0.092,-0.034c-0.022,-0.022 -0.033,-0.054 -0.033,-0.096l0.001,-0.31l-0.062,0c-0.005,0 -0.009,-0.002 -0.013,-0.005c-0.004,-0.003 -0.006,-0.008 -0.006,-0.015l0,-0.035l0.083,-0.011l0.021,-0.156c0.001,-0.005 0.003,-0.009 0.007,-0.012c0.003,-0.003 0.008,-0.005 0.013,-0.005l0.045,0l0.001,0.175l0.146,-0.001l0,0.065l-0.146,0l0,0.304c0,0.021 0.005,0.037 0.015,0.048c0.01,0.01 0.024,0.015 0.04,0.015c0.009,0 0.017,-0.001 0.024,-0.004c0.007,-0.002 0.013,-0.005 0.018,-0.008c0.005,-0.003 0.009,-0.006 0.013,-0.008c0.003,-0.003 0.006,-0.004 0.009,-0.004c0.005,0 0.009,0.003 0.013,0.009l0.026,0.042c-0.016,0.014 -0.034,0.026 -0.056,0.034c-0.022,0.008 -0.044,0.012 -0.067,0.012Z" style="fill-rule:nonzero;"/></g><g transform="matrix(50,0,0,50,1636.69,106.205)"><path d="M0.508,-0.507l-0.283,0.657c-0.003,0.006 -0.007,0.011 -0.011,0.015c-0.005,0.004 -0.012,0.006 -0.021,0.006l-0.066,0l0.093,-0.201l-0.209,-0.477l0.077,0c0.007,0 0.013,0.002 0.018,0.006c0.004,0.004 0.007,0.008 0.009,0.013l0.136,0.319c0.005,0.014 0.009,0.029 0.013,0.044c0.005,-0.016 0.01,-0.031 0.015,-0.045l0.132,-0.318c0.002,-0.005 0.005,-0.01 0.01,-0.013c0.005,-0.004 0.01,-0.006 0.016,-0.006l0.071,0Z" style="fill-rule:nonzero;"/></g><g transform="matrix(50,0,0,50,1674.04,106.205)"><path d="M0.226,0.008c-0.04,0 -0.071,-0.011 -0.092,-0.034c-0.022,-0.022 -0.033,-0.054 -0.033,-0.096l0.001,-0.31l-0.062,0c-0.005,0 -0.009,-0.002 -0.013,-0.005c-0.004,-0.003 -0.006,-0.008 -0.006,-0.015l0,-0.035l0.083,-0.011l0.021,-0.156c0.001,-0.005 0.003,-0.009 0.007,-0.012c0.003,-0.003 0.008,-0.005 0.013,-0.005l0.045,0l0.001,0.175l0.146,-0.001l0,0.065l-0.146,0l0,0.304c0,0.021 0.005,0.037 0.015,0.048c0.01,0.01 0.024,0.015 0.04,0.015c0.009,0 0.017,-0.001 0.024,-0.004c0.007,-0.002 0.013,-0.005 0.018,-0.008c0.005,-0.003 0.009,-0.006 0.013,-0.008c0.003,-0.003 0.006,-0.004 0.009,-0.004c0.005,0 0.009,0.003 0.013,0.009l0.026,0.042c-0.016,0.014 -0.034,0.026 -0.056,0.034c-0.022,0.008 -0.044,0.012 -0.067,0.012Z" style="fill-rule:nonzero;"/></g><g transform="matrix(50,0,0,50,1691.97,106.205)"><path d="M0.16,-0.439c0.022,-0.023 0.046,-0.041 0.072,-0.055c0.026,-0.014 0.057,-0.02 0.091,-0.02c0.028,0 0.052,0.004 0.073,0.013c0.021,0.009 0.039,0.022 0.053,0.039c0.014,0.017 0.025,0.037 0.032,0.061c0.008,0.024 0.012,0.05 0.012,0.079l-0.001,0.322l-0.089,0l0,-0.323c0,-0.038 -0.009,-0.068 -0.026,-0.089c-0.018,-0.021 -0.044,-0.031 -0.08,-0.031c-0.026,0 -0.051,0.006 -0.074,0.019c-0.023,0.012 -0.044,0.029 -0.063,0.051l0,0.373l-0.089,0l0,-0.736l0.089,-0.001l0,0.298Z" style="fill-rule:nonzero;"/></g><g transform="matrix(50,0,0,50,1719.87,106.205)"><path d="M0.345,-0.228c-0.041,0.001 -0.076,0.005 -0.105,0.01c-0.029,0.005 -0.052,0.012 -0.07,0.02c-0.018,0.008 -0.032,0.018 -0.04,0.029c-0.008,0.012 -0.012,0.025 -0.012,0.039c0,0.013 0.002,0.024 0.006,0.034c0.005,0.01 0.011,0.018 0.018,0.024c0.008,0.006 0.017,0.01 0.027,0.013c0.01,0.003 0.021,0.005 0.032,0.005c0.016,0 0.03,-0.002 0.043,-0.005c0.013,-0.003 0.026,-0.008 0.037,-0.014c0.012,-0.006 0.023,-0.013 0.033,-0.021c0.011,-0.009 0.021,-0.018 0.031,-0.029l0,-0.105Zm-0.288,-0.207c0.028,-0.027 0.059,-0.047 0.091,-0.06c0.032,-0.014 0.068,-0.02 0.107,-0.02c0.029,0 0.054,0.004 0.076,0.013c0.022,0.01 0.04,0.023 0.055,0.039c0.015,0.017 0.027,0.037 0.034,0.061c0.008,0.024 0.012,0.05 0.012,0.078l0,0.324l-0.04,0c-0.008,0 -0.015,-0.001 -0.02,-0.004c-0.004,-0.003 -0.008,-0.009 -0.011,-0.017l-0.01,-0.048c-0.013,0.012 -0.026,0.023 -0.039,0.033c-0.012,0.009 -0.026,0.017 -0.04,0.024c-0.014,0.006 -0.028,0.011 -0.044,0.015c-0.016,0.003 -0.034,0.005 -0.053,0.005c-0.02,0 -0.038,-0.003 -0.056,-0.008c-0.017,-0.006 -0.032,-0.014 -0.045,-0.025c-0.013,-0.011 -0.023,-0.025 -0.03,-0.042c-0.008,-0.017 -0.012,-0.036 -0.012,-0.059c0,-0.02 0.006,-0.04 0.017,-0.058c0.011,-0.019 0.029,-0.035 0.053,-0.05c0.025,-0.014 0.057,-0.026 0.097,-0.035c0.04,-0.009 0.088,-0.014 0.146,-0.016l0,-0.039c0,-0.039 -0.009,-0.069 -0.026,-0.089c-0.017,-0.02 -0.041,-0.03 -0.074,-0.03c-0.022,0 -0.04,0.002 -0.055,0.008c-0.015,0.005 -0.028,0.011 -0.039,0.018c-0.011,0.007 -0.02,0.013 -0.028,0.019c-0.008,0.005 -0.015,0.008 -0.023,0.008c-0.006,0 -0.011,-0.002 -0.016,-0.005c-0.004,-0.003 -0.008,-0.007 -0.011,-0.012l-0.016,-0.028Z" style="fill-rule:nonzero;"/></g><g transform="matrix(50,0,0,50,1744.39,106.205)"><path d="M0.226,0.008c-0.04,0 -0.071,-0.011 -0.092,-0.034c-0.022,-0.022 -0.033,-0.054 -0.033,-0.096l0.001,-0.31l-0.062,0c-0.005,0 -0.009,-0.002 -0.013,-0.005c-0.004,-0.003 -0.006,-0.008 -0.006,-0.015l0,-0.035l0.083,-0.011l0.021,-0.156c0.001,-0.005 0.003,-0.009 0.007,-0.012c0.003,-0.003 0.008,-0.005 0.013,-0.005l0.045,0l0.001,0.175l0.146,-0.001l0,0.065l-0.146,0l0,0.304c0,0.021 0.005,0.037 0.015,0.048c0.01,0.01 0.024,0.015 0.04,0.015c0.009,0 0.017,-0.001 0.024,-0.004c0.007,-0.002 0.013,-0.005 0.018,-0.008c0.005,-0.003 0.009,-0.006 0.013,-0.008c0.003,-0.003 0.006,-0.004 0.009,-0.004c0.005,0 0.009,0.003 0.013,0.009l0.026,0.042c-0.016,0.014 -0.034,0.026 -0.056,0.034c-0.022,0.008 -0.044,0.012 -0.067,0.012Z" style="fill-rule:nonzero;"/></g><g transform="matrix(50,0,0,50,1775.12,106.205)"><path d="M0.165,-0.507l-0.001,0.507l-0.089,0l0,-0.507l0.09,0Zm0.018,-0.158c0.001,0.008 -0.001,0.016 -0.005,0.024c-0.003,0.007 -0.008,0.014 -0.014,0.02c-0.006,0.006 -0.012,0.01 -0.02,0.013c-0.008,0.004 -0.016,0.005 -0.025,0.005c-0.009,0 -0.017,-0.001 -0.024,-0.005c-0.008,-0.003 -0.014,-0.007 -0.02,-0.013c-0.006,-0.006 -0.01,-0.013 -0.013,-0.02c-0.004,-0.008 -0.005,-0.016 -0.005,-0.024c-0.001,-0.009 0.001,-0.017 0.004,-0.025c0.004,-0.008 0.008,-0.015 0.014,-0.021c0.006,-0.006 0.012,-0.01 0.02,-0.013c0.007,-0.004 0.015,-0.006 0.024,-0.005c0.009,-0.001 0.017,0.001 0.025,0.005c0.008,0.003 0.014,0.007 0.02,0.013c0.006,0.006 0.011,0.013 0.014,0.021c0.004,0.008 0.006,0.016 0.006,0.025Z" style="fill-rule:nonzero;"/></g><g transform="matrix(50,0,0,50,1787.12,106.205)"><path d="M0.226,0.008c-0.04,0 -0.071,-0.011 -0.092,-0.034c-0.022,-0.022 -0.033,-0.054 -0.033,-0.096l0.001,-0.31l-0.062,0c-0.005,0 -0.009,-0.002 -0.013,-0.005c-0.004,-0.003 -0.006,-0.008 -0.006,-0.015l0,-0.035l0.083,-0.011l0.021,-0.156c0.001,-0.005 0.003,-0.009 0.007,-0.012c0.003,-0.003 0.008,-0.005 0.013,-0.005l0.045,0l0.001,0.175l0.146,-0.001l0,0.065l-0.146,0l0,0.304c0,0.021 0.005,0.037 0.015,0.048c0.01,0.01 0.024,0.015 0.04,0.015c0.009,0 0.017,-0.001 0.024,-0.004c0.007,-0.002 0.013,-0.005 0.018,-0.008c0.005,-0.003 0.009,-0.006 0.013,-0.008c0.003,-0.003 0.006,-0.004 0.009,-0.004c0.005,0 0.009,0.003 0.013,0.009l0.026,0.042c-0.016,0.014 -0.034,0.026 -0.056,0.034c-0.022,0.008 -0.044,0.012 -0.067,0.012Z" style="fill-rule:nonzero;"/></g><g transform="matrix(50,0,0,50,1817.84,106.205)"><path d="M0.165,-0.507l-0.001,0.507l-0.089,0l0,-0.507l0.09,0Zm0.018,-0.158c0.001,0.008 -0.001,0.016 -0.005,0.024c-0.003,0.007 -0.008,0.014 -0.014,0.02c-0.006,0.006 -0.012,0.01 -0.02,0.013c-0.008,0.004 -0.016,0.005 -0.025,0.005c-0.009,0 -0.017,-0.001 -0.024,-0.005c-0.008,-0.003 -0.014,-0.007 -0.02,-0.013c-0.006,-0.006 -0.01,-0.013 -0.013,-0.02c-0.004,-0.008 -0.005,-0.016 -0.005,-0.024c-0.001,-0.009 0.001,-0.017 0.004,-0.025c0.004,-0.008 0.008,-0.015 0.014,-0.021c0.006,-0.006 0.012,-0.01 0.02,-0.013c0.007,-0.004 0.015,-0.006 0.024,-0.005c0.009,-0.001 0.017,0.001 0.025,0.005c0.008,0.003 0.014,0.007 0.02,0.013c0.006,0.006 0.011,0.013 0.014,0.021c0.004,0.008 0.006,0.016 0.006,0.025Z" style="fill-rule:nonzero;"/></g><g transform="matrix(50,0,0,50,1829.84,106.205)"><path d="M0.366,-0.423c-0.005,0.007 -0.011,0.011 -0.019,0.011c-0.005,0 -0.011,-0.002 -0.017,-0.006c-0.006,-0.003 -0.014,-0.007 -0.023,-0.012c-0.009,-0.004 -0.02,-0.008 -0.033,-0.012c-0.013,-0.004 -0.028,-0.006 -0.045,-0.006c-0.015,0 -0.028,0.002 -0.04,0.006c-0.012,0.004 -0.023,0.009 -0.031,0.016c-0.009,0.006 -0.015,0.014 -0.02,0.023c-0.004,0.009 -0.006,0.018 -0.006,0.028c0,0.013 0.003,0.024 0.011,0.033c0.007,0.009 0.017,0.016 0.03,0.022c0.012,0.007 0.026,0.012 0.042,0.017c0.015,0.005 0.031,0.01 0.048,0.016c0.016,0.005 0.032,0.011 0.048,0.018c0.016,0.007 0.03,0.015 0.042,0.025c0.012,0.01 0.022,0.022 0.03,0.037c0.007,0.014 0.011,0.032 0.011,0.052c0,0.023 -0.004,0.045 -0.012,0.065c-0.009,0.02 -0.021,0.037 -0.037,0.051c-0.017,0.015 -0.037,0.026 -0.06,0.034c-0.024,0.009 -0.051,0.013 -0.082,0.013c-0.036,0 -0.068,-0.006 -0.096,-0.017c-0.029,-0.012 -0.053,-0.027 -0.073,-0.045l0.021,-0.034c0.002,-0.004 0.005,-0.007 0.009,-0.01c0.004,-0.002 0.008,-0.003 0.014,-0.003c0.006,0 0.012,0.002 0.019,0.007c0.007,0.005 0.015,0.01 0.024,0.015c0.01,0.006 0.021,0.011 0.035,0.016c0.014,0.005 0.031,0.007 0.051,0.007c0.017,0 0.033,-0.002 0.046,-0.007c0.013,-0.004 0.023,-0.01 0.032,-0.018c0.009,-0.008 0.015,-0.017 0.019,-0.027c0.004,-0.01 0.007,-0.02 0.007,-0.032c0,-0.014 -0.004,-0.025 -0.012,-0.034c-0.007,-0.009 -0.017,-0.017 -0.029,-0.024c-0.013,-0.006 -0.027,-0.012 -0.043,-0.017c-0.016,-0.005 -0.032,-0.01 -0.048,-0.015c-0.017,-0.005 -0.033,-0.011 -0.049,-0.018c-0.016,-0.007 -0.03,-0.016 -0.042,-0.026c-0.012,-0.01 -0.022,-0.023 -0.03,-0.038c-0.007,-0.015 -0.011,-0.034 -0.011,-0.056c0,-0.019 0.004,-0.037 0.012,-0.055c0.008,-0.018 0.02,-0.034 0.035,-0.047c0.015,-0.014 0.034,-0.025 0.057,-0.033c0.022,-0.008 0.047,-0.012 0.076,-0.012c0.033,0 0.063,0.006 0.09,0.016c0.026,0.011 0.049,0.025 0.069,0.043l-0.02,0.033Z" style="fill-rule:nonzero;"/></g><g transform="matrix(50,0,0,50,1864.29,106.205)"><path d="M0.155,-0.433c0.011,-0.012 0.022,-0.023 0.035,-0.034c0.012,-0.01 0.025,-0.018 0.039,-0.025c0.014,-0.007 0.028,-0.013 0.044,-0.017c0.015,-0.004 0.032,-0.005 0.05,-0.005c0.028,0 0.052,0.004 0.073,0.013c0.021,0.009 0.039,0.022 0.053,0.039c0.014,0.017 0.025,0.037 0.032,0.061c0.008,0.024 0.012,0.05 0.012,0.079l-0.001,0.322l-0.089,0l0,-0.323c0,-0.038 -0.009,-0.068 -0.026,-0.089c-0.018,-0.021 -0.044,-0.031 -0.08,-0.031c-0.026,0 -0.051,0.006 -0.074,0.019c-0.023,0.012 -0.044,0.029 -0.063,0.051l0,0.373l-0.089,0l0,-0.506l0.053,-0.001c0.013,0 0.021,0.007 0.024,0.019l0.007,0.055Z" style="fill-rule:nonzero;"/></g><g transform="matrix(50,0,0,50,1892.19,106.205)"><path d="M0.284,-0.515c0.037,0.001 0.07,0.007 0.1,0.019c0.03,0.012 0.055,0.03 0.076,0.052c0.021,0.023 0.037,0.051 0.048,0.083c0.011,0.032 0.017,0.068 0.017,0.107c0,0.04 -0.006,0.077 -0.017,0.109c-0.011,0.032 -0.027,0.059 -0.048,0.082c-0.021,0.022 -0.046,0.04 -0.076,0.052c-0.03,0.012 -0.063,0.018 -0.1,0.018c-0.037,0 -0.071,-0.006 -0.101,-0.018c-0.03,-0.012 -0.055,-0.03 -0.076,-0.052c-0.021,-0.023 -0.037,-0.05 -0.048,-0.082c-0.011,-0.032 -0.017,-0.069 -0.017,-0.108c0,-0.04 0.006,-0.076 0.017,-0.108c0.011,-0.032 0.027,-0.06 0.048,-0.083c0.021,-0.022 0.046,-0.04 0.076,-0.052c0.03,-0.012 0.064,-0.018 0.101,-0.018Zm0,0.452c0.05,-0.001 0.087,-0.017 0.112,-0.051c0.025,-0.033 0.037,-0.08 0.037,-0.14c0,-0.06 -0.012,-0.107 -0.037,-0.141c-0.025,-0.034 -0.062,-0.05 -0.112,-0.05c-0.025,0 -0.047,0.004 -0.066,0.013c-0.019,0.008 -0.035,0.021 -0.047,0.037c-0.013,0.016 -0.022,0.036 -0.028,0.06c-0.006,0.024 -0.01,0.051 -0.01,0.081c0,0.06 0.013,0.107 0.038,0.14c0.025,0.034 0.062,0.05 0.113,0.05Z" style="fill-rule:nonzero;"/></g><g transform="matrix(50,0,0,50,1920.09,106.205)"><path d="M0.226,0.008c-0.04,0 -0.071,-0.011 -0.092,-0.034c-0.022,-0.022 -0.033,-0.054 -0.033,-0.096l0.001,-0.31l-0.062,0c-0.005,0 -0.009,-0.002 -0.013,-0.005c-0.004,-0.003 -0.006,-0.008 -0.006,-0.015l0,-0.035l0.083,-0.011l0.021,-0.156c0.001,-0.005 0.003,-0.009 0.007,-0.012c0.003,-0.003 0.008,-0.005 0.013,-0.005l0.045,0l0.001,0.175l0.146,-0.001l0,0.065l-0.146,0l0,0.304c0,0.021 0.005,0.037 0.015,0.048c0.01,0.01 0.024,0.015 0.04,0.015c0.009,0 0.017,-0.001 0.024,-0.004c0.007,-0.002 0.013,-0.005 0.018,-0.008c0.005,-0.003 0.009,-0.006 0.013,-0.008c0.003,-0.003 0.006,-0.004 0.009,-0.004c0.005,0 0.009,0.003 0.013,0.009l0.026,0.042c-0.016,0.014 -0.034,0.026 -0.056,0.034c-0.022,0.008 -0.044,0.012 -0.067,0.012Z" style="fill-rule:nonzero;"/></g><g transform="matrix(50,0,0,50,1950.82,106.205)"><path d="M0.225,-0.352c-0.007,0.003 -0.014,0.006 -0.021,0.009c-0.008,0.003 -0.016,0.005 -0.025,0.006c0.009,0.002 0.017,0.005 0.025,0.007c0.007,0.003 0.014,0.006 0.021,0.009l0.225,0.114c0.006,0.003 0.011,0.007 0.014,0.011c0.002,0.005 0.004,0.01 0.004,0.015l-0.001,0.064l-0.386,-0.201l0,-0.037l0.387,-0.201l-0.001,0.064c0.001,0.006 -0.001,0.011 -0.004,0.015c-0.002,0.004 -0.007,0.008 -0.014,0.011l-0.224,0.114Z" style="fill-rule:nonzero;"/></g><g transform="matrix(50,0,0,50,1992.62,106.205)"><path d="M0.181,-0.446c0.037,-0.008 0.072,-0.012 0.103,-0.012c0.037,0 0.07,0.006 0.099,0.017c0.029,0.01 0.053,0.026 0.072,0.045c0.019,0.019 0.033,0.042 0.043,0.069c0.01,0.026 0.015,0.054 0.015,0.086c0,0.037 -0.007,0.072 -0.02,0.102c-0.013,0.031 -0.031,0.057 -0.054,0.079c-0.023,0.022 -0.051,0.039 -0.082,0.05c-0.031,0.012 -0.065,0.018 -0.101,0.018c-0.021,0 -0.042,-0.002 -0.061,-0.006c-0.019,-0.004 -0.037,-0.01 -0.054,-0.017c-0.017,-0.007 -0.033,-0.015 -0.047,-0.024c-0.014,-0.009 -0.027,-0.019 -0.038,-0.029l0.027,-0.038c0.006,-0.008 0.014,-0.013 0.024,-0.013c0.007,0 0.014,0.003 0.022,0.008c0.009,0.005 0.019,0.011 0.031,0.017c0.012,0.007 0.026,0.013 0.042,0.018c0.016,0.005 0.036,0.007 0.058,0.007c0.025,0 0.047,-0.004 0.068,-0.012c0.019,-0.008 0.037,-0.019 0.051,-0.034c0.014,-0.015 0.025,-0.032 0.033,-0.053c0.008,-0.021 0.011,-0.044 0.011,-0.07c0,-0.022 -0.003,-0.042 -0.009,-0.06c-0.007,-0.018 -0.017,-0.033 -0.03,-0.046c-0.013,-0.013 -0.029,-0.023 -0.049,-0.03c-0.02,-0.007 -0.043,-0.01 -0.069,-0.01c-0.018,0 -0.037,0.002 -0.056,0.005c-0.02,0.003 -0.04,0.007 -0.06,0.014l-0.056,-0.017l0.057,-0.335l0.34,0.001l0,0.039c0,0.012 -0.004,0.023 -0.012,0.031c-0.008,0.008 -0.021,0.012 -0.04,0.012l-0.225,0l-0.033,0.188Z" style="fill-rule:nonzero;"/></g><g transform="matrix(50,0,0,50,2021.62,106.205)"><path d="M0.361,-0.544c0,0.029 -0.004,0.054 -0.013,0.076c-0.009,0.022 -0.02,0.041 -0.035,0.056c-0.014,0.015 -0.031,0.027 -0.05,0.035c-0.019,0.008 -0.04,0.012 -0.061,0.012c-0.022,-0.001 -0.043,-0.005 -0.062,-0.013c-0.02,-0.008 -0.037,-0.019 -0.051,-0.034c-0.014,-0.015 -0.025,-0.034 -0.033,-0.056c-0.008,-0.022 -0.012,-0.047 -0.012,-0.075c0,-0.029 0.004,-0.055 0.012,-0.077c0.008,-0.022 0.019,-0.041 0.033,-0.056c0.014,-0.016 0.031,-0.027 0.051,-0.035c0.019,-0.008 0.04,-0.012 0.062,-0.012c0.023,0 0.044,0.004 0.063,0.012c0.019,0.008 0.036,0.019 0.051,0.035c0.014,0.015 0.025,0.034 0.033,0.056c0.008,0.022 0.012,0.048 0.012,0.077Zm-0.069,0c0,-0.022 -0.002,-0.041 -0.007,-0.056c-0.005,-0.016 -0.011,-0.028 -0.019,-0.038c-0.008,-0.01 -0.018,-0.017 -0.029,-0.021c-0.011,-0.005 -0.023,-0.007 -0.035,-0.007c-0.012,0 -0.024,0.002 -0.034,0.007c-0.011,0.004 -0.02,0.011 -0.028,0.021c-0.008,0.01 -0.015,0.022 -0.019,0.038c-0.005,0.015 -0.007,0.034 -0.007,0.056c0,0.021 0.002,0.04 0.007,0.055c0.004,0.015 0.011,0.027 0.019,0.037c0.008,0.009 0.017,0.016 0.028,0.02c0.01,0.004 0.022,0.007 0.034,0.007c0.012,0 0.024,-0.003 0.035,-0.007c0.011,-0.004 0.021,-0.011 0.029,-0.02c0.008,-0.01 0.014,-0.022 0.019,-0.037c0.005,-0.015 0.007,-0.034 0.007,-0.055Zm0.323,-0.158c0.003,-0.005 0.007,-0.008 0.011,-0.011c0.005,-0.003 0.011,-0.004 0.018,-0.004l0.065,0l-0.524,0.702c-0.003,0.004 -0.007,0.007 -0.012,0.01c-0.004,0.003 -0.01,0.004 -0.017,0.004l-0.065,0l0.524,-0.702Zm0.143,0.533c-0.001,0.028 -0.005,0.053 -0.013,0.075c-0.009,0.022 -0.021,0.041 -0.035,0.056c-0.015,0.015 -0.032,0.027 -0.051,0.035c-0.019,0.008 -0.039,0.012 -0.06,0.012c-0.023,0 -0.044,-0.004 -0.063,-0.012c-0.019,-0.008 -0.036,-0.02 -0.05,-0.035c-0.014,-0.015 -0.026,-0.034 -0.034,-0.056c-0.008,-0.022 -0.012,-0.047 -0.012,-0.075c0,-0.029 0.004,-0.054 0.012,-0.077c0.008,-0.022 0.02,-0.041 0.034,-0.056c0.014,-0.016 0.031,-0.027 0.05,-0.035c0.019,-0.009 0.04,-0.013 0.062,-0.012c0.023,-0.001 0.044,0.004 0.063,0.012c0.02,0.008 0.037,0.019 0.051,0.035c0.014,0.015 0.025,0.034 0.033,0.056c0.008,0.023 0.012,0.048 0.012,0.077Zm-0.069,0c0,-0.022 -0.002,-0.041 -0.007,-0.056c-0.004,-0.016 -0.011,-0.028 -0.019,-0.038c-0.008,-0.01 -0.018,-0.017 -0.029,-0.021c-0.011,-0.004 -0.022,-0.006 -0.035,-0.006c-0.012,0 -0.023,0.002 -0.034,0.006c-0.011,0.004 -0.021,0.011 -0.029,0.021c-0.008,0.01 -0.014,0.022 -0.018,0.038c-0.005,0.015 -0.007,0.034 -0.007,0.056c0,0.022 0.002,0.04 0.007,0.055c0.004,0.015 0.01,0.027 0.018,0.037c0.008,0.009 0.018,0.016 0.029,0.02c0.011,0.004 0.022,0.006 0.034,0.007c0.013,-0.001 0.024,-0.003 0.035,-0.007c0.011,-0.004 0.021,-0.011 0.029,-0.02c0.008,-0.01 0.015,-0.022 0.019,-0.037c0.005,-0.015 0.007,-0.033 0.007,-0.055Z" style="fill-rule:nonzero;"/></g><g transform="matrix(50,0,0,50,2061.69,106.205)"><path d="M0.056,-0.055c-0.001,-0.009 0.001,-0.017 0.004,-0.025c0.003,-0.007 0.008,-0.014 0.013,-0.02c0.006,-0.005 0.012,-0.01 0.02,-0.013c0.008,-0.003 0.016,-0.005 0.025,-0.005c0.008,0 0.016,0.002 0.024,0.005c0.008,0.003 0.014,0.008 0.02,0.013c0.006,0.006 0.01,0.013 0.014,0.021c0.003,0.007 0.005,0.015 0.005,0.024c-0.001,0.009 -0.002,0.017 -0.005,0.025c-0.004,0.007 -0.008,0.014 -0.014,0.019c-0.006,0.006 -0.012,0.011 -0.02,0.014c-0.008,0.003 -0.016,0.004 -0.024,0.004c-0.009,0 -0.017,-0.001 -0.025,-0.004c-0.008,-0.003 -0.014,-0.008 -0.02,-0.014c-0.005,-0.005 -0.01,-0.012 -0.013,-0.019c-0.003,-0.008 -0.004,-0.016 -0.004,-0.025Z" style="fill-rule:nonzero;"/></g></g><path d="M75.894,27.217l0,30" style="fill:none;stroke:#000;stroke-width:1.5px;"/><path d="M218.666,27.217l0,30" style="fill:none;stroke:#000;stroke-width:1.5px;"/><path d="M75.894,42.217l142.772,0" style="fill:none;stroke:#000;stroke-width:1.5px;stroke-linejoin:round;stroke-miterlimit:1.5;"/><path d="M265.693,64.834l-243.037,0" style="fill:none;stroke:#000;stroke-width:1px;stroke-linejoin:round;stroke-miterlimit:1.5;"/><circle cx="147.28" cy="42.217" r="5.198"/><g id="ticks"><path d="M56.156,77.921c0,0.752 -0.081,1.403 -0.243,1.953c-0.162,0.55 -0.383,1.005 -0.663,1.365c-0.28,0.36 -0.611,0.628 -0.993,0.804c-0.382,0.176 -0.791,0.264 -1.227,0.264c-0.44,0 -0.849,-0.088 -1.227,-0.264c-0.378,-0.176 -0.707,-0.444 -0.987,-0.804c-0.28,-0.36 -0.5,-0.815 -0.66,-1.365c-0.16,-0.55 -0.24,-1.201 -0.24,-1.953c0,-0.752 0.08,-1.404 0.24,-1.956c0.16,-0.552 0.38,-1.009 0.66,-1.371c0.28,-0.362 0.609,-0.631 0.987,-0.807c0.378,-0.176 0.787,-0.264 1.227,-0.264c0.436,0 0.845,0.088 1.227,0.264c0.382,0.176 0.713,0.445 0.993,0.807c0.28,0.362 0.501,0.819 0.663,1.371c0.162,0.552 0.243,1.204 0.243,1.956Zm-1.11,0c0,-0.656 -0.055,-1.207 -0.165,-1.653c-0.11,-0.446 -0.258,-0.805 -0.444,-1.077c-0.186,-0.272 -0.401,-0.467 -0.645,-0.585c-0.244,-0.118 -0.498,-0.177 -0.762,-0.177c-0.264,0 -0.518,0.059 -0.762,0.177c-0.244,0.118 -0.458,0.313 -0.642,0.585c-0.184,0.272 -0.331,0.631 -0.441,1.077c-0.11,0.446 -0.165,0.997 -0.165,1.653c0,0.656 0.055,1.206 0.165,1.65c0.11,0.444 0.257,0.802 0.441,1.074c0.184,0.272 0.398,0.467 0.642,0.585c0.244,0.118 0.498,0.177 0.762,0.177c0.264,0 0.518,-0.059 0.762,-0.177c0.244,-0.118 0.459,-0.313 0.645,-0.585c0.186,-0.272 0.334,-0.63 0.444,-1.074c0.11,-0.444 0.165,-0.994 0.165,-1.65Z" style="fill-rule:nonzero;"/><path d="M86.044,81.401l0,0.816l-4.608,0l0,-0.816l1.842,0l0,-5.862c0,-0.176 0.006,-0.354 0.018,-0.534l-1.53,1.314c-0.052,0.044 -0.104,0.071 -0.156,0.081c-0.052,0.01 -0.1,0.011 -0.144,0.003c-0.044,-0.008 -0.085,-0.024 -0.123,-0.048c-0.038,-0.024 -0.067,-0.05 -0.087,-0.078l-0.336,-0.462l2.562,-2.214l0.87,0l0,7.8l1.692,0Z" style="fill-rule:nonzero;"/><path d="M116.237,81.203c0.116,0 0.208,0.034 0.276,0.102c0.068,0.068 0.102,0.156 0.102,0.264l0,0.648l-5.736,0l0,-0.366c0,-0.076 0.016,-0.154 0.048,-0.234c0.032,-0.08 0.082,-0.154 0.15,-0.222l2.754,-2.766c0.228,-0.232 0.436,-0.455 0.624,-0.669c0.188,-0.214 0.348,-0.429 0.48,-0.645c0.132,-0.216 0.234,-0.435 0.306,-0.657c0.072,-0.222 0.108,-0.459 0.108,-0.711c0,-0.252 -0.04,-0.473 -0.12,-0.663c-0.08,-0.19 -0.189,-0.347 -0.327,-0.471c-0.138,-0.124 -0.301,-0.217 -0.489,-0.279c-0.188,-0.062 -0.39,-0.093 -0.606,-0.093c-0.22,0 -0.422,0.032 -0.606,0.096c-0.184,0.064 -0.347,0.153 -0.489,0.267c-0.142,0.114 -0.261,0.249 -0.357,0.405c-0.096,0.156 -0.164,0.328 -0.204,0.516c-0.048,0.14 -0.113,0.233 -0.195,0.279c-0.082,0.046 -0.197,0.059 -0.345,0.039l-0.558,-0.096c0.056,-0.392 0.165,-0.739 0.327,-1.041c0.162,-0.302 0.366,-0.555 0.612,-0.759c0.246,-0.204 0.527,-0.359 0.843,-0.465c0.316,-0.106 0.658,-0.159 1.026,-0.159c0.364,0 0.704,0.054 1.02,0.162c0.316,0.108 0.59,0.265 0.822,0.471c0.232,0.206 0.414,0.457 0.546,0.753c0.132,0.296 0.198,0.632 0.198,1.008c0,0.32 -0.048,0.617 -0.144,0.891c-0.096,0.274 -0.226,0.535 -0.39,0.783c-0.164,0.248 -0.353,0.49 -0.567,0.726c-0.214,0.236 -0.441,0.474 -0.681,0.714l-2.268,2.316c0.16,-0.044 0.322,-0.079 0.486,-0.105c0.164,-0.026 0.322,-0.039 0.474,-0.039l2.88,0Z" style="fill-rule:nonzero;"/><path d="M141.475,75.947c0.056,-0.392 0.164,-0.739 0.324,-1.041c0.16,-0.302 0.363,-0.555 0.609,-0.759c0.246,-0.204 0.528,-0.359 0.846,-0.465c0.318,-0.106 0.661,-0.159 1.029,-0.159c0.364,0 0.7,0.052 1.008,0.156c0.308,0.104 0.573,0.252 0.795,0.444c0.222,0.192 0.395,0.424 0.519,0.696c0.124,0.272 0.186,0.574 0.186,0.906c0,0.272 -0.035,0.515 -0.105,0.729c-0.07,0.214 -0.17,0.401 -0.3,0.561c-0.13,0.16 -0.287,0.296 -0.471,0.408c-0.184,0.112 -0.39,0.204 -0.618,0.276c0.56,0.144 0.981,0.391 1.263,0.741c0.282,0.35 0.423,0.787 0.423,1.311c0,0.396 -0.075,0.752 -0.225,1.068c-0.15,0.316 -0.355,0.585 -0.615,0.807c-0.26,0.222 -0.563,0.392 -0.909,0.51c-0.346,0.118 -0.717,0.177 -1.113,0.177c-0.456,0 -0.846,-0.057 -1.17,-0.171c-0.324,-0.114 -0.598,-0.271 -0.822,-0.471c-0.224,-0.2 -0.408,-0.437 -0.552,-0.711c-0.144,-0.274 -0.266,-0.571 -0.366,-0.891l0.462,-0.192c0.12,-0.052 0.237,-0.066 0.351,-0.042c0.114,0.024 0.197,0.09 0.249,0.198c0.052,0.112 0.117,0.246 0.195,0.402c0.078,0.156 0.185,0.306 0.321,0.45c0.136,0.144 0.309,0.266 0.519,0.366c0.21,0.1 0.477,0.15 0.801,0.15c0.3,0 0.563,-0.049 0.789,-0.147c0.226,-0.098 0.414,-0.225 0.564,-0.381c0.15,-0.156 0.263,-0.33 0.339,-0.522c0.076,-0.192 0.114,-0.382 0.114,-0.57c0,-0.232 -0.03,-0.444 -0.09,-0.636c-0.06,-0.192 -0.172,-0.358 -0.336,-0.498c-0.164,-0.14 -0.389,-0.25 -0.675,-0.33c-0.286,-0.08 -0.653,-0.12 -1.101,-0.12l0,-0.774c0.368,-0.004 0.681,-0.044 0.939,-0.12c0.258,-0.076 0.468,-0.18 0.63,-0.312c0.162,-0.132 0.28,-0.29 0.354,-0.474c0.074,-0.184 0.111,-0.388 0.111,-0.612c0,-0.248 -0.039,-0.464 -0.117,-0.648c-0.078,-0.184 -0.185,-0.336 -0.321,-0.456c-0.136,-0.12 -0.297,-0.21 -0.483,-0.27c-0.186,-0.06 -0.387,-0.09 -0.603,-0.09c-0.216,0 -0.417,0.032 -0.603,0.096c-0.186,0.064 -0.35,0.153 -0.492,0.267c-0.142,0.114 -0.261,0.249 -0.357,0.405c-0.096,0.156 -0.164,0.328 -0.204,0.516c-0.052,0.14 -0.117,0.233 -0.195,0.279c-0.078,0.046 -0.191,0.059 -0.339,0.039l-0.558,-0.096Z" style="fill-rule:nonzero;"/><path d="M175.454,79.115l0,-3.546c0,-0.104 0.004,-0.218 0.012,-0.342c0.008,-0.124 0.02,-0.25 0.036,-0.378l-3.132,4.266l3.084,0Zm2.238,0l0,0.612c0,0.064 -0.019,0.118 -0.057,0.162c-0.038,0.044 -0.097,0.066 -0.177,0.066l-1.068,0l0,2.262l-0.936,0l0,-2.262l-3.816,0c-0.08,0 -0.149,-0.023 -0.207,-0.069c-0.058,-0.046 -0.095,-0.103 -0.111,-0.171l-0.108,-0.546l4.182,-5.55l0.996,0l0,5.496l1.302,0Z" style="fill-rule:nonzero;"/><path d="M203.626,76.865c0.448,-0.096 0.86,-0.144 1.236,-0.144c0.448,0 0.844,0.066 1.188,0.198c0.344,0.132 0.631,0.314 0.861,0.546c0.23,0.232 0.404,0.506 0.522,0.822c0.118,0.316 0.177,0.66 0.177,1.032c0,0.456 -0.079,0.868 -0.237,1.236c-0.158,0.368 -0.376,0.683 -0.654,0.945c-0.278,0.262 -0.605,0.463 -0.981,0.603c-0.376,0.14 -0.782,0.21 -1.218,0.21c-0.252,0 -0.494,-0.025 -0.726,-0.075c-0.232,-0.05 -0.449,-0.117 -0.651,-0.201c-0.202,-0.084 -0.389,-0.18 -0.561,-0.288c-0.172,-0.108 -0.324,-0.222 -0.456,-0.342l0.33,-0.456c0.072,-0.104 0.166,-0.156 0.282,-0.156c0.08,0 0.17,0.031 0.27,0.093c0.1,0.062 0.222,0.131 0.366,0.207c0.144,0.076 0.313,0.145 0.507,0.207c0.194,0.062 0.425,0.093 0.693,0.093c0.3,0 0.57,-0.048 0.81,-0.144c0.24,-0.096 0.446,-0.233 0.618,-0.411c0.172,-0.178 0.304,-0.391 0.396,-0.639c0.092,-0.248 0.138,-0.526 0.138,-0.834c0,-0.268 -0.039,-0.51 -0.117,-0.726c-0.078,-0.216 -0.196,-0.4 -0.354,-0.552c-0.158,-0.152 -0.355,-0.27 -0.591,-0.354c-0.236,-0.084 -0.512,-0.126 -0.828,-0.126c-0.216,0 -0.441,0.018 -0.675,0.054c-0.234,0.036 -0.473,0.094 -0.717,0.174l-0.672,-0.198l0.69,-4.02l4.074,0l0,0.468c0,0.152 -0.047,0.277 -0.141,0.375c-0.094,0.098 -0.255,0.147 -0.483,0.147l-2.7,0l-0.396,2.256Z" style="fill-rule:nonzero;"/><path d="M235.301,81.425c0.288,0 0.549,-0.046 0.783,-0.138c0.234,-0.092 0.434,-0.22 0.6,-0.384c0.166,-0.164 0.294,-0.358 0.384,-0.582c0.09,-0.224 0.135,-0.468 0.135,-0.732c0,-0.28 -0.044,-0.533 -0.132,-0.759c-0.088,-0.226 -0.213,-0.418 -0.375,-0.576c-0.162,-0.158 -0.355,-0.279 -0.579,-0.363c-0.224,-0.084 -0.47,-0.126 -0.738,-0.126c-0.288,0 -0.548,0.049 -0.78,0.147c-0.232,0.098 -0.429,0.23 -0.591,0.396c-0.162,0.166 -0.286,0.358 -0.372,0.576c-0.086,0.218 -0.129,0.445 -0.129,0.681c0,0.276 0.04,0.528 0.12,0.756c0.08,0.228 0.197,0.424 0.351,0.588c0.154,0.164 0.342,0.291 0.564,0.381c0.222,0.09 0.475,0.135 0.759,0.135Zm-0.624,-4.584c-0.076,0.096 -0.149,0.189 -0.219,0.279c-0.07,0.09 -0.137,0.179 -0.201,0.267c0.204,-0.14 0.428,-0.248 0.672,-0.324c0.244,-0.076 0.51,-0.114 0.798,-0.114c0.348,0 0.676,0.057 0.984,0.171c0.308,0.114 0.577,0.28 0.807,0.498c0.23,0.218 0.413,0.486 0.549,0.804c0.136,0.318 0.204,0.681 0.204,1.089c0,0.396 -0.072,0.764 -0.216,1.104c-0.144,0.34 -0.345,0.636 -0.603,0.888c-0.258,0.252 -0.568,0.45 -0.93,0.594c-0.362,0.144 -0.761,0.216 -1.197,0.216c-0.432,0 -0.824,-0.069 -1.176,-0.207c-0.352,-0.138 -0.651,-0.334 -0.897,-0.588c-0.246,-0.254 -0.436,-0.562 -0.57,-0.924c-0.134,-0.362 -0.201,-0.767 -0.201,-1.215c0,-0.376 0.083,-0.777 0.249,-1.203c0.166,-0.426 0.431,-0.881 0.795,-1.365l2.184,-2.934c0.056,-0.072 0.133,-0.133 0.231,-0.183c0.098,-0.05 0.211,-0.075 0.339,-0.075l0.948,0l-2.55,3.222Z" style="fill-rule:nonzero;"/><path d="M268.699,73.619l0,0.48c0,0.136 -0.015,0.248 -0.045,0.336c-0.03,0.088 -0.059,0.162 -0.087,0.222l-3.564,7.182c-0.052,0.104 -0.124,0.193 -0.216,0.267c-0.092,0.074 -0.214,0.111 -0.366,0.111l-0.768,0l3.612,-7.092c0.052,-0.1 0.106,-0.192 0.162,-0.276c0.056,-0.084 0.116,-0.164 0.18,-0.24l-4.488,0c-0.068,0 -0.128,-0.027 -0.18,-0.081c-0.052,-0.054 -0.078,-0.115 -0.078,-0.183l0,-0.726l5.838,0Z" style="fill-rule:nonzero;"/><rect x="16.596" y="77.783" width="5.16" height="0.81" style="fill-rule:nonzero;"/><path d="M28.764,81.401l0,0.816l-4.608,0l0,-0.816l1.842,0l0,-5.862c0,-0.176 0.006,-0.354 0.018,-0.534l-1.53,1.314c-0.052,0.044 -0.104,0.071 -0.156,0.081c-0.052,0.01 -0.1,0.011 -0.144,0.003c-0.044,-0.008 -0.085,-0.024 -0.123,-0.048c-0.038,-0.024 -0.067,-0.05 -0.087,-0.078l-0.336,-0.462l2.562,-2.214l0.87,0l0,7.8l1.692,0Z" style="fill-rule:nonzero;"/><path d="M113.795,65.074l0,5.441" style="fill:none;stroke:#000;stroke-width:1px;stroke-linejoin:round;stroke-miterlimit:1.5;"/><path d="M144.175,65.074l0,5.441" style="fill:none;stroke:#000;stroke-width:1px;stroke-linejoin:round;stroke-miterlimit:1.5;"/><path d="M22.656,64.834l0,5.441" style="fill:none;stroke:#000;stroke-width:1px;stroke-linejoin:round;stroke-miterlimit:1.5;"/><path d="M174.554,65.074l0,5.441" style="fill:none;stroke:#000;stroke-width:1px;stroke-linejoin:round;stroke-miterlimit:1.5;"/><path d="M53.036,65.074l0,5.441" style="fill:none;stroke:#000;stroke-width:1px;stroke-linejoin:round;stroke-miterlimit:1.5;"/><path d="M204.934,65.074l0,5.441" style="fill:none;stroke:#000;stroke-width:1px;stroke-linejoin:round;stroke-miterlimit:1.5;"/><path d="M235.313,65.314l0,5.441" style="fill:none;stroke:#000;stroke-width:1px;stroke-linejoin:round;stroke-miterlimit:1.5;"/><path d="M265.693,65.314l0,5.441" style="fill:none;stroke:#000;stroke-width:1px;stroke-linejoin:round;stroke-miterlimit:1.5;"/><path d="M83.416,65.314l0,5.441" style="fill:none;stroke:#000;stroke-width:1px;stroke-linejoin:round;stroke-miterlimit:1.5;"/></g></svg>