<svg viewBox="0 0 447 347" xmlns="http://www.w3.org/2000/svg" fill-rule="evenodd" clip-rule="evenodd" stroke-linejoin="round" stroke-miterlimit="2">
    <style type="text/css" >
      <![CDATA[
      @import url(../reveal.js/dist/theme/fonts/dosis/dosis.css);
      * { cursor: none;}
      .curve1 {
        transform: scaleX(3);
        transform-origin: 51% center;
        animation: curve1 10s ease forwards;
        opacity: 0;
      }
      @keyframes curve1 {
        to {
          transform: scaleY(1);
          opacity: 1;
        }
      }
      .curve2 {
        transform: scaleX(3);
        transform-origin: 54% center;
        animation: curve2 10s ease forwards;
        opacity: 0;
      }
      @keyframes curve2 {
        to {
          transform: scaleY(1);
          opacity: 1;
        }
      }
      text {
        animation: text 10s ease forwards;
        opacity: 0;
      }
      @keyframes text {
        0%  {opacity: 0}
        60% {opacity: 0}
        100% {opacity: 1}
      }
    ]]>
    </style>
  <path class="curve1" d="M379.5 59l.6 1.1-.5 1.3-1.3.5-42.6.8h-9l-1 .1h-3l-.5.1h-2.4l-.5.1H318l-1.1.1h-1.1l-1 .1h-1.1l-.5.1h-1.6l-.5.1h-1.1l-.5.1h-.8l-.3.1h-1l-.5.1h-.5l-.5.1h-.5l-.3.1h-.5l-.3.1h-.5l-.2.1h-.5l-.3.1h-.5l-1 .2-.6.1-.5.1h-.5l-.6.2h-.5l-.5.1-.6.1-.5.1-.5.1-.6.1-.5.1h-.3l-.2.1h-.3l-.3.1h-.2l-.3.1h-.2l-.3.1-.3.1h-.2l-.3.1h-.2l-.3.1-.3.1h-.2l-.3.1h-.2l-.3.2h-.5l-.2.2h-.3l-.2.1h-.3l-.2.1-.3.1h-.2l-.3.2h-.2l-.3.1-.2.1h-.2l-.3.2h-.2l-.3.1-.2.1-.2.1-.3.1-.2.1-.3.1-.2.1-.3.1-.3.1-.2.1-.3.1-.2.1-.3.2h-.3l-.2.2-.3.1-.3.1-.2.1-.3.2h-.3l-.3.2-.2.1-.3.2h-.3l-.2.2-.3.1-.3.2-.2.1-.3.1-.3.2-.2.1-.3.2h-.3l-.3.2-.2.2-.3.1-.3.2-.2.1-.3.1-.2.2-.3.1-.3.2-.2.1-.3.2-.2.1-.3.2-.3.1-.2.2-.3.2-.2.1-.3.2-.2.1-.3.2-.2.1-.2.2-.3.2-.2.1-.3.2-.2.1-.2.2-.3.2-.2.1-.2.2-.2.2-.3.1-.2.2-.2.2-.2.1-.3.2-.2.2-.3.3-.2.2-.3.2-.3.2-.2.2-.3.3-.2.2-.3.2-.3.2-.2.3-.3.2-.3.3-.2.2-.3.3-.3.2-.3.3-.2.2-.3.3-.3.2-.2.3-.3.3-.3.2-.2.3-.3.3-.3.2-.3.3-.2.3-.3.2-.3.3-.2.3-.3.3-.3.3-.2.2-.3.3-.3.3-.2.3-.3.3-.3.3-.2.3-.3.2-.2.3-.3.3-.2.3-.3.3-.3.3v.1l-.2.2-.3.3-.2.3-.3.3-.2.2-.3.3-.2.3-.2.3-.3.3-.2.3-.2.3-.3.3-.2.3-.2.2-.3.3-.2.3-.2.3-.3.3-.2.4-.3.3-.3.4-.2.3-.3.3-.2.4-.3.4-.3.3-.2.4-.3.4-.3.3-.2.4-.3.4-.2.4-.3.3-.3.4-.2.4-.3.4-.3.4-.2.4-.3.4-.3.4-.2.4-.3.4-.3.4-.2.4-.3.4-.3.4-.2.4-.3.4-.3.4-.2.5-.3.4-.5.8-.5.8-.6.9-.5.8-.5.9-.5.8-.6.9-.1.2-.4.6-.5.8-.5.9-.5.8-1 1.7-1 1.6-.3.5-.3.4-.2.4-.3.5-.2.4-.3.4-.3.5-.2.4-.3.5-.2.4-.3.5-.3.5-.2.4-.3.5-.5.9-.5 1-.6.9-.5.9-.5 1-.5.9-.6 1-1 1.9-.6 1-.5.9-1 1.9-.5 1-.6.9-.5 1-.5.9-.6 1-.5.9-.5 1-.3.4-.3.4-.2.5-.3.5-.3.4-.2.5-.3.4-.3.5-.2.4-.3.5-.5.8-.5.9-1 1.7-1 1.8-1.1 1.7-.5 1-.6.8-.5.9-.5.9-.5.9-.6.8-.5 1-.5.8-.6.9-.3.4-.2.5-.3.4-.3.4-.2.4-.3.5-.3.4-.2.4-.3.5-.3.4-.2.4-.3.4-.3.4-.3.4-.2.5-.3.4-.3.4-.2.4-.3.4-.3.4-.2.4-.3.4-.3.4-.3.4-.2.3-.3.4-.3.4-.2.4-.3.3-.3.4-.2.3-.2.4-.3.3-.2.3-.2.2v.1l-.3.3-.2.4-.3.3-.2.3-.3.3-.2.4-.3.3-.3.3-.2.3-.3.4-.2.3-.3.3-.3.4-.2.3-.3.3-.3.3-.2.4-.3.3-.3.3-.2.3-.3.3-.3.4-.2.3-.3.3-.3.3-.3.3-.2.4-.3.3-.3.3-.3.3-.3.3-.2.3-.3.3-.3.3-.3.4-.2.3-.3.3-.3.3-.3.3-.3.2-.2.3-.3.3-.3.3-.3.3-.3.3-.2.3-.3.2-.3.3-.3.3-.3.3-.2.2-.3.3-.3.3-.3.2-.2.3-.3.2-.3.3-.3.2-.2.3-.3.2-.2.2-.2.2-.3.2-.2.2-.3.2-.2.2-.3.2-.2.2-.3.2-.2.2-.3.2-.2.2-.3.2-.3.2-.2.1-.3.2-.3.2-.2.2-.3.2-.3.2-.2.2-.3.2-.3.1-.3.2-.2.2-.3.2-.3.2-.3.2-.2.1-.3.2-.3.2-.3.2-.3.1-.3.2-.2.2-.3.1-.3.2-.3.2-.3.1-.3.2-.2.2-.3.1-.3.2-.3.1-.3.2-.3.1-.2.2-.3.1-.3.2-.3.1-.3.2-.3.1-.2.2-.3.1-.3.2h-.3l-.2.2-.3.2h-.3l-.3.2-.2.1-.3.2h-.3l-.2.2-.3.1-.3.1-.2.1-.3.1-.2.1-.3.2h-.3l-.2.2h-.3l-.2.1-.3.1-.3.1-.2.1-.3.1-.3.1-.3.1h-.2l-.3.2h-.3l-.2.1-.3.1-.3.1h-.3l-.2.2h-.3l-.3.1-.3.1h-.2l-.3.1-.3.1h-.3l-.2.2h-.6l-.3.2h-.5l-.3.2h-.5l-.3.1-.6.2h-.5l-.6.2-.5.1-.6.1-.5.1-.6.1-.5.1-.5.1-.6.1-.5.1h-.3l-.2.1h-.3l-.3.1h-.2l-.3.1h-.5l-.3.1h-.5l-.3.1h-.3l-.2.1h-.6l-.3.1h-.8l-.5.1-.5.1H143l-.5.1h-.6l-.5.1h-.6l-.5.1h-1.1l-.5.1h-1.1l-1 .1h-1l-1.1.1-1.1.1h-1.6l-.5.1h-2.1l-.6.1h-3.2l-.5.1h-8.5l-1 .1H74.4l-1.2-.5-.5-1.2.5-1.2 1.2-.6H109l2.9-.1H120.6l1-.1H126.5l.5-.1h2.1l.5-.1h1.6l.5-.1h1.6l1-.1 1.1-.1h1l1.1-.1h.5l.6-.1h1l.5-.1h1.1l.5-.1h.5l.6-.1h.5l.5-.1h.5l.5-.1h.6l.2-.1h.5l.3-.1h.5l.2-.1h.6l.2-.1h.3l.2-.1h.5l.3-.1h.2l.3-.1h.2l.5-.2h.6l.5-.2h.5l.6-.2h.5l.5-.2.6-.1.5-.1.5-.1.6-.1.2-.1h.3l.3-.1h.2l.3-.2h.5l.3-.2h.5l.3-.2h.2l.3-.1h.2l.3-.1.3-.1h.2l.3-.2h.2l.3-.1h.3l.2-.2h.3l.2-.1.3-.1.2-.1h.3l.2-.2h.3l.2-.1.2-.1.3-.1.2-.1.3-.1.2-.1h.2l.3-.2h.2l.2-.2h.3l.2-.2h.2l.3-.2.2-.1.3-.1.3-.2h.2l.3-.2.2-.1.3-.2.3-.1.2-.1.3-.2.3-.1.2-.2.3-.1.3-.1.3-.2.2-.1.3-.2.3-.1.2-.2.3-.1.3-.2.2-.1.3-.2.3-.1.3-.2.2-.2.3-.1.3-.2.2-.2.3-.1.3-.2.2-.1.3-.2.3-.2.2-.2.3-.1.2-.2.3-.2.3-.1.2-.2.3-.2.2-.2.3-.2.2-.1.3-.2.2-.2.3-.2.2-.2.3-.1.2-.2.3-.2.2-.2.2-.2.3-.2.2-.1.2-.2.3-.2.2-.2.2-.2.2-.2.3-.2.2-.2.2-.1.3-.3.2-.2.3-.2.2-.3.3-.2.2-.3.3-.2.3-.3.2-.2.3-.3.3-.2.2-.3.3-.3.3-.2.2-.3.3-.3.3-.3.2-.3.3-.2.3-.3.2-.3.3-.3.3-.3.3-.3.2-.3.3-.3.3-.3.2-.3.3-.3.3-.3.2-.3.3-.3.3-.3.2-.3.3-.3.3-.3.2-.4.3-.3.3-.3.2-.3.3-.3.3-.3.2-.4.3-.3.2-.3.3-.3.2-.3.3-.3.2-.4.3-.3.2-.3.3-.3.2-.3.3-.4.2-.3.3-.3.2-.3.3-.3.2-.3v-.2l.2-.2.3-.3.2-.3.2-.3.3-.3.2-.4.3-.3.2-.4.3-.4.2-.3.3-.4.3-.4.2-.4.3-.3.3-.4.2-.4.3-.4.2-.4.3-.4.3-.4.2-.4.3-.4.3-.4.2-.4.3-.5.3-.4.2-.4.3-.4.3-.4.2-.5.3-.4.2-.4.3-.4.3-.5.2-.4.6-.9.5-.8.5-.9.6-.9.5-.9.5-.8.5-1 .6-.8.5-.9 1-1.7 1-1.8 1-1.7.6-.9.5-.9.3-.4.2-.4.3-.5.2-.4.3-.5.3-.4.2-.5.3-.4.2-.5.3-.5.5-.9.6-1 .5-.9.5-.9.5-1 .6-.9.5-1 1-1.9.5-.7.6-1.2 1-1.9.6-1 .5-.9.5-1 .6-.9.5-1 .5-.9.5-.9.3-.5.3-.4.2-.5.3-.5.3-.4.2-.5.3-.4.3-.5.2-.4.3-.5.3-.4.2-.5.3-.4.3-.4 1-1.7 1-1.6.5-.9.5-.8.5-.9.4-.6.1-.2.6-.9.5-.8.5-.9.6-.8.5-.9.5-.8.6-.9.2-.4.3-.4.3-.4.2-.4.3-.4.3-.5.3-.4.2-.4.3-.4.3-.4.2-.4.3-.4.3-.4.3-.4.2-.4.3-.4.3-.4.2-.4.3-.4.3-.4.3-.4.2-.4.3-.3.3-.4.2-.4.3-.4.3-.3.3-.4.2-.4.3-.3.3-.4.2-.3.3-.4.3-.3.2-.3.3-.3.2-.3.2-.3.3-.3.2-.3.3-.3.2-.3.3-.3.2-.3.3-.3.2-.3.3-.3.2-.3.3-.3.2-.3.2-.1.1-.2.3-.3.2-.3.3-.3.3-.3.2-.3.3-.3.3-.3.2-.3.3-.3.3-.3.3-.2.2-.3.3-.3.3-.3.3-.3.2-.3.3-.3.3-.3.3-.2.3-.3.2-.3.3-.3.3-.3.3-.2.3-.3.2-.3.3-.2.3-.3.3-.3.3-.2.3-.3.2-.2.3-.3.3-.3.3-.2.3-.3.2-.2.3-.2.3-.3.3-.2.2-.3.3-.2.3-.2.3-.2.3-.3.2-.2.3-.2.2-.2.3-.2.2-.1.3-.2.2-.2.3-.2.2-.2.3-.1.2-.2.3-.2.2-.2.3-.1.2-.2.3-.2.3-.2.2-.1.3-.2.3-.2.2-.1.3-.2.3-.2.2-.1.3-.2.3-.1.3-.2.2-.1.3-.2.3-.2.3-.1.3-.2.2-.1.3-.2.3-.1.3-.2.3-.1.2-.2.3-.1.3-.1.3-.2.3-.1.3-.2.2-.1.3-.1.3-.2.3-.1.3-.1.3-.2h.2l.3-.2.3-.1.3-.2h.3l.2-.2.3-.1.3-.1.3-.2h.3l.2-.2.3-.1.3-.1.3-.1.2-.1.3-.1.3-.1.2-.1.3-.1.2-.1.3-.1.3-.1.2-.1h.3l.3-.2h.2l.3-.1.3-.1.2-.1h.3l.3-.2h.2l.3-.1h.3l.2-.2h.3l.3-.1h.2l.3-.1.3-.1h.3l.2-.1.3-.1h.3l.3-.1h.2l.3-.1.3-.1h.3l.2-.1h.3l.3-.1h.3l.2-.1h.3l.5-.2h.6l.5-.2h.6l.5-.2h.6l.5-.1.6-.1.5-.1h.5l.6-.2 1-.1h.3l.3-.1h.5l.3-.1h.5l.3-.1h.5l.3-.1h.8l.5-.1h.6l.5-.1h.5l.6-.1h.5l.5-.1h1.6l.6-.1h1l.6-.1h1.5l1.1-.1h1l1.1-.1h2l.5-.1h2.5l.5-.1h5.5l.6-.1H335.6l42.6-.6 1.3.4z" fill="#3c7385"/>
  <path class="curve2" d="M379.5 59l.5 1.2-.5 1.2-1.2.5h-3.5l-1 .1h-2.4l-2.7.1h-3l-3.1.2h-3.4l-3.4.1-3.4.1h-1.6l-1.7.1h-3.2l-1.6.1H343l-1.5.1h-1.3l-1.3.1h-2.2l-1 .1h-1.1l-1 .1h-2.2l-.5.1h-1.1l-.5.1h-1.6l-.5.1h-1l-.5.1h-.6l-.5.1h-.5l-.5.1h-.5l-.5.1h-.6l-.2.1h-.8l-.2.1h-.5l-.3.1h-.5l-.3.1h-.2l-1 .2-.6.1h-.5l-.6.2h-.5l-.5.1-.5.1-.6.1-.5.1-.5.1-.6.1-.5.1h-.3l-.2.1h-.3l-.3.1h-.2l-.3.1h-.2l-.3.1h-.3l-.2.2h-.5l-.3.1h-.3l-.2.2h-.5l-.3.1-.2.1h-.3l-.2.2h-.5l-.3.2h-.2l-.3.1h-.2l-.3.2h-.2l-.3.1-.2.1h-.2l-.3.2h-.2l-.3.1-.2.1-.2.1-.3.1h-.2l-.3.2-.2.1-.3.1-.3.1-.2.1-.3.1-.3.1-.2.2h-.3l-.3.2-.2.1-.3.1-.3.1-.2.2h-.3l-.3.2-.2.1-.3.2h-.3l-.2.2-.3.1-.3.2-.2.1-.3.1-.3.2-.3.1-.2.1-.3.2-.3.1-.2.2-.3.1-.3.1-.2.2-.3.1-.2.2-.3.1-.3.2-.2.1-.3.2-.2.1-.3.2-.3.1-.2.2-.3.1-.2.2-.3.2-.2.1-.3.2-.2.1-.2.2-.3.2-.2.1-.3.2-.2.1-.2.2-.3.2-.2.1-.2.2-.2.2-.3.1-.2.2-.2.2-.2.1-.3.2-.2.2-.3.2-.2.3-.3.2-.3.2-.2.2-.3.2-.3.3-.2.2-.3.2-.3.3-.2.2-.3.3-.3.2-.2.2-.3.3-.3.3-.2.2-.3.3-.3.2-.2.3-.3.2-.3.3-.3.3-.2.2-.3.3-.3.3-.2.3-.3.2-.3.3-.2.3-.3.3-.3.3-.2.2-.3.3-.3.3-.2.3-.3.3-.3.3-.2.2-.3.3-.2.3-.3.3-.3.3-.2.3-.3.3-.2.3-.3.3-.2.3-.3.2-.2.3-.3.3-.2.3-.2.3-.3.3-.2.3-.3.3-.2.3-.2.2-.3.3-.2.3-.2.3-.2.3-.3.3-.2.4-.3.3-.3.3-.2.4-.3.3-.3.4-.2.4-.3.3-.2.4-.3.3-.3.4-.2.4-.3.4-.3.3-.2.4-.3.4-.3.4-.2.4-.3.4-.2.4-.3.4-.3.4-.2.4-.3.4-.3.4-.2.4-.3.4-.3.4-.2.4-.3.4-.3.4-.2.5-.3.4-.5.8-.3.4-.3.4-.5.9-.5.8-.5.9-.6.8-.5.9-.5.8-.5.8-.5.9-.5.8-1 1.7-1 1.6-.3.5-.3.4-.2.4-.3.5-.2.4-.3.4-.3.5-.2.4-.3.5-.2.4-.3.5-.3.4-.2.5-.3.5-.5.9-.5 1-.6.9-.5.9-.5 1-.5.9-.6 1-1 1.9-1 1.9-1.1 1.9-.6 1-.5.9-.5 1-.5.9-.6 1-.5.9-.5 1-.3.4-.3.4-.2.5-.3.5-.2.4-.3.5-.3.4-.2.5-.3.4-.3.5-.5.8-.5.9-1 1.7-1 1.8-1.1 1.7-.5 1-.5.8-.6.9-.5.9-.5.9-.6.9-.5.8-.5 1-.6.8-.2.4-.3.5-.3.4-.2.4-.3.5-.3.4-.3.4-.2.4-.3.5-.3.4-.2.4-.3.4-.3.4-.2.5-.3.4-.3.4-.3.4-.2.4-.3.4-.3.4-.2.4-.2.2-.1.2-.3.4-.2.4-.3.3-.3.4-.2.4-.3.4-.3.4-.3.3-.2.3-.2.4-.3.3-.2.3-.2.3-.3.4-.2.3-.3.3-.2.3-.3.3-.2.4-.3.3-.2.3-.3.4-.3.3-.2.3-.3.3-.2.4-.3.3-.3.3-.2.3-.3.4-.3.3-.2.3-.3.3-.3.4-.3.3-.2.3-.3.3-.3.3-.3.4-.2.3-.3.3-.3.3-.3.3-.2.3-.3.3-.3.4-.3.3-.3.3-.2.3-.3.3-.3.3-.3.3-.3.3-.2.3-.3.2-.3.3-.3.3-.3.3-.2.3-.3.3-.3.2-.3.3-.2.3-.3.3-.3.2-.3.3-.3.2-.2.3-.3.2-.3.3-.2.2-.2.2h-.1l-.3.3-.2.2-.2.2-.3.2-.2.2-.3.2-.2.2-.3.2-.2.2-.3.2-.2.2-.3.2-.2.2-.3.2-.3.2-.2.2-.3.2-.2.1-.3.2-.3.2-.3.2-.2.2-.3.2-.3.2-.2.2-.3.1-.3.2-.3.2-.3.2-.2.2-.3.1-.3.2-.3.2-.3.1-.2.2-.3.2-.3.2-.3.1-.3.2-.3.2-.2.1-.3.2-.3.1-.3.2-.3.2-.3.1-.2.2-.3.1-.3.2-.3.1-.3.2-.3.1-.2.2h-.3l-.3.2-.3.2-.3.1-.2.1-.3.2-.3.1-.3.1-.2.2h-.3l-.3.2-.2.1-.3.1-.3.2h-.2l-.3.2h-.2l-.3.2h-.2l-.3.2h-.3l-.2.2h-.3l-.3.2h-.2l-.3.1-.3.1-.2.1-.3.1-.3.1h-.3l-.2.2h-.3l-.3.1-.2.1h-.3l-.3.2h-.3l-.2.1h-.3l-.3.2h-.3l-.2.1h-.3l-.3.1-.3.1h-.3l-.2.2h-.6l-.3.1-.2.1h-.3l-.6.2-.5.1-.6.1-.5.1-.6.1-.5.2h-.6l-.5.2h-.5l-.6.2h-.5l-.3.1h-.2l-.3.1h-.5l-.3.1h-.3l-.2.1h-.6l-.2.1h-.3l-.3.1h-.5l-.3.1h-.8l-.3.1h-.5l-.5.1h-.6l-.5.1h-.5l-.6.1h-.5l-.6.1h-1l-.6.1h-1l-.6.1h-1l-1 .1h-1.1l-1.1.1h-.5l-.6.1H147l-.5.1h-2.6l-.6.1H137.4l-2.1.1h-11.6l-1.1.1H74.3l-1.2-.6-.5-1.2.5-1.3 1.2-.5h50.3l1.1-.1h7.4l1-.1H140.5l1.1-.1h3.2l.5-.1h2.1l.5-.1h1.6l.5-.1h1l1.1-.1 1-.1h1.1l.5-.1h1.1l.5-.1h1.1l.5-.1h.5l.5-.1h.6l.5-.1h.5l.5-.1h.8l.2-.1h.6l.2-.1h.5l.3-.1h.5l.2-.1h.3l.3-.1h.5l.2-.1h.3l.2-.1h.3l.2-.1h.5l.6-.2h.5l.5-.2.6-.1.5-.1.5-.1.5-.1.6-.1.5-.2h.5l.3-.1.3-.1h.2l.3-.1h.3l.2-.1.3-.1h.3l.2-.1.3-.1h.3l.2-.1.3-.1h.2l.3-.2h.3l.2-.1h.3l.2-.2h.3l.2-.1h.3l.2-.2h.3l.3-.1.2-.1.3-.1h.2l.2-.2h.3l.2-.2h.3l.2-.1.3-.1.2-.1.2-.1.3-.1.2-.1.2-.1.3-.1.2-.1.2-.1.3-.1.2-.1.3-.2h.3l.2-.2.3-.1.2-.2.3-.1.3-.1.2-.2.3-.1.3-.1.2-.2.3-.1.3-.2.2-.1.3-.1.3-.2.2-.1.3-.2.3-.1.3-.2.2-.2.3-.1.3-.2.2-.1.3-.2.3-.1.2-.2.3-.2.3-.1.2-.2.3-.2.3-.1.2-.2.3-.2.3-.1.2-.2.3-.2.2-.2.3-.1.3-.2.2-.2.3-.2.2-.2.3-.1.2-.2.3-.2.2-.2.3-.2.2-.1.3-.2.2-.2.2-.2.3-.2.2-.2.2-.1.3-.2.2-.2.2-.2.2-.2.3-.2.2-.2.2-.2.2-.2.3-.2.3-.3.2-.2.3-.2.2-.3.3-.2.3-.3.2-.2.3-.3.2-.3.3-.2.3-.3.2-.3.3-.2.3-.3.3-.3.2-.3.3-.2.3-.3.2-.3.3-.3.3-.3.2-.3.3-.3.3-.3.2-.3.3-.3.3-.3.3-.3.2-.3.3-.3.3-.3.2-.3.3-.3.3-.4.2-.3.3-.3.3-.3.2-.3.3-.3.2-.3.3-.4.3-.3.2-.3.3-.3.2-.3.3-.4.2-.3.3-.3.2-.3.3-.3.2-.4.3-.3.2-.3.3-.3.2-.3.2-.3.3-.4.2-.3.3-.3.2-.3.2-.3.2-.3.3-.4.3-.3.2-.4.3-.4.2-.3.3-.4.3-.4.2-.4.2-.2v-.2l.3-.3.3-.4.3-.4.2-.4.3-.4.3-.4.2-.4.3-.4.3-.4.2-.4.3-.5.2-.4.3-.4.3-.4.2-.4.3-.5.3-.4.2-.4.3-.4.3-.5.2-.4.6-.9.5-.8.5-1 .5-.8.6-.9.5-.8.5-1 .5-.8.6-.9 1-1.8 1-1.7 1-1.7.6-1 .5-.8.2-.4.3-.4.3-.5.2-.4.3-.5.3-.4.2-.5.3-.4.2-.5.3-.5.5-.9.6-1 .5-.9.5-.9.5-1 .6-.9.5-1 1-1.9 1-1.9 1.1-1.9.6-1 .5-.9.5-1 .6-.9.5-1 .5-.9.6-.9.2-.5.3-.4.3-.5.2-.4.3-.5.2-.5.3-.4.3-.5.2-.4.3-.5.3-.4.2-.5.3-.4.3-.4 1-1.7 1-1.6.5-.9.5-.8.5-.9.6-.8.5-.9.5-.8.5-.9.6-.8.5-.9.3-.4.2-.4.6-.8.2-.5.3-.4.3-.4.3-.4.2-.4.3-.5.3-.4.2-.4.3-.4.3-.4.3-.4.2-.4.3-.4.3-.4.2-.4.3-.4.3-.4.3-.4.2-.4.3-.4.3-.4.2-.4.3-.3.3-.4.3-.4.2-.4.3-.3.3-.4.2-.4.3-.3.3-.4.3-.3.2-.4.3-.3.2-.3.3-.3.2-.3.2-.3.3-.3.2-.3.3-.3.2-.3.3-.3.2-.3.3-.3.2-.3.3-.3.2-.3.3-.3.2-.3.3-.3.3-.3.2-.3.3-.3.3-.3.2-.3.3-.3.3-.3.2-.3.3-.3.3-.2.3-.3.2-.3.3-.3.3-.3.3-.3.3-.3.2-.3.3-.2.3-.3.3-.3.2-.3.3-.3.3-.2.3-.3.3-.3.3-.3.2-.2.3-.3.3-.3.3-.2.3-.3.2-.2.3-.3.3-.2.3-.3.3-.2.2-.3.3-.2.3-.3.3-.2.3-.2.2-.3.3-.2.3-.2.3-.3.2-.2.3-.2.2-.2.3-.2.2-.1.3-.2.2-.2.3-.2.2-.2.3-.1.2-.2.3-.2.2-.2.3-.1.2-.2.3-.2.3-.1.2-.2.3-.2.3-.2.2-.1.3-.2.3-.1.2-.2.3-.2.3-.1.3-.2.2-.1.3-.2.3-.2.3-.1.3-.2.2-.1.3-.2.3-.1h.1l.2-.2.3-.1.2-.1.3-.2.3-.1.3-.2.3-.1.3-.2h.2l.3-.2.3-.2h.3l.3-.2.3-.2h.2l.3-.2.3-.1.3-.2h.3l.2-.2.3-.1.3-.1.3-.2h.3l.2-.2.3-.1.3-.1.3-.1.2-.1.3-.1.3-.1.2-.1.3-.1.3-.1.2-.1.3-.1.2-.1h.3l.3-.2h.2l.3-.1.3-.1.2-.1h.3l.3-.2h.2l.3-.1h.3l.2-.2h.3l.3-.1h.2l.3-.1.3-.1h.3l.2-.1h.3l.3-.2h.5l.3-.1h.3l.3-.1.2-.1h.3l.3-.1h.3l.2-.1h.3l.5-.2h.6l.5-.2h.6l.5-.2h.6l.5-.1.6-.1.5-.1h.5l.6-.2 1-.1h.6l.2-.1h.3l.3-.1h.5l.3-.1h.8l.2-.1h.6l.5-.1h.5l.6-.1h.5l.6-.1h.5l.5-.1h1.1l.5-.1h1.6l.6-.1h1.6l.5-.1h1.5l1.2-.1h2l1.1-.1h2.5l1.3-.1h1.5l1.4-.1h3.2l1.6-.1h3.4l3.4-.2h3.4l3.3-.1h3.2l3-.1h2.7l2.4-.1h4.5l1.2.4z" fill="#62a0b5"/>
  <text id="title" x="72" y="271.7" font-family="'Dosis-Medium','Dosis'" font-weight="500" font-size="36">
    Statistics for Everyone
  </text>
</svg>
