<?xml version="1.0" encoding="UTF-8" standalone="no"?><!DOCTYPE svg PUBLIC "-//W3C//DTD SVG 1.1//EN" "http://www.w3.org/Graphics/SVG/1.1/DTD/svg11.dtd"><svg width="100%" height="100%" viewBox="0 0 284 284" version="1.1" xmlns="http://www.w3.org/2000/svg" xmlns:xlink="http://www.w3.org/1999/xlink" xml:space="preserve" xmlns:serif="http://www.serif.com/" style="fill-rule:evenodd;clip-rule:evenodd;stroke-linecap:round;stroke-linejoin:round;stroke-miterlimit:1.5;"><g id="left_figure"><g id="gridlines"><path d="M35.919,24.253l0,208.67" style="fill:none;stroke:#ccc;stroke-width:1px;"/><path d="M250.077,24.253l0,208.67" style="fill:none;stroke:#ccc;stroke-width:1px;"/><path d="M214.384,43.955l0,188.968" style="fill:none;stroke:#ccc;stroke-width:1px;"/><path d="M71.612,43.955l0,188.968" style="fill:none;stroke:#ccc;stroke-width:1px;"/><path d="M107.305,70.344l0,162.579" style="fill:none;stroke:#ccc;stroke-width:1px;"/><path d="M178.691,70.344l0,162.579" style="fill:none;stroke:#ccc;stroke-width:1px;"/></g><g id="histogram"><g id="bars"><rect x="142.998" y="97.259" width="11.898" height="135.664" style="fill:#bed1e8;stroke:#000;stroke-width:1px;"/><rect x="154.895" y="130.381" width="11.898" height="102.542" style="fill:#bed1e8;stroke:#000;stroke-width:1px;"/><rect x="131.1" y="103.576" width="11.898" height="129.347" style="fill:#bed1e8;stroke:#000;stroke-width:1px;"/><rect x="119.202" y="114.986" width="11.898" height="117.937" style="fill:#bed1e8;stroke:#000;stroke-width:1px;"/><rect x="107.305" y="143.182" width="11.898" height="89.741" style="fill:#bed1e8;stroke:#000;stroke-width:1px;"/><rect x="95.407" y="182.205" width="11.898" height="50.718" style="fill:#d5f4e1;stroke:#000;stroke-width:1px;"/><rect x="83.509" y="202.901" width="11.898" height="30.022" style="fill:#d5f4e1;stroke:#000;stroke-width:1px;"/><rect x="71.612" y="218.667" width="11.898" height="14.256" style="fill:#d5f4e1;stroke:#000;stroke-width:1px;"/><rect x="59.714" y="227.151" width="11.898" height="5.772" style="fill:#f9f6bd;stroke:#000;stroke-width:1px;"/><rect x="47.816" y="230.037" width="11.898" height="2.886" style="fill:#f9f6bd;stroke:#000;stroke-width:1px;"/><rect x="24.021" y="230.037" width="11.898" height="2.886" style="fill:#fee2c7;stroke:#000;stroke-width:1px;"/><rect x="250.077" y="231.461" width="11.898" height="1.462" style="fill:#fee2c7;stroke:#000;stroke-width:1px;"/><rect x="35.919" y="231.48" width="11.898" height="1.443" style="fill:#f9f6bd;stroke:#000;stroke-width:1px;"/><rect x="166.793" y="156.913" width="11.898" height="76.01" style="fill:#bed1e8;stroke:#000;stroke-width:1px;"/><rect x="178.691" y="191.404" width="11.898" height="41.519" style="fill:#d5f4e1;stroke:#000;stroke-width:1px;"/><rect x="190.588" y="207.564" width="11.898" height="25.34" style="fill:#d5f4e1;stroke:#000;stroke-width:1px;"/><rect x="202.486" y="218.667" width="11.898" height="14.256" style="fill:#d5f4e1;stroke:#000;stroke-width:1px;"/><rect x="214.384" y="227.151" width="11.898" height="5.772" style="fill:#f9f6bd;stroke:#000;stroke-width:1px;"/><rect x="226.281" y="230.037" width="11.898" height="2.886" style="fill:#f9f6bd;stroke:#000;stroke-width:1px;"/><rect x="238.179" y="230.037" width="11.898" height="2.867" style="fill:#f9f6bd;stroke:#000;stroke-width:1px;"/></g><g id="ticks"><path d="M142.998,232.923l0,5.441" style="fill:none;stroke:#000;stroke-width:1px;"/><path d="M178.691,232.923l0,5.441" style="fill:none;stroke:#000;stroke-width:1px;"/><path d="M35.919,232.923l0,5.441" style="fill:none;stroke:#000;stroke-width:1px;"/><path d="M214.384,232.923l0,5.441" style="fill:none;stroke:#000;stroke-width:1px;"/><path d="M71.612,232.923l0,5.441" style="fill:none;stroke:#000;stroke-width:1px;"/><path d="M250.077,232.923l0,5.441" style="fill:none;stroke:#000;stroke-width:1px;"/><path d="M107.305,232.923l0,5.441" style="fill:none;stroke:#000;stroke-width:1px;"/></g><g id="ticklabels"><path d="M146.118,246.9c0,0.752 -0.081,1.403 -0.243,1.953c-0.162,0.55 -0.383,1.005 -0.663,1.365c-0.28,0.36 -0.611,0.628 -0.993,0.804c-0.382,0.176 -0.791,0.264 -1.227,0.264c-0.44,0 -0.849,-0.088 -1.227,-0.264c-0.378,-0.176 -0.707,-0.444 -0.987,-0.804c-0.28,-0.36 -0.5,-0.815 -0.66,-1.365c-0.16,-0.55 -0.24,-1.201 -0.24,-1.953c0,-0.752 0.08,-1.404 0.24,-1.956c0.16,-0.552 0.38,-1.009 0.66,-1.371c0.28,-0.362 0.609,-0.631 0.987,-0.807c0.378,-0.176 0.787,-0.264 1.227,-0.264c0.436,0 0.845,0.088 1.227,0.264c0.382,0.176 0.713,0.445 0.993,0.807c0.28,0.362 0.501,0.819 0.663,1.371c0.162,0.552 0.243,1.204 0.243,1.956Zm-1.11,0c0,-0.656 -0.055,-1.207 -0.165,-1.653c-0.11,-0.446 -0.258,-0.805 -0.444,-1.077c-0.186,-0.272 -0.401,-0.467 -0.645,-0.585c-0.244,-0.118 -0.498,-0.177 -0.762,-0.177c-0.264,0 -0.518,0.059 -0.762,0.177c-0.244,0.118 -0.458,0.313 -0.642,0.585c-0.184,0.272 -0.331,0.631 -0.441,1.077c-0.11,0.446 -0.165,0.997 -0.165,1.653c0,0.656 0.055,1.206 0.165,1.65c0.11,0.444 0.257,0.802 0.441,1.074c0.184,0.272 0.398,0.467 0.642,0.585c0.244,0.118 0.498,0.177 0.762,0.177c0.264,0 0.518,-0.059 0.762,-0.177c0.244,-0.118 0.459,-0.313 0.645,-0.585c0.186,-0.272 0.334,-0.63 0.444,-1.074c0.11,-0.444 0.165,-0.994 0.165,-1.65Z" style="fill-rule:nonzero;"/><path d="M181.319,250.38l0,0.816l-4.608,0l0,-0.816l1.842,0l0,-5.862c0,-0.176 0.006,-0.354 0.018,-0.534l-1.53,1.314c-0.052,0.044 -0.104,0.071 -0.156,0.081c-0.052,0.01 -0.1,0.011 -0.144,0.003c-0.044,-0.008 -0.085,-0.024 -0.123,-0.048c-0.038,-0.024 -0.067,-0.05 -0.087,-0.078l-0.336,-0.462l2.562,-2.214l0.87,0l0,7.8l1.692,0Z" style="fill-rule:nonzero;"/><rect x="101.245" y="247.239" width="5.16" height="0.81" style="fill-rule:nonzero;"/><path d="M113.413,250.857l0,0.816l-4.608,0l0,-0.816l1.842,0l0,-5.862c0,-0.176 0.006,-0.354 0.018,-0.534l-1.53,1.314c-0.052,0.044 -0.104,0.071 -0.156,0.081c-0.052,0.01 -0.1,0.011 -0.144,0.003c-0.044,-0.008 -0.085,-0.024 -0.123,-0.048c-0.038,-0.024 -0.067,-0.05 -0.087,-0.078l-0.336,-0.462l2.562,-2.214l0.87,0l0,7.8l1.692,0Z" style="fill-rule:nonzero;"/><path d="M216.826,250.182c0.116,0 0.208,0.034 0.276,0.102c0.068,0.068 0.102,0.156 0.102,0.264l0,0.648l-5.736,0l0,-0.366c0,-0.076 0.016,-0.154 0.048,-0.234c0.032,-0.08 0.082,-0.154 0.15,-0.222l2.754,-2.766c0.228,-0.232 0.436,-0.455 0.624,-0.669c0.188,-0.214 0.348,-0.429 0.48,-0.645c0.132,-0.216 0.234,-0.435 0.306,-0.657c0.072,-0.222 0.108,-0.459 0.108,-0.711c0,-0.252 -0.04,-0.473 -0.12,-0.663c-0.08,-0.19 -0.189,-0.347 -0.327,-0.471c-0.138,-0.124 -0.301,-0.217 -0.489,-0.279c-0.188,-0.062 -0.39,-0.093 -0.606,-0.093c-0.22,0 -0.422,0.032 -0.606,0.096c-0.184,0.064 -0.347,0.153 -0.489,0.267c-0.142,0.114 -0.261,0.249 -0.357,0.405c-0.096,0.156 -0.164,0.328 -0.204,0.516c-0.048,0.14 -0.113,0.233 -0.195,0.279c-0.082,0.046 -0.197,0.059 -0.345,0.039l-0.558,-0.096c0.056,-0.392 0.165,-0.739 0.327,-1.041c0.162,-0.302 0.366,-0.555 0.612,-0.759c0.246,-0.204 0.527,-0.359 0.843,-0.465c0.316,-0.106 0.658,-0.159 1.026,-0.159c0.364,0 0.704,0.054 1.02,0.162c0.316,0.108 0.59,0.265 0.822,0.471c0.232,0.206 0.414,0.457 0.546,0.753c0.132,0.296 0.198,0.632 0.198,1.008c0,0.32 -0.048,0.617 -0.144,0.891c-0.096,0.274 -0.226,0.535 -0.39,0.783c-0.164,0.248 -0.353,0.49 -0.567,0.726c-0.214,0.236 -0.441,0.474 -0.681,0.714l-2.268,2.316c0.16,-0.044 0.322,-0.079 0.486,-0.105c0.164,-0.026 0.322,-0.039 0.474,-0.039l2.88,0Z" style="fill-rule:nonzero;"/><rect x="65.552" y="246.762" width="5.16" height="0.81" style="fill-rule:nonzero;"/><path d="M77.534,250.182c0.116,0 0.208,0.034 0.276,0.102c0.068,0.068 0.102,0.156 0.102,0.264l0,0.648l-5.736,0l0,-0.366c0,-0.076 0.016,-0.154 0.048,-0.234c0.032,-0.08 0.082,-0.154 0.15,-0.222l2.754,-2.766c0.228,-0.232 0.436,-0.455 0.624,-0.669c0.188,-0.214 0.348,-0.429 0.48,-0.645c0.132,-0.216 0.234,-0.435 0.306,-0.657c0.072,-0.222 0.108,-0.459 0.108,-0.711c0,-0.252 -0.04,-0.473 -0.12,-0.663c-0.08,-0.19 -0.189,-0.347 -0.327,-0.471c-0.138,-0.124 -0.301,-0.217 -0.489,-0.279c-0.188,-0.062 -0.39,-0.093 -0.606,-0.093c-0.22,0 -0.422,0.032 -0.606,0.096c-0.184,0.064 -0.347,0.153 -0.489,0.267c-0.142,0.114 -0.261,0.249 -0.357,0.405c-0.096,0.156 -0.164,0.328 -0.204,0.516c-0.048,0.14 -0.113,0.233 -0.195,0.279c-0.082,0.046 -0.197,0.059 -0.345,0.039l-0.558,-0.096c0.056,-0.392 0.165,-0.739 0.327,-1.041c0.162,-0.302 0.366,-0.555 0.612,-0.759c0.246,-0.204 0.527,-0.359 0.843,-0.465c0.316,-0.106 0.658,-0.159 1.026,-0.159c0.364,0 0.704,0.054 1.02,0.162c0.316,0.108 0.59,0.265 0.822,0.471c0.232,0.206 0.414,0.457 0.546,0.753c0.132,0.296 0.198,0.632 0.198,1.008c0,0.32 -0.048,0.617 -0.144,0.891c-0.096,0.274 -0.226,0.535 -0.39,0.783c-0.164,0.248 -0.353,0.49 -0.567,0.726c-0.214,0.236 -0.441,0.474 -0.681,0.714l-2.268,2.316c0.16,-0.044 0.322,-0.079 0.486,-0.105c0.164,-0.026 0.322,-0.039 0.474,-0.039l2.88,0Z" style="fill-rule:nonzero;"/><path d="M247.377,244.926c0.056,-0.392 0.164,-0.739 0.324,-1.041c0.16,-0.302 0.363,-0.555 0.609,-0.759c0.246,-0.204 0.528,-0.359 0.846,-0.465c0.318,-0.106 0.661,-0.159 1.029,-0.159c0.364,0 0.7,0.052 1.008,0.156c0.308,0.104 0.573,0.252 0.795,0.444c0.222,0.192 0.395,0.424 0.519,0.696c0.124,0.272 0.186,0.574 0.186,0.906c0,0.272 -0.035,0.515 -0.105,0.729c-0.07,0.214 -0.17,0.401 -0.3,0.561c-0.13,0.16 -0.287,0.296 -0.471,0.408c-0.184,0.112 -0.39,0.204 -0.618,0.276c0.56,0.144 0.981,0.391 1.263,0.741c0.282,0.35 0.423,0.787 0.423,1.311c0,0.396 -0.075,0.752 -0.225,1.068c-0.15,0.316 -0.355,0.585 -0.615,0.807c-0.26,0.222 -0.563,0.392 -0.909,0.51c-0.346,0.118 -0.717,0.177 -1.113,0.177c-0.456,0 -0.846,-0.057 -1.17,-0.171c-0.324,-0.114 -0.598,-0.271 -0.822,-0.471c-0.224,-0.2 -0.408,-0.437 -0.552,-0.711c-0.144,-0.274 -0.266,-0.571 -0.366,-0.891l0.462,-0.192c0.12,-0.052 0.237,-0.066 0.351,-0.042c0.114,0.024 0.197,0.09 0.249,0.198c0.052,0.112 0.117,0.246 0.195,0.402c0.078,0.156 0.185,0.306 0.321,0.45c0.136,0.144 0.309,0.266 0.519,0.366c0.21,0.1 0.477,0.15 0.801,0.15c0.3,0 0.563,-0.049 0.789,-0.147c0.226,-0.098 0.414,-0.225 0.564,-0.381c0.15,-0.156 0.263,-0.33 0.339,-0.522c0.076,-0.192 0.114,-0.382 0.114,-0.57c0,-0.232 -0.03,-0.444 -0.09,-0.636c-0.06,-0.192 -0.172,-0.358 -0.336,-0.498c-0.164,-0.14 -0.389,-0.25 -0.675,-0.33c-0.286,-0.08 -0.653,-0.12 -1.101,-0.12l0,-0.774c0.368,-0.004 0.681,-0.044 0.939,-0.12c0.258,-0.076 0.468,-0.18 0.63,-0.312c0.162,-0.132 0.28,-0.29 0.354,-0.474c0.074,-0.184 0.111,-0.388 0.111,-0.612c0,-0.248 -0.039,-0.464 -0.117,-0.648c-0.078,-0.184 -0.185,-0.336 -0.321,-0.456c-0.136,-0.12 -0.297,-0.21 -0.483,-0.27c-0.186,-0.06 -0.387,-0.09 -0.603,-0.09c-0.216,0 -0.417,0.032 -0.603,0.096c-0.186,0.064 -0.35,0.153 -0.492,0.267c-0.142,0.114 -0.261,0.249 -0.357,0.405c-0.096,0.156 -0.164,0.328 -0.204,0.516c-0.052,0.14 -0.117,0.233 -0.195,0.279c-0.078,0.046 -0.191,0.059 -0.339,0.039l-0.558,-0.096Z" style="fill-rule:nonzero;"/><rect x="29.859" y="246.762" width="5.16" height="0.81" style="fill-rule:nonzero;"/><path d="M36.699,244.926c0.056,-0.392 0.164,-0.739 0.324,-1.041c0.16,-0.302 0.363,-0.555 0.609,-0.759c0.246,-0.204 0.528,-0.359 0.846,-0.465c0.318,-0.106 0.661,-0.159 1.029,-0.159c0.364,0 0.7,0.052 1.008,0.156c0.308,0.104 0.573,0.252 0.795,0.444c0.222,0.192 0.395,0.424 0.519,0.696c0.124,0.272 0.186,0.574 0.186,0.906c0,0.272 -0.035,0.515 -0.105,0.729c-0.07,0.214 -0.17,0.401 -0.3,0.561c-0.13,0.16 -0.287,0.296 -0.471,0.408c-0.184,0.112 -0.39,0.204 -0.618,0.276c0.56,0.144 0.981,0.391 1.263,0.741c0.282,0.35 0.423,0.787 0.423,1.311c0,0.396 -0.075,0.752 -0.225,1.068c-0.15,0.316 -0.355,0.585 -0.615,0.807c-0.26,0.222 -0.563,0.392 -0.909,0.51c-0.346,0.118 -0.717,0.177 -1.113,0.177c-0.456,0 -0.846,-0.057 -1.17,-0.171c-0.324,-0.114 -0.598,-0.271 -0.822,-0.471c-0.224,-0.2 -0.408,-0.437 -0.552,-0.711c-0.144,-0.274 -0.266,-0.571 -0.366,-0.891l0.462,-0.192c0.12,-0.052 0.237,-0.066 0.351,-0.042c0.114,0.024 0.197,0.09 0.249,0.198c0.052,0.112 0.117,0.246 0.195,0.402c0.078,0.156 0.185,0.306 0.321,0.45c0.136,0.144 0.309,0.266 0.519,0.366c0.21,0.1 0.477,0.15 0.801,0.15c0.3,0 0.563,-0.049 0.789,-0.147c0.226,-0.098 0.414,-0.225 0.564,-0.381c0.15,-0.156 0.263,-0.33 0.339,-0.522c0.076,-0.192 0.114,-0.382 0.114,-0.57c0,-0.232 -0.03,-0.444 -0.09,-0.636c-0.06,-0.192 -0.172,-0.358 -0.336,-0.498c-0.164,-0.14 -0.389,-0.25 -0.675,-0.33c-0.286,-0.08 -0.653,-0.12 -1.101,-0.12l0,-0.774c0.368,-0.004 0.681,-0.044 0.939,-0.12c0.258,-0.076 0.468,-0.18 0.63,-0.312c0.162,-0.132 0.28,-0.29 0.354,-0.474c0.074,-0.184 0.111,-0.388 0.111,-0.612c0,-0.248 -0.039,-0.464 -0.117,-0.648c-0.078,-0.184 -0.185,-0.336 -0.321,-0.456c-0.136,-0.12 -0.297,-0.21 -0.483,-0.27c-0.186,-0.06 -0.387,-0.09 -0.603,-0.09c-0.216,0 -0.417,0.032 -0.603,0.096c-0.186,0.064 -0.35,0.153 -0.492,0.267c-0.142,0.114 -0.261,0.249 -0.357,0.405c-0.096,0.156 -0.164,0.328 -0.204,0.516c-0.052,0.14 -0.117,0.233 -0.195,0.279c-0.078,0.046 -0.191,0.059 -0.339,0.039l-0.558,-0.096Z" style="fill-rule:nonzero;"/></g><path d="M66.801,265.067c0,0.644 -0.102,1.23 -0.306,1.758c-0.204,0.528 -0.492,0.98 -0.864,1.356c-0.372,0.376 -0.819,0.667 -1.341,0.873c-0.522,0.206 -1.099,0.309 -1.731,0.309l-3.21,0l0,-8.598l3.21,0c0.632,0 1.209,0.103 1.731,0.309c0.522,0.206 0.969,0.498 1.341,0.876c0.372,0.378 0.66,0.831 0.864,1.359c0.204,0.528 0.306,1.114 0.306,1.758Zm-1.194,0c0,-0.528 -0.072,-1 -0.216,-1.416c-0.144,-0.416 -0.348,-0.768 -0.612,-1.056c-0.264,-0.288 -0.584,-0.508 -0.96,-0.66c-0.376,-0.152 -0.796,-0.228 -1.26,-0.228l-2.046,0l0,6.714l2.046,0c0.464,0 0.884,-0.076 1.26,-0.228c0.376,-0.152 0.696,-0.371 0.96,-0.657c0.264,-0.286 0.468,-0.637 0.612,-1.053c0.144,-0.416 0.216,-0.888 0.216,-1.416Z" style="fill-rule:nonzero;"/><path d="M69.231,263.285l0,6.078l-1.068,0l0,-6.078l1.068,0Zm0.228,-1.908c0,0.104 -0.021,0.201 -0.063,0.291c-0.042,0.09 -0.098,0.17 -0.168,0.24c-0.07,0.07 -0.152,0.125 -0.246,0.165c-0.094,0.04 -0.193,0.06 -0.297,0.06c-0.104,0 -0.201,-0.02 -0.291,-0.06c-0.09,-0.04 -0.169,-0.095 -0.237,-0.165c-0.068,-0.07 -0.122,-0.15 -0.162,-0.24c-0.04,-0.09 -0.06,-0.187 -0.06,-0.291c0,-0.104 0.02,-0.203 0.06,-0.297c0.04,-0.094 0.094,-0.176 0.162,-0.246c0.068,-0.07 0.147,-0.125 0.237,-0.165c0.09,-0.04 0.187,-0.06 0.291,-0.06c0.104,0 0.203,0.02 0.297,0.06c0.094,0.04 0.176,0.095 0.246,0.165c0.07,0.07 0.126,0.152 0.168,0.246c0.042,0.094 0.063,0.193 0.063,0.297Z" style="fill-rule:nonzero;"/><path d="M74.523,264.287c-0.048,0.088 -0.122,0.132 -0.222,0.132c-0.06,0 -0.128,-0.022 -0.204,-0.066c-0.076,-0.044 -0.169,-0.093 -0.279,-0.147c-0.11,-0.054 -0.241,-0.104 -0.393,-0.15c-0.152,-0.046 -0.332,-0.069 -0.54,-0.069c-0.18,0 -0.342,0.023 -0.486,0.069c-0.144,0.046 -0.267,0.109 -0.369,0.189c-0.102,0.08 -0.18,0.173 -0.234,0.279c-0.054,0.106 -0.081,0.221 -0.081,0.345c0,0.156 0.045,0.286 0.135,0.39c0.09,0.104 0.209,0.194 0.357,0.27c0.148,0.076 0.316,0.143 0.504,0.201c0.188,0.058 0.381,0.12 0.579,0.186c0.198,0.066 0.391,0.139 0.579,0.219c0.188,0.08 0.356,0.18 0.504,0.3c0.148,0.12 0.267,0.267 0.357,0.441c0.09,0.174 0.135,0.383 0.135,0.627c0,0.28 -0.05,0.539 -0.15,0.777c-0.1,0.238 -0.248,0.444 -0.444,0.618c-0.196,0.174 -0.436,0.311 -0.72,0.411c-0.284,0.1 -0.612,0.15 -0.984,0.15c-0.424,0 -0.808,-0.069 -1.152,-0.207c-0.344,-0.138 -0.636,-0.315 -0.876,-0.531l0.252,-0.408c0.032,-0.052 0.07,-0.092 0.114,-0.12c0.044,-0.028 0.1,-0.042 0.168,-0.042c0.072,0 0.148,0.028 0.228,0.084c0.08,0.056 0.177,0.118 0.291,0.186c0.114,0.068 0.253,0.13 0.417,0.186c0.164,0.056 0.368,0.084 0.612,0.084c0.208,0 0.39,-0.027 0.546,-0.081c0.156,-0.054 0.286,-0.127 0.39,-0.219c0.104,-0.092 0.181,-0.198 0.231,-0.318c0.05,-0.12 0.075,-0.248 0.075,-0.384c0,-0.168 -0.045,-0.307 -0.135,-0.417c-0.09,-0.11 -0.209,-0.204 -0.357,-0.282c-0.148,-0.078 -0.317,-0.146 -0.507,-0.204c-0.19,-0.058 -0.384,-0.119 -0.582,-0.183c-0.198,-0.064 -0.392,-0.137 -0.582,-0.219c-0.19,-0.082 -0.359,-0.185 -0.507,-0.309c-0.148,-0.124 -0.267,-0.277 -0.357,-0.459c-0.09,-0.182 -0.135,-0.403 -0.135,-0.663c0,-0.232 0.048,-0.455 0.144,-0.669c0.096,-0.214 0.236,-0.402 0.42,-0.564c0.184,-0.162 0.41,-0.291 0.678,-0.387c0.268,-0.096 0.574,-0.144 0.918,-0.144c0.4,0 0.759,0.063 1.077,0.189c0.318,0.126 0.593,0.299 0.825,0.519l-0.24,0.39Z" style="fill-rule:nonzero;"/><path d="M78.045,269.459c-0.48,0 -0.849,-0.134 -1.107,-0.402c-0.258,-0.268 -0.387,-0.654 -0.387,-1.158l0,-3.72l-0.732,0c-0.064,0 -0.118,-0.019 -0.162,-0.057c-0.044,-0.038 -0.066,-0.097 -0.066,-0.177l0,-0.426l0.996,-0.126l0.246,-1.878c0.012,-0.06 0.039,-0.109 0.081,-0.147c0.042,-0.038 0.097,-0.057 0.165,-0.057l0.54,0l0,2.094l1.758,0l0,0.774l-1.758,0l0,3.648c0,0.256 0.062,0.446 0.186,0.57c0.124,0.124 0.284,0.186 0.48,0.186c0.112,0 0.209,-0.015 0.291,-0.045c0.082,-0.03 0.153,-0.063 0.213,-0.099c0.06,-0.036 0.111,-0.069 0.153,-0.099c0.042,-0.03 0.079,-0.045 0.111,-0.045c0.056,0 0.106,0.034 0.15,0.102l0.312,0.51c-0.184,0.172 -0.406,0.307 -0.666,0.405c-0.26,0.098 -0.528,0.147 -0.804,0.147Z" style="fill-rule:nonzero;"/><path d="M83.775,266.627c-0.492,0.016 -0.911,0.055 -1.257,0.117c-0.346,0.062 -0.628,0.143 -0.846,0.243c-0.218,0.1 -0.376,0.218 -0.474,0.354c-0.098,0.136 -0.147,0.288 -0.147,0.456c0,0.16 0.026,0.298 0.078,0.414c0.052,0.116 0.123,0.211 0.213,0.285c0.09,0.074 0.196,0.128 0.318,0.162c0.122,0.034 0.253,0.051 0.393,0.051c0.188,0 0.36,-0.019 0.516,-0.057c0.156,-0.038 0.303,-0.093 0.441,-0.165c0.138,-0.072 0.27,-0.158 0.396,-0.258c0.126,-0.1 0.249,-0.214 0.369,-0.342l0,-1.26Zm-3.45,-2.484c0.336,-0.324 0.698,-0.566 1.086,-0.726c0.388,-0.16 0.818,-0.24 1.29,-0.24c0.34,0 0.642,0.056 0.906,0.168c0.264,0.112 0.486,0.268 0.666,0.468c0.18,0.2 0.316,0.442 0.408,0.726c0.092,0.284 0.138,0.596 0.138,0.936l0,3.888l-0.474,0c-0.104,0 -0.184,-0.017 -0.24,-0.051c-0.056,-0.034 -0.1,-0.101 -0.132,-0.201l-0.12,-0.576c-0.16,0.148 -0.316,0.279 -0.468,0.393c-0.152,0.114 -0.312,0.21 -0.48,0.288c-0.168,0.078 -0.347,0.138 -0.537,0.18c-0.19,0.042 -0.401,0.063 -0.633,0.063c-0.236,0 -0.458,-0.033 -0.666,-0.099c-0.208,-0.066 -0.389,-0.165 -0.543,-0.297c-0.154,-0.132 -0.276,-0.299 -0.366,-0.501c-0.09,-0.202 -0.135,-0.441 -0.135,-0.717c0,-0.24 0.066,-0.471 0.198,-0.693c0.132,-0.222 0.346,-0.419 0.642,-0.591c0.296,-0.172 0.682,-0.313 1.158,-0.423c0.476,-0.11 1.06,-0.173 1.752,-0.189l0,-0.474c0,-0.472 -0.102,-0.829 -0.306,-1.071c-0.204,-0.242 -0.502,-0.363 -0.894,-0.363c-0.264,0 -0.485,0.033 -0.663,0.099c-0.178,0.066 -0.332,0.14 -0.462,0.222c-0.13,0.082 -0.242,0.156 -0.336,0.222c-0.094,0.066 -0.187,0.099 -0.279,0.099c-0.072,0 -0.134,-0.019 -0.186,-0.057c-0.052,-0.038 -0.096,-0.085 -0.132,-0.141l-0.192,-0.342Z" style="fill-rule:nonzero;"/><path d="M87.453,264.167c0.132,-0.148 0.272,-0.282 0.42,-0.402c0.148,-0.12 0.305,-0.223 0.471,-0.309c0.166,-0.086 0.342,-0.152 0.528,-0.198c0.186,-0.046 0.387,-0.069 0.603,-0.069c0.332,0 0.625,0.055 0.879,0.165c0.254,0.11 0.466,0.266 0.636,0.468c0.17,0.202 0.299,0.445 0.387,0.729c0.088,0.284 0.132,0.598 0.132,0.942l0,3.87l-1.074,0l0,-3.87c0,-0.46 -0.105,-0.817 -0.315,-1.071c-0.21,-0.254 -0.529,-0.381 -0.957,-0.381c-0.316,0 -0.611,0.076 -0.885,0.228c-0.274,0.152 -0.527,0.358 -0.759,0.618l0,4.476l-1.074,0l0,-6.078l0.642,0c0.152,0 0.246,0.074 0.282,0.222l0.084,0.66Z" style="fill-rule:nonzero;"/><path d="M97.371,264.365c-0.032,0.044 -0.064,0.078 -0.096,0.102c-0.032,0.024 -0.076,0.036 -0.132,0.036c-0.06,0 -0.126,-0.025 -0.198,-0.075c-0.072,-0.05 -0.161,-0.105 -0.267,-0.165c-0.106,-0.06 -0.236,-0.115 -0.39,-0.165c-0.154,-0.05 -0.343,-0.075 -0.567,-0.075c-0.3,0 -0.564,0.053 -0.792,0.159c-0.228,0.106 -0.419,0.259 -0.573,0.459c-0.154,0.2 -0.27,0.442 -0.348,0.726c-0.078,0.284 -0.117,0.602 -0.117,0.954c0,0.368 0.042,0.695 0.126,0.981c0.084,0.286 0.203,0.526 0.357,0.72c0.154,0.194 0.34,0.342 0.558,0.444c0.218,0.102 0.463,0.153 0.735,0.153c0.26,0 0.474,-0.031 0.642,-0.093c0.168,-0.062 0.307,-0.131 0.417,-0.207c0.11,-0.076 0.202,-0.145 0.276,-0.207c0.074,-0.062 0.147,-0.093 0.219,-0.093c0.088,0 0.156,0.034 0.204,0.102l0.3,0.39c-0.132,0.164 -0.282,0.304 -0.45,0.42c-0.168,0.116 -0.349,0.213 -0.543,0.291c-0.194,0.078 -0.397,0.135 -0.609,0.171c-0.212,0.036 -0.428,0.054 -0.648,0.054c-0.38,0 -0.733,-0.07 -1.059,-0.21c-0.326,-0.14 -0.609,-0.343 -0.849,-0.609c-0.24,-0.266 -0.428,-0.593 -0.564,-0.981c-0.136,-0.388 -0.204,-0.83 -0.204,-1.326c0,-0.452 0.063,-0.87 0.189,-1.254c0.126,-0.384 0.31,-0.715 0.552,-0.993c0.242,-0.278 0.54,-0.495 0.894,-0.651c0.354,-0.156 0.761,-0.234 1.221,-0.234c0.428,0 0.805,0.069 1.131,0.207c0.326,0.138 0.615,0.333 0.867,0.585l-0.282,0.384Z" style="fill-rule:nonzero;"/><path d="M102.831,265.661c0,-0.248 -0.035,-0.475 -0.105,-0.681c-0.07,-0.206 -0.172,-0.384 -0.306,-0.534c-0.134,-0.15 -0.297,-0.266 -0.489,-0.348c-0.192,-0.082 -0.41,-0.123 -0.654,-0.123c-0.512,0 -0.917,0.149 -1.215,0.447c-0.298,0.298 -0.483,0.711 -0.555,1.239l3.324,0Zm0.864,2.85c-0.132,0.16 -0.29,0.299 -0.474,0.417c-0.184,0.118 -0.381,0.215 -0.591,0.291c-0.21,0.076 -0.427,0.133 -0.651,0.171c-0.224,0.038 -0.446,0.057 -0.666,0.057c-0.42,0 -0.807,-0.071 -1.161,-0.213c-0.354,-0.142 -0.66,-0.35 -0.918,-0.624c-0.258,-0.274 -0.459,-0.613 -0.603,-1.017c-0.144,-0.404 -0.216,-0.868 -0.216,-1.392c0,-0.424 0.065,-0.82 0.195,-1.188c0.13,-0.368 0.317,-0.687 0.561,-0.957c0.244,-0.27 0.542,-0.482 0.894,-0.636c0.352,-0.154 0.748,-0.231 1.188,-0.231c0.364,0 0.701,0.061 1.011,0.183c0.31,0.122 0.578,0.298 0.804,0.528c0.226,0.23 0.403,0.514 0.531,0.852c0.128,0.338 0.192,0.723 0.192,1.155c0,0.168 -0.018,0.28 -0.054,0.336c-0.036,0.056 -0.104,0.084 -0.204,0.084l-4.062,0c0.012,0.384 0.065,0.718 0.159,1.002c0.094,0.284 0.225,0.521 0.393,0.711c0.168,0.19 0.368,0.332 0.6,0.426c0.232,0.094 0.492,0.141 0.78,0.141c0.268,0 0.499,-0.031 0.693,-0.093c0.194,-0.062 0.361,-0.129 0.501,-0.201c0.14,-0.072 0.257,-0.139 0.351,-0.201c0.094,-0.062 0.175,-0.093 0.243,-0.093c0.088,0 0.156,0.034 0.204,0.102l0.3,0.39Z" style="fill-rule:nonzero;"/><path d="M108.567,269.363l0,-5.166l-0.672,-0.078c-0.084,-0.02 -0.153,-0.051 -0.207,-0.093c-0.054,-0.042 -0.081,-0.103 -0.081,-0.183l0,-0.438l0.96,0l0,-0.588c0,-0.348 0.049,-0.657 0.147,-0.927c0.098,-0.27 0.238,-0.498 0.42,-0.684c0.182,-0.186 0.401,-0.327 0.657,-0.423c0.256,-0.096 0.544,-0.144 0.864,-0.144c0.272,0 0.522,0.04 0.75,0.12l-0.024,0.534c-0.008,0.096 -0.061,0.148 -0.159,0.156c-0.098,0.008 -0.229,0.012 -0.393,0.012c-0.184,0 -0.351,0.024 -0.501,0.072c-0.15,0.048 -0.279,0.126 -0.387,0.234c-0.108,0.108 -0.191,0.25 -0.249,0.426c-0.058,0.176 -0.087,0.394 -0.087,0.654l0,0.558l1.752,0l0,0.774l-1.716,0l0,5.184l-1.074,0Z" style="fill-rule:nonzero;"/><path d="M113.391,264.503c0.192,-0.416 0.428,-0.741 0.708,-0.975c0.28,-0.234 0.622,-0.351 1.026,-0.351c0.128,0 0.251,0.014 0.369,0.042c0.118,0.028 0.223,0.072 0.315,0.132l-0.078,0.798c-0.024,0.1 -0.084,0.15 -0.18,0.15c-0.056,0 -0.138,-0.012 -0.246,-0.036c-0.108,-0.024 -0.23,-0.036 -0.366,-0.036c-0.192,0 -0.363,0.028 -0.513,0.084c-0.15,0.056 -0.284,0.139 -0.402,0.249c-0.118,0.11 -0.224,0.246 -0.318,0.408c-0.094,0.162 -0.179,0.347 -0.255,0.555l0,3.84l-1.074,0l0,-6.078l0.612,0c0.116,0 0.196,0.022 0.24,0.066c0.044,0.044 0.074,0.12 0.09,0.228l0.072,0.924Z" style="fill-rule:nonzero;"/><path d="M119.061,263.189c0.444,0 0.844,0.074 1.2,0.222c0.356,0.148 0.66,0.358 0.912,0.63c0.252,0.272 0.445,0.601 0.579,0.987c0.134,0.386 0.201,0.817 0.201,1.293c0,0.48 -0.067,0.912 -0.201,1.296c-0.134,0.384 -0.327,0.712 -0.579,0.984c-0.252,0.272 -0.556,0.481 -0.912,0.627c-0.356,0.146 -0.756,0.219 -1.2,0.219c-0.448,0 -0.851,-0.073 -1.209,-0.219c-0.358,-0.146 -0.663,-0.355 -0.915,-0.627c-0.252,-0.272 -0.445,-0.6 -0.579,-0.984c-0.134,-0.384 -0.201,-0.816 -0.201,-1.296c0,-0.476 0.067,-0.907 0.201,-1.293c0.134,-0.386 0.327,-0.715 0.579,-0.987c0.252,-0.272 0.557,-0.482 0.915,-0.63c0.358,-0.148 0.761,-0.222 1.209,-0.222Zm0,5.424c0.6,0 1.048,-0.201 1.344,-0.603c0.296,-0.402 0.444,-0.963 0.444,-1.683c0,-0.724 -0.148,-1.288 -0.444,-1.692c-0.296,-0.404 -0.744,-0.606 -1.344,-0.606c-0.304,0 -0.569,0.052 -0.795,0.156c-0.226,0.104 -0.414,0.254 -0.564,0.45c-0.15,0.196 -0.262,0.437 -0.336,0.723c-0.074,0.286 -0.111,0.609 -0.111,0.969c0,0.72 0.149,1.281 0.447,1.683c0.298,0.402 0.751,0.603 1.359,0.603Z" style="fill-rule:nonzero;"/><path d="M123.303,269.363l0,-6.078l0.642,0c0.152,0 0.246,0.074 0.282,0.222l0.078,0.624c0.224,-0.276 0.476,-0.502 0.756,-0.678c0.28,-0.176 0.604,-0.264 0.972,-0.264c0.408,0 0.739,0.114 0.993,0.342c0.254,0.228 0.437,0.536 0.549,0.924c0.088,-0.22 0.201,-0.41 0.339,-0.57c0.138,-0.16 0.293,-0.292 0.465,-0.396c0.172,-0.104 0.355,-0.18 0.549,-0.228c0.194,-0.048 0.391,-0.072 0.591,-0.072c0.32,0 0.605,0.051 0.855,0.153c0.25,0.102 0.462,0.251 0.636,0.447c0.174,0.196 0.307,0.437 0.399,0.723c0.092,0.286 0.138,0.613 0.138,0.981l0,3.87l-1.074,0l0,-3.87c0,-0.476 -0.104,-0.837 -0.312,-1.083c-0.208,-0.246 -0.508,-0.369 -0.9,-0.369c-0.176,0 -0.343,0.031 -0.501,0.093c-0.158,0.062 -0.297,0.153 -0.417,0.273c-0.12,0.12 -0.215,0.271 -0.285,0.453c-0.07,0.182 -0.105,0.393 -0.105,0.633l0,3.87l-1.074,0l0,-3.87c0,-0.488 -0.098,-0.852 -0.294,-1.092c-0.196,-0.24 -0.482,-0.36 -0.858,-0.36c-0.264,0 -0.508,0.071 -0.732,0.213c-0.224,0.142 -0.43,0.335 -0.618,0.579l0,4.53l-1.074,0Z" style="fill-rule:nonzero;"/><path d="M140.205,264.731c-0.2,-0.268 -0.416,-0.455 -0.648,-0.561c-0.232,-0.106 -0.492,-0.159 -0.78,-0.159c-0.564,0 -0.998,0.202 -1.302,0.606c-0.304,0.404 -0.456,0.98 -0.456,1.728c0,0.396 0.034,0.735 0.102,1.017c0.068,0.282 0.168,0.514 0.3,0.696c0.132,0.182 0.294,0.315 0.486,0.399c0.192,0.084 0.41,0.126 0.654,0.126c0.352,0 0.659,-0.08 0.921,-0.24c0.262,-0.16 0.503,-0.386 0.723,-0.678l0,-2.934Zm1.068,-4.206l0,8.838l-0.636,0c-0.152,0 -0.248,-0.074 -0.288,-0.222l-0.096,-0.738c-0.26,0.312 -0.556,0.564 -0.888,0.756c-0.332,0.192 -0.716,0.288 -1.152,0.288c-0.348,0 -0.664,-0.067 -0.948,-0.201c-0.284,-0.134 -0.526,-0.331 -0.726,-0.591c-0.2,-0.26 -0.354,-0.584 -0.462,-0.972c-0.108,-0.388 -0.162,-0.834 -0.162,-1.338c0,-0.448 0.06,-0.865 0.18,-1.251c0.12,-0.386 0.292,-0.721 0.516,-1.005c0.224,-0.284 0.499,-0.507 0.825,-0.669c0.326,-0.162 0.693,-0.243 1.101,-0.243c0.372,0 0.691,0.063 0.957,0.189c0.266,0.126 0.503,0.301 0.711,0.525l0,-3.366l1.068,0Z" style="fill-rule:nonzero;"/><path d="M144.093,263.285l0,6.078l-1.068,0l0,-6.078l1.068,0Zm0.228,-1.908c0,0.104 -0.021,0.201 -0.063,0.291c-0.042,0.09 -0.098,0.17 -0.168,0.24c-0.07,0.07 -0.152,0.125 -0.246,0.165c-0.094,0.04 -0.193,0.06 -0.297,0.06c-0.104,0 -0.201,-0.02 -0.291,-0.06c-0.09,-0.04 -0.169,-0.095 -0.237,-0.165c-0.068,-0.07 -0.122,-0.15 -0.162,-0.24c-0.04,-0.09 -0.06,-0.187 -0.06,-0.291c0,-0.104 0.02,-0.203 0.06,-0.297c0.04,-0.094 0.094,-0.176 0.162,-0.246c0.068,-0.07 0.147,-0.125 0.237,-0.165c0.09,-0.04 0.187,-0.06 0.291,-0.06c0.104,0 0.203,0.02 0.297,0.06c0.094,0.04 0.176,0.095 0.246,0.165c0.07,0.07 0.126,0.152 0.168,0.246c0.042,0.094 0.063,0.193 0.063,0.297Z" style="fill-rule:nonzero;"/><path d="M149.385,264.287c-0.048,0.088 -0.122,0.132 -0.222,0.132c-0.06,0 -0.128,-0.022 -0.204,-0.066c-0.076,-0.044 -0.169,-0.093 -0.279,-0.147c-0.11,-0.054 -0.241,-0.104 -0.393,-0.15c-0.152,-0.046 -0.332,-0.069 -0.54,-0.069c-0.18,0 -0.342,0.023 -0.486,0.069c-0.144,0.046 -0.267,0.109 -0.369,0.189c-0.102,0.08 -0.18,0.173 -0.234,0.279c-0.054,0.106 -0.081,0.221 -0.081,0.345c0,0.156 0.045,0.286 0.135,0.39c0.09,0.104 0.209,0.194 0.357,0.27c0.148,0.076 0.316,0.143 0.504,0.201c0.188,0.058 0.381,0.12 0.579,0.186c0.198,0.066 0.391,0.139 0.579,0.219c0.188,0.08 0.356,0.18 0.504,0.3c0.148,0.12 0.267,0.267 0.357,0.441c0.09,0.174 0.135,0.383 0.135,0.627c0,0.28 -0.05,0.539 -0.15,0.777c-0.1,0.238 -0.248,0.444 -0.444,0.618c-0.196,0.174 -0.436,0.311 -0.72,0.411c-0.284,0.1 -0.612,0.15 -0.984,0.15c-0.424,0 -0.808,-0.069 -1.152,-0.207c-0.344,-0.138 -0.636,-0.315 -0.876,-0.531l0.252,-0.408c0.032,-0.052 0.07,-0.092 0.114,-0.12c0.044,-0.028 0.1,-0.042 0.168,-0.042c0.072,0 0.148,0.028 0.228,0.084c0.08,0.056 0.177,0.118 0.291,0.186c0.114,0.068 0.253,0.13 0.417,0.186c0.164,0.056 0.368,0.084 0.612,0.084c0.208,0 0.39,-0.027 0.546,-0.081c0.156,-0.054 0.286,-0.127 0.39,-0.219c0.104,-0.092 0.181,-0.198 0.231,-0.318c0.05,-0.12 0.075,-0.248 0.075,-0.384c0,-0.168 -0.045,-0.307 -0.135,-0.417c-0.09,-0.11 -0.209,-0.204 -0.357,-0.282c-0.148,-0.078 -0.317,-0.146 -0.507,-0.204c-0.19,-0.058 -0.384,-0.119 -0.582,-0.183c-0.198,-0.064 -0.392,-0.137 -0.582,-0.219c-0.19,-0.082 -0.359,-0.185 -0.507,-0.309c-0.148,-0.124 -0.267,-0.277 -0.357,-0.459c-0.09,-0.182 -0.135,-0.403 -0.135,-0.663c0,-0.232 0.048,-0.455 0.144,-0.669c0.096,-0.214 0.236,-0.402 0.42,-0.564c0.184,-0.162 0.41,-0.291 0.678,-0.387c0.268,-0.096 0.574,-0.144 0.918,-0.144c0.4,0 0.759,0.063 1.077,0.189c0.318,0.126 0.593,0.299 0.825,0.519l-0.24,0.39Z" style="fill-rule:nonzero;"/><path d="M152.907,269.459c-0.48,0 -0.849,-0.134 -1.107,-0.402c-0.258,-0.268 -0.387,-0.654 -0.387,-1.158l0,-3.72l-0.732,0c-0.064,0 -0.118,-0.019 -0.162,-0.057c-0.044,-0.038 -0.066,-0.097 -0.066,-0.177l0,-0.426l0.996,-0.126l0.246,-1.878c0.012,-0.06 0.039,-0.109 0.081,-0.147c0.042,-0.038 0.097,-0.057 0.165,-0.057l0.54,0l0,2.094l1.758,0l0,0.774l-1.758,0l0,3.648c0,0.256 0.062,0.446 0.186,0.57c0.124,0.124 0.284,0.186 0.48,0.186c0.112,0 0.209,-0.015 0.291,-0.045c0.082,-0.03 0.153,-0.063 0.213,-0.099c0.06,-0.036 0.111,-0.069 0.153,-0.099c0.042,-0.03 0.079,-0.045 0.111,-0.045c0.056,0 0.106,0.034 0.15,0.102l0.312,0.51c-0.184,0.172 -0.406,0.307 -0.666,0.405c-0.26,0.098 -0.528,0.147 -0.804,0.147Z" style="fill-rule:nonzero;"/><path d="M156.357,264.503c0.192,-0.416 0.428,-0.741 0.708,-0.975c0.28,-0.234 0.622,-0.351 1.026,-0.351c0.128,0 0.251,0.014 0.369,0.042c0.118,0.028 0.223,0.072 0.315,0.132l-0.078,0.798c-0.024,0.1 -0.084,0.15 -0.18,0.15c-0.056,0 -0.138,-0.012 -0.246,-0.036c-0.108,-0.024 -0.23,-0.036 -0.366,-0.036c-0.192,0 -0.363,0.028 -0.513,0.084c-0.15,0.056 -0.284,0.139 -0.402,0.249c-0.118,0.11 -0.224,0.246 -0.318,0.408c-0.094,0.162 -0.179,0.347 -0.255,0.555l0,3.84l-1.074,0l0,-6.078l0.612,0c0.116,0 0.196,0.022 0.24,0.066c0.044,0.044 0.074,0.12 0.09,0.228l0.072,0.924Z" style="fill-rule:nonzero;"/><path d="M160.839,263.285l0,6.078l-1.068,0l0,-6.078l1.068,0Zm0.228,-1.908c0,0.104 -0.021,0.201 -0.063,0.291c-0.042,0.09 -0.098,0.17 -0.168,0.24c-0.07,0.07 -0.152,0.125 -0.246,0.165c-0.094,0.04 -0.193,0.06 -0.297,0.06c-0.104,0 -0.201,-0.02 -0.291,-0.06c-0.09,-0.04 -0.169,-0.095 -0.237,-0.165c-0.068,-0.07 -0.122,-0.15 -0.162,-0.24c-0.04,-0.09 -0.06,-0.187 -0.06,-0.291c0,-0.104 0.02,-0.203 0.06,-0.297c0.04,-0.094 0.094,-0.176 0.162,-0.246c0.068,-0.07 0.147,-0.125 0.237,-0.165c0.09,-0.04 0.187,-0.06 0.291,-0.06c0.104,0 0.203,0.02 0.297,0.06c0.094,0.04 0.176,0.095 0.246,0.165c0.07,0.07 0.126,0.152 0.168,0.246c0.042,0.094 0.063,0.193 0.063,0.297Z" style="fill-rule:nonzero;"/><path d="M163.665,267.899c0.196,0.264 0.411,0.45 0.645,0.558c0.234,0.108 0.491,0.162 0.771,0.162c0.572,0 1.01,-0.202 1.314,-0.606c0.304,-0.404 0.456,-1.006 0.456,-1.806c0,-0.744 -0.135,-1.291 -0.405,-1.641c-0.27,-0.35 -0.655,-0.525 -1.155,-0.525c-0.348,0 -0.651,0.08 -0.909,0.24c-0.258,0.16 -0.497,0.386 -0.717,0.678l0,2.94Zm0,-3.738c0.256,-0.296 0.545,-0.532 0.867,-0.708c0.322,-0.176 0.693,-0.264 1.113,-0.264c0.356,0 0.677,0.068 0.963,0.204c0.286,0.136 0.529,0.333 0.729,0.591c0.2,0.258 0.353,0.571 0.459,0.939c0.106,0.368 0.159,0.782 0.159,1.242c0,0.492 -0.06,0.94 -0.18,1.344c-0.12,0.404 -0.293,0.749 -0.519,1.035c-0.226,0.286 -0.501,0.508 -0.825,0.666c-0.324,0.158 -0.688,0.237 -1.092,0.237c-0.4,0 -0.737,-0.075 -1.011,-0.225c-0.274,-0.15 -0.513,-0.363 -0.717,-0.639l-0.054,0.552c-0.032,0.152 -0.124,0.228 -0.276,0.228l-0.69,0l0,-8.838l1.074,0l0,3.636Z" style="fill-rule:nonzero;"/><path d="M174.309,263.285l0,6.078l-0.636,0c-0.152,0 -0.248,-0.074 -0.288,-0.222l-0.084,-0.654c-0.264,0.292 -0.56,0.527 -0.888,0.705c-0.328,0.178 -0.704,0.267 -1.128,0.267c-0.332,0 -0.625,-0.055 -0.879,-0.165c-0.254,-0.11 -0.467,-0.265 -0.639,-0.465c-0.172,-0.2 -0.301,-0.442 -0.387,-0.726c-0.086,-0.284 -0.129,-0.598 -0.129,-0.942l0,-3.876l1.068,0l0,3.876c0,0.46 0.105,0.816 0.315,1.068c0.21,0.252 0.531,0.378 0.963,0.378c0.316,0 0.611,-0.075 0.885,-0.225c0.274,-0.15 0.527,-0.357 0.759,-0.621l0,-4.476l1.068,0Z" style="fill-rule:nonzero;"/><path d="M181.641,269.363l-1.068,0l0,-5.184l-3.132,0l0,3.648c0,0.256 0.062,0.446 0.186,0.57c0.124,0.124 0.284,0.186 0.48,0.186c0.112,0 0.209,-0.015 0.291,-0.045c0.082,-0.03 0.153,-0.063 0.213,-0.099c0.06,-0.036 0.111,-0.069 0.153,-0.099c0.042,-0.03 0.079,-0.045 0.111,-0.045c0.056,0 0.106,0.034 0.15,0.102l0.312,0.51c-0.184,0.172 -0.406,0.307 -0.666,0.405c-0.26,0.098 -0.528,0.147 -0.804,0.147c-0.48,0 -0.849,-0.134 -1.107,-0.402c-0.258,-0.268 -0.387,-0.654 -0.387,-1.158l0,-3.72l-0.732,0c-0.064,0 -0.118,-0.019 -0.162,-0.057c-0.044,-0.038 -0.066,-0.097 -0.066,-0.177l0,-0.426l0.996,-0.132l0.246,-1.872c0.012,-0.06 0.039,-0.109 0.081,-0.147c0.042,-0.038 0.097,-0.057 0.165,-0.057l0.54,0l0,2.094l4.2,0l0,5.958Zm0.264,-8.028c0,0.104 -0.021,0.201 -0.063,0.291c-0.042,0.09 -0.098,0.169 -0.168,0.237c-0.07,0.068 -0.151,0.122 -0.243,0.162c-0.092,0.04 -0.19,0.06 -0.294,0.06c-0.104,0 -0.201,-0.02 -0.291,-0.06c-0.09,-0.04 -0.169,-0.094 -0.237,-0.162c-0.068,-0.068 -0.122,-0.147 -0.162,-0.237c-0.04,-0.09 -0.06,-0.187 -0.06,-0.291c0,-0.104 0.02,-0.203 0.06,-0.297c0.04,-0.094 0.094,-0.176 0.162,-0.246c0.068,-0.07 0.147,-0.125 0.237,-0.165c0.09,-0.04 0.187,-0.06 0.291,-0.06c0.104,0 0.202,0.02 0.294,0.06c0.092,0.04 0.173,0.095 0.243,0.165c0.07,0.07 0.126,0.152 0.168,0.246c0.042,0.094 0.063,0.193 0.063,0.297Z" style="fill-rule:nonzero;"/><path d="M185.955,263.189c0.444,0 0.844,0.074 1.2,0.222c0.356,0.148 0.66,0.358 0.912,0.63c0.252,0.272 0.445,0.601 0.579,0.987c0.134,0.386 0.201,0.817 0.201,1.293c0,0.48 -0.067,0.912 -0.201,1.296c-0.134,0.384 -0.327,0.712 -0.579,0.984c-0.252,0.272 -0.556,0.481 -0.912,0.627c-0.356,0.146 -0.756,0.219 -1.2,0.219c-0.448,0 -0.851,-0.073 -1.209,-0.219c-0.358,-0.146 -0.663,-0.355 -0.915,-0.627c-0.252,-0.272 -0.445,-0.6 -0.579,-0.984c-0.134,-0.384 -0.201,-0.816 -0.201,-1.296c0,-0.476 0.067,-0.907 0.201,-1.293c0.134,-0.386 0.327,-0.715 0.579,-0.987c0.252,-0.272 0.557,-0.482 0.915,-0.63c0.358,-0.148 0.761,-0.222 1.209,-0.222Zm0,5.424c0.6,0 1.048,-0.201 1.344,-0.603c0.296,-0.402 0.444,-0.963 0.444,-1.683c0,-0.724 -0.148,-1.288 -0.444,-1.692c-0.296,-0.404 -0.744,-0.606 -1.344,-0.606c-0.304,0 -0.569,0.052 -0.795,0.156c-0.226,0.104 -0.414,0.254 -0.564,0.45c-0.15,0.196 -0.262,0.437 -0.336,0.723c-0.074,0.286 -0.111,0.609 -0.111,0.969c0,0.72 0.149,1.281 0.447,1.683c0.298,0.402 0.751,0.603 1.359,0.603Z" style="fill-rule:nonzero;"/><path d="M191.205,264.167c0.132,-0.148 0.272,-0.282 0.42,-0.402c0.148,-0.12 0.305,-0.223 0.471,-0.309c0.166,-0.086 0.342,-0.152 0.528,-0.198c0.186,-0.046 0.387,-0.069 0.603,-0.069c0.332,0 0.625,0.055 0.879,0.165c0.254,0.11 0.466,0.266 0.636,0.468c0.17,0.202 0.299,0.445 0.387,0.729c0.088,0.284 0.132,0.598 0.132,0.942l0,3.87l-1.074,0l0,-3.87c0,-0.46 -0.105,-0.817 -0.315,-1.071c-0.21,-0.254 -0.529,-0.381 -0.957,-0.381c-0.316,0 -0.611,0.076 -0.885,0.228c-0.274,0.152 -0.527,0.358 -0.759,0.618l0,4.476l-1.074,0l0,-6.078l0.642,0c0.152,0 0.246,0.074 0.282,0.222l0.084,0.66Z" style="fill-rule:nonzero;"/><path d="M199.965,269.363l0,-6.078l0.642,0c0.152,0 0.246,0.074 0.282,0.222l0.078,0.624c0.224,-0.276 0.476,-0.502 0.756,-0.678c0.28,-0.176 0.604,-0.264 0.972,-0.264c0.408,0 0.739,0.114 0.993,0.342c0.254,0.228 0.437,0.536 0.549,0.924c0.088,-0.22 0.201,-0.41 0.339,-0.57c0.138,-0.16 0.293,-0.292 0.465,-0.396c0.172,-0.104 0.355,-0.18 0.549,-0.228c0.194,-0.048 0.391,-0.072 0.591,-0.072c0.32,0 0.605,0.051 0.855,0.153c0.25,0.102 0.462,0.251 0.636,0.447c0.174,0.196 0.307,0.437 0.399,0.723c0.092,0.286 0.138,0.613 0.138,0.981l0,3.87l-1.074,0l0,-3.87c0,-0.476 -0.104,-0.837 -0.312,-1.083c-0.208,-0.246 -0.508,-0.369 -0.9,-0.369c-0.176,0 -0.343,0.031 -0.501,0.093c-0.158,0.062 -0.297,0.153 -0.417,0.273c-0.12,0.12 -0.215,0.271 -0.285,0.453c-0.07,0.182 -0.105,0.393 -0.105,0.633l0,3.87l-1.074,0l0,-3.87c0,-0.488 -0.098,-0.852 -0.294,-1.092c-0.196,-0.24 -0.482,-0.36 -0.858,-0.36c-0.264,0 -0.508,0.071 -0.732,0.213c-0.224,0.142 -0.43,0.335 -0.618,0.579l0,4.53l-1.074,0Z" style="fill-rule:nonzero;"/><path d="M213.903,265.661c0,-0.248 -0.035,-0.475 -0.105,-0.681c-0.07,-0.206 -0.172,-0.384 -0.306,-0.534c-0.134,-0.15 -0.297,-0.266 -0.489,-0.348c-0.192,-0.082 -0.41,-0.123 -0.654,-0.123c-0.512,0 -0.917,0.149 -1.215,0.447c-0.298,0.298 -0.483,0.711 -0.555,1.239l3.324,0Zm0.864,2.85c-0.132,0.16 -0.29,0.299 -0.474,0.417c-0.184,0.118 -0.381,0.215 -0.591,0.291c-0.21,0.076 -0.427,0.133 -0.651,0.171c-0.224,0.038 -0.446,0.057 -0.666,0.057c-0.42,0 -0.807,-0.071 -1.161,-0.213c-0.354,-0.142 -0.66,-0.35 -0.918,-0.624c-0.258,-0.274 -0.459,-0.613 -0.603,-1.017c-0.144,-0.404 -0.216,-0.868 -0.216,-1.392c0,-0.424 0.065,-0.82 0.195,-1.188c0.13,-0.368 0.317,-0.687 0.561,-0.957c0.244,-0.27 0.542,-0.482 0.894,-0.636c0.352,-0.154 0.748,-0.231 1.188,-0.231c0.364,0 0.701,0.061 1.011,0.183c0.31,0.122 0.578,0.298 0.804,0.528c0.226,0.23 0.403,0.514 0.531,0.852c0.128,0.338 0.192,0.723 0.192,1.155c0,0.168 -0.018,0.28 -0.054,0.336c-0.036,0.056 -0.104,0.084 -0.204,0.084l-4.062,0c0.012,0.384 0.065,0.718 0.159,1.002c0.094,0.284 0.225,0.521 0.393,0.711c0.168,0.19 0.368,0.332 0.6,0.426c0.232,0.094 0.492,0.141 0.78,0.141c0.268,0 0.499,-0.031 0.693,-0.093c0.194,-0.062 0.361,-0.129 0.501,-0.201c0.14,-0.072 0.257,-0.139 0.351,-0.201c0.094,-0.062 0.175,-0.093 0.243,-0.093c0.088,0 0.156,0.034 0.204,0.102l0.3,0.39Z" style="fill-rule:nonzero;"/><path d="M219.465,266.627c-0.492,0.016 -0.911,0.055 -1.257,0.117c-0.346,0.062 -0.628,0.143 -0.846,0.243c-0.218,0.1 -0.376,0.218 -0.474,0.354c-0.098,0.136 -0.147,0.288 -0.147,0.456c0,0.16 0.026,0.298 0.078,0.414c0.052,0.116 0.123,0.211 0.213,0.285c0.09,0.074 0.196,0.128 0.318,0.162c0.122,0.034 0.253,0.051 0.393,0.051c0.188,0 0.36,-0.019 0.516,-0.057c0.156,-0.038 0.303,-0.093 0.441,-0.165c0.138,-0.072 0.27,-0.158 0.396,-0.258c0.126,-0.1 0.249,-0.214 0.369,-0.342l0,-1.26Zm-3.45,-2.484c0.336,-0.324 0.698,-0.566 1.086,-0.726c0.388,-0.16 0.818,-0.24 1.29,-0.24c0.34,0 0.642,0.056 0.906,0.168c0.264,0.112 0.486,0.268 0.666,0.468c0.18,0.2 0.316,0.442 0.408,0.726c0.092,0.284 0.138,0.596 0.138,0.936l0,3.888l-0.474,0c-0.104,0 -0.184,-0.017 -0.24,-0.051c-0.056,-0.034 -0.1,-0.101 -0.132,-0.201l-0.12,-0.576c-0.16,0.148 -0.316,0.279 -0.468,0.393c-0.152,0.114 -0.312,0.21 -0.48,0.288c-0.168,0.078 -0.347,0.138 -0.537,0.18c-0.19,0.042 -0.401,0.063 -0.633,0.063c-0.236,0 -0.458,-0.033 -0.666,-0.099c-0.208,-0.066 -0.389,-0.165 -0.543,-0.297c-0.154,-0.132 -0.276,-0.299 -0.366,-0.501c-0.09,-0.202 -0.135,-0.441 -0.135,-0.717c0,-0.24 0.066,-0.471 0.198,-0.693c0.132,-0.222 0.346,-0.419 0.642,-0.591c0.296,-0.172 0.682,-0.313 1.158,-0.423c0.476,-0.11 1.06,-0.173 1.752,-0.189l0,-0.474c0,-0.472 -0.102,-0.829 -0.306,-1.071c-0.204,-0.242 -0.502,-0.363 -0.894,-0.363c-0.264,0 -0.485,0.033 -0.663,0.099c-0.178,0.066 -0.332,0.14 -0.462,0.222c-0.13,0.082 -0.242,0.156 -0.336,0.222c-0.094,0.066 -0.187,0.099 -0.279,0.099c-0.072,0 -0.134,-0.019 -0.186,-0.057c-0.052,-0.038 -0.096,-0.085 -0.132,-0.141l-0.192,-0.342Z" style="fill-rule:nonzero;"/><path d="M223.143,264.167c0.132,-0.148 0.272,-0.282 0.42,-0.402c0.148,-0.12 0.305,-0.223 0.471,-0.309c0.166,-0.086 0.342,-0.152 0.528,-0.198c0.186,-0.046 0.387,-0.069 0.603,-0.069c0.332,0 0.625,0.055 0.879,0.165c0.254,0.11 0.466,0.266 0.636,0.468c0.17,0.202 0.299,0.445 0.387,0.729c0.088,0.284 0.132,0.598 0.132,0.942l0,3.87l-1.074,0l0,-3.87c0,-0.46 -0.105,-0.817 -0.315,-1.071c-0.21,-0.254 -0.529,-0.381 -0.957,-0.381c-0.316,0 -0.611,0.076 -0.885,0.228c-0.274,0.152 -0.527,0.358 -0.759,0.618l0,4.476l-1.074,0l0,-6.078l0.642,0c0.152,0 0.246,0.074 0.282,0.222l0.084,0.66Z" style="fill-rule:nonzero;"/></g><g id="errorbars"><g id="bars1" serif:id="bars"><path d="M107.305,60.398l0,30" style="fill:none;stroke:#000;stroke-width:1.5px;stroke-linejoin:miter;stroke-miterlimit:10;"/><path d="M178.691,60.398l0,30" style="fill:none;stroke:#000;stroke-width:1.5px;stroke-linejoin:miter;stroke-miterlimit:10;"/><path d="M107.305,75.398l71.386,0" style="fill:none;stroke:#000;stroke-width:1.5px;"/><path d="M71.612,36.115l0,20" style="fill:none;stroke:#545454;stroke-width:1px;stroke-linejoin:miter;stroke-miterlimit:10;"/><path d="M214.384,36.115l0,20" style="fill:none;stroke:#545454;stroke-width:1px;stroke-linejoin:miter;stroke-miterlimit:10;"/><path d="M71.612,46.115l142.772,0" style="fill:none;stroke:#545454;stroke-width:1px;"/><path d="M35.919,14.253l0,20" style="fill:none;stroke:#545454;stroke-width:1px;stroke-linejoin:miter;stroke-miterlimit:10;"/><path d="M250.077,14.253l0,20" style="fill:none;stroke:#545454;stroke-width:1px;stroke-linejoin:miter;stroke-miterlimit:10;"/><path d="M35.919,24.253l214.158,0" style="fill:none;stroke:#545454;stroke-width:1px;"/></g><g id="labels"><g transform="matrix(0.24,0,0,0.24,-9.4351,-1.09112)"><g transform="matrix(50,0,0,50,507.639,285.307)"><path d="M0.509,-0.068l0,0.068l-0.384,0l0,-0.068l0.154,0l-0.001,-0.489c0.001,-0.014 0.001,-0.029 0.002,-0.044l-0.128,0.109c-0.004,0.004 -0.008,0.006 -0.013,0.007c-0.004,0.001 -0.008,0.001 -0.012,0.001c-0.003,-0.001 -0.007,-0.003 -0.01,-0.005c-0.003,-0.002 -0.005,-0.004 -0.007,-0.006l-0.028,-0.038l0.213,-0.185l0.073,0l0,0.65l0.141,0Z" style="fill-rule:nonzero;"/></g><g transform="matrix(50,0,0,50,536.639,285.307)"><path d="M0.458,-0.605c-0.003,0.005 -0.006,0.009 -0.01,0.012c-0.003,0.002 -0.008,0.003 -0.013,0.003c-0.005,0 -0.012,-0.002 -0.019,-0.008c-0.008,-0.006 -0.018,-0.012 -0.029,-0.019c-0.012,-0.007 -0.026,-0.013 -0.042,-0.019c-0.016,-0.005 -0.035,-0.008 -0.058,-0.008c-0.022,0 -0.041,0.003 -0.058,0.009c-0.016,0.006 -0.03,0.013 -0.041,0.023c-0.011,0.01 -0.02,0.022 -0.025,0.036c-0.006,0.013 -0.009,0.028 -0.009,0.043c0,0.02 0.005,0.037 0.015,0.05c0.01,0.013 0.023,0.025 0.039,0.034c0.016,0.009 0.034,0.017 0.055,0.024c0.02,0.007 0.041,0.014 0.063,0.021c0.021,0.008 0.042,0.016 0.063,0.025c0.02,0.009 0.039,0.021 0.055,0.035c0.016,0.014 0.029,0.031 0.039,0.051c0.01,0.021 0.015,0.046 0.015,0.075c-0.001,0.032 -0.006,0.061 -0.017,0.089c-0.01,0.027 -0.026,0.051 -0.046,0.071c-0.021,0.021 -0.046,0.037 -0.076,0.048c-0.03,0.012 -0.063,0.018 -0.101,0.018c-0.047,0 -0.09,-0.008 -0.128,-0.025c-0.038,-0.017 -0.07,-0.04 -0.097,-0.069l0.028,-0.046c0.003,-0.003 0.006,-0.006 0.01,-0.009c0.004,-0.002 0.008,-0.004 0.013,-0.004c0.004,0 0.009,0.002 0.014,0.006c0.006,0.003 0.012,0.008 0.019,0.013c0.007,0.005 0.015,0.011 0.024,0.017c0.009,0.007 0.019,0.013 0.031,0.018c0.011,0.005 0.024,0.01 0.039,0.013c0.015,0.004 0.031,0.005 0.05,0.005c0.023,0 0.043,-0.003 0.061,-0.009c0.018,-0.006 0.033,-0.015 0.046,-0.027c0.012,-0.011 0.022,-0.025 0.029,-0.041c0.006,-0.016 0.01,-0.034 0.01,-0.054c-0.001,-0.021 -0.005,-0.039 -0.015,-0.053c-0.01,-0.014 -0.023,-0.025 -0.039,-0.035c-0.016,-0.009 -0.034,-0.017 -0.055,-0.023c-0.021,-0.007 -0.042,-0.013 -0.063,-0.02c-0.021,-0.007 -0.042,-0.015 -0.063,-0.024c-0.021,-0.009 -0.039,-0.021 -0.055,-0.035c-0.016,-0.014 -0.029,-0.032 -0.039,-0.054c-0.01,-0.021 -0.015,-0.048 -0.015,-0.08c0,-0.025 0.005,-0.049 0.015,-0.073c0.01,-0.024 0.024,-0.045 0.043,-0.063c0.019,-0.018 0.042,-0.033 0.07,-0.044c0.027,-0.011 0.059,-0.017 0.094,-0.017c0.041,0 0.077,0.007 0.11,0.019c0.033,0.013 0.061,0.031 0.086,0.055l-0.023,0.046Z" style="fill-rule:nonzero;"/></g><g transform="matrix(50,0,0,50,562.639,285.307)"><path d="M0.226,0.008c-0.04,0 -0.071,-0.011 -0.092,-0.034c-0.022,-0.022 -0.033,-0.054 -0.033,-0.096l0.001,-0.31l-0.062,0c-0.005,0 -0.009,-0.002 -0.013,-0.005c-0.004,-0.003 -0.006,-0.008 -0.006,-0.015l0,-0.035l0.083,-0.011l0.021,-0.156c0.001,-0.005 0.003,-0.009 0.007,-0.012c0.003,-0.003 0.008,-0.005 0.013,-0.005l0.045,0l0.001,0.175l0.146,-0.001l0,0.065l-0.146,0l0,0.304c0,0.021 0.005,0.037 0.015,0.048c0.01,0.01 0.024,0.015 0.04,0.015c0.009,0 0.017,-0.001 0.024,-0.004c0.007,-0.002 0.013,-0.005 0.018,-0.008c0.005,-0.003 0.009,-0.006 0.013,-0.008c0.003,-0.003 0.006,-0.004 0.009,-0.004c0.005,0 0.009,0.003 0.013,0.009l0.026,0.042c-0.016,0.014 -0.034,0.026 -0.056,0.034c-0.022,0.008 -0.044,0.012 -0.067,0.012Z" style="fill-rule:nonzero;"/></g><g transform="matrix(50,0,0,50,580.564,285.307)"><path d="M0.401,-0.386c-0.017,-0.022 -0.035,-0.038 -0.054,-0.047c-0.02,-0.009 -0.041,-0.013 -0.066,-0.013c-0.047,0 -0.083,0.017 -0.108,0.05c-0.025,0.034 -0.038,0.082 -0.038,0.145c0,0.033 0.003,0.061 0.008,0.084c0.006,0.024 0.014,0.043 0.025,0.058c0.011,0.015 0.025,0.026 0.041,0.033c0.016,0.007 0.034,0.011 0.054,0.011c0.03,0 0.055,-0.007 0.077,-0.02c0.022,-0.013 0.042,-0.032 0.06,-0.057l0,-0.244Zm0.089,-0.351l0,0.737l-0.053,0c-0.012,0 -0.02,-0.006 -0.024,-0.018l-0.008,-0.062c-0.021,0.026 -0.046,0.047 -0.074,0.063c-0.027,0.016 -0.059,0.024 -0.096,0.024c-0.029,0 -0.055,-0.006 -0.079,-0.017c-0.023,-0.011 -0.043,-0.027 -0.06,-0.049c-0.017,-0.022 -0.03,-0.049 -0.039,-0.081c-0.009,-0.032 -0.013,-0.069 -0.013,-0.111c0,-0.038 0.005,-0.073 0.015,-0.105c0.01,-0.032 0.024,-0.06 0.043,-0.083c0.019,-0.024 0.042,-0.043 0.069,-0.056c0.027,-0.014 0.057,-0.02 0.091,-0.02c0.031,0 0.058,0.005 0.08,0.015c0.022,0.011 0.042,0.025 0.059,0.044l0,-0.28l0.089,0Z" style="fill-rule:nonzero;"/></g><g transform="matrix(50,0,0,50,621.364,285.307)"><path d="M0.305,-0.667l0.145,0.25l-0.05,0l-0.095,-0.165l-0.095,0.165l-0.048,0l0.143,-0.25Zm0.209,0.304l0,0.05l-0.417,0.001l0.001,-0.051l0.416,0Zm0,0.109l0,0.051l-0.417,0l0,-0.05l0.417,-0.001Z" style="fill-rule:nonzero;"/></g><g transform="matrix(50,0,0,50,664.56,285.307)"><path d="M0.289,-0.066c0.024,0 0.046,-0.004 0.065,-0.011c0.02,-0.008 0.036,-0.019 0.05,-0.033c0.014,-0.013 0.025,-0.029 0.032,-0.048c0.008,-0.019 0.012,-0.039 0.012,-0.061c0,-0.023 -0.004,-0.044 -0.011,-0.063c-0.008,-0.019 -0.018,-0.035 -0.032,-0.048c-0.013,-0.013 -0.029,-0.023 -0.048,-0.03c-0.019,-0.008 -0.039,-0.011 -0.061,-0.011c-0.024,0 -0.046,0.004 -0.065,0.012c-0.02,0.008 -0.036,0.019 -0.05,0.033c-0.013,0.014 -0.024,0.03 -0.031,0.048c-0.007,0.018 -0.01,0.037 -0.01,0.057c0,0.023 0.003,0.044 0.01,0.063c0.006,0.019 0.016,0.035 0.029,0.049c0.013,0.014 0.028,0.024 0.047,0.032c0.018,0.007 0.039,0.011 0.063,0.011Zm-0.052,-0.382c-0.006,0.008 -0.012,0.016 -0.018,0.023c-0.006,0.008 -0.012,0.015 -0.017,0.022c0.017,-0.011 0.036,-0.02 0.056,-0.027c0.02,-0.006 0.043,-0.009 0.067,-0.009c0.029,0 0.056,0.005 0.082,0.014c0.025,0.01 0.048,0.024 0.067,0.042c0.019,0.018 0.034,0.04 0.046,0.067c0.011,0.026 0.017,0.056 0.017,0.09c0,0.033 -0.006,0.064 -0.018,0.092c-0.012,0.029 -0.029,0.053 -0.051,0.074c-0.021,0.021 -0.047,0.038 -0.077,0.05c-0.03,0.012 -0.064,0.018 -0.1,0.018c-0.036,0 -0.069,-0.006 -0.098,-0.017c-0.029,-0.012 -0.054,-0.028 -0.075,-0.049c-0.02,-0.021 -0.036,-0.047 -0.047,-0.077c-0.011,-0.03 -0.017,-0.064 -0.017,-0.102c0,-0.031 0.007,-0.064 0.021,-0.1c0.014,-0.035 0.036,-0.073 0.066,-0.114l0.182,-0.244c0.005,-0.006 0.011,-0.011 0.019,-0.015c0.008,-0.004 0.018,-0.007 0.029,-0.007l0.079,0l-0.213,0.269Z" style="fill-rule:nonzero;"/></g><g transform="matrix(50,0,0,50,693.56,285.307)"><path d="M0.29,-0.063c0.023,0 0.044,-0.003 0.063,-0.01c0.018,-0.006 0.034,-0.015 0.047,-0.027c0.013,-0.012 0.022,-0.026 0.029,-0.043c0.007,-0.016 0.011,-0.035 0.011,-0.055c-0.001,-0.024 -0.005,-0.045 -0.013,-0.063c-0.008,-0.017 -0.019,-0.032 -0.033,-0.042c-0.014,-0.012 -0.029,-0.02 -0.047,-0.025c-0.019,-0.005 -0.037,-0.007 -0.057,-0.008c-0.02,0.001 -0.039,0.003 -0.057,0.008c-0.018,0.005 -0.033,0.014 -0.047,0.025c-0.014,0.01 -0.025,0.025 -0.033,0.042c-0.008,0.018 -0.013,0.039 -0.013,0.064c0,0.02 0.004,0.038 0.011,0.054c0.007,0.017 0.016,0.031 0.029,0.043c0.013,0.012 0.029,0.021 0.047,0.027c0.019,0.007 0.04,0.01 0.063,0.01Zm0,-0.592c-0.021,0 -0.04,0.003 -0.056,0.009c-0.016,0.006 -0.03,0.015 -0.041,0.026c-0.011,0.011 -0.019,0.024 -0.024,0.038c-0.006,0.015 -0.009,0.031 -0.009,0.047c0,0.017 0.003,0.033 0.007,0.048c0.005,0.015 0.013,0.029 0.023,0.041c0.01,0.012 0.024,0.021 0.04,0.028c0.017,0.007 0.037,0.011 0.06,0.011c0.023,0 0.043,-0.004 0.06,-0.011c0.016,-0.007 0.03,-0.016 0.04,-0.028c0.01,-0.012 0.018,-0.026 0.023,-0.041c0.004,-0.015 0.006,-0.031 0.006,-0.048c0,-0.016 -0.002,-0.032 -0.008,-0.047c-0.005,-0.014 -0.013,-0.027 -0.024,-0.038c-0.011,-0.011 -0.025,-0.02 -0.041,-0.026c-0.016,-0.006 -0.035,-0.009 -0.056,-0.009Zm0.102,0.282c0.045,0.012 0.08,0.033 0.103,0.063c0.024,0.03 0.036,0.068 0.036,0.114c0,0.031 -0.005,0.06 -0.017,0.085c-0.012,0.025 -0.029,0.046 -0.05,0.064c-0.021,0.018 -0.046,0.031 -0.076,0.041c-0.03,0.009 -0.062,0.014 -0.098,0.014c-0.036,0 -0.068,-0.005 -0.098,-0.014c-0.03,-0.01 -0.055,-0.023 -0.077,-0.041c-0.021,-0.018 -0.037,-0.039 -0.049,-0.064c-0.012,-0.025 -0.018,-0.054 -0.018,-0.085c0,-0.046 0.012,-0.084 0.036,-0.114c0.024,-0.03 0.059,-0.051 0.103,-0.064c-0.037,-0.014 -0.066,-0.034 -0.085,-0.062c-0.019,-0.028 -0.029,-0.061 -0.029,-0.1c0,-0.026 0.006,-0.051 0.016,-0.074c0.01,-0.023 0.025,-0.043 0.044,-0.06c0.019,-0.017 0.042,-0.03 0.068,-0.04c0.027,-0.01 0.056,-0.015 0.089,-0.015c0.032,0 0.062,0.005 0.088,0.015c0.027,0.01 0.05,0.023 0.069,0.04c0.019,0.017 0.034,0.037 0.044,0.06c0.01,0.023 0.016,0.048 0.016,0.074c0,0.039 -0.01,0.072 -0.029,0.1c-0.019,0.028 -0.048,0.048 -0.085,0.062Z" style="fill-rule:nonzero;"/></g><g transform="matrix(50,0,0,50,722.56,285.307)"><path d="M0.361,-0.544c0,0.029 -0.004,0.054 -0.013,0.076c-0.009,0.022 -0.02,0.041 -0.035,0.056c-0.014,0.015 -0.031,0.027 -0.05,0.035c-0.019,0.008 -0.04,0.012 -0.061,0.012c-0.022,-0.001 -0.043,-0.005 -0.062,-0.013c-0.02,-0.008 -0.037,-0.019 -0.051,-0.034c-0.014,-0.015 -0.025,-0.034 -0.033,-0.056c-0.008,-0.022 -0.012,-0.047 -0.012,-0.075c0,-0.029 0.004,-0.055 0.012,-0.077c0.008,-0.022 0.019,-0.041 0.033,-0.056c0.014,-0.016 0.031,-0.027 0.051,-0.035c0.019,-0.008 0.04,-0.012 0.062,-0.012c0.023,0 0.044,0.004 0.063,0.012c0.019,0.008 0.036,0.019 0.051,0.035c0.014,0.015 0.025,0.034 0.033,0.056c0.008,0.022 0.012,0.048 0.012,0.077Zm-0.069,0c0,-0.022 -0.002,-0.041 -0.007,-0.056c-0.005,-0.016 -0.011,-0.028 -0.019,-0.038c-0.008,-0.01 -0.018,-0.017 -0.029,-0.021c-0.011,-0.005 -0.023,-0.007 -0.035,-0.007c-0.012,0 -0.024,0.002 -0.034,0.007c-0.011,0.004 -0.02,0.011 -0.028,0.021c-0.008,0.01 -0.015,0.022 -0.019,0.038c-0.005,0.015 -0.007,0.034 -0.007,0.056c0,0.021 0.002,0.04 0.007,0.055c0.004,0.015 0.011,0.027 0.019,0.037c0.008,0.009 0.017,0.016 0.028,0.02c0.01,0.004 0.022,0.007 0.034,0.007c0.012,0 0.024,-0.003 0.035,-0.007c0.011,-0.004 0.021,-0.011 0.029,-0.02c0.008,-0.01 0.014,-0.022 0.019,-0.037c0.005,-0.015 0.007,-0.034 0.007,-0.055Zm0.323,-0.158c0.003,-0.005 0.007,-0.008 0.011,-0.011c0.005,-0.003 0.011,-0.004 0.018,-0.004l0.065,0l-0.524,0.702c-0.003,0.004 -0.007,0.007 -0.012,0.01c-0.004,0.003 -0.01,0.004 -0.017,0.004l-0.065,0l0.524,-0.702Zm0.143,0.533c-0.001,0.028 -0.005,0.053 -0.013,0.075c-0.009,0.022 -0.021,0.041 -0.035,0.056c-0.015,0.015 -0.032,0.027 -0.051,0.035c-0.019,0.008 -0.039,0.012 -0.06,0.012c-0.023,0 -0.044,-0.004 -0.063,-0.012c-0.019,-0.008 -0.036,-0.02 -0.05,-0.035c-0.014,-0.015 -0.026,-0.034 -0.034,-0.056c-0.008,-0.022 -0.012,-0.047 -0.012,-0.075c0,-0.029 0.004,-0.054 0.012,-0.077c0.008,-0.022 0.02,-0.041 0.034,-0.056c0.014,-0.016 0.031,-0.027 0.05,-0.035c0.019,-0.009 0.04,-0.013 0.062,-0.012c0.023,-0.001 0.044,0.004 0.063,0.012c0.02,0.008 0.037,0.019 0.051,0.035c0.014,0.015 0.025,0.034 0.033,0.056c0.008,0.023 0.012,0.048 0.012,0.077Zm-0.069,0c0,-0.022 -0.002,-0.041 -0.007,-0.056c-0.004,-0.016 -0.011,-0.028 -0.019,-0.038c-0.008,-0.01 -0.018,-0.017 -0.029,-0.021c-0.011,-0.004 -0.022,-0.006 -0.035,-0.006c-0.012,0 -0.023,0.002 -0.034,0.006c-0.011,0.004 -0.021,0.011 -0.029,0.021c-0.008,0.01 -0.014,0.022 -0.018,0.038c-0.005,0.015 -0.007,0.034 -0.007,0.056c0,0.022 0.002,0.04 0.007,0.055c0.004,0.015 0.01,0.027 0.018,0.037c0.008,0.009 0.018,0.016 0.029,0.02c0.011,0.004 0.022,0.006 0.034,0.007c0.013,-0.001 0.024,-0.003 0.035,-0.007c0.011,-0.004 0.021,-0.011 0.029,-0.02c0.008,-0.01 0.015,-0.022 0.019,-0.037c0.005,-0.015 0.007,-0.033 0.007,-0.055Z" style="fill-rule:nonzero;"/></g></g><g transform="matrix(0.24,0,0,0.24,-45.1281,-26.6633)"><g transform="matrix(50,0,0,50,656.36,285.307)"><path d="M0.494,-0.085c0.009,0.001 0.017,0.003 0.022,0.009c0.006,0.006 0.009,0.013 0.009,0.022l0,0.054l-0.478,0l0,-0.03c0,-0.007 0.001,-0.013 0.004,-0.02c0.003,-0.007 0.007,-0.013 0.013,-0.018l0.229,-0.231c0.019,-0.019 0.036,-0.038 0.052,-0.056c0.016,-0.018 0.029,-0.035 0.04,-0.053c0.011,-0.019 0.02,-0.037 0.026,-0.055c0.006,-0.019 0.009,-0.038 0.009,-0.059c-0.001,-0.021 -0.004,-0.04 -0.01,-0.056c-0.007,-0.016 -0.016,-0.029 -0.028,-0.039c-0.011,-0.01 -0.025,-0.018 -0.04,-0.023c-0.016,-0.005 -0.033,-0.008 -0.051,-0.008c-0.018,0 -0.035,0.003 -0.05,0.008c-0.016,0.005 -0.029,0.013 -0.041,0.022c-0.012,0.01 -0.022,0.021 -0.03,0.034c-0.008,0.013 -0.014,0.027 -0.017,0.043c-0.004,0.012 -0.009,0.019 -0.016,0.023c-0.007,0.004 -0.017,0.005 -0.029,0.004l-0.046,-0.008c0.004,-0.033 0.013,-0.062 0.027,-0.087c0.013,-0.025 0.03,-0.046 0.051,-0.064c0.02,-0.017 0.044,-0.029 0.07,-0.038c0.026,-0.009 0.055,-0.013 0.086,-0.013c0.03,0 0.058,0.004 0.085,0.013c0.026,0.009 0.049,0.022 0.068,0.039c0.019,0.017 0.035,0.038 0.045,0.063c0.011,0.025 0.017,0.053 0.017,0.084c0,0.027 -0.004,0.051 -0.012,0.074c-0.008,0.023 -0.019,0.045 -0.032,0.066c-0.014,0.02 -0.03,0.04 -0.048,0.06c-0.018,0.02 -0.036,0.039 -0.056,0.059l-0.189,0.194c0.013,-0.004 0.026,-0.007 0.04,-0.009c0.014,-0.002 0.027,-0.003 0.04,-0.003l0.239,0Z" style="fill-rule:nonzero;"/></g><g transform="matrix(50,0,0,50,685.36,285.307)"><path d="M0.458,-0.605c-0.003,0.005 -0.006,0.009 -0.01,0.012c-0.003,0.002 -0.008,0.003 -0.013,0.003c-0.005,0 -0.012,-0.002 -0.019,-0.008c-0.008,-0.006 -0.018,-0.012 -0.029,-0.019c-0.012,-0.007 -0.026,-0.013 -0.042,-0.019c-0.016,-0.005 -0.035,-0.008 -0.058,-0.008c-0.022,0 -0.041,0.003 -0.058,0.009c-0.016,0.006 -0.03,0.013 -0.041,0.023c-0.011,0.01 -0.02,0.022 -0.025,0.036c-0.006,0.013 -0.009,0.028 -0.009,0.043c0,0.02 0.005,0.037 0.015,0.05c0.01,0.013 0.023,0.025 0.039,0.034c0.016,0.009 0.034,0.017 0.055,0.024c0.02,0.007 0.041,0.014 0.063,0.021c0.021,0.008 0.042,0.016 0.063,0.025c0.02,0.009 0.039,0.021 0.055,0.035c0.016,0.014 0.029,0.031 0.039,0.051c0.01,0.021 0.015,0.046 0.015,0.075c-0.001,0.032 -0.006,0.061 -0.017,0.089c-0.01,0.027 -0.026,0.051 -0.046,0.071c-0.021,0.021 -0.046,0.037 -0.076,0.048c-0.03,0.012 -0.063,0.018 -0.101,0.018c-0.047,0 -0.09,-0.008 -0.128,-0.025c-0.038,-0.017 -0.07,-0.04 -0.097,-0.069l0.028,-0.046c0.003,-0.003 0.006,-0.006 0.01,-0.009c0.004,-0.002 0.008,-0.004 0.013,-0.004c0.004,0 0.009,0.002 0.014,0.006c0.006,0.003 0.012,0.008 0.019,0.013c0.007,0.005 0.015,0.011 0.024,0.017c0.009,0.007 0.019,0.013 0.031,0.018c0.011,0.005 0.024,0.01 0.039,0.013c0.015,0.004 0.031,0.005 0.05,0.005c0.023,0 0.043,-0.003 0.061,-0.009c0.018,-0.006 0.033,-0.015 0.046,-0.027c0.012,-0.011 0.022,-0.025 0.029,-0.041c0.006,-0.016 0.01,-0.034 0.01,-0.054c-0.001,-0.021 -0.005,-0.039 -0.015,-0.053c-0.01,-0.014 -0.023,-0.025 -0.039,-0.035c-0.016,-0.009 -0.034,-0.017 -0.055,-0.023c-0.021,-0.007 -0.042,-0.013 -0.063,-0.02c-0.021,-0.007 -0.042,-0.015 -0.063,-0.024c-0.021,-0.009 -0.039,-0.021 -0.055,-0.035c-0.016,-0.014 -0.029,-0.032 -0.039,-0.054c-0.01,-0.021 -0.015,-0.048 -0.015,-0.08c0,-0.025 0.005,-0.049 0.015,-0.073c0.01,-0.024 0.024,-0.045 0.043,-0.063c0.019,-0.018 0.042,-0.033 0.07,-0.044c0.027,-0.011 0.059,-0.017 0.094,-0.017c0.041,0 0.077,0.007 0.11,0.019c0.033,0.013 0.061,0.031 0.086,0.055l-0.023,0.046Z" style="fill-rule:nonzero;"/></g><g transform="matrix(50,0,0,50,711.36,285.307)"><path d="M0.226,0.008c-0.04,0 -0.071,-0.011 -0.092,-0.034c-0.022,-0.022 -0.033,-0.054 -0.033,-0.096l0.001,-0.31l-0.062,0c-0.005,0 -0.009,-0.002 -0.013,-0.005c-0.004,-0.003 -0.006,-0.008 -0.006,-0.015l0,-0.035l0.083,-0.011l0.021,-0.156c0.001,-0.005 0.003,-0.009 0.007,-0.012c0.003,-0.003 0.008,-0.005 0.013,-0.005l0.045,0l0.001,0.175l0.146,-0.001l0,0.065l-0.146,0l0,0.304c0,0.021 0.005,0.037 0.015,0.048c0.01,0.01 0.024,0.015 0.04,0.015c0.009,0 0.017,-0.001 0.024,-0.004c0.007,-0.002 0.013,-0.005 0.018,-0.008c0.005,-0.003 0.009,-0.006 0.013,-0.008c0.003,-0.003 0.006,-0.004 0.009,-0.004c0.005,0 0.009,0.003 0.013,0.009l0.026,0.042c-0.016,0.014 -0.034,0.026 -0.056,0.034c-0.022,0.008 -0.044,0.012 -0.067,0.012Z" style="fill-rule:nonzero;"/></g><g transform="matrix(50,0,0,50,729.285,285.307)"><path d="M0.401,-0.386c-0.017,-0.022 -0.035,-0.038 -0.054,-0.047c-0.02,-0.009 -0.041,-0.013 -0.066,-0.013c-0.047,0 -0.083,0.017 -0.108,0.05c-0.025,0.034 -0.038,0.082 -0.038,0.145c0,0.033 0.003,0.061 0.008,0.084c0.006,0.024 0.014,0.043 0.025,0.058c0.011,0.015 0.025,0.026 0.041,0.033c0.016,0.007 0.034,0.011 0.054,0.011c0.03,0 0.055,-0.007 0.077,-0.02c0.022,-0.013 0.042,-0.032 0.06,-0.057l0,-0.244Zm0.089,-0.351l0,0.737l-0.053,0c-0.012,0 -0.02,-0.006 -0.024,-0.018l-0.008,-0.062c-0.021,0.026 -0.046,0.047 -0.074,0.063c-0.027,0.016 -0.059,0.024 -0.096,0.024c-0.029,0 -0.055,-0.006 -0.079,-0.017c-0.023,-0.011 -0.043,-0.027 -0.06,-0.049c-0.017,-0.022 -0.03,-0.049 -0.039,-0.081c-0.009,-0.032 -0.013,-0.069 -0.013,-0.111c0,-0.038 0.005,-0.073 0.015,-0.105c0.01,-0.032 0.024,-0.06 0.043,-0.083c0.019,-0.024 0.042,-0.043 0.069,-0.056c0.027,-0.014 0.057,-0.02 0.091,-0.02c0.031,0 0.058,0.005 0.08,0.015c0.022,0.011 0.042,0.025 0.059,0.044l0,-0.28l0.089,0Z" style="fill-rule:nonzero;"/></g><g transform="matrix(50,0,0,50,770.085,285.307)"><path d="M0.305,-0.667l0.145,0.25l-0.05,0l-0.095,-0.165l-0.095,0.165l-0.048,0l0.143,-0.25Zm0.209,0.304l0,0.05l-0.417,0.001l0.001,-0.051l0.416,0Zm0,0.109l0,0.051l-0.417,0l0,-0.05l0.417,-0.001Z" style="fill-rule:nonzero;"/></g><g transform="matrix(50,0,0,50,813.28,285.307)"><path d="M0.142,-0.506c-0.001,0.023 0.003,0.043 0.009,0.061c0.007,0.018 0.016,0.033 0.028,0.045c0.012,0.012 0.027,0.022 0.045,0.028c0.017,0.006 0.037,0.01 0.058,0.01c0.024,-0.001 0.046,-0.004 0.064,-0.012c0.019,-0.008 0.034,-0.019 0.047,-0.032c0.013,-0.013 0.022,-0.027 0.029,-0.044c0.007,-0.018 0.01,-0.035 0.01,-0.054c0,-0.022 -0.004,-0.042 -0.011,-0.06c-0.007,-0.018 -0.017,-0.034 -0.03,-0.046c-0.012,-0.013 -0.027,-0.023 -0.045,-0.03c-0.017,-0.007 -0.037,-0.01 -0.058,-0.01c-0.022,0 -0.042,0.004 -0.06,0.011c-0.018,0.007 -0.033,0.017 -0.046,0.03c-0.013,0.012 -0.023,0.027 -0.03,0.045c-0.007,0.018 -0.011,0.037 -0.011,0.058Zm0.209,0.22c0.007,-0.009 0.014,-0.018 0.02,-0.027c0.006,-0.009 0.012,-0.017 0.018,-0.026c-0.018,0.015 -0.039,0.026 -0.062,0.034c-0.023,0.007 -0.047,0.011 -0.073,0.011c-0.027,0 -0.053,-0.004 -0.077,-0.013c-0.024,-0.009 -0.045,-0.023 -0.064,-0.04c-0.018,-0.018 -0.032,-0.039 -0.043,-0.065c-0.011,-0.025 -0.017,-0.054 -0.017,-0.087c0,-0.032 0.006,-0.061 0.018,-0.088c0.012,-0.028 0.028,-0.052 0.049,-0.072c0.021,-0.02 0.046,-0.036 0.075,-0.048c0.029,-0.012 0.061,-0.017 0.095,-0.017c0.035,0 0.066,0.005 0.094,0.017c0.028,0.011 0.052,0.027 0.072,0.047c0.02,0.02 0.035,0.045 0.046,0.073c0.011,0.028 0.016,0.06 0.016,0.094c0,0.021 -0.001,0.04 -0.005,0.059c-0.004,0.018 -0.01,0.036 -0.017,0.054c-0.007,0.018 -0.016,0.036 -0.026,0.053c-0.01,0.018 -0.022,0.036 -0.035,0.054l-0.174,0.252c-0.005,0.006 -0.011,0.011 -0.019,0.015c-0.008,0.004 -0.017,0.006 -0.027,0.006l-0.082,0l0.218,-0.285Z" style="fill-rule:nonzero;"/></g><g transform="matrix(50,0,0,50,842.28,285.307)"><path d="M0.181,-0.446c0.037,-0.008 0.072,-0.012 0.103,-0.012c0.037,0 0.07,0.006 0.099,0.017c0.029,0.01 0.053,0.026 0.072,0.045c0.019,0.019 0.033,0.042 0.043,0.069c0.01,0.026 0.015,0.054 0.015,0.086c0,0.037 -0.007,0.072 -0.02,0.102c-0.013,0.031 -0.031,0.057 -0.054,0.079c-0.023,0.022 -0.051,0.039 -0.082,0.05c-0.031,0.012 -0.065,0.018 -0.101,0.018c-0.021,0 -0.042,-0.002 -0.061,-0.006c-0.019,-0.004 -0.037,-0.01 -0.054,-0.017c-0.017,-0.007 -0.033,-0.015 -0.047,-0.024c-0.014,-0.009 -0.027,-0.019 -0.038,-0.029l0.027,-0.038c0.006,-0.008 0.014,-0.013 0.024,-0.013c0.007,0 0.014,0.003 0.022,0.008c0.009,0.005 0.019,0.011 0.031,0.017c0.012,0.007 0.026,0.013 0.042,0.018c0.016,0.005 0.036,0.007 0.058,0.007c0.025,0 0.047,-0.004 0.068,-0.012c0.019,-0.008 0.037,-0.019 0.051,-0.034c0.014,-0.015 0.025,-0.032 0.033,-0.053c0.008,-0.021 0.011,-0.044 0.011,-0.07c0,-0.022 -0.003,-0.042 -0.009,-0.06c-0.007,-0.018 -0.017,-0.033 -0.03,-0.046c-0.013,-0.013 -0.029,-0.023 -0.049,-0.03c-0.02,-0.007 -0.043,-0.01 -0.069,-0.01c-0.018,0 -0.037,0.002 -0.056,0.005c-0.02,0.003 -0.04,0.007 -0.06,0.014l-0.056,-0.017l0.057,-0.335l0.34,0.001l0,0.039c0,0.012 -0.004,0.023 -0.012,0.031c-0.008,0.008 -0.021,0.012 -0.04,0.012l-0.225,0l-0.033,0.188Z" style="fill-rule:nonzero;"/></g><g transform="matrix(50,0,0,50,871.28,285.307)"><path d="M0.361,-0.544c0,0.029 -0.004,0.054 -0.013,0.076c-0.009,0.022 -0.02,0.041 -0.035,0.056c-0.014,0.015 -0.031,0.027 -0.05,0.035c-0.019,0.008 -0.04,0.012 -0.061,0.012c-0.022,-0.001 -0.043,-0.005 -0.062,-0.013c-0.02,-0.008 -0.037,-0.019 -0.051,-0.034c-0.014,-0.015 -0.025,-0.034 -0.033,-0.056c-0.008,-0.022 -0.012,-0.047 -0.012,-0.075c0,-0.029 0.004,-0.055 0.012,-0.077c0.008,-0.022 0.019,-0.041 0.033,-0.056c0.014,-0.016 0.031,-0.027 0.051,-0.035c0.019,-0.008 0.04,-0.012 0.062,-0.012c0.023,0 0.044,0.004 0.063,0.012c0.019,0.008 0.036,0.019 0.051,0.035c0.014,0.015 0.025,0.034 0.033,0.056c0.008,0.022 0.012,0.048 0.012,0.077Zm-0.069,0c0,-0.022 -0.002,-0.041 -0.007,-0.056c-0.005,-0.016 -0.011,-0.028 -0.019,-0.038c-0.008,-0.01 -0.018,-0.017 -0.029,-0.021c-0.011,-0.005 -0.023,-0.007 -0.035,-0.007c-0.012,0 -0.024,0.002 -0.034,0.007c-0.011,0.004 -0.02,0.011 -0.028,0.021c-0.008,0.01 -0.015,0.022 -0.019,0.038c-0.005,0.015 -0.007,0.034 -0.007,0.056c0,0.021 0.002,0.04 0.007,0.055c0.004,0.015 0.011,0.027 0.019,0.037c0.008,0.009 0.017,0.016 0.028,0.02c0.01,0.004 0.022,0.007 0.034,0.007c0.012,0 0.024,-0.003 0.035,-0.007c0.011,-0.004 0.021,-0.011 0.029,-0.02c0.008,-0.01 0.014,-0.022 0.019,-0.037c0.005,-0.015 0.007,-0.034 0.007,-0.055Zm0.323,-0.158c0.003,-0.005 0.007,-0.008 0.011,-0.011c0.005,-0.003 0.011,-0.004 0.018,-0.004l0.065,0l-0.524,0.702c-0.003,0.004 -0.007,0.007 -0.012,0.01c-0.004,0.003 -0.01,0.004 -0.017,0.004l-0.065,0l0.524,-0.702Zm0.143,0.533c-0.001,0.028 -0.005,0.053 -0.013,0.075c-0.009,0.022 -0.021,0.041 -0.035,0.056c-0.015,0.015 -0.032,0.027 -0.051,0.035c-0.019,0.008 -0.039,0.012 -0.06,0.012c-0.023,0 -0.044,-0.004 -0.063,-0.012c-0.019,-0.008 -0.036,-0.02 -0.05,-0.035c-0.014,-0.015 -0.026,-0.034 -0.034,-0.056c-0.008,-0.022 -0.012,-0.047 -0.012,-0.075c0,-0.029 0.004,-0.054 0.012,-0.077c0.008,-0.022 0.02,-0.041 0.034,-0.056c0.014,-0.016 0.031,-0.027 0.05,-0.035c0.019,-0.009 0.04,-0.013 0.062,-0.012c0.023,-0.001 0.044,0.004 0.063,0.012c0.02,0.008 0.037,0.019 0.051,0.035c0.014,0.015 0.025,0.034 0.033,0.056c0.008,0.023 0.012,0.048 0.012,0.077Zm-0.069,0c0,-0.022 -0.002,-0.041 -0.007,-0.056c-0.004,-0.016 -0.011,-0.028 -0.019,-0.038c-0.008,-0.01 -0.018,-0.017 -0.029,-0.021c-0.011,-0.004 -0.022,-0.006 -0.035,-0.006c-0.012,0 -0.023,0.002 -0.034,0.006c-0.011,0.004 -0.021,0.011 -0.029,0.021c-0.008,0.01 -0.014,0.022 -0.018,0.038c-0.005,0.015 -0.007,0.034 -0.007,0.056c0,0.022 0.002,0.04 0.007,0.055c0.004,0.015 0.01,0.027 0.018,0.037c0.008,0.009 0.018,0.016 0.029,0.02c0.011,0.004 0.022,0.006 0.034,0.007c0.013,-0.001 0.024,-0.003 0.035,-0.007c0.011,-0.004 0.021,-0.011 0.029,-0.02c0.008,-0.01 0.015,-0.022 0.019,-0.037c0.005,-0.015 0.007,-0.033 0.007,-0.055Z" style="fill-rule:nonzero;"/></g></g><g transform="matrix(0.24,0,0,0.24,-45.1281,-52.2356)"><g transform="matrix(50,0,0,50,635.96,285.307)"><path d="M0.065,-0.523c0.005,-0.032 0.014,-0.061 0.027,-0.086c0.013,-0.025 0.03,-0.046 0.051,-0.064c0.02,-0.017 0.044,-0.029 0.07,-0.038c0.027,-0.009 0.055,-0.013 0.086,-0.013c0.03,0 0.058,0.004 0.084,0.013c0.026,0.008 0.048,0.021 0.066,0.037c0.019,0.016 0.033,0.035 0.043,0.057c0.011,0.023 0.016,0.048 0.016,0.076c0,0.023 -0.003,0.043 -0.009,0.061c-0.006,0.018 -0.014,0.033 -0.025,0.047c-0.011,0.013 -0.024,0.024 -0.039,0.034c-0.015,0.009 -0.032,0.017 -0.051,0.023c0.046,0.012 0.081,0.032 0.105,0.061c0.023,0.029 0.035,0.066 0.035,0.109c0,0.034 -0.006,0.063 -0.019,0.09c-0.012,0.026 -0.029,0.048 -0.051,0.067c-0.022,0.018 -0.047,0.032 -0.076,0.042c-0.029,0.01 -0.059,0.015 -0.092,0.015c-0.039,0 -0.071,-0.005 -0.098,-0.014c-0.027,-0.01 -0.05,-0.023 -0.069,-0.039c-0.018,-0.017 -0.034,-0.037 -0.046,-0.06c-0.012,-0.023 -0.022,-0.047 -0.03,-0.074l0.038,-0.016c0.01,-0.004 0.02,-0.006 0.03,-0.004c0.009,0.003 0.016,0.008 0.02,0.017c0.005,0.009 0.01,0.02 0.017,0.034c0.006,0.013 0.015,0.025 0.026,0.037c0.012,0.012 0.026,0.022 0.044,0.03c0.017,0.009 0.039,0.013 0.067,0.013c0.025,0 0.046,-0.004 0.065,-0.012c0.019,-0.008 0.035,-0.019 0.047,-0.032c0.013,-0.013 0.022,-0.027 0.028,-0.044c0.007,-0.016 0.01,-0.031 0.01,-0.047c0,-0.019 -0.003,-0.037 -0.008,-0.053c-0.005,-0.016 -0.014,-0.03 -0.028,-0.042c-0.013,-0.011 -0.032,-0.02 -0.056,-0.027c-0.024,-0.007 -0.054,-0.01 -0.092,-0.01l0.001,-0.065c0.03,0 0.056,-0.003 0.078,-0.01c0.021,-0.006 0.039,-0.014 0.052,-0.026c0.014,-0.011 0.024,-0.024 0.03,-0.039c0.006,-0.015 0.009,-0.032 0.009,-0.051c0,-0.021 -0.003,-0.039 -0.01,-0.054c-0.006,-0.015 -0.015,-0.028 -0.027,-0.038c-0.011,-0.01 -0.024,-0.017 -0.04,-0.022c-0.015,-0.005 -0.032,-0.008 -0.05,-0.008c-0.018,0 -0.035,0.003 -0.05,0.008c-0.016,0.005 -0.029,0.013 -0.041,0.022c-0.012,0.01 -0.022,0.021 -0.03,0.034c-0.008,0.013 -0.014,0.027 -0.017,0.043c-0.004,0.012 -0.01,0.019 -0.016,0.023c-0.007,0.004 -0.016,0.005 -0.029,0.004l-0.046,-0.008Z" style="fill-rule:nonzero;"/></g><g transform="matrix(50,0,0,50,664.96,285.307)"><path d="M0.458,-0.605c-0.003,0.005 -0.006,0.009 -0.01,0.012c-0.003,0.002 -0.008,0.003 -0.013,0.003c-0.005,0 -0.012,-0.002 -0.019,-0.008c-0.008,-0.006 -0.018,-0.012 -0.029,-0.019c-0.012,-0.007 -0.026,-0.013 -0.042,-0.019c-0.016,-0.005 -0.035,-0.008 -0.058,-0.008c-0.022,0 -0.041,0.003 -0.058,0.009c-0.016,0.006 -0.03,0.013 -0.041,0.023c-0.011,0.01 -0.02,0.022 -0.025,0.036c-0.006,0.013 -0.009,0.028 -0.009,0.043c0,0.02 0.005,0.037 0.015,0.05c0.01,0.013 0.023,0.025 0.039,0.034c0.016,0.009 0.034,0.017 0.055,0.024c0.02,0.007 0.041,0.014 0.063,0.021c0.021,0.008 0.042,0.016 0.063,0.025c0.02,0.009 0.039,0.021 0.055,0.035c0.016,0.014 0.029,0.031 0.039,0.051c0.01,0.021 0.015,0.046 0.015,0.075c-0.001,0.032 -0.006,0.061 -0.017,0.089c-0.01,0.027 -0.026,0.051 -0.046,0.071c-0.021,0.021 -0.046,0.037 -0.076,0.048c-0.03,0.012 -0.063,0.018 -0.101,0.018c-0.047,0 -0.09,-0.008 -0.128,-0.025c-0.038,-0.017 -0.07,-0.04 -0.097,-0.069l0.028,-0.046c0.003,-0.003 0.006,-0.006 0.01,-0.009c0.004,-0.002 0.008,-0.004 0.013,-0.004c0.004,0 0.009,0.002 0.014,0.006c0.006,0.003 0.012,0.008 0.019,0.013c0.007,0.005 0.015,0.011 0.024,0.017c0.009,0.007 0.019,0.013 0.031,0.018c0.011,0.005 0.024,0.01 0.039,0.013c0.015,0.004 0.031,0.005 0.05,0.005c0.023,0 0.043,-0.003 0.061,-0.009c0.018,-0.006 0.033,-0.015 0.046,-0.027c0.012,-0.011 0.022,-0.025 0.029,-0.041c0.006,-0.016 0.01,-0.034 0.01,-0.054c-0.001,-0.021 -0.005,-0.039 -0.015,-0.053c-0.01,-0.014 -0.023,-0.025 -0.039,-0.035c-0.016,-0.009 -0.034,-0.017 -0.055,-0.023c-0.021,-0.007 -0.042,-0.013 -0.063,-0.02c-0.021,-0.007 -0.042,-0.015 -0.063,-0.024c-0.021,-0.009 -0.039,-0.021 -0.055,-0.035c-0.016,-0.014 -0.029,-0.032 -0.039,-0.054c-0.01,-0.021 -0.015,-0.048 -0.015,-0.08c0,-0.025 0.005,-0.049 0.015,-0.073c0.01,-0.024 0.024,-0.045 0.043,-0.063c0.019,-0.018 0.042,-0.033 0.07,-0.044c0.027,-0.011 0.059,-0.017 0.094,-0.017c0.041,0 0.077,0.007 0.11,0.019c0.033,0.013 0.061,0.031 0.086,0.055l-0.023,0.046Z" style="fill-rule:nonzero;"/></g><g transform="matrix(50,0,0,50,690.96,285.307)"><path d="M0.226,0.008c-0.04,0 -0.071,-0.011 -0.092,-0.034c-0.022,-0.022 -0.033,-0.054 -0.033,-0.096l0.001,-0.31l-0.062,0c-0.005,0 -0.009,-0.002 -0.013,-0.005c-0.004,-0.003 -0.006,-0.008 -0.006,-0.015l0,-0.035l0.083,-0.011l0.021,-0.156c0.001,-0.005 0.003,-0.009 0.007,-0.012c0.003,-0.003 0.008,-0.005 0.013,-0.005l0.045,0l0.001,0.175l0.146,-0.001l0,0.065l-0.146,0l0,0.304c0,0.021 0.005,0.037 0.015,0.048c0.01,0.01 0.024,0.015 0.04,0.015c0.009,0 0.017,-0.001 0.024,-0.004c0.007,-0.002 0.013,-0.005 0.018,-0.008c0.005,-0.003 0.009,-0.006 0.013,-0.008c0.003,-0.003 0.006,-0.004 0.009,-0.004c0.005,0 0.009,0.003 0.013,0.009l0.026,0.042c-0.016,0.014 -0.034,0.026 -0.056,0.034c-0.022,0.008 -0.044,0.012 -0.067,0.012Z" style="fill-rule:nonzero;"/></g><g transform="matrix(50,0,0,50,708.885,285.307)"><path d="M0.401,-0.386c-0.017,-0.022 -0.035,-0.038 -0.054,-0.047c-0.02,-0.009 -0.041,-0.013 -0.066,-0.013c-0.047,0 -0.083,0.017 -0.108,0.05c-0.025,0.034 -0.038,0.082 -0.038,0.145c0,0.033 0.003,0.061 0.008,0.084c0.006,0.024 0.014,0.043 0.025,0.058c0.011,0.015 0.025,0.026 0.041,0.033c0.016,0.007 0.034,0.011 0.054,0.011c0.03,0 0.055,-0.007 0.077,-0.02c0.022,-0.013 0.042,-0.032 0.06,-0.057l0,-0.244Zm0.089,-0.351l0,0.737l-0.053,0c-0.012,0 -0.02,-0.006 -0.024,-0.018l-0.008,-0.062c-0.021,0.026 -0.046,0.047 -0.074,0.063c-0.027,0.016 -0.059,0.024 -0.096,0.024c-0.029,0 -0.055,-0.006 -0.079,-0.017c-0.023,-0.011 -0.043,-0.027 -0.06,-0.049c-0.017,-0.022 -0.03,-0.049 -0.039,-0.081c-0.009,-0.032 -0.013,-0.069 -0.013,-0.111c0,-0.038 0.005,-0.073 0.015,-0.105c0.01,-0.032 0.024,-0.06 0.043,-0.083c0.019,-0.024 0.042,-0.043 0.069,-0.056c0.027,-0.014 0.057,-0.02 0.091,-0.02c0.031,0 0.058,0.005 0.08,0.015c0.022,0.011 0.042,0.025 0.059,0.044l0,-0.28l0.089,0Z" style="fill-rule:nonzero;"/></g><g transform="matrix(50,0,0,50,749.685,285.307)"><path d="M0.305,-0.667l0.145,0.25l-0.05,0l-0.095,-0.165l-0.095,0.165l-0.048,0l0.143,-0.25Zm0.209,0.304l0,0.05l-0.417,0.001l0.001,-0.051l0.416,0Zm0,0.109l0,0.051l-0.417,0l0,-0.05l0.417,-0.001Z" style="fill-rule:nonzero;"/></g><g transform="matrix(50,0,0,50,792.88,285.307)"><path d="M0.142,-0.506c-0.001,0.023 0.003,0.043 0.009,0.061c0.007,0.018 0.016,0.033 0.028,0.045c0.012,0.012 0.027,0.022 0.045,0.028c0.017,0.006 0.037,0.01 0.058,0.01c0.024,-0.001 0.046,-0.004 0.064,-0.012c0.019,-0.008 0.034,-0.019 0.047,-0.032c0.013,-0.013 0.022,-0.027 0.029,-0.044c0.007,-0.018 0.01,-0.035 0.01,-0.054c0,-0.022 -0.004,-0.042 -0.011,-0.06c-0.007,-0.018 -0.017,-0.034 -0.03,-0.046c-0.012,-0.013 -0.027,-0.023 -0.045,-0.03c-0.017,-0.007 -0.037,-0.01 -0.058,-0.01c-0.022,0 -0.042,0.004 -0.06,0.011c-0.018,0.007 -0.033,0.017 -0.046,0.03c-0.013,0.012 -0.023,0.027 -0.03,0.045c-0.007,0.018 -0.011,0.037 -0.011,0.058Zm0.209,0.22c0.007,-0.009 0.014,-0.018 0.02,-0.027c0.006,-0.009 0.012,-0.017 0.018,-0.026c-0.018,0.015 -0.039,0.026 -0.062,0.034c-0.023,0.007 -0.047,0.011 -0.073,0.011c-0.027,0 -0.053,-0.004 -0.077,-0.013c-0.024,-0.009 -0.045,-0.023 -0.064,-0.04c-0.018,-0.018 -0.032,-0.039 -0.043,-0.065c-0.011,-0.025 -0.017,-0.054 -0.017,-0.087c0,-0.032 0.006,-0.061 0.018,-0.088c0.012,-0.028 0.028,-0.052 0.049,-0.072c0.021,-0.02 0.046,-0.036 0.075,-0.048c0.029,-0.012 0.061,-0.017 0.095,-0.017c0.035,0 0.066,0.005 0.094,0.017c0.028,0.011 0.052,0.027 0.072,0.047c0.02,0.02 0.035,0.045 0.046,0.073c0.011,0.028 0.016,0.06 0.016,0.094c0,0.021 -0.001,0.04 -0.005,0.059c-0.004,0.018 -0.01,0.036 -0.017,0.054c-0.007,0.018 -0.016,0.036 -0.026,0.053c-0.01,0.018 -0.022,0.036 -0.035,0.054l-0.174,0.252c-0.005,0.006 -0.011,0.011 -0.019,0.015c-0.008,0.004 -0.017,0.006 -0.027,0.006l-0.082,0l0.218,-0.285Z" style="fill-rule:nonzero;"/></g><g transform="matrix(50,0,0,50,821.88,285.307)"><path d="M0.142,-0.506c-0.001,0.023 0.003,0.043 0.009,0.061c0.007,0.018 0.016,0.033 0.028,0.045c0.012,0.012 0.027,0.022 0.045,0.028c0.017,0.006 0.037,0.01 0.058,0.01c0.024,-0.001 0.046,-0.004 0.064,-0.012c0.019,-0.008 0.034,-0.019 0.047,-0.032c0.013,-0.013 0.022,-0.027 0.029,-0.044c0.007,-0.018 0.01,-0.035 0.01,-0.054c0,-0.022 -0.004,-0.042 -0.011,-0.06c-0.007,-0.018 -0.017,-0.034 -0.03,-0.046c-0.012,-0.013 -0.027,-0.023 -0.045,-0.03c-0.017,-0.007 -0.037,-0.01 -0.058,-0.01c-0.022,0 -0.042,0.004 -0.06,0.011c-0.018,0.007 -0.033,0.017 -0.046,0.03c-0.013,0.012 -0.023,0.027 -0.03,0.045c-0.007,0.018 -0.011,0.037 -0.011,0.058Zm0.209,0.22c0.007,-0.009 0.014,-0.018 0.02,-0.027c0.006,-0.009 0.012,-0.017 0.018,-0.026c-0.018,0.015 -0.039,0.026 -0.062,0.034c-0.023,0.007 -0.047,0.011 -0.073,0.011c-0.027,0 -0.053,-0.004 -0.077,-0.013c-0.024,-0.009 -0.045,-0.023 -0.064,-0.04c-0.018,-0.018 -0.032,-0.039 -0.043,-0.065c-0.011,-0.025 -0.017,-0.054 -0.017,-0.087c0,-0.032 0.006,-0.061 0.018,-0.088c0.012,-0.028 0.028,-0.052 0.049,-0.072c0.021,-0.02 0.046,-0.036 0.075,-0.048c0.029,-0.012 0.061,-0.017 0.095,-0.017c0.035,0 0.066,0.005 0.094,0.017c0.028,0.011 0.052,0.027 0.072,0.047c0.02,0.02 0.035,0.045 0.046,0.073c0.011,0.028 0.016,0.06 0.016,0.094c0,0.021 -0.001,0.04 -0.005,0.059c-0.004,0.018 -0.01,0.036 -0.017,0.054c-0.007,0.018 -0.016,0.036 -0.026,0.053c-0.01,0.018 -0.022,0.036 -0.035,0.054l-0.174,0.252c-0.005,0.006 -0.011,0.011 -0.019,0.015c-0.008,0.004 -0.017,0.006 -0.027,0.006l-0.082,0l0.218,-0.285Z" style="fill-rule:nonzero;"/></g><g transform="matrix(50,0,0,50,850.88,285.307)"><path d="M0.056,-0.055c-0.001,-0.009 0.001,-0.017 0.004,-0.025c0.003,-0.007 0.008,-0.014 0.013,-0.02c0.006,-0.005 0.012,-0.01 0.02,-0.013c0.008,-0.003 0.016,-0.005 0.025,-0.005c0.008,0 0.016,0.002 0.024,0.005c0.008,0.003 0.014,0.008 0.02,0.013c0.006,0.006 0.01,0.013 0.014,0.021c0.003,0.007 0.005,0.015 0.005,0.024c-0.001,0.009 -0.002,0.017 -0.005,0.025c-0.004,0.007 -0.008,0.014 -0.014,0.019c-0.006,0.006 -0.012,0.011 -0.02,0.014c-0.008,0.003 -0.016,0.004 -0.024,0.004c-0.009,0 -0.017,-0.001 -0.025,-0.004c-0.008,-0.003 -0.014,-0.008 -0.02,-0.014c-0.005,-0.005 -0.01,-0.012 -0.013,-0.019c-0.003,-0.008 -0.004,-0.016 -0.004,-0.025Z" style="fill-rule:nonzero;"/></g><g transform="matrix(50,0,0,50,862.68,285.307)"><path d="M0.541,-0.717l-0.001,0.04c0,0.012 -0.001,0.021 -0.003,0.028c-0.003,0.008 -0.005,0.014 -0.008,0.019l-0.297,0.598c-0.004,0.009 -0.01,0.017 -0.018,0.023c-0.007,0.006 -0.017,0.009 -0.03,0.009l-0.064,0l0.301,-0.591c0.004,-0.008 0.009,-0.016 0.013,-0.023c0.005,-0.007 0.01,-0.014 0.015,-0.02l-0.374,0c-0.005,0 -0.01,-0.002 -0.015,-0.007c-0.004,-0.004 -0.006,-0.009 -0.006,-0.015l0,-0.061l0.486,0Z" style="fill-rule:nonzero;"/></g><g transform="matrix(50,0,0,50,891.68,285.307)"><path d="M0.361,-0.544c0,0.029 -0.004,0.054 -0.013,0.076c-0.009,0.022 -0.02,0.041 -0.035,0.056c-0.014,0.015 -0.031,0.027 -0.05,0.035c-0.019,0.008 -0.04,0.012 -0.061,0.012c-0.022,-0.001 -0.043,-0.005 -0.062,-0.013c-0.02,-0.008 -0.037,-0.019 -0.051,-0.034c-0.014,-0.015 -0.025,-0.034 -0.033,-0.056c-0.008,-0.022 -0.012,-0.047 -0.012,-0.075c0,-0.029 0.004,-0.055 0.012,-0.077c0.008,-0.022 0.019,-0.041 0.033,-0.056c0.014,-0.016 0.031,-0.027 0.051,-0.035c0.019,-0.008 0.04,-0.012 0.062,-0.012c0.023,0 0.044,0.004 0.063,0.012c0.019,0.008 0.036,0.019 0.051,0.035c0.014,0.015 0.025,0.034 0.033,0.056c0.008,0.022 0.012,0.048 0.012,0.077Zm-0.069,0c0,-0.022 -0.002,-0.041 -0.007,-0.056c-0.005,-0.016 -0.011,-0.028 -0.019,-0.038c-0.008,-0.01 -0.018,-0.017 -0.029,-0.021c-0.011,-0.005 -0.023,-0.007 -0.035,-0.007c-0.012,0 -0.024,0.002 -0.034,0.007c-0.011,0.004 -0.02,0.011 -0.028,0.021c-0.008,0.01 -0.015,0.022 -0.019,0.038c-0.005,0.015 -0.007,0.034 -0.007,0.056c0,0.021 0.002,0.04 0.007,0.055c0.004,0.015 0.011,0.027 0.019,0.037c0.008,0.009 0.017,0.016 0.028,0.02c0.01,0.004 0.022,0.007 0.034,0.007c0.012,0 0.024,-0.003 0.035,-0.007c0.011,-0.004 0.021,-0.011 0.029,-0.02c0.008,-0.01 0.014,-0.022 0.019,-0.037c0.005,-0.015 0.007,-0.034 0.007,-0.055Zm0.323,-0.158c0.003,-0.005 0.007,-0.008 0.011,-0.011c0.005,-0.003 0.011,-0.004 0.018,-0.004l0.065,0l-0.524,0.702c-0.003,0.004 -0.007,0.007 -0.012,0.01c-0.004,0.003 -0.01,0.004 -0.017,0.004l-0.065,0l0.524,-0.702Zm0.143,0.533c-0.001,0.028 -0.005,0.053 -0.013,0.075c-0.009,0.022 -0.021,0.041 -0.035,0.056c-0.015,0.015 -0.032,0.027 -0.051,0.035c-0.019,0.008 -0.039,0.012 -0.06,0.012c-0.023,0 -0.044,-0.004 -0.063,-0.012c-0.019,-0.008 -0.036,-0.02 -0.05,-0.035c-0.014,-0.015 -0.026,-0.034 -0.034,-0.056c-0.008,-0.022 -0.012,-0.047 -0.012,-0.075c0,-0.029 0.004,-0.054 0.012,-0.077c0.008,-0.022 0.02,-0.041 0.034,-0.056c0.014,-0.016 0.031,-0.027 0.05,-0.035c0.019,-0.009 0.04,-0.013 0.062,-0.012c0.023,-0.001 0.044,0.004 0.063,0.012c0.02,0.008 0.037,0.019 0.051,0.035c0.014,0.015 0.025,0.034 0.033,0.056c0.008,0.023 0.012,0.048 0.012,0.077Zm-0.069,0c0,-0.022 -0.002,-0.041 -0.007,-0.056c-0.004,-0.016 -0.011,-0.028 -0.019,-0.038c-0.008,-0.01 -0.018,-0.017 -0.029,-0.021c-0.011,-0.004 -0.022,-0.006 -0.035,-0.006c-0.012,0 -0.023,0.002 -0.034,0.006c-0.011,0.004 -0.021,0.011 -0.029,0.021c-0.008,0.01 -0.014,0.022 -0.018,0.038c-0.005,0.015 -0.007,0.034 -0.007,0.056c0,0.022 0.002,0.04 0.007,0.055c0.004,0.015 0.01,0.027 0.018,0.037c0.008,0.009 0.018,0.016 0.029,0.02c0.011,0.004 0.022,0.006 0.034,0.007c0.013,-0.001 0.024,-0.003 0.035,-0.007c0.011,-0.004 0.021,-0.011 0.029,-0.02c0.008,-0.01 0.015,-0.022 0.019,-0.037c0.005,-0.015 0.007,-0.033 0.007,-0.055Z" style="fill-rule:nonzero;"/></g></g></g></g></g></svg>