<?xml version="1.0" encoding="UTF-8" standalone="no"?><!DOCTYPE svg PUBLIC "-//W3C//DTD SVG 1.1//EN" "http://www.w3.org/Graphics/SVG/1.1/DTD/svg11.dtd"><svg width="100%" height="100%" viewBox="0 0 168 120" version="1.1" xmlns="http://www.w3.org/2000/svg" xmlns:xlink="http://www.w3.org/1999/xlink" xml:space="preserve" xmlns:serif="http://www.serif.com/" style="fill-rule:evenodd;clip-rule:evenodd;stroke-linecap:round;stroke-linejoin:round;stroke-miterlimit:1.5;"><g><circle cx="85" cy="24.894" r="22.447" style="fill:none;stroke:#636363;stroke-width:1.5px;"/><g><circle cx="85" cy="87.013" r="22.447" style="fill:none;stroke:#636363;stroke-width:1.5px;"/><path d="M93.819,99.658c0.054,0.749 0.68,1.34 1.442,1.34c0.477,0.102 0.782,-0.174 1.054,-0.304c0.525,-0.251 0.64,-0.828 0.659,-1.621c0.006,-0.26 -0.138,-0.592 -0.329,-1.031c-0.302,-0.691 -1.07,-1.744 -1.967,-2.792c-1.297,-1.517 -2.932,-2.958 -3.009,-3.067c-3.01,-3.989 -5.4,-6.915 -7.963,-9.698c-1.619,-1.759 -3.272,-3.492 -5.235,-5.361c-0.579,-0.552 -1.188,-1.105 -1.84,-1.67c-0.605,-0.526 -1.245,-1.036 -1.913,-1.591c-0.556,-0.573 -1.472,-0.586 -2.045,-0.03c-0.572,0.556 -0.585,1.473 -0.029,2.045c0.651,0.824 1.241,1.607 1.851,2.341c0.661,0.796 1.311,1.532 1.945,2.237c2.109,2.345 3.989,4.351 5.869,6.561c1.885,2.214 3.815,4.593 6.082,7.625c0.092,0.117 1.868,1.787 3.52,3.305c0.451,0.415 0.899,0.8 1.279,1.152c0.239,0.222 0.464,0.397 0.629,0.559Z"/><path d="M73.584,98.567c0.008,0.012 0.022,0.031 0.032,0.03c-0.798,0.036 -1.416,0.712 -1.38,1.509c0.036,0.798 0.713,1.416 1.51,1.38c0.827,0.046 2.031,-0.493 3.421,-1.638c0.923,-0.762 1.953,-1.84 3.048,-3.124c2.478,-2.908 5.292,-6.919 8.008,-10.616c1.883,-2.564 3.713,-4.973 5.268,-6.801c0.506,-0.595 0.967,-1.134 1.398,-1.588c0.325,-0.341 0.593,-0.654 0.87,-0.88c0.135,-0.11 0.219,-0.244 0.339,-0.309c0.022,-0.011 0.032,-0.065 0.04,-0.078c-0.02,-0.03 -0.065,-0.103 -0.098,-0.104c0.775,0.194 1.561,-0.277 1.755,-1.051c0.195,-0.774 -0.276,-1.56 -1.05,-1.755c-0.804,-0.341 -1.92,-0.122 -3.281,0.633c-0.559,0.31 -1.143,0.772 -1.774,1.33c-0.683,0.602 -1.395,1.352 -2.134,2.2c-2.496,2.861 -5.325,6.898 -8.021,10.681c-1.846,2.59 -3.64,5.048 -5.138,6.977c-0.871,1.123 -1.595,2.073 -2.252,2.681c-0.185,0.172 -0.325,0.343 -0.486,0.442c-0.03,0.018 -0.059,0.085 -0.075,0.081Zm-0,-0c-0.003,-0.001 -0.005,-0.003 -0.006,-0.007c-0.004,-0.007 -0,-0.002 0.006,0.007Zm22.554,-22.115c0.002,-0.004 0.004,-0.005 0.006,0.002c0.006,0.016 0.003,0.012 -0.006,-0.002Z"/></g></g><g id="Apple"></g><g id="Pear"></g></svg>