<?xml version="1.0" encoding="UTF-8" standalone="no"?><!DOCTYPE svg PUBLIC "-//W3C//DTD SVG 1.1//EN" "http://www.w3.org/Graphics/SVG/1.1/DTD/svg11.dtd"><svg width="100%" height="100%" viewBox="0 0 1182 591" version="1.1" xmlns="http://www.w3.org/2000/svg" xmlns:xlink="http://www.w3.org/1999/xlink" xml:space="preserve" xmlns:serif="http://www.serif.com/" style="fill-rule:evenodd;clip-rule:evenodd;stroke-linecap:round;stroke-miterlimit:10;"><g><g id="Sample1"><path d="M288.182,211.374l0,125" style="fill:none;stroke:#000;stroke-width:6.25px;"/><path d="M585.624,211.374l0,125" style="fill:none;stroke:#000;stroke-width:6.25px;"/><path d="M288.182,273.874l297.442,0" style="fill:none;stroke:#000;stroke-width:6.25px;stroke-linejoin:round;stroke-miterlimit:1.5;"/><circle cx="436.903" cy="273.874" r="21.658"/></g><g id="Sample2"><path d="M594.527,211.374l0,125" style="fill:none;stroke:#000;stroke-width:6.25px;"/><path d="M891.969,211.374l0,125" style="fill:none;stroke:#000;stroke-width:6.25px;"/><path d="M594.527,273.874l297.442,0" style="fill:none;stroke:#000;stroke-width:6.25px;stroke-linejoin:round;stroke-miterlimit:1.5;"/><circle cx="743.248" cy="273.874" r="21.658"/></g><g transform="matrix(1,0,0,1,-1151.11,-129.166)"><g transform="matrix(50,0,0,50,1488.23,270.924)"><path d="M0.09,0l0.076,0l0,-0.361c0,-0.058 -0.006,-0.143 -0.012,-0.201l0.004,0l0.051,0.158l0.123,0.339l0.061,0l0.123,-0.339l0.051,-0.158l0.004,0c-0.005,0.058 -0.012,0.143 -0.012,0.201l0,0.361l0.078,0l0,-0.656l-0.104,0l-0.124,0.351c-0.016,0.045 -0.028,0.087 -0.042,0.136l-0.004,0c-0.015,-0.049 -0.029,-0.091 -0.044,-0.136l-0.124,-0.351l-0.105,0l0,0.656Z" style="fill-rule:nonzero;"/></g><g transform="matrix(50,0,0,50,1524.58,270.924)"><path d="M0.266,-0.431c0.075,0 0.118,0.051 0.118,0.145l-0.253,0c0.013,-0.104 0.075,-0.145 0.135,-0.145Zm0.013,0.443c0.066,0 0.118,-0.021 0.161,-0.05l-0.03,-0.054c-0.034,0.023 -0.075,0.037 -0.121,0.037c-0.082,0 -0.152,-0.057 -0.16,-0.166l0.325,0c0.003,-0.016 0.004,-0.032 0.004,-0.049c0,-0.138 -0.068,-0.228 -0.193,-0.228c-0.112,0 -0.22,0.097 -0.22,0.255c0,0.161 0.103,0.255 0.234,0.255Z" style="fill-rule:nonzero;"/></g><g transform="matrix(50,0,0,50,1548.68,270.924)"><path d="M0.194,0.012c0.061,0 0.113,-0.031 0.161,-0.07l0.003,0l0.007,0.058l0.068,0l0,-0.298c0,-0.121 -0.051,-0.2 -0.169,-0.2c-0.078,0 -0.146,0.033 -0.191,0.063l0.032,0.056c0.038,-0.024 0.089,-0.05 0.145,-0.05c0.079,0 0.1,0.059 0.101,0.12c-0.208,0.023 -0.3,0.074 -0.3,0.183c0,0.088 0.062,0.138 0.143,0.138Zm0.023,-0.068c-0.047,0 -0.085,-0.021 -0.085,-0.075c0,-0.063 0.055,-0.1 0.219,-0.119l0,0.131c-0.047,0.042 -0.087,0.063 -0.134,0.063Z" style="fill-rule:nonzero;"/></g><g transform="matrix(50,0,0,50,1573.88,270.924)"><path d="M0.082,0l0.082,0l0,-0.352c0.049,-0.049 0.083,-0.075 0.133,-0.075c0.064,0 0.092,0.039 0.092,0.13l0,0.297l0.082,0l0,-0.308c0,-0.124 -0.046,-0.19 -0.148,-0.19c-0.067,0 -0.117,0.036 -0.163,0.082l-0.003,0l-0.007,-0.07l-0.068,0l0,0.486Z" style="fill-rule:nonzero;"/></g><g transform="matrix(50,0,0,50,1611.23,270.924)"><path d="M0.216,-0.127l0.065,0l0,-0.177l0.182,0l0,-0.062l-0.182,0l0,-0.19l-0.065,0l0,0.19l-0.182,0l0,0.062l0.182,0l0,0.177Zm-0.182,0.127l0.429,0l0,-0.062l-0.429,0l0,0.062Z" style="fill-rule:nonzero;"/></g><g transform="matrix(50,0,0,50,1646.08,270.924)"><path d="M0.338,0.012c0.084,0 0.148,-0.034 0.201,-0.095l-0.046,-0.05c-0.042,0.047 -0.089,0.072 -0.152,0.072c-0.124,0 -0.203,-0.104 -0.203,-0.269c0,-0.163 0.082,-0.265 0.206,-0.265c0.056,0 0.099,0.023 0.134,0.06l0.045,-0.052c-0.038,-0.043 -0.1,-0.081 -0.18,-0.081c-0.167,0 -0.291,0.129 -0.291,0.34c0,0.214 0.122,0.34 0.286,0.34Z" style="fill-rule:nonzero;"/></g><g transform="matrix(50,0,0,50,1674.63,270.924)"><rect x="0.09" y="-0.656" width="0.083" height="0.656" style="fill-rule:nonzero;"/></g><g transform="matrix(50,0,0,50,1491.26,320.924)"><path d="M0.272,0.012c0.138,0 0.223,-0.083 0.223,-0.187c0,-0.097 -0.059,-0.142 -0.135,-0.175l-0.093,-0.04c-0.052,-0.022 -0.109,-0.046 -0.109,-0.109c0,-0.059 0.049,-0.096 0.122,-0.096c0.057,0 0.108,0.024 0.148,0.061l0.046,-0.055c-0.046,-0.046 -0.114,-0.079 -0.194,-0.079c-0.119,0 -0.206,0.074 -0.206,0.174c0,0.096 0.071,0.143 0.133,0.169l0.094,0.041c0.062,0.028 0.109,0.049 0.109,0.116c0,0.064 -0.051,0.107 -0.137,0.107c-0.07,0 -0.137,-0.031 -0.184,-0.08l-0.047,0.055c0.057,0.061 0.136,0.098 0.23,0.098Z" style="fill-rule:nonzero;"/></g><g transform="matrix(50,0,0,50,1517.96,320.924)"><path d="M0.194,0.012c0.061,0 0.113,-0.031 0.161,-0.07l0.003,0l0.007,0.058l0.068,0l0,-0.298c0,-0.121 -0.051,-0.2 -0.169,-0.2c-0.078,0 -0.146,0.033 -0.191,0.063l0.032,0.056c0.038,-0.024 0.089,-0.05 0.145,-0.05c0.079,0 0.1,0.059 0.101,0.12c-0.208,0.023 -0.3,0.074 -0.3,0.183c0,0.088 0.062,0.138 0.143,0.138Zm0.023,-0.068c-0.047,0 -0.085,-0.021 -0.085,-0.075c0,-0.063 0.055,-0.1 0.219,-0.119l0,0.131c-0.047,0.042 -0.087,0.063 -0.134,0.063Z" style="fill-rule:nonzero;"/></g><g transform="matrix(50,0,0,50,1543.16,320.924)"><path d="M0.082,0l0.082,0l0,-0.352c0.045,-0.05 0.086,-0.075 0.122,-0.075c0.062,0 0.091,0.039 0.091,0.13l0,0.297l0.082,0l0,-0.352c0.045,-0.05 0.084,-0.075 0.122,-0.075c0.061,0 0.09,0.039 0.09,0.13l0,0.297l0.082,0l0,-0.308c0,-0.124 -0.048,-0.19 -0.148,-0.19c-0.059,0 -0.109,0.038 -0.16,0.093c-0.02,-0.058 -0.06,-0.093 -0.134,-0.093c-0.058,0 -0.109,0.036 -0.151,0.082l-0.003,0l-0.007,-0.07l-0.068,0l0,0.486Z" style="fill-rule:nonzero;"/></g><g transform="matrix(50,0,0,50,1584.61,320.924)"><path d="M0.082,0.205l0.082,0l0,-0.164l-0.002,-0.085c0.045,0.035 0.09,0.056 0.135,0.056c0.111,0 0.21,-0.097 0.21,-0.262c0,-0.151 -0.067,-0.248 -0.192,-0.248c-0.057,0 -0.111,0.031 -0.155,0.068l-0.003,0l-0.007,-0.056l-0.068,0l0,0.691Zm0.201,-0.262c-0.032,0 -0.075,-0.014 -0.119,-0.051l0,-0.255c0.048,-0.043 0.089,-0.066 0.13,-0.066c0.092,0 0.128,0.072 0.128,0.179c0,0.12 -0.059,0.193 -0.139,0.193Z" style="fill-rule:nonzero;"/></g><g transform="matrix(50,0,0,50,1612.36,320.924)"><path d="M0.169,0.012c0.02,0 0.036,-0.003 0.047,-0.009l-0.011,-0.061c-0.008,0.002 -0.012,0.002 -0.017,0.002c-0.013,0 -0.024,-0.009 -0.024,-0.036l0,-0.62l-0.082,0l0,0.614c0,0.071 0.025,0.11 0.087,0.11Z" style="fill-rule:nonzero;"/></g><g transform="matrix(50,0,0,50,1625.11,320.924)"><path d="M0.266,-0.431c0.075,0 0.118,0.051 0.118,0.145l-0.253,0c0.013,-0.104 0.075,-0.145 0.135,-0.145Zm0.013,0.443c0.066,0 0.118,-0.021 0.161,-0.05l-0.03,-0.054c-0.034,0.023 -0.075,0.037 -0.121,0.037c-0.082,0 -0.152,-0.057 -0.16,-0.166l0.325,0c0.003,-0.016 0.004,-0.032 0.004,-0.049c0,-0.138 -0.068,-0.228 -0.193,-0.228c-0.112,0 -0.22,0.097 -0.22,0.255c0,0.161 0.103,0.255 0.234,0.255Z" style="fill-rule:nonzero;"/></g><g transform="matrix(50,0,0,50,1659.91,320.924)"><path d="M0.079,0l0.36,0l0,-0.068l-0.132,0l0,-0.57l-0.063,0c-0.035,0.021 -0.077,0.037 -0.135,0.047l0,0.053l0.116,0l0,0.47l-0.146,0l0,0.068Z" style="fill-rule:nonzero;"/></g></g><g transform="matrix(1,0,0,1,-844.762,-129.166)"><g transform="matrix(50,0,0,50,1488.23,270.924)"><path d="M0.09,0l0.076,0l0,-0.361c0,-0.058 -0.006,-0.143 -0.012,-0.201l0.004,0l0.051,0.158l0.123,0.339l0.061,0l0.123,-0.339l0.051,-0.158l0.004,0c-0.005,0.058 -0.012,0.143 -0.012,0.201l0,0.361l0.078,0l0,-0.656l-0.104,0l-0.124,0.351c-0.016,0.045 -0.028,0.087 -0.042,0.136l-0.004,0c-0.015,-0.049 -0.029,-0.091 -0.044,-0.136l-0.124,-0.351l-0.105,0l0,0.656Z" style="fill-rule:nonzero;"/></g><g transform="matrix(50,0,0,50,1524.58,270.924)"><path d="M0.266,-0.431c0.075,0 0.118,0.051 0.118,0.145l-0.253,0c0.013,-0.104 0.075,-0.145 0.135,-0.145Zm0.013,0.443c0.066,0 0.118,-0.021 0.161,-0.05l-0.03,-0.054c-0.034,0.023 -0.075,0.037 -0.121,0.037c-0.082,0 -0.152,-0.057 -0.16,-0.166l0.325,0c0.003,-0.016 0.004,-0.032 0.004,-0.049c0,-0.138 -0.068,-0.228 -0.193,-0.228c-0.112,0 -0.22,0.097 -0.22,0.255c0,0.161 0.103,0.255 0.234,0.255Z" style="fill-rule:nonzero;"/></g><g transform="matrix(50,0,0,50,1548.68,270.924)"><path d="M0.194,0.012c0.061,0 0.113,-0.031 0.161,-0.07l0.003,0l0.007,0.058l0.068,0l0,-0.298c0,-0.121 -0.051,-0.2 -0.169,-0.2c-0.078,0 -0.146,0.033 -0.191,0.063l0.032,0.056c0.038,-0.024 0.089,-0.05 0.145,-0.05c0.079,0 0.1,0.059 0.101,0.12c-0.208,0.023 -0.3,0.074 -0.3,0.183c0,0.088 0.062,0.138 0.143,0.138Zm0.023,-0.068c-0.047,0 -0.085,-0.021 -0.085,-0.075c0,-0.063 0.055,-0.1 0.219,-0.119l0,0.131c-0.047,0.042 -0.087,0.063 -0.134,0.063Z" style="fill-rule:nonzero;"/></g><g transform="matrix(50,0,0,50,1573.88,270.924)"><path d="M0.082,0l0.082,0l0,-0.352c0.049,-0.049 0.083,-0.075 0.133,-0.075c0.064,0 0.092,0.039 0.092,0.13l0,0.297l0.082,0l0,-0.308c0,-0.124 -0.046,-0.19 -0.148,-0.19c-0.067,0 -0.117,0.036 -0.163,0.082l-0.003,0l-0.007,-0.07l-0.068,0l0,0.486Z" style="fill-rule:nonzero;"/></g><g transform="matrix(50,0,0,50,1611.23,270.924)"><path d="M0.216,-0.127l0.065,0l0,-0.177l0.182,0l0,-0.062l-0.182,0l0,-0.19l-0.065,0l0,0.19l-0.182,0l0,0.062l0.182,0l0,0.177Zm-0.182,0.127l0.429,0l0,-0.062l-0.429,0l0,0.062Z" style="fill-rule:nonzero;"/></g><g transform="matrix(50,0,0,50,1646.08,270.924)"><path d="M0.338,0.012c0.084,0 0.148,-0.034 0.201,-0.095l-0.046,-0.05c-0.042,0.047 -0.089,0.072 -0.152,0.072c-0.124,0 -0.203,-0.104 -0.203,-0.269c0,-0.163 0.082,-0.265 0.206,-0.265c0.056,0 0.099,0.023 0.134,0.06l0.045,-0.052c-0.038,-0.043 -0.1,-0.081 -0.18,-0.081c-0.167,0 -0.291,0.129 -0.291,0.34c0,0.214 0.122,0.34 0.286,0.34Z" style="fill-rule:nonzero;"/></g><g transform="matrix(50,0,0,50,1674.63,270.924)"><rect x="0.09" y="-0.656" width="0.083" height="0.656" style="fill-rule:nonzero;"/></g><g transform="matrix(50,0,0,50,1491.26,320.924)"><path d="M0.272,0.012c0.138,0 0.223,-0.083 0.223,-0.187c0,-0.097 -0.059,-0.142 -0.135,-0.175l-0.093,-0.04c-0.052,-0.022 -0.109,-0.046 -0.109,-0.109c0,-0.059 0.049,-0.096 0.122,-0.096c0.057,0 0.108,0.024 0.148,0.061l0.046,-0.055c-0.046,-0.046 -0.114,-0.079 -0.194,-0.079c-0.119,0 -0.206,0.074 -0.206,0.174c0,0.096 0.071,0.143 0.133,0.169l0.094,0.041c0.062,0.028 0.109,0.049 0.109,0.116c0,0.064 -0.051,0.107 -0.137,0.107c-0.07,0 -0.137,-0.031 -0.184,-0.08l-0.047,0.055c0.057,0.061 0.136,0.098 0.23,0.098Z" style="fill-rule:nonzero;"/></g><g transform="matrix(50,0,0,50,1517.96,320.924)"><path d="M0.194,0.012c0.061,0 0.113,-0.031 0.161,-0.07l0.003,0l0.007,0.058l0.068,0l0,-0.298c0,-0.121 -0.051,-0.2 -0.169,-0.2c-0.078,0 -0.146,0.033 -0.191,0.063l0.032,0.056c0.038,-0.024 0.089,-0.05 0.145,-0.05c0.079,0 0.1,0.059 0.101,0.12c-0.208,0.023 -0.3,0.074 -0.3,0.183c0,0.088 0.062,0.138 0.143,0.138Zm0.023,-0.068c-0.047,0 -0.085,-0.021 -0.085,-0.075c0,-0.063 0.055,-0.1 0.219,-0.119l0,0.131c-0.047,0.042 -0.087,0.063 -0.134,0.063Z" style="fill-rule:nonzero;"/></g><g transform="matrix(50,0,0,50,1543.16,320.924)"><path d="M0.082,0l0.082,0l0,-0.352c0.045,-0.05 0.086,-0.075 0.122,-0.075c0.062,0 0.091,0.039 0.091,0.13l0,0.297l0.082,0l0,-0.352c0.045,-0.05 0.084,-0.075 0.122,-0.075c0.061,0 0.09,0.039 0.09,0.13l0,0.297l0.082,0l0,-0.308c0,-0.124 -0.048,-0.19 -0.148,-0.19c-0.059,0 -0.109,0.038 -0.16,0.093c-0.02,-0.058 -0.06,-0.093 -0.134,-0.093c-0.058,0 -0.109,0.036 -0.151,0.082l-0.003,0l-0.007,-0.07l-0.068,0l0,0.486Z" style="fill-rule:nonzero;"/></g><g transform="matrix(50,0,0,50,1584.61,320.924)"><path d="M0.082,0.205l0.082,0l0,-0.164l-0.002,-0.085c0.045,0.035 0.09,0.056 0.135,0.056c0.111,0 0.21,-0.097 0.21,-0.262c0,-0.151 -0.067,-0.248 -0.192,-0.248c-0.057,0 -0.111,0.031 -0.155,0.068l-0.003,0l-0.007,-0.056l-0.068,0l0,0.691Zm0.201,-0.262c-0.032,0 -0.075,-0.014 -0.119,-0.051l0,-0.255c0.048,-0.043 0.089,-0.066 0.13,-0.066c0.092,0 0.128,0.072 0.128,0.179c0,0.12 -0.059,0.193 -0.139,0.193Z" style="fill-rule:nonzero;"/></g><g transform="matrix(50,0,0,50,1612.36,320.924)"><path d="M0.169,0.012c0.02,0 0.036,-0.003 0.047,-0.009l-0.011,-0.061c-0.008,0.002 -0.012,0.002 -0.017,0.002c-0.013,0 -0.024,-0.009 -0.024,-0.036l0,-0.62l-0.082,0l0,0.614c0,0.071 0.025,0.11 0.087,0.11Z" style="fill-rule:nonzero;"/></g><g transform="matrix(50,0,0,50,1625.11,320.924)"><path d="M0.266,-0.431c0.075,0 0.118,0.051 0.118,0.145l-0.253,0c0.013,-0.104 0.075,-0.145 0.135,-0.145Zm0.013,0.443c0.066,0 0.118,-0.021 0.161,-0.05l-0.03,-0.054c-0.034,0.023 -0.075,0.037 -0.121,0.037c-0.082,0 -0.152,-0.057 -0.16,-0.166l0.325,0c0.003,-0.016 0.004,-0.032 0.004,-0.049c0,-0.138 -0.068,-0.228 -0.193,-0.228c-0.112,0 -0.22,0.097 -0.22,0.255c0,0.161 0.103,0.255 0.234,0.255Z" style="fill-rule:nonzero;"/></g><g transform="matrix(50,0,0,50,1659.91,320.924)"><path d="M0.04,0l0.412,0l0,-0.071l-0.192,0c-0.033,0 -0.072,0.003 -0.107,0.006c0.155,-0.159 0.267,-0.274 0.267,-0.398c0,-0.112 -0.073,-0.187 -0.191,-0.187c-0.082,0 -0.139,0.039 -0.192,0.099l0.046,0.045c0.037,-0.043 0.083,-0.077 0.136,-0.077c0.081,0 0.121,0.052 0.121,0.125c0,0.103 -0.109,0.221 -0.3,0.408l0,0.05Z" style="fill-rule:nonzero;"/></g></g></g><g transform="matrix(1,0,0,1,-1160.19,372.267)"><g transform="matrix(50,0,0,50,1309.79,54.98)"><path d="M0.272,0.012c0.138,0 0.223,-0.083 0.223,-0.187c0,-0.097 -0.059,-0.142 -0.135,-0.175l-0.093,-0.04c-0.052,-0.022 -0.109,-0.046 -0.109,-0.109c0,-0.059 0.049,-0.096 0.122,-0.096c0.057,0 0.108,0.024 0.148,0.061l0.046,-0.055c-0.046,-0.046 -0.114,-0.079 -0.194,-0.079c-0.119,0 -0.206,0.074 -0.206,0.174c0,0.096 0.071,0.143 0.133,0.169l0.094,0.041c0.062,0.028 0.109,0.049 0.109,0.116c0,0.064 -0.051,0.107 -0.137,0.107c-0.07,0 -0.137,-0.031 -0.184,-0.08l-0.047,0.055c0.057,0.061 0.136,0.098 0.23,0.098Z" style="fill-rule:nonzero;"/></g><g transform="matrix(50,0,0,50,1336.49,54.98)"><path d="M0.194,0.012c0.061,0 0.113,-0.031 0.161,-0.07l0.003,0l0.007,0.058l0.068,0l0,-0.298c0,-0.121 -0.051,-0.2 -0.169,-0.2c-0.078,0 -0.146,0.033 -0.191,0.063l0.032,0.056c0.038,-0.024 0.089,-0.05 0.145,-0.05c0.079,0 0.1,0.059 0.101,0.12c-0.208,0.023 -0.3,0.074 -0.3,0.183c0,0.088 0.062,0.138 0.143,0.138Zm0.023,-0.068c-0.047,0 -0.085,-0.021 -0.085,-0.075c0,-0.063 0.055,-0.1 0.219,-0.119l0,0.131c-0.047,0.042 -0.087,0.063 -0.134,0.063Z" style="fill-rule:nonzero;"/></g><g transform="matrix(50,0,0,50,1361.69,54.98)"><path d="M0.082,0l0.082,0l0,-0.352c0.045,-0.05 0.086,-0.075 0.122,-0.075c0.062,0 0.091,0.039 0.091,0.13l0,0.297l0.082,0l0,-0.352c0.045,-0.05 0.084,-0.075 0.122,-0.075c0.061,0 0.09,0.039 0.09,0.13l0,0.297l0.082,0l0,-0.308c0,-0.124 -0.048,-0.19 -0.148,-0.19c-0.059,0 -0.109,0.038 -0.16,0.093c-0.02,-0.058 -0.06,-0.093 -0.134,-0.093c-0.058,0 -0.109,0.036 -0.151,0.082l-0.003,0l-0.007,-0.07l-0.068,0l0,0.486Z" style="fill-rule:nonzero;"/></g><g transform="matrix(50,0,0,50,1403.14,54.98)"><path d="M0.082,0.205l0.082,0l0,-0.164l-0.002,-0.085c0.045,0.035 0.09,0.056 0.135,0.056c0.111,0 0.21,-0.097 0.21,-0.262c0,-0.151 -0.067,-0.248 -0.192,-0.248c-0.057,0 -0.111,0.031 -0.155,0.068l-0.003,0l-0.007,-0.056l-0.068,0l0,0.691Zm0.201,-0.262c-0.032,0 -0.075,-0.014 -0.119,-0.051l0,-0.255c0.048,-0.043 0.089,-0.066 0.13,-0.066c0.092,0 0.128,0.072 0.128,0.179c0,0.12 -0.059,0.193 -0.139,0.193Z" style="fill-rule:nonzero;"/></g><g transform="matrix(50,0,0,50,1430.89,54.98)"><path d="M0.169,0.012c0.02,0 0.036,-0.003 0.047,-0.009l-0.011,-0.061c-0.008,0.002 -0.012,0.002 -0.017,0.002c-0.013,0 -0.024,-0.009 -0.024,-0.036l0,-0.62l-0.082,0l0,0.614c0,0.071 0.025,0.11 0.087,0.11Z" style="fill-rule:nonzero;"/></g><g transform="matrix(50,0,0,50,1443.64,54.98)"><path d="M0.266,-0.431c0.075,0 0.118,0.051 0.118,0.145l-0.253,0c0.013,-0.104 0.075,-0.145 0.135,-0.145Zm0.013,0.443c0.066,0 0.118,-0.021 0.161,-0.05l-0.03,-0.054c-0.034,0.023 -0.075,0.037 -0.121,0.037c-0.082,0 -0.152,-0.057 -0.16,-0.166l0.325,0c0.003,-0.016 0.004,-0.032 0.004,-0.049c0,-0.138 -0.068,-0.228 -0.193,-0.228c-0.112,0 -0.22,0.097 -0.22,0.255c0,0.161 0.103,0.255 0.234,0.255Z" style="fill-rule:nonzero;"/></g><g transform="matrix(50,0,0,50,1478.44,54.98)"><path d="M0.079,0l0.36,0l0,-0.068l-0.132,0l0,-0.57l-0.063,0c-0.035,0.021 -0.077,0.037 -0.135,0.047l0,0.053l0.116,0l0,0.47l-0.146,0l0,0.068Z" style="fill-rule:nonzero;"/></g><g transform="matrix(50,0,0,50,1513.29,54.98)"><path d="M0.194,0.012c0.061,0 0.113,-0.031 0.161,-0.07l0.003,0l0.007,0.058l0.068,0l0,-0.298c0,-0.121 -0.051,-0.2 -0.169,-0.2c-0.078,0 -0.146,0.033 -0.191,0.063l0.032,0.056c0.038,-0.024 0.089,-0.05 0.145,-0.05c0.079,0 0.1,0.059 0.101,0.12c-0.208,0.023 -0.3,0.074 -0.3,0.183c0,0.088 0.062,0.138 0.143,0.138Zm0.023,-0.068c-0.047,0 -0.085,-0.021 -0.085,-0.075c0,-0.063 0.055,-0.1 0.219,-0.119l0,0.131c-0.047,0.042 -0.087,0.063 -0.134,0.063Z" style="fill-rule:nonzero;"/></g><g transform="matrix(50,0,0,50,1538.49,54.98)"><path d="M0.082,0l0.082,0l0,-0.352c0.049,-0.049 0.083,-0.075 0.133,-0.075c0.064,0 0.092,0.039 0.092,0.13l0,0.297l0.082,0l0,-0.308c0,-0.124 -0.046,-0.19 -0.148,-0.19c-0.067,0 -0.117,0.036 -0.163,0.082l-0.003,0l-0.007,-0.07l-0.068,0l0,0.486Z" style="fill-rule:nonzero;"/></g><g transform="matrix(50,0,0,50,1565.84,54.98)"><path d="M0.248,0.012c0.057,0 0.109,-0.032 0.147,-0.069l0.003,0l0.007,0.057l0.068,0l0,-0.712l-0.083,0l0,0.187l0.004,0.083c-0.043,-0.035 -0.08,-0.056 -0.136,-0.056c-0.111,0 -0.211,0.098 -0.211,0.256c0,0.162 0.079,0.254 0.201,0.254Zm0.018,-0.069c-0.085,0 -0.134,-0.07 -0.134,-0.186c0,-0.111 0.062,-0.186 0.14,-0.186c0.04,0 0.077,0.014 0.118,0.051l0,0.254c-0.04,0.045 -0.079,0.067 -0.124,0.067Z" style="fill-rule:nonzero;"/></g><g transform="matrix(50,0,0,50,1603.59,54.98)"><path d="M0.04,0l0.412,0l0,-0.071l-0.192,0c-0.033,0 -0.072,0.003 -0.107,0.006c0.155,-0.159 0.267,-0.274 0.267,-0.398c0,-0.112 -0.073,-0.187 -0.191,-0.187c-0.082,0 -0.139,0.039 -0.192,0.099l0.046,0.045c0.037,-0.043 0.083,-0.077 0.136,-0.077c0.081,0 0.121,0.052 0.121,0.125c0,0.103 -0.109,0.221 -0.3,0.408l0,0.05Z" style="fill-rule:nonzero;"/></g><g transform="matrix(50,0,0,50,1638.44,54.98)"><path d="M0.082,0l0.082,0l0,-0.352c0.049,-0.049 0.083,-0.075 0.133,-0.075c0.064,0 0.092,0.039 0.092,0.13l0,0.297l0.082,0l0,-0.308c0,-0.124 -0.046,-0.19 -0.148,-0.19c-0.067,0 -0.116,0.036 -0.162,0.08l0.003,-0.1l0,-0.194l-0.082,0l0,0.712Z" style="fill-rule:nonzero;"/></g><g transform="matrix(50,0,0,50,1665.64,54.98)"><path d="M0.194,0.012c0.061,0 0.113,-0.031 0.161,-0.07l0.003,0l0.007,0.058l0.068,0l0,-0.298c0,-0.121 -0.051,-0.2 -0.169,-0.2c-0.078,0 -0.146,0.033 -0.191,0.063l0.032,0.056c0.038,-0.024 0.089,-0.05 0.145,-0.05c0.079,0 0.1,0.059 0.101,0.12c-0.208,0.023 -0.3,0.074 -0.3,0.183c0,0.088 0.062,0.138 0.143,0.138Zm0.023,-0.068c-0.047,0 -0.085,-0.021 -0.085,-0.075c0,-0.063 0.055,-0.1 0.219,-0.119l0,0.131c-0.047,0.042 -0.087,0.063 -0.134,0.063Z" style="fill-rule:nonzero;"/></g><g transform="matrix(50,0,0,50,1690.84,54.98)"><path d="M0.187,0l0.096,0l0.172,-0.486l-0.081,0l-0.092,0.276c-0.014,0.048 -0.03,0.097 -0.044,0.143l-0.004,0c-0.015,-0.046 -0.031,-0.095 -0.045,-0.143l-0.092,-0.276l-0.085,0l0.175,0.486Z" style="fill-rule:nonzero;"/></g><g transform="matrix(50,0,0,50,1713.99,54.98)"><path d="M0.266,-0.431c0.075,0 0.118,0.051 0.118,0.145l-0.253,0c0.013,-0.104 0.075,-0.145 0.135,-0.145Zm0.013,0.443c0.066,0 0.118,-0.021 0.161,-0.05l-0.03,-0.054c-0.034,0.023 -0.075,0.037 -0.121,0.037c-0.082,0 -0.152,-0.057 -0.16,-0.166l0.325,0c0.003,-0.016 0.004,-0.032 0.004,-0.049c0,-0.138 -0.068,-0.228 -0.193,-0.228c-0.112,0 -0.22,0.097 -0.22,0.255c0,0.161 0.103,0.255 0.234,0.255Z" style="fill-rule:nonzero;"/></g><g transform="matrix(50,0,0,50,1748.79,54.98)"><path d="M0.209,0.012c0.115,0 0.178,-0.066 0.178,-0.145c0,-0.088 -0.074,-0.121 -0.15,-0.148c-0.06,-0.021 -0.103,-0.039 -0.103,-0.083c0,-0.037 0.028,-0.07 0.089,-0.07c0.044,0 0.079,0.014 0.113,0.038l0.038,-0.047c-0.038,-0.032 -0.091,-0.055 -0.151,-0.055c-0.106,0 -0.168,0.06 -0.168,0.138c0,0.08 0.07,0.115 0.143,0.141c0.055,0.02 0.11,0.041 0.11,0.091c0,0.042 -0.032,0.076 -0.096,0.076c-0.06,0 -0.104,-0.019 -0.146,-0.054l-0.038,0.048c0.045,0.044 0.11,0.07 0.181,0.07Z" style="fill-rule:nonzero;"/></g><g transform="matrix(50,0,0,50,1769.74,54.98)"><path d="M0.082,0l0.082,0l0,-0.486l-0.082,0l0,0.486Zm0.041,-0.586c0.032,0 0.055,-0.021 0.055,-0.054c0,-0.032 -0.023,-0.054 -0.055,-0.054c-0.032,0 -0.055,0.022 -0.055,0.054c0,0.033 0.023,0.054 0.055,0.054Z" style="fill-rule:nonzero;"/></g><g transform="matrix(50,0,0,50,1782.04,54.98)"><path d="M0.246,0.224c0.151,0 0.246,-0.078 0.246,-0.168c0,-0.081 -0.057,-0.116 -0.17,-0.116l-0.094,0c-0.066,0 -0.086,-0.022 -0.086,-0.053c0,-0.027 0.014,-0.043 0.031,-0.058c0.022,0.011 0.049,0.017 0.073,0.017c0.099,0 0.178,-0.065 0.178,-0.169c0,-0.041 -0.017,-0.078 -0.04,-0.1l0.1,0l0,-0.063l-0.169,0c-0.018,-0.007 -0.042,-0.012 -0.069,-0.012c-0.099,0 -0.183,0.067 -0.183,0.173c0,0.058 0.031,0.105 0.063,0.131l0,0.004c-0.025,0.017 -0.053,0.049 -0.053,0.09c0,0.038 0.019,0.064 0.043,0.079l0,0.004c-0.044,0.03 -0.071,0.069 -0.071,0.11c0,0.084 0.082,0.131 0.201,0.131Zm0,-0.433c-0.056,0 -0.103,-0.045 -0.103,-0.116c0,-0.071 0.046,-0.113 0.103,-0.113c0.057,0 0.103,0.042 0.103,0.113c0,0.071 -0.047,0.116 -0.103,0.116Zm0.012,0.376c-0.088,0 -0.141,-0.033 -0.141,-0.085c0,-0.028 0.015,-0.057 0.05,-0.082c0.021,0.006 0.044,0.008 0.063,0.008l0.084,0c0.063,0 0.098,0.015 0.098,0.06c0,0.051 -0.061,0.099 -0.154,0.099Z" style="fill-rule:nonzero;"/></g><g transform="matrix(50,0,0,50,1807.24,54.98)"><path d="M0.082,0l0.082,0l0,-0.352c0.049,-0.049 0.083,-0.075 0.133,-0.075c0.064,0 0.092,0.039 0.092,0.13l0,0.297l0.082,0l0,-0.308c0,-0.124 -0.046,-0.19 -0.148,-0.19c-0.067,0 -0.117,0.036 -0.163,0.082l-0.003,0l-0.007,-0.07l-0.068,0l0,0.486Z" style="fill-rule:nonzero;"/></g><g transform="matrix(50,0,0,50,1834.59,54.98)"><path d="M0.082,0l0.082,0l0,-0.486l-0.082,0l0,0.486Zm0.041,-0.586c0.032,0 0.055,-0.021 0.055,-0.054c0,-0.032 -0.023,-0.054 -0.055,-0.054c-0.032,0 -0.055,0.022 -0.055,0.054c0,0.033 0.023,0.054 0.055,0.054Z" style="fill-rule:nonzero;"/></g><g transform="matrix(50,0,0,50,1846.89,54.98)"><path d="M0.096,0l0.082,0l0,-0.419l0.103,0l0,-0.067l-0.103,0l0,-0.077c0,-0.062 0.022,-0.094 0.068,-0.094c0.018,0 0.035,0.003 0.055,0.009l0.018,-0.06c-0.021,-0.009 -0.051,-0.016 -0.081,-0.016c-0.097,0 -0.142,0.062 -0.142,0.161l0,0.077l-0.066,0.005l0,0.062l0.066,0l0,0.419Z" style="fill-rule:nonzero;"/></g><g transform="matrix(50,0,0,50,1861.49,54.98)"><path d="M0.082,0l0.082,0l0,-0.486l-0.082,0l0,0.486Zm0.041,-0.586c0.032,0 0.055,-0.021 0.055,-0.054c0,-0.032 -0.023,-0.054 -0.055,-0.054c-0.032,0 -0.055,0.022 -0.055,0.054c0,0.033 0.023,0.054 0.055,0.054Z" style="fill-rule:nonzero;"/></g><g transform="matrix(50,0,0,50,1873.79,54.98)"><path d="M0.274,0.012c0.058,0 0.113,-0.022 0.157,-0.062l-0.036,-0.052c-0.029,0.026 -0.069,0.046 -0.114,0.046c-0.089,0 -0.15,-0.075 -0.15,-0.186c0,-0.112 0.064,-0.188 0.152,-0.188c0.04,0 0.071,0.016 0.098,0.041l0.041,-0.052c-0.034,-0.032 -0.078,-0.057 -0.142,-0.057c-0.125,0 -0.234,0.093 -0.234,0.256c0,0.161 0.099,0.254 0.228,0.254Z" style="fill-rule:nonzero;"/></g><g transform="matrix(50,0,0,50,1896.09,54.98)"><path d="M0.194,0.012c0.061,0 0.113,-0.031 0.161,-0.07l0.003,0l0.007,0.058l0.068,0l0,-0.298c0,-0.121 -0.051,-0.2 -0.169,-0.2c-0.078,0 -0.146,0.033 -0.191,0.063l0.032,0.056c0.038,-0.024 0.089,-0.05 0.145,-0.05c0.079,0 0.1,0.059 0.101,0.12c-0.208,0.023 -0.3,0.074 -0.3,0.183c0,0.088 0.062,0.138 0.143,0.138Zm0.023,-0.068c-0.047,0 -0.085,-0.021 -0.085,-0.075c0,-0.063 0.055,-0.1 0.219,-0.119l0,0.131c-0.047,0.042 -0.087,0.063 -0.134,0.063Z" style="fill-rule:nonzero;"/></g><g transform="matrix(50,0,0,50,1921.29,54.98)"><path d="M0.082,0l0.082,0l0,-0.352c0.049,-0.049 0.083,-0.075 0.133,-0.075c0.064,0 0.092,0.039 0.092,0.13l0,0.297l0.082,0l0,-0.308c0,-0.124 -0.046,-0.19 -0.148,-0.19c-0.067,0 -0.117,0.036 -0.163,0.082l-0.003,0l-0.007,-0.07l-0.068,0l0,0.486Z" style="fill-rule:nonzero;"/></g><g transform="matrix(50,0,0,50,1948.64,54.98)"><path d="M0.235,0.012c0.033,0 0.065,-0.009 0.091,-0.021l-0.017,-0.058c-0.019,0.009 -0.038,0.012 -0.055,0.012c-0.056,0 -0.075,-0.034 -0.075,-0.094l0,-0.27l0.131,0l0,-0.067l-0.131,0l0,-0.156l-0.069,0l-0.01,0.156l-0.076,0.005l0,0.062l0.072,0l0,0.269c0,0.096 0.035,0.162 0.139,0.162Z" style="fill-rule:nonzero;"/></g><g transform="matrix(50,0,0,50,1965.54,54.98)"><path d="M0.169,0.012c0.02,0 0.036,-0.003 0.047,-0.009l-0.011,-0.061c-0.008,0.002 -0.012,0.002 -0.017,0.002c-0.013,0 -0.024,-0.009 -0.024,-0.036l0,-0.62l-0.082,0l0,0.614c0,0.071 0.025,0.11 0.087,0.11Z" style="fill-rule:nonzero;"/></g><g transform="matrix(50,0,0,50,1978.29,54.98)"><path d="M0.09,0.209c0.098,0 0.148,-0.073 0.182,-0.169l0.183,-0.526l-0.08,0l-0.087,0.269c-0.013,0.043 -0.027,0.093 -0.041,0.137l-0.004,0c-0.015,-0.045 -0.032,-0.095 -0.047,-0.137l-0.099,-0.269l-0.085,0l0.195,0.487l-0.011,0.036c-0.02,0.06 -0.055,0.104 -0.11,0.104c-0.011,0 -0.023,-0.002 -0.035,-0.006l-0.018,0.064c0.016,0.006 0.035,0.01 0.057,0.01Z" style="fill-rule:nonzero;"/></g><g transform="matrix(50,0,0,50,2011.64,54.98)"><path d="M0.248,0.012c0.057,0 0.109,-0.032 0.147,-0.069l0.003,0l0.007,0.057l0.068,0l0,-0.712l-0.083,0l0,0.187l0.004,0.083c-0.043,-0.035 -0.08,-0.056 -0.136,-0.056c-0.111,0 -0.211,0.098 -0.211,0.256c0,0.162 0.079,0.254 0.201,0.254Zm0.018,-0.069c-0.085,0 -0.134,-0.07 -0.134,-0.186c0,-0.111 0.062,-0.186 0.14,-0.186c0.04,0 0.077,0.014 0.118,0.051l0,0.254c-0.04,0.045 -0.079,0.067 -0.124,0.067Z" style="fill-rule:nonzero;"/></g><g transform="matrix(50,0,0,50,2039.39,54.98)"><path d="M0.082,0l0.082,0l0,-0.486l-0.082,0l0,0.486Zm0.041,-0.586c0.032,0 0.055,-0.021 0.055,-0.054c0,-0.032 -0.023,-0.054 -0.055,-0.054c-0.032,0 -0.055,0.022 -0.055,0.054c0,0.033 0.023,0.054 0.055,0.054Z" style="fill-rule:nonzero;"/></g><g transform="matrix(50,0,0,50,2051.69,54.98)"><path d="M0.381,0l0.082,0l0,-0.419l0.103,0l0,-0.067l-0.103,0l0,-0.077c0,-0.062 0.022,-0.094 0.068,-0.094c0.018,0 0.037,0.004 0.055,0.012l0.018,-0.063c-0.022,-0.009 -0.051,-0.016 -0.081,-0.016c-0.097,0 -0.142,0.062 -0.142,0.161l0,0.077l-0.203,0l0,-0.062c0,-0.064 0.028,-0.099 0.076,-0.099c0.024,0 0.044,0.004 0.065,0.013l0.017,-0.062c-0.024,-0.011 -0.057,-0.018 -0.089,-0.018c-0.101,0 -0.151,0.063 -0.151,0.164l0,0.064l-0.066,0.005l0,0.062l0.066,0l0,0.419l0.082,0l0,-0.419l0.203,0l0,0.419Z" style="fill-rule:nonzero;"/></g><g transform="matrix(50,0,0,50,2080.04,54.98)"><path d="M0.266,-0.431c0.075,0 0.118,0.051 0.118,0.145l-0.253,0c0.013,-0.104 0.075,-0.145 0.135,-0.145Zm0.013,0.443c0.066,0 0.118,-0.021 0.161,-0.05l-0.03,-0.054c-0.034,0.023 -0.075,0.037 -0.121,0.037c-0.082,0 -0.152,-0.057 -0.16,-0.166l0.325,0c0.003,-0.016 0.004,-0.032 0.004,-0.049c0,-0.138 -0.068,-0.228 -0.193,-0.228c-0.112,0 -0.22,0.097 -0.22,0.255c0,0.161 0.103,0.255 0.234,0.255Z" style="fill-rule:nonzero;"/></g><g transform="matrix(50,0,0,50,2104.84,54.98)"><path d="M0.082,0l0.082,0l0,-0.312c0.033,-0.082 0.082,-0.112 0.123,-0.112c0.02,0 0.03,0.002 0.045,0.006l0.018,-0.07c-0.016,-0.007 -0.031,-0.01 -0.052,-0.01c-0.055,0 -0.105,0.039 -0.138,0.1l-0.003,0l-0.007,-0.088l-0.068,0l0,0.486Z" style="fill-rule:nonzero;"/></g><g transform="matrix(50,0,0,50,2121.69,54.98)"><path d="M0.266,-0.431c0.075,0 0.118,0.051 0.118,0.145l-0.253,0c0.013,-0.104 0.075,-0.145 0.135,-0.145Zm0.013,0.443c0.066,0 0.118,-0.021 0.161,-0.05l-0.03,-0.054c-0.034,0.023 -0.075,0.037 -0.121,0.037c-0.082,0 -0.152,-0.057 -0.16,-0.166l0.325,0c0.003,-0.016 0.004,-0.032 0.004,-0.049c0,-0.138 -0.068,-0.228 -0.193,-0.228c-0.112,0 -0.22,0.097 -0.22,0.255c0,0.161 0.103,0.255 0.234,0.255Z" style="fill-rule:nonzero;"/></g><g transform="matrix(50,0,0,50,2146.49,54.98)"><path d="M0.082,0l0.082,0l0,-0.352c0.049,-0.049 0.083,-0.075 0.133,-0.075c0.064,0 0.092,0.039 0.092,0.13l0,0.297l0.082,0l0,-0.308c0,-0.124 -0.046,-0.19 -0.148,-0.19c-0.067,0 -0.117,0.036 -0.163,0.082l-0.003,0l-0.007,-0.07l-0.068,0l0,0.486Z" style="fill-rule:nonzero;"/></g><g transform="matrix(50,0,0,50,2173.84,54.98)"><path d="M0.235,0.012c0.033,0 0.065,-0.009 0.091,-0.021l-0.017,-0.058c-0.019,0.009 -0.038,0.012 -0.055,0.012c-0.056,0 -0.075,-0.034 -0.075,-0.094l0,-0.27l0.131,0l0,-0.067l-0.131,0l0,-0.156l-0.069,0l-0.01,0.156l-0.076,0.005l0,0.062l0.072,0l0,0.269c0,0.096 0.035,0.162 0.139,0.162Z" style="fill-rule:nonzero;"/></g><g transform="matrix(50,0,0,50,1268.47,104.98)"><path d="M0.082,0l0.082,0l0,-0.352c0.045,-0.05 0.086,-0.075 0.122,-0.075c0.062,0 0.091,0.039 0.091,0.13l0,0.297l0.082,0l0,-0.352c0.045,-0.05 0.084,-0.075 0.122,-0.075c0.061,0 0.09,0.039 0.09,0.13l0,0.297l0.082,0l0,-0.308c0,-0.124 -0.048,-0.19 -0.148,-0.19c-0.059,0 -0.109,0.038 -0.16,0.093c-0.02,-0.058 -0.06,-0.093 -0.134,-0.093c-0.058,0 -0.109,0.036 -0.151,0.082l-0.003,0l-0.007,-0.07l-0.068,0l0,0.486Z" style="fill-rule:nonzero;"/></g><g transform="matrix(50,0,0,50,1309.92,104.98)"><path d="M0.266,-0.431c0.075,0 0.118,0.051 0.118,0.145l-0.253,0c0.013,-0.104 0.075,-0.145 0.135,-0.145Zm0.013,0.443c0.066,0 0.118,-0.021 0.161,-0.05l-0.03,-0.054c-0.034,0.023 -0.075,0.037 -0.121,0.037c-0.082,0 -0.152,-0.057 -0.16,-0.166l0.325,0c0.003,-0.016 0.004,-0.032 0.004,-0.049c0,-0.138 -0.068,-0.228 -0.193,-0.228c-0.112,0 -0.22,0.097 -0.22,0.255c0,0.161 0.103,0.255 0.234,0.255Z" style="fill-rule:nonzero;"/></g><g transform="matrix(50,0,0,50,1334.02,104.98)"><path d="M0.194,0.012c0.061,0 0.113,-0.031 0.161,-0.07l0.003,0l0.007,0.058l0.068,0l0,-0.298c0,-0.121 -0.051,-0.2 -0.169,-0.2c-0.078,0 -0.146,0.033 -0.191,0.063l0.032,0.056c0.038,-0.024 0.089,-0.05 0.145,-0.05c0.079,0 0.1,0.059 0.101,0.12c-0.208,0.023 -0.3,0.074 -0.3,0.183c0,0.088 0.062,0.138 0.143,0.138Zm0.023,-0.068c-0.047,0 -0.085,-0.021 -0.085,-0.075c0,-0.063 0.055,-0.1 0.219,-0.119l0,0.131c-0.047,0.042 -0.087,0.063 -0.134,0.063Z" style="fill-rule:nonzero;"/></g><g transform="matrix(50,0,0,50,1359.22,104.98)"><path d="M0.082,0l0.082,0l0,-0.352c0.049,-0.049 0.083,-0.075 0.133,-0.075c0.064,0 0.092,0.039 0.092,0.13l0,0.297l0.082,0l0,-0.308c0,-0.124 -0.046,-0.19 -0.148,-0.19c-0.067,0 -0.117,0.036 -0.163,0.082l-0.003,0l-0.007,-0.07l-0.068,0l0,0.486Z" style="fill-rule:nonzero;"/></g><g transform="matrix(50,0,0,50,1386.57,104.98)"><path d="M0.209,0.012c0.115,0 0.178,-0.066 0.178,-0.145c0,-0.088 -0.074,-0.121 -0.15,-0.148c-0.06,-0.021 -0.103,-0.039 -0.103,-0.083c0,-0.037 0.028,-0.07 0.089,-0.07c0.044,0 0.079,0.014 0.113,0.038l0.038,-0.047c-0.038,-0.032 -0.091,-0.055 -0.151,-0.055c-0.106,0 -0.168,0.06 -0.168,0.138c0,0.08 0.07,0.115 0.143,0.141c0.055,0.02 0.11,0.041 0.11,0.091c0,0.042 -0.032,0.076 -0.096,0.076c-0.06,0 -0.104,-0.019 -0.146,-0.054l-0.038,0.048c0.045,0.044 0.11,0.07 0.181,0.07Z" style="fill-rule:nonzero;"/></g><g transform="matrix(50,0,0,50,1407.52,104.98)"><path d="M0.125,0.012c0.032,0 0.059,-0.026 0.059,-0.062c0,-0.038 -0.027,-0.064 -0.059,-0.064c-0.033,0 -0.06,0.026 -0.06,0.064c0,0.036 0.027,0.062 0.06,0.062Z" style="fill-rule:nonzero;"/></g><g transform="matrix(50,0,0,50,1429.97,104.98)"><path d="M0.09,0l0.083,0l0,-0.26l0.108,0c0.144,0 0.242,-0.065 0.242,-0.203c0,-0.144 -0.099,-0.193 -0.246,-0.193l-0.187,0l0,0.656Zm0.083,-0.328l0,-0.261l0.094,0c0.115,0 0.173,0.031 0.173,0.126c0,0.093 -0.055,0.135 -0.169,0.135l-0.098,0Z" style="fill-rule:nonzero;"/></g><g transform="matrix(50,0,0,50,1458.27,104.98)"><path d="M0.082,0l0.082,0l0,-0.312c0.033,-0.082 0.082,-0.112 0.123,-0.112c0.02,0 0.03,0.002 0.045,0.006l0.018,-0.07c-0.016,-0.007 -0.031,-0.01 -0.052,-0.01c-0.055,0 -0.105,0.039 -0.138,0.1l-0.003,0l-0.007,-0.088l-0.068,0l0,0.486Z" style="fill-rule:nonzero;"/></g><g transform="matrix(50,0,0,50,1475.12,104.98)"><path d="M0.271,0.012c0.119,0 0.225,-0.093 0.225,-0.254c0,-0.163 -0.106,-0.256 -0.225,-0.256c-0.119,0 -0.225,0.093 -0.225,0.256c0,0.161 0.106,0.254 0.225,0.254Zm0,-0.068c-0.083,0 -0.14,-0.075 -0.14,-0.186c0,-0.112 0.057,-0.188 0.14,-0.188c0.084,0 0.14,0.076 0.14,0.188c0,0.111 -0.056,0.186 -0.14,0.186Z" style="fill-rule:nonzero;"/></g><g transform="matrix(50,0,0,50,1502.22,104.98)"><path d="M0.297,0.012c0.111,0 0.21,-0.097 0.21,-0.263c0,-0.15 -0.067,-0.247 -0.193,-0.247c-0.054,0 -0.108,0.029 -0.152,0.068l0.002,-0.088l0,-0.194l-0.082,0l0,0.712l0.066,0l0.007,-0.05l0.003,0c0.043,0.039 0.094,0.062 0.139,0.062Zm-0.014,-0.069c-0.032,0 -0.076,-0.014 -0.119,-0.051l0,-0.255c0.046,-0.043 0.089,-0.066 0.13,-0.066c0.092,0 0.128,0.072 0.128,0.179c0,0.12 -0.059,0.193 -0.139,0.193Z" style="fill-rule:nonzero;"/></g><g transform="matrix(50,0,0,50,1529.17,104.98)"><path d="M0.194,0.012c0.061,0 0.113,-0.031 0.161,-0.07l0.003,0l0.007,0.058l0.068,0l0,-0.298c0,-0.121 -0.051,-0.2 -0.169,-0.2c-0.078,0 -0.146,0.033 -0.191,0.063l0.032,0.056c0.038,-0.024 0.089,-0.05 0.145,-0.05c0.079,0 0.1,0.059 0.101,0.12c-0.208,0.023 -0.3,0.074 -0.3,0.183c0,0.088 0.062,0.138 0.143,0.138Zm0.023,-0.068c-0.047,0 -0.085,-0.021 -0.085,-0.075c0,-0.063 0.055,-0.1 0.219,-0.119l0,0.131c-0.047,0.042 -0.087,0.063 -0.134,0.063Z" style="fill-rule:nonzero;"/></g><g transform="matrix(50,0,0,50,1554.37,104.98)"><path d="M0.297,0.012c0.111,0 0.21,-0.097 0.21,-0.263c0,-0.15 -0.067,-0.247 -0.193,-0.247c-0.054,0 -0.108,0.029 -0.152,0.068l0.002,-0.088l0,-0.194l-0.082,0l0,0.712l0.066,0l0.007,-0.05l0.003,0c0.043,0.039 0.094,0.062 0.139,0.062Zm-0.014,-0.069c-0.032,0 -0.076,-0.014 -0.119,-0.051l0,-0.255c0.046,-0.043 0.089,-0.066 0.13,-0.066c0.092,0 0.128,0.072 0.128,0.179c0,0.12 -0.059,0.193 -0.139,0.193Z" style="fill-rule:nonzero;"/></g><g transform="matrix(50,0,0,50,1582.02,104.98)"><path d="M0.082,0l0.082,0l0,-0.486l-0.082,0l0,0.486Zm0.041,-0.586c0.032,0 0.055,-0.021 0.055,-0.054c0,-0.032 -0.023,-0.054 -0.055,-0.054c-0.032,0 -0.055,0.022 -0.055,0.054c0,0.033 0.023,0.054 0.055,0.054Z" style="fill-rule:nonzero;"/></g><g transform="matrix(50,0,0,50,1594.32,104.98)"><path d="M0.169,0.012c0.02,0 0.036,-0.003 0.047,-0.009l-0.011,-0.061c-0.008,0.002 -0.012,0.002 -0.017,0.002c-0.013,0 -0.024,-0.009 -0.024,-0.036l0,-0.62l-0.082,0l0,0.614c0,0.071 0.025,0.11 0.087,0.11Z" style="fill-rule:nonzero;"/></g><g transform="matrix(50,0,0,50,1607.07,104.98)"><path d="M0.082,0l0.082,0l0,-0.486l-0.082,0l0,0.486Zm0.041,-0.586c0.032,0 0.055,-0.021 0.055,-0.054c0,-0.032 -0.023,-0.054 -0.055,-0.054c-0.032,0 -0.055,0.022 -0.055,0.054c0,0.033 0.023,0.054 0.055,0.054Z" style="fill-rule:nonzero;"/></g><g transform="matrix(50,0,0,50,1619.37,104.98)"><path d="M0.235,0.012c0.033,0 0.065,-0.009 0.091,-0.021l-0.017,-0.058c-0.019,0.009 -0.038,0.012 -0.055,0.012c-0.056,0 -0.075,-0.034 -0.075,-0.094l0,-0.27l0.131,0l0,-0.067l-0.131,0l0,-0.156l-0.069,0l-0.01,0.156l-0.076,0.005l0,0.062l0.072,0l0,0.269c0,0.096 0.035,0.162 0.139,0.162Z" style="fill-rule:nonzero;"/></g><g transform="matrix(50,0,0,50,1636.27,104.98)"><path d="M0.09,0.209c0.098,0 0.148,-0.073 0.182,-0.169l0.183,-0.526l-0.08,0l-0.087,0.269c-0.013,0.043 -0.027,0.093 -0.041,0.137l-0.004,0c-0.015,-0.045 -0.032,-0.095 -0.047,-0.137l-0.099,-0.269l-0.085,0l0.195,0.487l-0.011,0.036c-0.02,0.06 -0.055,0.104 -0.11,0.104c-0.011,0 -0.023,-0.002 -0.035,-0.006l-0.018,0.064c0.016,0.006 0.035,0.01 0.057,0.01Z" style="fill-rule:nonzero;"/></g><g transform="matrix(50,0,0,50,1669.62,104.98)"><path d="M0.235,0.012c0.033,0 0.065,-0.009 0.091,-0.021l-0.017,-0.058c-0.019,0.009 -0.038,0.012 -0.055,0.012c-0.056,0 -0.075,-0.034 -0.075,-0.094l0,-0.27l0.131,0l0,-0.067l-0.131,0l0,-0.156l-0.069,0l-0.01,0.156l-0.076,0.005l0,0.062l0.072,0l0,0.269c0,0.096 0.035,0.162 0.139,0.162Z" style="fill-rule:nonzero;"/></g><g transform="matrix(50,0,0,50,1686.52,104.98)"><path d="M0.082,0l0.082,0l0,-0.352c0.049,-0.049 0.083,-0.075 0.133,-0.075c0.064,0 0.092,0.039 0.092,0.13l0,0.297l0.082,0l0,-0.308c0,-0.124 -0.046,-0.19 -0.148,-0.19c-0.067,0 -0.116,0.036 -0.162,0.08l0.003,-0.1l0,-0.194l-0.082,0l0,0.712Z" style="fill-rule:nonzero;"/></g><g transform="matrix(50,0,0,50,1713.72,104.98)"><path d="M0.194,0.012c0.061,0 0.113,-0.031 0.161,-0.07l0.003,0l0.007,0.058l0.068,0l0,-0.298c0,-0.121 -0.051,-0.2 -0.169,-0.2c-0.078,0 -0.146,0.033 -0.191,0.063l0.032,0.056c0.038,-0.024 0.089,-0.05 0.145,-0.05c0.079,0 0.1,0.059 0.101,0.12c-0.208,0.023 -0.3,0.074 -0.3,0.183c0,0.088 0.062,0.138 0.143,0.138Zm0.023,-0.068c-0.047,0 -0.085,-0.021 -0.085,-0.075c0,-0.063 0.055,-0.1 0.219,-0.119l0,0.131c-0.047,0.042 -0.087,0.063 -0.134,0.063Z" style="fill-rule:nonzero;"/></g><g transform="matrix(50,0,0,50,1738.22,104.98)"><path d="M0.235,0.012c0.033,0 0.065,-0.009 0.091,-0.021l-0.017,-0.058c-0.019,0.009 -0.038,0.012 -0.055,0.012c-0.056,0 -0.075,-0.034 -0.075,-0.094l0,-0.27l0.131,0l0,-0.067l-0.131,0l0,-0.156l-0.069,0l-0.01,0.156l-0.076,0.005l0,0.062l0.072,0l0,0.269c0,0.096 0.035,0.162 0.139,0.162Z" style="fill-rule:nonzero;"/></g><g transform="matrix(50,0,0,50,1765.12,104.98)"><path d="M0.082,0l0.082,0l0,-0.352c0.045,-0.05 0.086,-0.075 0.122,-0.075c0.062,0 0.091,0.039 0.091,0.13l0,0.297l0.082,0l0,-0.352c0.045,-0.05 0.084,-0.075 0.122,-0.075c0.061,0 0.09,0.039 0.09,0.13l0,0.297l0.082,0l0,-0.308c0,-0.124 -0.048,-0.19 -0.148,-0.19c-0.059,0 -0.109,0.038 -0.16,0.093c-0.02,-0.058 -0.06,-0.093 -0.134,-0.093c-0.058,0 -0.109,0.036 -0.151,0.082l-0.003,0l-0.007,-0.07l-0.068,0l0,0.486Z" style="fill-rule:nonzero;"/></g><g transform="matrix(50,0,0,50,1806.57,104.98)"><path d="M0.266,-0.431c0.075,0 0.118,0.051 0.118,0.145l-0.253,0c0.013,-0.104 0.075,-0.145 0.135,-0.145Zm0.013,0.443c0.066,0 0.118,-0.021 0.161,-0.05l-0.03,-0.054c-0.034,0.023 -0.075,0.037 -0.121,0.037c-0.082,0 -0.152,-0.057 -0.16,-0.166l0.325,0c0.003,-0.016 0.004,-0.032 0.004,-0.049c0,-0.138 -0.068,-0.228 -0.193,-0.228c-0.112,0 -0.22,0.097 -0.22,0.255c0,0.161 0.103,0.255 0.234,0.255Z" style="fill-rule:nonzero;"/></g><g transform="matrix(50,0,0,50,1830.67,104.98)"><path d="M0.194,0.012c0.061,0 0.113,-0.031 0.161,-0.07l0.003,0l0.007,0.058l0.068,0l0,-0.298c0,-0.121 -0.051,-0.2 -0.169,-0.2c-0.078,0 -0.146,0.033 -0.191,0.063l0.032,0.056c0.038,-0.024 0.089,-0.05 0.145,-0.05c0.079,0 0.1,0.059 0.101,0.12c-0.208,0.023 -0.3,0.074 -0.3,0.183c0,0.088 0.062,0.138 0.143,0.138Zm0.023,-0.068c-0.047,0 -0.085,-0.021 -0.085,-0.075c0,-0.063 0.055,-0.1 0.219,-0.119l0,0.131c-0.047,0.042 -0.087,0.063 -0.134,0.063Z" style="fill-rule:nonzero;"/></g><g transform="matrix(50,0,0,50,1855.87,104.98)"><path d="M0.082,0l0.082,0l0,-0.352c0.049,-0.049 0.083,-0.075 0.133,-0.075c0.064,0 0.092,0.039 0.092,0.13l0,0.297l0.082,0l0,-0.308c0,-0.124 -0.046,-0.19 -0.148,-0.19c-0.067,0 -0.117,0.036 -0.163,0.082l-0.003,0l-0.007,-0.07l-0.068,0l0,0.486Z" style="fill-rule:nonzero;"/></g><g transform="matrix(50,0,0,50,1883.22,104.98)"><path d="M0.209,0.012c0.115,0 0.178,-0.066 0.178,-0.145c0,-0.088 -0.074,-0.121 -0.15,-0.148c-0.06,-0.021 -0.103,-0.039 -0.103,-0.083c0,-0.037 0.028,-0.07 0.089,-0.07c0.044,0 0.079,0.014 0.113,0.038l0.038,-0.047c-0.038,-0.032 -0.091,-0.055 -0.151,-0.055c-0.106,0 -0.168,0.06 -0.168,0.138c0,0.08 0.07,0.115 0.143,0.141c0.055,0.02 0.11,0.041 0.11,0.091c0,0.042 -0.032,0.076 -0.096,0.076c-0.06,0 -0.104,-0.019 -0.146,-0.054l-0.038,0.048c0.045,0.044 0.11,0.07 0.181,0.07Z" style="fill-rule:nonzero;"/></g><g transform="matrix(50,0,0,50,1914.17,104.98)"><path d="M0.194,0.012c0.061,0 0.113,-0.031 0.161,-0.07l0.003,0l0.007,0.058l0.068,0l0,-0.298c0,-0.121 -0.051,-0.2 -0.169,-0.2c-0.078,0 -0.146,0.033 -0.191,0.063l0.032,0.056c0.038,-0.024 0.089,-0.05 0.145,-0.05c0.079,0 0.1,0.059 0.101,0.12c-0.208,0.023 -0.3,0.074 -0.3,0.183c0,0.088 0.062,0.138 0.143,0.138Zm0.023,-0.068c-0.047,0 -0.085,-0.021 -0.085,-0.075c0,-0.063 0.055,-0.1 0.219,-0.119l0,0.131c-0.047,0.042 -0.087,0.063 -0.134,0.063Z" style="fill-rule:nonzero;"/></g><g transform="matrix(50,0,0,50,1939.37,104.98)"><path d="M0.082,0l0.082,0l0,-0.312c0.033,-0.082 0.082,-0.112 0.123,-0.112c0.02,0 0.03,0.002 0.045,0.006l0.018,-0.07c-0.016,-0.007 -0.031,-0.01 -0.052,-0.01c-0.055,0 -0.105,0.039 -0.138,0.1l-0.003,0l-0.007,-0.088l-0.068,0l0,0.486Z" style="fill-rule:nonzero;"/></g><g transform="matrix(50,0,0,50,1956.22,104.98)"><path d="M0.266,-0.431c0.075,0 0.118,0.051 0.118,0.145l-0.253,0c0.013,-0.104 0.075,-0.145 0.135,-0.145Zm0.013,0.443c0.066,0 0.118,-0.021 0.161,-0.05l-0.03,-0.054c-0.034,0.023 -0.075,0.037 -0.121,0.037c-0.082,0 -0.152,-0.057 -0.16,-0.166l0.325,0c0.003,-0.016 0.004,-0.032 0.004,-0.049c0,-0.138 -0.068,-0.228 -0.193,-0.228c-0.112,0 -0.22,0.097 -0.22,0.255c0,0.161 0.103,0.255 0.234,0.255Z" style="fill-rule:nonzero;"/></g><g transform="matrix(50,0,0,50,1991.02,104.98)"><path d="M0.266,-0.431c0.075,0 0.118,0.051 0.118,0.145l-0.253,0c0.013,-0.104 0.075,-0.145 0.135,-0.145Zm0.013,0.443c0.066,0 0.118,-0.021 0.161,-0.05l-0.03,-0.054c-0.034,0.023 -0.075,0.037 -0.121,0.037c-0.082,0 -0.152,-0.057 -0.16,-0.166l0.325,0c0.003,-0.016 0.004,-0.032 0.004,-0.049c0,-0.138 -0.068,-0.228 -0.193,-0.228c-0.112,0 -0.22,0.097 -0.22,0.255c0,0.161 0.103,0.255 0.234,0.255Z" style="fill-rule:nonzero;"/></g><g transform="matrix(50,0,0,50,2015.82,104.98)"><path d="M0.39,0.205l0.083,0l0,-0.691l-0.066,0l-0.008,0.046l-0.002,0c-0.044,-0.038 -0.083,-0.058 -0.139,-0.058c-0.111,0 -0.211,0.098 -0.211,0.256c0,0.162 0.079,0.254 0.201,0.254c0.056,0 0.107,-0.03 0.146,-0.068l-0.004,0.088l0,0.173Zm-0.124,-0.262c-0.085,0 -0.134,-0.07 -0.134,-0.186c0,-0.111 0.062,-0.186 0.14,-0.186c0.04,0 0.077,0.014 0.118,0.051l0,0.254c-0.04,0.045 -0.079,0.067 -0.124,0.067Z" style="fill-rule:nonzero;"/></g><g transform="matrix(50,0,0,50,2043.57,104.98)"><path d="M0.224,0.012c0.067,0 0.115,-0.035 0.16,-0.088l0.003,0l0.007,0.076l0.068,0l0,-0.486l-0.082,0l0,0.345c-0.046,0.057 -0.081,0.082 -0.131,0.082c-0.064,0 -0.091,-0.039 -0.091,-0.13l0,-0.297l-0.083,0l0,0.308c0,0.124 0.046,0.19 0.149,0.19Z" style="fill-rule:nonzero;"/></g><g transform="matrix(50,0,0,50,2070.77,104.98)"><path d="M0.194,0.012c0.061,0 0.113,-0.031 0.161,-0.07l0.003,0l0.007,0.058l0.068,0l0,-0.298c0,-0.121 -0.051,-0.2 -0.169,-0.2c-0.078,0 -0.146,0.033 -0.191,0.063l0.032,0.056c0.038,-0.024 0.089,-0.05 0.145,-0.05c0.079,0 0.1,0.059 0.101,0.12c-0.208,0.023 -0.3,0.074 -0.3,0.183c0,0.088 0.062,0.138 0.143,0.138Zm0.023,-0.068c-0.047,0 -0.085,-0.021 -0.085,-0.075c0,-0.063 0.055,-0.1 0.219,-0.119l0,0.131c-0.047,0.042 -0.087,0.063 -0.134,0.063Z" style="fill-rule:nonzero;"/></g><g transform="matrix(50,0,0,50,2095.97,104.98)"><path d="M0.169,0.012c0.02,0 0.036,-0.003 0.047,-0.009l-0.011,-0.061c-0.008,0.002 -0.012,0.002 -0.017,0.002c-0.013,0 -0.024,-0.009 -0.024,-0.036l0,-0.62l-0.082,0l0,0.614c0,0.071 0.025,0.11 0.087,0.11Z" style="fill-rule:nonzero;"/></g><g transform="matrix(50,0,0,50,2118.72,104.98)"><path d="M0.463,-0.131l0,-0.071l-0.211,-0.078l-0.134,-0.05l0,-0.004l0.134,-0.05l0.211,-0.078l0,-0.071l-0.429,0.168l0,0.066l0.429,0.168Z" style="fill-rule:nonzero;"/></g><g transform="matrix(50,0,0,50,2153.57,104.98)"><path d="M0.079,0l0.36,0l0,-0.068l-0.132,0l0,-0.57l-0.063,0c-0.035,0.021 -0.077,0.037 -0.135,0.047l0,0.053l0.116,0l0,0.47l-0.146,0l0,0.068Z" style="fill-rule:nonzero;"/></g><g transform="matrix(50,0,0,50,2178.42,104.98)"><path d="M0.184,-0.254c0.089,0 0.149,-0.075 0.149,-0.208c0,-0.131 -0.06,-0.206 -0.149,-0.206c-0.09,0 -0.149,0.075 -0.149,0.206c0,0.133 0.059,0.208 0.149,0.208Zm0,-0.051c-0.052,0 -0.087,-0.053 -0.087,-0.157c0,-0.104 0.035,-0.155 0.087,-0.155c0.051,0 0.086,0.051 0.086,0.155c0,0.104 -0.035,0.157 -0.086,0.157Zm0.019,0.317l0.056,0l0.362,-0.68l-0.056,0l-0.362,0.68Zm0.438,0c0.089,0 0.149,-0.075 0.149,-0.208c0,-0.131 -0.06,-0.206 -0.149,-0.206c-0.09,0 -0.149,0.075 -0.149,0.206c0,0.133 0.059,0.208 0.149,0.208Zm0,-0.051c-0.052,0 -0.087,-0.053 -0.087,-0.157c0,-0.104 0.035,-0.155 0.087,-0.155c0.051,0 0.086,0.051 0.086,0.155c0,0.104 -0.035,0.157 -0.086,0.157Z" style="fill-rule:nonzero;"/></g><g transform="matrix(50,0,0,50,2219.62,104.98)"><path d="M0.125,0.012c0.032,0 0.059,-0.026 0.059,-0.062c0,-0.038 -0.027,-0.064 -0.059,-0.064c-0.033,0 -0.06,0.026 -0.06,0.064c0,0.036 0.027,0.062 0.06,0.062Z" style="fill-rule:nonzero;"/></g></g></svg>