<?xml version="1.0" encoding="UTF-8" standalone="no"?>
<!DOCTYPE svg PUBLIC "-//W3C//DTD SVG 1.1//EN" "http://www.w3.org/Graphics/SVG/1.1/DTD/svg11.dtd">
<svg width="100%" height="100%" viewBox="0 0 1749 1418" version="1.1" xmlns="http://www.w3.org/2000/svg" xmlns:xlink="http://www.w3.org/1999/xlink" xml:space="preserve" xmlns:serif="http://www.serif.com/" style="fill-rule:evenodd;clip-rule:evenodd;stroke-linecap:round;stroke-linejoin:bevel;stroke-miterlimit:1.5;">
    <g id="background" transform="matrix(1,0,0,1,0.16713,-1.2631)">
        <g transform="matrix(0.53008,0,0,1.03363,257.575,-33.5888)">
            <rect x="548.125" y="198.458" width="606.389" height="732.576" style="fill:rgb(247,247,247);stroke:white;stroke-width:5.07px;"/>
        </g>
        <g transform="matrix(0.53008,0,0,1.03363,587.399,-33.5888)">
            <rect x="548.125" y="198.458" width="606.389" height="732.576" style="fill:rgb(247,247,247);stroke:white;stroke-width:5.07px;"/>
        </g>
    </g>
    <g id="pedestal">
        <g transform="matrix(1,0,0,1,-18.2617,-97.9434)">
            <rect x="727.365" y="732.64" width="322.875" height="203.634" style="fill:rgb(228,225,221);"/>
        </g>
        <g transform="matrix(1,0,0,0.264339,-18.2617,387.203)">
            <path d="M1025.97,808.3L754.223,808.3L727.365,936.273L1050.24,936.273L1025.97,808.3Z" style="fill:rgb(238,235,232);"/>
        </g>
    </g>
    <g id="money" transform="matrix(1,0,0,1,-9.27129,3.79279)">
        <g transform="matrix(0.0764578,0,0,0.0764578,703.281,486.895)">
            <path d="M726.355,1605L724.51,1554.51C901.795,1597.4 884.88,1589.03 921.661,1594.83L1021.26,1607.9C1061.37,1610.74 1021.23,1611.77 1251.72,1618.92L1248.92,1674.66L726.355,1605Z" style="fill:rgb(183,176,156);"/>
            <path d="M826.344,1464.05L724.51,1554.51C901.795,1597.4 884.88,1589.03 921.661,1594.83L1021.26,1607.9C1061.37,1610.74 1021.23,1611.77 1251.72,1618.92L1248.92,1674.66L1284.73,1559.17L1291.24,1511.21C1186.82,1514.2 1146.38,1509.22 1085.61,1506.77L1003.46,1496.21C945.103,1488.88 890.043,1480.84 826.344,1464.05Z" style="fill:rgb(229,220,203);"/>
            <path d="M924.756,1631.56L925.6,1594.25L1004.9,1496.44L1081.49,1506.08L1014.57,1607.52L1014.97,1643.44L924.756,1631.56Z" style="fill:white;"/>
            <clipPath id="_clip1">
                <path d="M924.756,1631.56L925.6,1594.25L1004.9,1496.44L1081.49,1506.08L1014.57,1607.52L1014.97,1643.44L924.756,1631.56Z"/>
            </clipPath>
            <g clip-path="url(#_clip1)">
                <path d="M924.756,1631.56L925.6,1594.25L1004.9,1496.44L1081.49,1506.08L1014.57,1607.52L1014.97,1643.44L924.756,1631.56Z" style="fill:rgb(254,197,115);"/>
                <path d="M930.89,1632.41L931.711,1596.56L1010.72,1496.43L1076.53,1504.93L1007.9,1606.62L1008.01,1643.01L930.89,1632.41Z" style="fill:white;"/>
            </g>
        </g>
        <g transform="matrix(0.0811952,0,0,0.0843945,752.854,484.529)">
            <path d="M726.355,1605L724.51,1554.51C901.795,1597.4 884.88,1589.03 921.661,1594.83L1021.26,1607.9C1061.37,1610.74 1021.23,1611.77 1251.72,1618.92L1248.92,1674.66L726.355,1605Z" style="fill:rgb(183,176,156);"/>
            <path d="M826.344,1464.05L724.51,1554.51C901.795,1597.4 884.88,1589.03 921.661,1594.83L1021.26,1607.9C1061.37,1610.74 1021.23,1611.77 1251.72,1618.92L1248.92,1674.66L1284.73,1559.17L1291.24,1511.21C1186.82,1514.2 1146.38,1509.22 1085.61,1506.77L1003.46,1496.21C945.103,1488.88 890.043,1480.84 826.344,1464.05Z" style="fill:rgb(229,220,203);"/>
            <path d="M924.756,1631.56L925.6,1594.25L1004.9,1496.44L1081.49,1506.08L1014.57,1607.52L1014.97,1643.44L924.756,1631.56Z" style="fill:white;"/>
            <clipPath id="_clip2">
                <path d="M924.756,1631.56L925.6,1594.25L1004.9,1496.44L1081.49,1506.08L1014.57,1607.52L1014.97,1643.44L924.756,1631.56Z"/>
            </clipPath>
            <g clip-path="url(#_clip2)">
                <path d="M924.756,1631.56L925.6,1594.25L1004.9,1496.44L1081.49,1506.08L1014.57,1607.52L1014.97,1643.44L924.756,1631.56Z" style="fill:rgb(254,197,115);"/>
                <path d="M930.89,1632.41L931.711,1596.56L1010.72,1496.43L1076.53,1504.93L1007.9,1606.62L1008.01,1643.01L930.89,1632.41Z" style="fill:white;"/>
            </g>
        </g>
        <g transform="matrix(-0.0830462,0,0,0.0852677,997.713,482.577)">
            <path d="M726.355,1605L724.51,1554.51C901.795,1597.4 884.88,1589.03 921.661,1594.83L1021.26,1607.9C1061.37,1610.74 1021.23,1611.77 1251.72,1618.92L1248.92,1674.66L726.355,1605Z" style="fill:rgb(183,176,156);"/>
            <path d="M826.344,1464.05L724.51,1554.51C901.795,1597.4 884.88,1589.03 921.661,1594.83L1021.26,1607.9C1061.37,1610.74 1021.23,1611.77 1251.72,1618.92L1248.92,1674.66L1284.73,1559.17L1291.24,1511.21C1186.82,1514.2 1146.38,1509.22 1085.61,1506.77L1003.46,1496.21C945.103,1488.88 890.043,1480.84 826.344,1464.05Z" style="fill:rgb(229,220,203);"/>
            <path d="M924.756,1631.56L925.6,1594.25L1004.9,1496.44L1081.49,1506.08L1014.57,1607.52L1014.97,1643.44L924.756,1631.56Z" style="fill:white;"/>
            <clipPath id="_clip3">
                <path d="M924.756,1631.56L925.6,1594.25L1004.9,1496.44L1081.49,1506.08L1014.57,1607.52L1014.97,1643.44L924.756,1631.56Z"/>
            </clipPath>
            <g clip-path="url(#_clip3)">
                <path d="M924.756,1631.56L925.6,1594.25L1004.9,1496.44L1081.49,1506.08L1014.57,1607.52L1014.97,1643.44L924.756,1631.56Z" style="fill:rgb(254,197,115);"/>
                <path d="M930.89,1632.41L931.711,1596.56L1010.72,1496.43L1076.53,1504.93L1007.9,1606.62L1008.01,1643.01L930.89,1632.41Z" style="fill:white;"/>
            </g>
        </g>
        <g transform="matrix(-0.080544,0,0,0.080544,862.922,475.031)">
            <path d="M726.355,1605L724.51,1554.51C901.795,1597.4 884.88,1589.03 921.661,1594.83L1021.26,1607.9C1061.37,1610.74 1021.23,1611.77 1251.72,1618.92L1248.92,1674.66L726.355,1605Z" style="fill:rgb(183,176,156);"/>
            <path d="M826.344,1464.05L724.51,1554.51C901.795,1597.4 884.88,1589.03 921.661,1594.83L1021.26,1607.9C1061.37,1610.74 1021.23,1611.77 1251.72,1618.92L1248.92,1674.66L1284.73,1559.17L1291.24,1511.21C1186.82,1514.2 1146.38,1509.22 1085.61,1506.77L1003.46,1496.21C945.103,1488.88 890.043,1480.84 826.344,1464.05Z" style="fill:rgb(229,220,203);"/>
            <path d="M924.756,1631.56L925.6,1594.25L1004.9,1496.44L1081.49,1506.08L1014.57,1607.52L1014.97,1643.44L924.756,1631.56Z" style="fill:white;"/>
            <clipPath id="_clip4">
                <path d="M924.756,1631.56L925.6,1594.25L1004.9,1496.44L1081.49,1506.08L1014.57,1607.52L1014.97,1643.44L924.756,1631.56Z"/>
            </clipPath>
            <g clip-path="url(#_clip4)">
                <path d="M924.756,1631.56L925.6,1594.25L1004.9,1496.44L1081.49,1506.08L1014.57,1607.52L1014.97,1643.44L924.756,1631.56Z" style="fill:rgb(254,197,115);"/>
                <path d="M930.89,1632.41L931.711,1596.56L1010.72,1496.43L1076.53,1504.93L1007.9,1606.62L1008.01,1643.01L930.89,1632.41Z" style="fill:white;"/>
            </g>
        </g>
        <g transform="matrix(-0.0822744,0,0,0.0855162,918.22,477.896)">
            <path d="M726.355,1605L724.51,1554.51C901.795,1597.4 884.88,1589.03 921.661,1594.83L1021.26,1607.9C1061.37,1610.74 1021.23,1611.77 1251.72,1618.92L1248.92,1674.66L726.355,1605Z" style="fill:rgb(183,176,156);"/>
            <path d="M826.344,1464.05L724.51,1554.51C901.795,1597.4 884.88,1589.03 921.661,1594.83L1021.26,1607.9C1061.37,1610.74 1021.23,1611.77 1251.72,1618.92L1248.92,1674.66L1284.73,1559.17L1291.24,1511.21C1186.82,1514.2 1146.38,1509.22 1085.61,1506.77L1003.46,1496.21C945.103,1488.88 890.043,1480.84 826.344,1464.05Z" style="fill:rgb(229,220,203);"/>
            <path d="M924.756,1631.56L925.6,1594.25L1004.9,1496.44L1081.49,1506.08L1014.57,1607.52L1014.97,1643.44L924.756,1631.56Z" style="fill:white;"/>
            <clipPath id="_clip5">
                <path d="M924.756,1631.56L925.6,1594.25L1004.9,1496.44L1081.49,1506.08L1014.57,1607.52L1014.97,1643.44L924.756,1631.56Z"/>
            </clipPath>
            <g clip-path="url(#_clip5)">
                <path d="M924.756,1631.56L925.6,1594.25L1004.9,1496.44L1081.49,1506.08L1014.57,1607.52L1014.97,1643.44L924.756,1631.56Z" style="fill:rgb(254,197,115);"/>
                <path d="M930.89,1632.41L931.711,1596.56L1010.72,1496.43L1076.53,1504.93L1007.9,1606.62L1008.01,1643.01L930.89,1632.41Z" style="fill:white;"/>
            </g>
        </g>
        <g transform="matrix(-0.0794876,0,0,0.0794876,1060.53,489.486)">
            <path d="M726.355,1605L724.51,1554.51C901.795,1597.4 884.88,1589.03 921.661,1594.83L1021.26,1607.9C1061.37,1610.74 1021.23,1611.77 1251.72,1618.92L1248.92,1674.66L726.355,1605Z" style="fill:rgb(183,176,156);"/>
            <path d="M826.344,1464.05L724.51,1554.51C901.795,1597.4 884.88,1589.03 921.661,1594.83L1021.26,1607.9C1061.37,1610.74 1021.23,1611.77 1251.72,1618.92L1248.92,1674.66L1284.73,1559.17L1291.24,1511.21C1186.82,1514.2 1146.38,1509.22 1085.61,1506.77L1003.46,1496.21C945.103,1488.88 890.043,1480.84 826.344,1464.05Z" style="fill:rgb(229,220,203);"/>
            <path d="M924.756,1631.56L925.6,1594.25L1004.9,1496.44L1081.49,1506.08L1014.57,1607.52L1014.97,1643.44L924.756,1631.56Z" style="fill:white;"/>
            <clipPath id="_clip6">
                <path d="M924.756,1631.56L925.6,1594.25L1004.9,1496.44L1081.49,1506.08L1014.57,1607.52L1014.97,1643.44L924.756,1631.56Z"/>
            </clipPath>
            <g clip-path="url(#_clip6)">
                <path d="M924.756,1631.56L925.6,1594.25L1004.9,1496.44L1081.49,1506.08L1014.57,1607.52L1014.97,1643.44L924.756,1631.56Z" style="fill:rgb(254,197,115);"/>
                <path d="M930.89,1632.41L931.711,1596.56L1010.72,1496.43L1076.53,1504.93L1007.9,1606.62L1008.01,1643.01L930.89,1632.41Z" style="fill:white;"/>
            </g>
        </g>
        <g transform="matrix(0.078833,0,0,0.0809418,837.227,486.325)">
            <path d="M726.355,1605L724.51,1554.51C901.795,1597.4 884.88,1589.03 921.661,1594.83L1021.26,1607.9C1061.37,1610.74 1021.23,1611.77 1251.72,1618.92L1248.92,1674.66L726.355,1605Z" style="fill:rgb(183,176,156);"/>
            <path d="M826.344,1464.05L724.51,1554.51C901.795,1597.4 884.88,1589.03 921.661,1594.83L1021.26,1607.9C1061.37,1610.74 1021.23,1611.77 1251.72,1618.92L1248.92,1674.66L1284.73,1559.17L1291.24,1511.21C1186.82,1514.2 1146.38,1509.22 1085.61,1506.77L1003.46,1496.21C945.103,1488.88 890.043,1480.84 826.344,1464.05Z" style="fill:rgb(229,220,203);"/>
            <path d="M924.756,1631.56L925.6,1594.25L1004.9,1496.44L1081.49,1506.08L1014.57,1607.52L1014.97,1643.44L924.756,1631.56Z" style="fill:white;"/>
            <clipPath id="_clip7">
                <path d="M924.756,1631.56L925.6,1594.25L1004.9,1496.44L1081.49,1506.08L1014.57,1607.52L1014.97,1643.44L924.756,1631.56Z"/>
            </clipPath>
            <g clip-path="url(#_clip7)">
                <path d="M924.756,1631.56L925.6,1594.25L1004.9,1496.44L1081.49,1506.08L1014.57,1607.52L1014.97,1643.44L924.756,1631.56Z" style="fill:rgb(254,197,115);"/>
                <path d="M930.89,1632.41L931.711,1596.56L1010.72,1496.43L1076.53,1504.93L1007.9,1606.62L1008.01,1643.01L930.89,1632.41Z" style="fill:white;"/>
            </g>
        </g>
        <g transform="matrix(0.0794876,0,0,0.0794876,899.356,487.187)">
            <path d="M726.355,1605L724.51,1554.51C901.795,1597.4 884.88,1589.03 921.661,1594.83L1021.26,1607.9C1061.37,1610.74 1021.23,1611.77 1251.72,1618.92L1248.92,1674.66L726.355,1605Z" style="fill:rgb(183,176,156);"/>
            <path d="M826.344,1464.05L724.51,1554.51C901.795,1597.4 884.88,1589.03 921.661,1594.83L1021.26,1607.9C1061.37,1610.74 1021.23,1611.77 1251.72,1618.92L1248.92,1674.66L1284.73,1559.17L1291.24,1511.21C1186.82,1514.2 1146.38,1509.22 1085.61,1506.77L1003.46,1496.21C945.103,1488.88 890.043,1480.84 826.344,1464.05Z" style="fill:rgb(229,220,203);"/>
            <path d="M924.756,1631.56L925.6,1594.25L1004.9,1496.44L1081.49,1506.08L1014.57,1607.52L1014.97,1643.44L924.756,1631.56Z" style="fill:white;"/>
            <clipPath id="_clip8">
                <path d="M924.756,1631.56L925.6,1594.25L1004.9,1496.44L1081.49,1506.08L1014.57,1607.52L1014.97,1643.44L924.756,1631.56Z"/>
            </clipPath>
            <g clip-path="url(#_clip8)">
                <path d="M924.756,1631.56L925.6,1594.25L1004.9,1496.44L1081.49,1506.08L1014.57,1607.52L1014.97,1643.44L924.756,1631.56Z" style="fill:rgb(254,197,115);"/>
                <path d="M930.89,1632.41L931.711,1596.56L1010.72,1496.43L1076.53,1504.93L1007.9,1606.62L1008.01,1643.01L930.89,1632.41Z" style="fill:white;"/>
            </g>
        </g>
    </g>
    <g id="door" transform="matrix(1,0,0,0.866797,-4,22.8502)">
        <rect x="548.125" y="171.544" width="322.416" height="873.575" style="fill:none;stroke:rgb(192,192,192);stroke-width:4.45px;"/>
        <g transform="matrix(1,0,0,1,328.843,0)">
            <rect x="548.125" y="171.544" width="322.416" height="873.575" style="fill:none;stroke:rgb(192,192,192);stroke-width:4.45px;"/>
        </g>
    </g>
    <g id="wall">
        <g id="inner_wall" transform="matrix(0.859527,0,0,0.859527,122.15,35.346)">
            <path d="M-114.671,0.606L-112.398,1174.8L495.592,1174.8L548.125,1045.12C548.125,1045.12 545.55,432.336 545.55,426.341C545.55,396.356 612.771,251.572 752.925,211.187L986.203,211.187C1126.36,251.572 1193.58,396.356 1193.58,426.341C1193.58,432.336 1191,1045.12 1191,1045.12L1250.96,1174.8L1853.8,1174.8L1853.8,0.606L-114.671,0.606Z" style="fill:rgb(243,240,235);"/>
        </g>
        <path id="front_wall" d="M25.541,35.867L23.578,1045.12L548.125,1045.12C548.125,1045.12 545.55,432.336 545.55,426.341C545.55,396.356 612.771,251.572 752.925,211.187L986.203,211.187C1126.36,251.572 1193.58,396.356 1193.58,426.341C1193.58,432.336 1191,1045.12 1191,1045.12L1715.54,1045.12L1713.59,35.867L25.541,35.867Z" style="fill:rgb(248,247,244);"/>
    </g>
    <g id="counter">
        <g id="screen" transform="matrix(1,0,0,1,1.71787,0.792461)">
            <rect x="756.155" y="98.897" width="225.336" height="98.769" style="fill:rgb(26,26,26);stroke:black;stroke-width:6.25px;stroke-linejoin:round;"/>
        </g>
        <g transform="matrix(1,0,0,1,11.7227,17.1163)">
            <g id="score" transform="matrix(100,0,0,100,843.606,170.597)">
                <path d="M0.082,-0.717L0.066,-0.44L0.077,-0.416L0.156,-0.463L0.168,-0.661L0.082,-0.717ZM0.172,-0.45L0.092,-0.406C0.113,-0.389 0.137,-0.374 0.158,-0.355L0.406,-0.355L0.47,-0.399L0.405,-0.45L0.172,-0.45ZM0.475,-0.388L0.418,-0.342L0.406,-0.115L0.472,-0.036L0.49,-0.062L0.509,-0.35L0.475,-0.388ZM0.525,-0.762L0.435,-0.672L0.423,-0.458L0.479,-0.416L0.514,-0.453C0.519,-0.552 0.525,-0.647 0.53,-0.746C0.53,-0.751 0.527,-0.757 0.525,-0.762Z" style="fill:rgb(242,13,13);fill-rule:nonzero;"/>
            </g>
            <g transform="matrix(100,0,0,100,902.106,170.597)">
                <path d="M0.139,-0.092L0.047,-0.036L0.047,-0.035C0.047,-0.03 0.051,-0.027 0.054,-0.024C0.061,-0.015 0.068,-0.007 0.075,0.002L0.46,0.002C0.467,0.002 0.47,0 0.47,-0.003C0.47,-0.005 0.468,-0.007 0.465,-0.01C0.444,-0.036 0.421,-0.066 0.4,-0.092L0.139,-0.092ZM0.077,-0.394C0.074,-0.384 0.066,-0.373 0.063,-0.363L0.047,-0.059L0.139,-0.109L0.151,-0.342L0.077,-0.394ZM0.155,-0.78L0.088,-0.735L0.168,-0.685L0.423,-0.685L0.514,-0.775L0.155,-0.78ZM0.172,-0.45L0.092,-0.406C0.113,-0.389 0.137,-0.374 0.158,-0.355L0.406,-0.355L0.47,-0.399L0.405,-0.45L0.172,-0.45ZM0.525,-0.762L0.435,-0.672L0.423,-0.458L0.479,-0.416L0.514,-0.453C0.519,-0.552 0.525,-0.647 0.53,-0.746C0.53,-0.751 0.527,-0.757 0.525,-0.762Z" style="fill:rgb(242,13,13);fill-rule:nonzero;"/>
            </g>
        </g>
    </g>
    <g transform="matrix(1,0,0,1,-142.155,-74.1625)">
        <g transform="matrix(83.3333,0,0,83.3333,285.928,335.534)">
            <path d="M0.491,-0.168C0.491,-0.251 0.436,-0.315 0.304,-0.387C0.199,-0.444 0.157,-0.488 0.157,-0.543C0.157,-0.598 0.199,-0.635 0.261,-0.635C0.306,-0.635 0.348,-0.616 0.383,-0.58C0.414,-0.548 0.428,-0.522 0.444,-0.463L0.469,-0.463L0.447,-0.676L0.426,-0.676C0.422,-0.654 0.411,-0.642 0.394,-0.642C0.384,-0.642 0.368,-0.646 0.35,-0.654C0.313,-0.668 0.277,-0.676 0.242,-0.676C0.203,-0.676 0.161,-0.66 0.129,-0.634C0.09,-0.602 0.071,-0.559 0.071,-0.504C0.071,-0.425 0.115,-0.369 0.227,-0.31C0.299,-0.271 0.351,-0.231 0.376,-0.193C0.385,-0.179 0.39,-0.159 0.39,-0.134C0.39,-0.068 0.34,-0.022 0.267,-0.022C0.177,-0.022 0.115,-0.077 0.065,-0.199L0.042,-0.199L0.072,0.013L0.094,0.013C0.095,-0.006 0.107,-0.02 0.122,-0.02C0.133,-0.02 0.15,-0.016 0.169,-0.009C0.207,0.006 0.247,0.014 0.287,0.014C0.403,0.014 0.491,-0.065 0.491,-0.168Z" style="fill:rgb(106,6,6);fill-rule:nonzero;"/>
        </g>
        <g transform="matrix(83.3333,0,0,83.3333,332.262,335.534)">
            <path d="M0.633,-0.113L0.615,-0.131C0.541,-0.06 0.475,-0.03 0.392,-0.03C0.332,-0.03 0.278,-0.048 0.236,-0.083C0.177,-0.132 0.144,-0.222 0.144,-0.338C0.144,-0.519 0.237,-0.636 0.382,-0.636C0.44,-0.636 0.491,-0.615 0.531,-0.575C0.563,-0.543 0.578,-0.515 0.597,-0.45L0.62,-0.45L0.611,-0.676L0.59,-0.676C0.584,-0.655 0.568,-0.643 0.549,-0.643C0.539,-0.643 0.525,-0.646 0.509,-0.652C0.46,-0.668 0.411,-0.676 0.362,-0.676C0.285,-0.676 0.206,-0.647 0.145,-0.597C0.069,-0.534 0.028,-0.439 0.028,-0.325C0.028,-0.122 0.161,0.014 0.36,0.014C0.473,0.014 0.572,-0.032 0.633,-0.113Z" style="fill:rgb(106,6,6);fill-rule:nonzero;"/>
        </g>
        <g transform="matrix(83.3333,0,0,83.3333,387.012,335.534)">
            <path d="M0.688,-0.327C0.688,-0.426 0.659,-0.511 0.604,-0.571C0.541,-0.64 0.457,-0.676 0.361,-0.676C0.17,-0.676 0.034,-0.532 0.034,-0.331C0.034,-0.237 0.066,-0.146 0.12,-0.088C0.178,-0.025 0.267,0.014 0.355,0.014C0.552,0.014 0.688,-0.126 0.688,-0.327ZM0.574,-0.328C0.574,-0.269 0.561,-0.2 0.541,-0.148C0.532,-0.123 0.515,-0.098 0.492,-0.075C0.457,-0.04 0.412,-0.022 0.359,-0.022C0.313,-0.022 0.268,-0.04 0.233,-0.071C0.181,-0.117 0.148,-0.218 0.148,-0.329C0.148,-0.431 0.176,-0.528 0.218,-0.575C0.257,-0.618 0.306,-0.64 0.361,-0.64C0.407,-0.64 0.453,-0.622 0.489,-0.59C0.543,-0.541 0.574,-0.447 0.574,-0.328Z" style="fill:rgb(106,6,6);fill-rule:nonzero;"/>
        </g>
        <g transform="matrix(83.3333,0,0,83.3333,447.178,335.534)">
            <path d="M0.659,0L0.659,-0.019C0.621,-0.022 0.601,-0.032 0.572,-0.066L0.366,-0.319C0.433,-0.332 0.463,-0.344 0.496,-0.371C0.528,-0.397 0.547,-0.439 0.547,-0.486C0.547,-0.529 0.534,-0.566 0.508,-0.595C0.47,-0.636 0.387,-0.662 0.293,-0.662L0.017,-0.662L0.017,-0.643C0.092,-0.635 0.102,-0.624 0.102,-0.553L0.102,-0.12C0.102,-0.037 0.092,-0.025 0.017,-0.019L0.017,0L0.294,0L0.294,-0.019C0.217,-0.024 0.204,-0.037 0.204,-0.109L0.204,-0.306L0.26,-0.308L0.498,0L0.659,0ZM0.438,-0.488C0.438,-0.438 0.417,-0.396 0.381,-0.377C0.335,-0.351 0.3,-0.345 0.204,-0.343L0.204,-0.589C0.204,-0.617 0.215,-0.625 0.255,-0.625C0.38,-0.625 0.438,-0.582 0.438,-0.488Z" style="fill:rgb(106,6,6);fill-rule:nonzero;"/>
        </g>
        <g transform="matrix(83.3333,0,0,83.3333,502.762,335.534)">
            <path d="M0.597,-0.169L0.569,-0.169C0.519,-0.061 0.476,-0.037 0.333,-0.037L0.306,-0.037C0.258,-0.037 0.218,-0.041 0.209,-0.048C0.203,-0.052 0.201,-0.061 0.201,-0.08L0.201,-0.327L0.355,-0.327C0.437,-0.327 0.452,-0.314 0.465,-0.231L0.488,-0.231L0.488,-0.463L0.465,-0.463C0.452,-0.381 0.436,-0.368 0.355,-0.368L0.201,-0.368L0.201,-0.59C0.201,-0.618 0.207,-0.624 0.234,-0.624L0.369,-0.624C0.482,-0.624 0.504,-0.609 0.521,-0.519L0.546,-0.519L0.543,-0.662L0.012,-0.662L0.012,-0.643C0.086,-0.637 0.099,-0.624 0.099,-0.553L0.099,-0.109C0.099,-0.038 0.085,-0.024 0.012,-0.019L0.012,0L0.552,0L0.597,-0.169Z" style="fill:rgb(106,6,6);fill-rule:nonzero;"/>
        </g>
        <g transform="matrix(83.3333,0,0,83.3333,201.053,414.7)">
            <path d="M0.394,0L0.394,-0.015C0.315,-0.016 0.299,-0.026 0.299,-0.074L0.299,-0.674L0.291,-0.676L0.111,-0.585L0.111,-0.571C0.123,-0.576 0.134,-0.58 0.138,-0.582C0.156,-0.589 0.173,-0.593 0.183,-0.593C0.204,-0.593 0.213,-0.578 0.213,-0.546L0.213,-0.093C0.213,-0.06 0.205,-0.037 0.189,-0.028C0.174,-0.019 0.16,-0.016 0.118,-0.015L0.118,0L0.394,0Z" style="fill:rgb(106,6,6);fill-rule:nonzero;"/>
        </g>
        <g transform="matrix(83.3333,0,0,83.3333,242.72,414.7)">
            <path d="M0.476,-0.33C0.476,-0.535 0.385,-0.676 0.254,-0.676C0.199,-0.676 0.157,-0.659 0.12,-0.624C0.062,-0.568 0.024,-0.453 0.024,-0.336C0.024,-0.227 0.057,-0.11 0.104,-0.054C0.141,-0.01 0.192,0.014 0.25,0.014C0.301,0.014 0.344,-0.003 0.38,-0.038C0.438,-0.093 0.476,-0.209 0.476,-0.33ZM0.38,-0.328C0.38,-0.119 0.336,-0.012 0.25,-0.012C0.164,-0.012 0.12,-0.119 0.12,-0.327C0.12,-0.539 0.165,-0.65 0.251,-0.65C0.335,-0.65 0.38,-0.537 0.38,-0.328Z" style="fill:rgb(106,6,6);fill-rule:nonzero;"/>
        </g>
        <g transform="matrix(83.3333,0,0,83.3333,284.387,414.7)">
            <path d="M0.476,-0.33C0.476,-0.535 0.385,-0.676 0.254,-0.676C0.199,-0.676 0.157,-0.659 0.12,-0.624C0.062,-0.568 0.024,-0.453 0.024,-0.336C0.024,-0.227 0.057,-0.11 0.104,-0.054C0.141,-0.01 0.192,0.014 0.25,0.014C0.301,0.014 0.344,-0.003 0.38,-0.038C0.438,-0.093 0.476,-0.209 0.476,-0.33ZM0.38,-0.328C0.38,-0.119 0.336,-0.012 0.25,-0.012C0.164,-0.012 0.12,-0.119 0.12,-0.327C0.12,-0.539 0.165,-0.65 0.251,-0.65C0.335,-0.65 0.38,-0.537 0.38,-0.328Z" style="fill:rgb(106,6,6);fill-rule:nonzero;"/>
        </g>
        <g transform="matrix(83.3333,0,0,83.3333,346.887,414.7)">
            <path d="M0.542,-0.481C0.542,-0.523 0.528,-0.561 0.501,-0.59C0.461,-0.634 0.374,-0.662 0.28,-0.662L0.016,-0.662L0.016,-0.643C0.09,-0.635 0.1,-0.625 0.1,-0.553L0.1,-0.12C0.1,-0.036 0.092,-0.026 0.016,-0.019L0.016,0L0.296,0L0.296,-0.019C0.217,-0.022 0.202,-0.036 0.202,-0.109L0.202,-0.291C0.228,-0.289 0.245,-0.288 0.271,-0.288C0.349,-0.288 0.403,-0.298 0.446,-0.322C0.506,-0.354 0.542,-0.415 0.542,-0.481ZM0.433,-0.475C0.433,-0.378 0.374,-0.328 0.259,-0.328C0.239,-0.328 0.225,-0.329 0.202,-0.331L0.202,-0.591C0.202,-0.618 0.209,-0.625 0.236,-0.625C0.371,-0.625 0.433,-0.578 0.433,-0.475Z" style="fill:rgb(106,6,6);fill-rule:nonzero;"/>
        </g>
        <g transform="matrix(83.3333,0,0,83.3333,393.22,414.7)">
            <path d="M0.688,-0.327C0.688,-0.426 0.659,-0.511 0.604,-0.571C0.541,-0.64 0.457,-0.676 0.361,-0.676C0.17,-0.676 0.034,-0.532 0.034,-0.331C0.034,-0.237 0.066,-0.146 0.12,-0.088C0.178,-0.025 0.267,0.014 0.355,0.014C0.552,0.014 0.688,-0.126 0.688,-0.327ZM0.574,-0.328C0.574,-0.269 0.561,-0.2 0.541,-0.148C0.532,-0.123 0.515,-0.098 0.492,-0.075C0.457,-0.04 0.412,-0.022 0.359,-0.022C0.313,-0.022 0.268,-0.04 0.233,-0.071C0.181,-0.117 0.148,-0.218 0.148,-0.329C0.148,-0.431 0.176,-0.528 0.218,-0.575C0.257,-0.618 0.306,-0.64 0.361,-0.64C0.407,-0.64 0.453,-0.622 0.489,-0.59C0.543,-0.541 0.574,-0.447 0.574,-0.328Z" style="fill:rgb(106,6,6);fill-rule:nonzero;"/>
        </g>
        <g transform="matrix(83.3333,0,0,83.3333,453.387,414.7)">
            <path d="M0.315,0L0.315,-0.019C0.233,-0.022 0.217,-0.036 0.217,-0.109L0.217,-0.553C0.217,-0.626 0.231,-0.639 0.315,-0.643L0.315,-0.662L0.018,-0.662L0.018,-0.643C0.103,-0.638 0.115,-0.627 0.115,-0.553L0.115,-0.109C0.115,-0.034 0.102,-0.022 0.018,-0.019L0.018,0L0.315,0Z" style="fill:rgb(106,6,6);fill-rule:nonzero;"/>
        </g>
        <g transform="matrix(83.3333,0,0,83.3333,481.137,414.7)">
            <path d="M0.707,-0.643L0.707,-0.662L0.472,-0.662L0.472,-0.643C0.51,-0.64 0.524,-0.636 0.539,-0.627C0.559,-0.613 0.568,-0.577 0.568,-0.515L0.568,-0.178L0.183,-0.662L0.012,-0.662L0.012,-0.643C0.055,-0.643 0.069,-0.635 0.109,-0.588L0.109,-0.147C0.109,-0.044 0.095,-0.025 0.012,-0.019L0.012,0L0.247,0L0.247,-0.019C0.17,-0.023 0.153,-0.046 0.153,-0.147L0.153,-0.539L0.595,0.011L0.612,0.011L0.612,-0.515C0.612,-0.575 0.622,-0.612 0.641,-0.625C0.655,-0.635 0.669,-0.639 0.707,-0.643Z" style="fill:rgb(106,6,6);fill-rule:nonzero;"/>
        </g>
        <g transform="matrix(83.3333,0,0,83.3333,541.303,414.7)">
            <path d="M0.593,-0.492L0.587,-0.662L0.023,-0.662L0.017,-0.492L0.041,-0.492C0.065,-0.602 0.088,-0.62 0.2,-0.62L0.254,-0.62L0.254,-0.12C0.254,-0.035 0.243,-0.024 0.16,-0.019L0.16,0L0.452,0L0.452,-0.019C0.37,-0.023 0.356,-0.036 0.356,-0.109L0.356,-0.62L0.41,-0.62C0.524,-0.62 0.546,-0.602 0.569,-0.492L0.593,-0.492Z" style="fill:rgb(106,6,6);fill-rule:nonzero;"/>
        </g>
        <g transform="matrix(83.3333,0,0,83.3333,592.22,414.7)">
            <path d="M0.491,-0.168C0.491,-0.251 0.436,-0.315 0.304,-0.387C0.199,-0.444 0.157,-0.488 0.157,-0.543C0.157,-0.598 0.199,-0.635 0.261,-0.635C0.306,-0.635 0.348,-0.616 0.383,-0.58C0.414,-0.548 0.428,-0.522 0.444,-0.463L0.469,-0.463L0.447,-0.676L0.426,-0.676C0.422,-0.654 0.411,-0.642 0.394,-0.642C0.384,-0.642 0.368,-0.646 0.35,-0.654C0.313,-0.668 0.277,-0.676 0.242,-0.676C0.203,-0.676 0.161,-0.66 0.129,-0.634C0.09,-0.602 0.071,-0.559 0.071,-0.504C0.071,-0.425 0.115,-0.369 0.227,-0.31C0.299,-0.271 0.351,-0.231 0.376,-0.193C0.385,-0.179 0.39,-0.159 0.39,-0.134C0.39,-0.068 0.34,-0.022 0.267,-0.022C0.177,-0.022 0.115,-0.077 0.065,-0.199L0.042,-0.199L0.072,0.013L0.094,0.013C0.095,-0.006 0.107,-0.02 0.122,-0.02C0.133,-0.02 0.15,-0.016 0.169,-0.009C0.207,0.006 0.247,0.014 0.287,0.014C0.403,0.014 0.491,-0.065 0.491,-0.168Z" style="fill:rgb(106,6,6);fill-rule:nonzero;"/>
        </g>
        <g transform="matrix(83.3333,0,0,83.3333,215.012,493.867)">
            <path d="M0.932,-0.643L0.932,-0.662L0.734,-0.662L0.734,-0.643C0.785,-0.638 0.803,-0.627 0.803,-0.6C0.803,-0.579 0.797,-0.553 0.787,-0.525L0.662,-0.186L0.53,-0.527L0.518,-0.557C0.509,-0.578 0.503,-0.597 0.503,-0.608C0.503,-0.632 0.526,-0.642 0.58,-0.643L0.58,-0.662L0.313,-0.662L0.313,-0.643C0.37,-0.642 0.38,-0.633 0.414,-0.553L0.447,-0.471L0.34,-0.189L0.196,-0.565C0.189,-0.583 0.185,-0.6 0.185,-0.611C0.185,-0.633 0.199,-0.64 0.25,-0.643L0.25,-0.662L0.005,-0.662L0.005,-0.643C0.056,-0.638 0.071,-0.62 0.108,-0.526L0.301,0.011L0.316,0.011L0.47,-0.412L0.63,0.011L0.645,0.011L0.849,-0.572C0.868,-0.624 0.879,-0.633 0.932,-0.643Z" style="fill:rgb(106,6,6);fill-rule:nonzero;"/>
        </g>
        <g transform="matrix(83.3333,0,0,83.3333,293.678,493.867)">
            <path d="M0.315,0L0.315,-0.019C0.233,-0.022 0.217,-0.036 0.217,-0.109L0.217,-0.553C0.217,-0.626 0.231,-0.639 0.315,-0.643L0.315,-0.662L0.018,-0.662L0.018,-0.643C0.103,-0.638 0.115,-0.627 0.115,-0.553L0.115,-0.109C0.115,-0.034 0.102,-0.022 0.018,-0.019L0.018,0L0.315,0Z" style="fill:rgb(106,6,6);fill-rule:nonzero;"/>
        </g>
        <g transform="matrix(83.3333,0,0,83.3333,321.428,493.867)">
            <path d="M0.593,-0.492L0.587,-0.662L0.023,-0.662L0.017,-0.492L0.041,-0.492C0.065,-0.602 0.088,-0.62 0.2,-0.62L0.254,-0.62L0.254,-0.12C0.254,-0.035 0.243,-0.024 0.16,-0.019L0.16,0L0.452,0L0.452,-0.019C0.37,-0.023 0.356,-0.036 0.356,-0.109L0.356,-0.62L0.41,-0.62C0.524,-0.62 0.546,-0.602 0.569,-0.492L0.593,-0.492Z" style="fill:rgb(106,6,6);fill-rule:nonzero;"/>
        </g>
        <g transform="matrix(83.3333,0,0,83.3333,372.345,493.867)">
            <path d="M0.702,0L0.702,-0.019C0.627,-0.025 0.614,-0.038 0.614,-0.109L0.614,-0.553C0.614,-0.625 0.625,-0.636 0.702,-0.643L0.702,-0.662L0.424,-0.662L0.424,-0.643C0.501,-0.636 0.512,-0.625 0.512,-0.553L0.512,-0.359L0.209,-0.359L0.209,-0.553C0.209,-0.625 0.22,-0.636 0.297,-0.643L0.297,-0.662L0.019,-0.662L0.019,-0.643C0.096,-0.636 0.107,-0.625 0.107,-0.553L0.107,-0.12C0.107,-0.036 0.097,-0.024 0.019,-0.019L0.019,0L0.297,0L0.297,-0.019C0.222,-0.025 0.209,-0.038 0.209,-0.109L0.209,-0.315L0.512,-0.315L0.512,-0.12C0.512,-0.036 0.502,-0.024 0.424,-0.019L0.424,0L0.702,0Z" style="fill:rgb(106,6,6);fill-rule:nonzero;"/>
        </g>
        <g transform="matrix(83.3333,0,0,83.3333,432.512,493.867)">
            <path d="M0.315,0L0.315,-0.019C0.233,-0.022 0.217,-0.036 0.217,-0.109L0.217,-0.553C0.217,-0.626 0.231,-0.639 0.315,-0.643L0.315,-0.662L0.018,-0.662L0.018,-0.643C0.103,-0.638 0.115,-0.627 0.115,-0.553L0.115,-0.109C0.115,-0.034 0.102,-0.022 0.018,-0.019L0.018,0L0.315,0Z" style="fill:rgb(106,6,6);fill-rule:nonzero;"/>
        </g>
        <g transform="matrix(83.3333,0,0,83.3333,460.262,493.867)">
            <path d="M0.707,-0.643L0.707,-0.662L0.472,-0.662L0.472,-0.643C0.51,-0.64 0.524,-0.636 0.539,-0.627C0.559,-0.613 0.568,-0.577 0.568,-0.515L0.568,-0.178L0.183,-0.662L0.012,-0.662L0.012,-0.643C0.055,-0.643 0.069,-0.635 0.109,-0.588L0.109,-0.147C0.109,-0.044 0.095,-0.025 0.012,-0.019L0.012,0L0.247,0L0.247,-0.019C0.17,-0.023 0.153,-0.046 0.153,-0.147L0.153,-0.539L0.595,0.011L0.612,0.011L0.612,-0.515C0.612,-0.575 0.622,-0.612 0.641,-0.625C0.655,-0.635 0.669,-0.639 0.707,-0.643Z" style="fill:rgb(106,6,6);fill-rule:nonzero;"/>
        </g>
        <g transform="matrix(83.3333,0,0,83.3333,541.262,493.867)">
            <path d="M0.432,-0.219C0.432,-0.27 0.416,-0.317 0.387,-0.348C0.367,-0.37 0.348,-0.382 0.304,-0.401C0.373,-0.448 0.398,-0.485 0.398,-0.539C0.398,-0.62 0.334,-0.676 0.242,-0.676C0.192,-0.676 0.148,-0.659 0.112,-0.627C0.082,-0.6 0.067,-0.574 0.045,-0.514L0.06,-0.51C0.101,-0.583 0.146,-0.616 0.209,-0.616C0.274,-0.616 0.319,-0.572 0.319,-0.509C0.319,-0.473 0.304,-0.437 0.279,-0.412C0.249,-0.382 0.221,-0.367 0.153,-0.343L0.153,-0.33C0.212,-0.33 0.235,-0.328 0.259,-0.319C0.321,-0.297 0.36,-0.24 0.36,-0.171C0.36,-0.087 0.303,-0.022 0.229,-0.022C0.202,-0.022 0.182,-0.029 0.145,-0.053C0.115,-0.071 0.098,-0.078 0.081,-0.078C0.058,-0.078 0.043,-0.064 0.043,-0.043C0.043,-0.008 0.086,0.014 0.156,0.014C0.233,0.014 0.312,-0.012 0.359,-0.053C0.406,-0.094 0.432,-0.152 0.432,-0.219Z" style="fill:rgb(106,6,6);fill-rule:nonzero;"/>
        </g>
        <g transform="matrix(83.3333,0,0,83.3333,582.928,493.867)">
            <path d="M0.476,-0.33C0.476,-0.535 0.385,-0.676 0.254,-0.676C0.199,-0.676 0.157,-0.659 0.12,-0.624C0.062,-0.568 0.024,-0.453 0.024,-0.336C0.024,-0.227 0.057,-0.11 0.104,-0.054C0.141,-0.01 0.192,0.014 0.25,0.014C0.301,0.014 0.344,-0.003 0.38,-0.038C0.438,-0.093 0.476,-0.209 0.476,-0.33ZM0.38,-0.328C0.38,-0.119 0.336,-0.012 0.25,-0.012C0.164,-0.012 0.12,-0.119 0.12,-0.327C0.12,-0.539 0.165,-0.65 0.251,-0.65C0.335,-0.65 0.38,-0.537 0.38,-0.328Z" style="fill:rgb(106,6,6);fill-rule:nonzero;"/>
        </g>
        <g transform="matrix(83.3333,0,0,83.3333,234.637,573.034)">
            <path d="M0.863,0L0.863,-0.019C0.79,-0.024 0.776,-0.038 0.776,-0.109L0.776,-0.553C0.776,-0.624 0.789,-0.637 0.863,-0.643L0.863,-0.662L0.664,-0.662L0.443,-0.157L0.212,-0.662L0.014,-0.662L0.014,-0.643C0.096,-0.638 0.109,-0.626 0.109,-0.553L0.109,-0.147C0.109,-0.044 0.095,-0.025 0.012,-0.019L0.012,0L0.247,0L0.247,-0.019C0.17,-0.023 0.153,-0.046 0.153,-0.147L0.153,-0.55L0.404,0L0.418,0L0.674,-0.573L0.674,-0.12C0.674,-0.037 0.662,-0.024 0.583,-0.019L0.583,0L0.863,0Z" style="fill:rgb(106,6,6);fill-rule:nonzero;"/>
        </g>
        <g transform="matrix(83.3333,0,0,83.3333,308.72,573.034)">
            <path d="M0.315,0L0.315,-0.019C0.233,-0.022 0.217,-0.036 0.217,-0.109L0.217,-0.553C0.217,-0.626 0.231,-0.639 0.315,-0.643L0.315,-0.662L0.018,-0.662L0.018,-0.643C0.103,-0.638 0.115,-0.627 0.115,-0.553L0.115,-0.109C0.115,-0.034 0.102,-0.022 0.018,-0.019L0.018,0L0.315,0Z" style="fill:rgb(106,6,6);fill-rule:nonzero;"/>
        </g>
        <g transform="matrix(83.3333,0,0,83.3333,336.47,573.034)">
            <path d="M0.707,-0.643L0.707,-0.662L0.472,-0.662L0.472,-0.643C0.51,-0.64 0.524,-0.636 0.539,-0.627C0.559,-0.613 0.568,-0.577 0.568,-0.515L0.568,-0.178L0.183,-0.662L0.012,-0.662L0.012,-0.643C0.055,-0.643 0.069,-0.635 0.109,-0.588L0.109,-0.147C0.109,-0.044 0.095,-0.025 0.012,-0.019L0.012,0L0.247,0L0.247,-0.019C0.17,-0.023 0.153,-0.046 0.153,-0.147L0.153,-0.539L0.595,0.011L0.612,0.011L0.612,-0.515C0.612,-0.575 0.622,-0.612 0.641,-0.625C0.655,-0.635 0.669,-0.639 0.707,-0.643Z" style="fill:rgb(106,6,6);fill-rule:nonzero;"/>
        </g>
        <g transform="matrix(83.3333,0,0,83.3333,396.637,573.034)">
            <path d="M0.705,-0.643L0.705,-0.662L0.473,-0.662L0.473,-0.643C0.551,-0.637 0.567,-0.615 0.567,-0.515L0.567,-0.245C0.567,-0.177 0.56,-0.139 0.544,-0.109C0.517,-0.061 0.453,-0.03 0.378,-0.03C0.307,-0.03 0.258,-0.054 0.231,-0.101C0.213,-0.133 0.206,-0.17 0.206,-0.233L0.206,-0.553C0.206,-0.625 0.217,-0.636 0.297,-0.643L0.297,-0.662L0.014,-0.662L0.014,-0.643C0.093,-0.637 0.104,-0.626 0.104,-0.553L0.104,-0.241C0.104,-0.068 0.185,0.014 0.355,0.014C0.464,0.014 0.539,-0.021 0.578,-0.089C0.602,-0.131 0.611,-0.177 0.611,-0.254L0.611,-0.515C0.611,-0.617 0.623,-0.633 0.705,-0.643Z" style="fill:rgb(106,6,6);fill-rule:nonzero;"/>
        </g>
        <g transform="matrix(83.3333,0,0,83.3333,456.803,573.034)">
            <path d="M0.593,-0.492L0.587,-0.662L0.023,-0.662L0.017,-0.492L0.041,-0.492C0.065,-0.602 0.088,-0.62 0.2,-0.62L0.254,-0.62L0.254,-0.12C0.254,-0.035 0.243,-0.024 0.16,-0.019L0.16,0L0.452,0L0.452,-0.019C0.37,-0.023 0.356,-0.036 0.356,-0.109L0.356,-0.62L0.41,-0.62C0.524,-0.62 0.546,-0.602 0.569,-0.492L0.593,-0.492Z" style="fill:rgb(106,6,6);fill-rule:nonzero;"/>
        </g>
        <g transform="matrix(83.3333,0,0,83.3333,507.72,573.034)">
            <path d="M0.597,-0.169L0.569,-0.169C0.519,-0.061 0.476,-0.037 0.333,-0.037L0.306,-0.037C0.258,-0.037 0.218,-0.041 0.209,-0.048C0.203,-0.052 0.201,-0.061 0.201,-0.08L0.201,-0.327L0.355,-0.327C0.437,-0.327 0.452,-0.314 0.465,-0.231L0.488,-0.231L0.488,-0.463L0.465,-0.463C0.452,-0.381 0.436,-0.368 0.355,-0.368L0.201,-0.368L0.201,-0.59C0.201,-0.618 0.207,-0.624 0.234,-0.624L0.369,-0.624C0.482,-0.624 0.504,-0.609 0.521,-0.519L0.546,-0.519L0.543,-0.662L0.012,-0.662L0.012,-0.643C0.086,-0.637 0.099,-0.624 0.099,-0.553L0.099,-0.109C0.099,-0.038 0.085,-0.024 0.012,-0.019L0.012,0L0.552,0L0.597,-0.169Z" style="fill:rgb(106,6,6);fill-rule:nonzero;"/>
        </g>
        <g transform="matrix(83.3333,0,0,83.3333,558.637,573.034)">
            <path d="M0.491,-0.168C0.491,-0.251 0.436,-0.315 0.304,-0.387C0.199,-0.444 0.157,-0.488 0.157,-0.543C0.157,-0.598 0.199,-0.635 0.261,-0.635C0.306,-0.635 0.348,-0.616 0.383,-0.58C0.414,-0.548 0.428,-0.522 0.444,-0.463L0.469,-0.463L0.447,-0.676L0.426,-0.676C0.422,-0.654 0.411,-0.642 0.394,-0.642C0.384,-0.642 0.368,-0.646 0.35,-0.654C0.313,-0.668 0.277,-0.676 0.242,-0.676C0.203,-0.676 0.161,-0.66 0.129,-0.634C0.09,-0.602 0.071,-0.559 0.071,-0.504C0.071,-0.425 0.115,-0.369 0.227,-0.31C0.299,-0.271 0.351,-0.231 0.376,-0.193C0.385,-0.179 0.39,-0.159 0.39,-0.134C0.39,-0.068 0.34,-0.022 0.267,-0.022C0.177,-0.022 0.115,-0.077 0.065,-0.199L0.042,-0.199L0.072,0.013L0.094,0.013C0.095,-0.006 0.107,-0.02 0.122,-0.02C0.133,-0.02 0.15,-0.016 0.169,-0.009C0.207,0.006 0.247,0.014 0.287,0.014C0.403,0.014 0.491,-0.065 0.491,-0.168Z" style="fill:rgb(106,6,6);fill-rule:nonzero;"/>
        </g>
        <g transform="matrix(83.3333,0,0,83.3333,245.053,652.2)">
            <path d="M0.593,-0.492L0.587,-0.662L0.023,-0.662L0.017,-0.492L0.041,-0.492C0.065,-0.602 0.088,-0.62 0.2,-0.62L0.254,-0.62L0.254,-0.12C0.254,-0.035 0.243,-0.024 0.16,-0.019L0.16,0L0.452,0L0.452,-0.019C0.37,-0.023 0.356,-0.036 0.356,-0.109L0.356,-0.62L0.41,-0.62C0.524,-0.62 0.546,-0.602 0.569,-0.492L0.593,-0.492Z" style="fill:rgb(106,6,6);fill-rule:nonzero;"/>
        </g>
        <g transform="matrix(83.3333,0,0,83.3333,295.97,652.2)">
            <path d="M0.688,-0.327C0.688,-0.426 0.659,-0.511 0.604,-0.571C0.541,-0.64 0.457,-0.676 0.361,-0.676C0.17,-0.676 0.034,-0.532 0.034,-0.331C0.034,-0.237 0.066,-0.146 0.12,-0.088C0.178,-0.025 0.267,0.014 0.355,0.014C0.552,0.014 0.688,-0.126 0.688,-0.327ZM0.574,-0.328C0.574,-0.269 0.561,-0.2 0.541,-0.148C0.532,-0.123 0.515,-0.098 0.492,-0.075C0.457,-0.04 0.412,-0.022 0.359,-0.022C0.313,-0.022 0.268,-0.04 0.233,-0.071C0.181,-0.117 0.148,-0.218 0.148,-0.329C0.148,-0.431 0.176,-0.528 0.218,-0.575C0.257,-0.618 0.306,-0.64 0.361,-0.64C0.407,-0.64 0.453,-0.622 0.489,-0.59C0.543,-0.541 0.574,-0.447 0.574,-0.328Z" style="fill:rgb(106,6,6);fill-rule:nonzero;"/>
        </g>
        <g transform="matrix(83.3333,0,0,83.3333,376.97,652.2)">
            <path d="M0.688,-0.327C0.688,-0.426 0.659,-0.511 0.604,-0.571C0.541,-0.64 0.457,-0.676 0.361,-0.676C0.17,-0.676 0.034,-0.532 0.034,-0.331C0.034,-0.237 0.066,-0.146 0.12,-0.088C0.178,-0.025 0.267,0.014 0.355,0.014C0.552,0.014 0.688,-0.126 0.688,-0.327ZM0.574,-0.328C0.574,-0.269 0.561,-0.2 0.541,-0.148C0.532,-0.123 0.515,-0.098 0.492,-0.075C0.457,-0.04 0.412,-0.022 0.359,-0.022C0.313,-0.022 0.268,-0.04 0.233,-0.071C0.181,-0.117 0.148,-0.218 0.148,-0.329C0.148,-0.431 0.176,-0.528 0.218,-0.575C0.257,-0.618 0.306,-0.64 0.361,-0.64C0.407,-0.64 0.453,-0.622 0.489,-0.59C0.543,-0.541 0.574,-0.447 0.574,-0.328Z" style="fill:rgb(106,6,6);fill-rule:nonzero;"/>
        </g>
        <g transform="matrix(83.3333,0,0,83.3333,437.137,652.2)">
            <path d="M0.542,-0.481C0.542,-0.523 0.528,-0.561 0.501,-0.59C0.461,-0.634 0.374,-0.662 0.28,-0.662L0.016,-0.662L0.016,-0.643C0.09,-0.635 0.1,-0.625 0.1,-0.553L0.1,-0.12C0.1,-0.036 0.092,-0.026 0.016,-0.019L0.016,0L0.296,0L0.296,-0.019C0.217,-0.022 0.202,-0.036 0.202,-0.109L0.202,-0.291C0.228,-0.289 0.245,-0.288 0.271,-0.288C0.349,-0.288 0.403,-0.298 0.446,-0.322C0.506,-0.354 0.542,-0.415 0.542,-0.481ZM0.433,-0.475C0.433,-0.378 0.374,-0.328 0.259,-0.328C0.239,-0.328 0.225,-0.329 0.202,-0.331L0.202,-0.591C0.202,-0.618 0.209,-0.625 0.236,-0.625C0.371,-0.625 0.433,-0.578 0.433,-0.475Z" style="fill:rgb(106,6,6);fill-rule:nonzero;"/>
        </g>
        <g transform="matrix(83.3333,0,0,83.3333,483.47,652.2)">
            <path d="M0.597,-0.169L0.569,-0.169C0.519,-0.061 0.476,-0.037 0.333,-0.037L0.306,-0.037C0.258,-0.037 0.218,-0.041 0.209,-0.048C0.203,-0.052 0.201,-0.061 0.201,-0.08L0.201,-0.327L0.355,-0.327C0.437,-0.327 0.452,-0.314 0.465,-0.231L0.488,-0.231L0.488,-0.463L0.465,-0.463C0.452,-0.381 0.436,-0.368 0.355,-0.368L0.201,-0.368L0.201,-0.59C0.201,-0.618 0.207,-0.624 0.234,-0.624L0.369,-0.624C0.482,-0.624 0.504,-0.609 0.521,-0.519L0.546,-0.519L0.543,-0.662L0.012,-0.662L0.012,-0.643C0.086,-0.637 0.099,-0.624 0.099,-0.553L0.099,-0.109C0.099,-0.038 0.085,-0.024 0.012,-0.019L0.012,0L0.552,0L0.597,-0.169Z" style="fill:rgb(106,6,6);fill-rule:nonzero;"/>
        </g>
        <g transform="matrix(83.3333,0,0,83.3333,534.387,652.2)">
            <path d="M0.707,-0.643L0.707,-0.662L0.472,-0.662L0.472,-0.643C0.51,-0.64 0.524,-0.636 0.539,-0.627C0.559,-0.613 0.568,-0.577 0.568,-0.515L0.568,-0.178L0.183,-0.662L0.012,-0.662L0.012,-0.643C0.055,-0.643 0.069,-0.635 0.109,-0.588L0.109,-0.147C0.109,-0.044 0.095,-0.025 0.012,-0.019L0.012,0L0.247,0L0.247,-0.019C0.17,-0.023 0.153,-0.046 0.153,-0.147L0.153,-0.539L0.595,0.011L0.612,0.011L0.612,-0.515C0.612,-0.575 0.622,-0.612 0.641,-0.625C0.655,-0.635 0.669,-0.639 0.707,-0.643Z" style="fill:rgb(106,6,6);fill-rule:nonzero;"/>
        </g>
        <g transform="matrix(83.3333,0,0,83.3333,210.345,731.367)">
            <path d="M0.593,-0.492L0.587,-0.662L0.023,-0.662L0.017,-0.492L0.041,-0.492C0.065,-0.602 0.088,-0.62 0.2,-0.62L0.254,-0.62L0.254,-0.12C0.254,-0.035 0.243,-0.024 0.16,-0.019L0.16,0L0.452,0L0.452,-0.019C0.37,-0.023 0.356,-0.036 0.356,-0.109L0.356,-0.62L0.41,-0.62C0.524,-0.62 0.546,-0.602 0.569,-0.492L0.593,-0.492Z" style="fill:rgb(106,6,6);fill-rule:nonzero;"/>
        </g>
        <g transform="matrix(83.3333,0,0,83.3333,261.262,731.367)">
            <path d="M0.702,0L0.702,-0.019C0.627,-0.025 0.614,-0.038 0.614,-0.109L0.614,-0.553C0.614,-0.625 0.625,-0.636 0.702,-0.643L0.702,-0.662L0.424,-0.662L0.424,-0.643C0.501,-0.636 0.512,-0.625 0.512,-0.553L0.512,-0.359L0.209,-0.359L0.209,-0.553C0.209,-0.625 0.22,-0.636 0.297,-0.643L0.297,-0.662L0.019,-0.662L0.019,-0.643C0.096,-0.636 0.107,-0.625 0.107,-0.553L0.107,-0.12C0.107,-0.036 0.097,-0.024 0.019,-0.019L0.019,0L0.297,0L0.297,-0.019C0.222,-0.025 0.209,-0.038 0.209,-0.109L0.209,-0.315L0.512,-0.315L0.512,-0.12C0.512,-0.036 0.502,-0.024 0.424,-0.019L0.424,0L0.702,0Z" style="fill:rgb(106,6,6);fill-rule:nonzero;"/>
        </g>
        <g transform="matrix(83.3333,0,0,83.3333,321.428,731.367)">
            <path d="M0.597,-0.169L0.569,-0.169C0.519,-0.061 0.476,-0.037 0.333,-0.037L0.306,-0.037C0.258,-0.037 0.218,-0.041 0.209,-0.048C0.203,-0.052 0.201,-0.061 0.201,-0.08L0.201,-0.327L0.355,-0.327C0.437,-0.327 0.452,-0.314 0.465,-0.231L0.488,-0.231L0.488,-0.463L0.465,-0.463C0.452,-0.381 0.436,-0.368 0.355,-0.368L0.201,-0.368L0.201,-0.59C0.201,-0.618 0.207,-0.624 0.234,-0.624L0.369,-0.624C0.482,-0.624 0.504,-0.609 0.521,-0.519L0.546,-0.519L0.543,-0.662L0.012,-0.662L0.012,-0.643C0.086,-0.637 0.099,-0.624 0.099,-0.553L0.099,-0.109C0.099,-0.038 0.085,-0.024 0.012,-0.019L0.012,0L0.552,0L0.597,-0.169Z" style="fill:rgb(106,6,6);fill-rule:nonzero;"/>
        </g>
        <g transform="matrix(83.3333,0,0,83.3333,393.178,731.367)">
            <path d="M0.685,-0.334C0.685,-0.424 0.655,-0.502 0.6,-0.557C0.532,-0.626 0.423,-0.662 0.286,-0.662L0.016,-0.662L0.016,-0.643C0.095,-0.636 0.104,-0.627 0.104,-0.553L0.104,-0.109C0.104,-0.037 0.092,-0.024 0.016,-0.019L0.016,0L0.3,0C0.416,0 0.521,-0.033 0.583,-0.089C0.648,-0.148 0.685,-0.237 0.685,-0.334ZM0.576,-0.327C0.576,-0.209 0.535,-0.125 0.454,-0.078C0.403,-0.049 0.345,-0.037 0.258,-0.037C0.218,-0.037 0.206,-0.046 0.206,-0.078L0.206,-0.586C0.206,-0.617 0.217,-0.625 0.258,-0.625C0.344,-0.625 0.409,-0.609 0.457,-0.575C0.535,-0.521 0.576,-0.435 0.576,-0.327Z" style="fill:rgb(106,6,6);fill-rule:nonzero;"/>
        </g>
        <g transform="matrix(83.3333,0,0,83.3333,453.345,731.367)">
            <path d="M0.688,-0.327C0.688,-0.426 0.659,-0.511 0.604,-0.571C0.541,-0.64 0.457,-0.676 0.361,-0.676C0.17,-0.676 0.034,-0.532 0.034,-0.331C0.034,-0.237 0.066,-0.146 0.12,-0.088C0.178,-0.025 0.267,0.014 0.355,0.014C0.552,0.014 0.688,-0.126 0.688,-0.327ZM0.574,-0.328C0.574,-0.269 0.561,-0.2 0.541,-0.148C0.532,-0.123 0.515,-0.098 0.492,-0.075C0.457,-0.04 0.412,-0.022 0.359,-0.022C0.313,-0.022 0.268,-0.04 0.233,-0.071C0.181,-0.117 0.148,-0.218 0.148,-0.329C0.148,-0.431 0.176,-0.528 0.218,-0.575C0.257,-0.618 0.306,-0.64 0.361,-0.64C0.407,-0.64 0.453,-0.622 0.489,-0.59C0.543,-0.541 0.574,-0.447 0.574,-0.328Z" style="fill:rgb(106,6,6);fill-rule:nonzero;"/>
        </g>
        <g transform="matrix(83.3333,0,0,83.3333,513.512,731.367)">
            <path d="M0.688,-0.327C0.688,-0.426 0.659,-0.511 0.604,-0.571C0.541,-0.64 0.457,-0.676 0.361,-0.676C0.17,-0.676 0.034,-0.532 0.034,-0.331C0.034,-0.237 0.066,-0.146 0.12,-0.088C0.178,-0.025 0.267,0.014 0.355,0.014C0.552,0.014 0.688,-0.126 0.688,-0.327ZM0.574,-0.328C0.574,-0.269 0.561,-0.2 0.541,-0.148C0.532,-0.123 0.515,-0.098 0.492,-0.075C0.457,-0.04 0.412,-0.022 0.359,-0.022C0.313,-0.022 0.268,-0.04 0.233,-0.071C0.181,-0.117 0.148,-0.218 0.148,-0.329C0.148,-0.431 0.176,-0.528 0.218,-0.575C0.257,-0.618 0.306,-0.64 0.361,-0.64C0.407,-0.64 0.453,-0.622 0.489,-0.59C0.543,-0.541 0.574,-0.447 0.574,-0.328Z" style="fill:rgb(106,6,6);fill-rule:nonzero;"/>
        </g>
        <g transform="matrix(83.3333,0,0,83.3333,573.678,731.367)">
            <path d="M0.659,0L0.659,-0.019C0.621,-0.022 0.601,-0.032 0.572,-0.066L0.366,-0.319C0.433,-0.332 0.463,-0.344 0.496,-0.371C0.528,-0.397 0.547,-0.439 0.547,-0.486C0.547,-0.529 0.534,-0.566 0.508,-0.595C0.47,-0.636 0.387,-0.662 0.293,-0.662L0.017,-0.662L0.017,-0.643C0.092,-0.635 0.102,-0.624 0.102,-0.553L0.102,-0.12C0.102,-0.037 0.092,-0.025 0.017,-0.019L0.017,0L0.294,0L0.294,-0.019C0.217,-0.024 0.204,-0.037 0.204,-0.109L0.204,-0.306L0.26,-0.308L0.498,0L0.659,0ZM0.438,-0.488C0.438,-0.438 0.417,-0.396 0.381,-0.377C0.335,-0.351 0.3,-0.345 0.204,-0.343L0.204,-0.589C0.204,-0.617 0.215,-0.625 0.255,-0.625C0.38,-0.625 0.438,-0.582 0.438,-0.488Z" style="fill:rgb(106,6,6);fill-rule:nonzero;"/>
        </g>
    </g>
    <g transform="matrix(1,0,0,1,1045.82,-74.1625)">
        <g transform="matrix(83.3333,0,0,83.3333,219.595,414.7)">
            <path d="M0.688,-0.327C0.688,-0.426 0.659,-0.511 0.604,-0.571C0.541,-0.64 0.457,-0.676 0.361,-0.676C0.17,-0.676 0.034,-0.532 0.034,-0.331C0.034,-0.237 0.066,-0.146 0.12,-0.088C0.178,-0.025 0.267,0.014 0.355,0.014C0.552,0.014 0.688,-0.126 0.688,-0.327ZM0.574,-0.328C0.574,-0.269 0.561,-0.2 0.541,-0.148C0.532,-0.123 0.515,-0.098 0.492,-0.075C0.457,-0.04 0.412,-0.022 0.359,-0.022C0.313,-0.022 0.268,-0.04 0.233,-0.071C0.181,-0.117 0.148,-0.218 0.148,-0.329C0.148,-0.431 0.176,-0.528 0.218,-0.575C0.257,-0.618 0.306,-0.64 0.361,-0.64C0.407,-0.64 0.453,-0.622 0.489,-0.59C0.543,-0.541 0.574,-0.447 0.574,-0.328Z" style="fill:rgb(106,6,6);fill-rule:nonzero;"/>
        </g>
        <g transform="matrix(83.3333,0,0,83.3333,279.762,414.7)">
            <path d="M0.542,-0.481C0.542,-0.523 0.528,-0.561 0.501,-0.59C0.461,-0.634 0.374,-0.662 0.28,-0.662L0.016,-0.662L0.016,-0.643C0.09,-0.635 0.1,-0.625 0.1,-0.553L0.1,-0.12C0.1,-0.036 0.092,-0.026 0.016,-0.019L0.016,0L0.296,0L0.296,-0.019C0.217,-0.022 0.202,-0.036 0.202,-0.109L0.202,-0.291C0.228,-0.289 0.245,-0.288 0.271,-0.288C0.349,-0.288 0.403,-0.298 0.446,-0.322C0.506,-0.354 0.542,-0.415 0.542,-0.481ZM0.433,-0.475C0.433,-0.378 0.374,-0.328 0.259,-0.328C0.239,-0.328 0.225,-0.329 0.202,-0.331L0.202,-0.591C0.202,-0.618 0.209,-0.625 0.236,-0.625C0.371,-0.625 0.433,-0.578 0.433,-0.475Z" style="fill:rgb(106,6,6);fill-rule:nonzero;"/>
        </g>
        <g transform="matrix(83.3333,0,0,83.3333,326.095,414.7)">
            <path d="M0.597,-0.169L0.569,-0.169C0.519,-0.061 0.476,-0.037 0.333,-0.037L0.306,-0.037C0.258,-0.037 0.218,-0.041 0.209,-0.048C0.203,-0.052 0.201,-0.061 0.201,-0.08L0.201,-0.327L0.355,-0.327C0.437,-0.327 0.452,-0.314 0.465,-0.231L0.488,-0.231L0.488,-0.463L0.465,-0.463C0.452,-0.381 0.436,-0.368 0.355,-0.368L0.201,-0.368L0.201,-0.59C0.201,-0.618 0.207,-0.624 0.234,-0.624L0.369,-0.624C0.482,-0.624 0.504,-0.609 0.521,-0.519L0.546,-0.519L0.543,-0.662L0.012,-0.662L0.012,-0.643C0.086,-0.637 0.099,-0.624 0.099,-0.553L0.099,-0.109C0.099,-0.038 0.085,-0.024 0.012,-0.019L0.012,0L0.552,0L0.597,-0.169Z" style="fill:rgb(106,6,6);fill-rule:nonzero;"/>
        </g>
        <g transform="matrix(83.3333,0,0,83.3333,377.012,414.7)">
            <path d="M0.707,-0.643L0.707,-0.662L0.472,-0.662L0.472,-0.643C0.51,-0.64 0.524,-0.636 0.539,-0.627C0.559,-0.613 0.568,-0.577 0.568,-0.515L0.568,-0.178L0.183,-0.662L0.012,-0.662L0.012,-0.643C0.055,-0.643 0.069,-0.635 0.109,-0.588L0.109,-0.147C0.109,-0.044 0.095,-0.025 0.012,-0.019L0.012,0L0.247,0L0.247,-0.019C0.17,-0.023 0.153,-0.046 0.153,-0.147L0.153,-0.539L0.595,0.011L0.612,0.011L0.612,-0.515C0.612,-0.575 0.622,-0.612 0.641,-0.625C0.655,-0.635 0.669,-0.639 0.707,-0.643Z" style="fill:rgb(106,6,6);fill-rule:nonzero;"/>
        </g>
        <g transform="matrix(83.3333,0,0,83.3333,458.012,414.7)">
            <path d="M0.593,-0.492L0.587,-0.662L0.023,-0.662L0.017,-0.492L0.041,-0.492C0.065,-0.602 0.088,-0.62 0.2,-0.62L0.254,-0.62L0.254,-0.12C0.254,-0.035 0.243,-0.024 0.16,-0.019L0.16,0L0.452,0L0.452,-0.019C0.37,-0.023 0.356,-0.036 0.356,-0.109L0.356,-0.62L0.41,-0.62C0.524,-0.62 0.546,-0.602 0.569,-0.492L0.593,-0.492Z" style="fill:rgb(106,6,6);fill-rule:nonzero;"/>
        </g>
        <g transform="matrix(83.3333,0,0,83.3333,508.928,414.7)">
            <path d="M0.702,0L0.702,-0.019C0.627,-0.025 0.614,-0.038 0.614,-0.109L0.614,-0.553C0.614,-0.625 0.625,-0.636 0.702,-0.643L0.702,-0.662L0.424,-0.662L0.424,-0.643C0.501,-0.636 0.512,-0.625 0.512,-0.553L0.512,-0.359L0.209,-0.359L0.209,-0.553C0.209,-0.625 0.22,-0.636 0.297,-0.643L0.297,-0.662L0.019,-0.662L0.019,-0.643C0.096,-0.636 0.107,-0.625 0.107,-0.553L0.107,-0.12C0.107,-0.036 0.097,-0.024 0.019,-0.019L0.019,0L0.297,0L0.297,-0.019C0.222,-0.025 0.209,-0.038 0.209,-0.109L0.209,-0.315L0.512,-0.315L0.512,-0.12C0.512,-0.036 0.502,-0.024 0.424,-0.019L0.424,0L0.702,0Z" style="fill:rgb(106,6,6);fill-rule:nonzero;"/>
        </g>
        <g transform="matrix(83.3333,0,0,83.3333,569.095,414.7)">
            <path d="M0.597,-0.169L0.569,-0.169C0.519,-0.061 0.476,-0.037 0.333,-0.037L0.306,-0.037C0.258,-0.037 0.218,-0.041 0.209,-0.048C0.203,-0.052 0.201,-0.061 0.201,-0.08L0.201,-0.327L0.355,-0.327C0.437,-0.327 0.452,-0.314 0.465,-0.231L0.488,-0.231L0.488,-0.463L0.465,-0.463C0.452,-0.381 0.436,-0.368 0.355,-0.368L0.201,-0.368L0.201,-0.59C0.201,-0.618 0.207,-0.624 0.234,-0.624L0.369,-0.624C0.482,-0.624 0.504,-0.609 0.521,-0.519L0.546,-0.519L0.543,-0.662L0.012,-0.662L0.012,-0.643C0.086,-0.637 0.099,-0.624 0.099,-0.553L0.099,-0.109C0.099,-0.038 0.085,-0.024 0.012,-0.019L0.012,0L0.552,0L0.597,-0.169Z" style="fill:rgb(106,6,6);fill-rule:nonzero;"/>
        </g>
        <g transform="matrix(83.3333,0,0,83.3333,235.803,493.867)">
            <path d="M0.685,-0.334C0.685,-0.424 0.655,-0.502 0.6,-0.557C0.532,-0.626 0.423,-0.662 0.286,-0.662L0.016,-0.662L0.016,-0.643C0.095,-0.636 0.104,-0.627 0.104,-0.553L0.104,-0.109C0.104,-0.037 0.092,-0.024 0.016,-0.019L0.016,0L0.3,0C0.416,0 0.521,-0.033 0.583,-0.089C0.648,-0.148 0.685,-0.237 0.685,-0.334ZM0.576,-0.327C0.576,-0.209 0.535,-0.125 0.454,-0.078C0.403,-0.049 0.345,-0.037 0.258,-0.037C0.218,-0.037 0.206,-0.046 0.206,-0.078L0.206,-0.586C0.206,-0.617 0.217,-0.625 0.258,-0.625C0.344,-0.625 0.409,-0.609 0.457,-0.575C0.535,-0.521 0.576,-0.435 0.576,-0.327Z" style="fill:rgb(106,6,6);fill-rule:nonzero;"/>
        </g>
        <g transform="matrix(83.3333,0,0,83.3333,295.97,493.867)">
            <path d="M0.688,-0.327C0.688,-0.426 0.659,-0.511 0.604,-0.571C0.541,-0.64 0.457,-0.676 0.361,-0.676C0.17,-0.676 0.034,-0.532 0.034,-0.331C0.034,-0.237 0.066,-0.146 0.12,-0.088C0.178,-0.025 0.267,0.014 0.355,0.014C0.552,0.014 0.688,-0.126 0.688,-0.327ZM0.574,-0.328C0.574,-0.269 0.561,-0.2 0.541,-0.148C0.532,-0.123 0.515,-0.098 0.492,-0.075C0.457,-0.04 0.412,-0.022 0.359,-0.022C0.313,-0.022 0.268,-0.04 0.233,-0.071C0.181,-0.117 0.148,-0.218 0.148,-0.329C0.148,-0.431 0.176,-0.528 0.218,-0.575C0.257,-0.618 0.306,-0.64 0.361,-0.64C0.407,-0.64 0.453,-0.622 0.489,-0.59C0.543,-0.541 0.574,-0.447 0.574,-0.328Z" style="fill:rgb(106,6,6);fill-rule:nonzero;"/>
        </g>
        <g transform="matrix(83.3333,0,0,83.3333,356.137,493.867)">
            <path d="M0.688,-0.327C0.688,-0.426 0.659,-0.511 0.604,-0.571C0.541,-0.64 0.457,-0.676 0.361,-0.676C0.17,-0.676 0.034,-0.532 0.034,-0.331C0.034,-0.237 0.066,-0.146 0.12,-0.088C0.178,-0.025 0.267,0.014 0.355,0.014C0.552,0.014 0.688,-0.126 0.688,-0.327ZM0.574,-0.328C0.574,-0.269 0.561,-0.2 0.541,-0.148C0.532,-0.123 0.515,-0.098 0.492,-0.075C0.457,-0.04 0.412,-0.022 0.359,-0.022C0.313,-0.022 0.268,-0.04 0.233,-0.071C0.181,-0.117 0.148,-0.218 0.148,-0.329C0.148,-0.431 0.176,-0.528 0.218,-0.575C0.257,-0.618 0.306,-0.64 0.361,-0.64C0.407,-0.64 0.453,-0.622 0.489,-0.59C0.543,-0.541 0.574,-0.447 0.574,-0.328Z" style="fill:rgb(106,6,6);fill-rule:nonzero;"/>
        </g>
        <g transform="matrix(83.3333,0,0,83.3333,416.303,493.867)">
            <path d="M0.659,0L0.659,-0.019C0.621,-0.022 0.601,-0.032 0.572,-0.066L0.366,-0.319C0.433,-0.332 0.463,-0.344 0.496,-0.371C0.528,-0.397 0.547,-0.439 0.547,-0.486C0.547,-0.529 0.534,-0.566 0.508,-0.595C0.47,-0.636 0.387,-0.662 0.293,-0.662L0.017,-0.662L0.017,-0.643C0.092,-0.635 0.102,-0.624 0.102,-0.553L0.102,-0.12C0.102,-0.037 0.092,-0.025 0.017,-0.019L0.017,0L0.294,0L0.294,-0.019C0.217,-0.024 0.204,-0.037 0.204,-0.109L0.204,-0.306L0.26,-0.308L0.498,0L0.659,0ZM0.438,-0.488C0.438,-0.438 0.417,-0.396 0.381,-0.377C0.335,-0.351 0.3,-0.345 0.204,-0.343L0.204,-0.589C0.204,-0.617 0.215,-0.625 0.255,-0.625C0.38,-0.625 0.438,-0.582 0.438,-0.488Z" style="fill:rgb(106,6,6);fill-rule:nonzero;"/>
        </g>
        <g transform="matrix(83.3333,0,0,83.3333,492.72,493.867)">
            <path d="M0.593,-0.492L0.587,-0.662L0.023,-0.662L0.017,-0.492L0.041,-0.492C0.065,-0.602 0.088,-0.62 0.2,-0.62L0.254,-0.62L0.254,-0.12C0.254,-0.035 0.243,-0.024 0.16,-0.019L0.16,0L0.452,0L0.452,-0.019C0.37,-0.023 0.356,-0.036 0.356,-0.109L0.356,-0.62L0.41,-0.62C0.524,-0.62 0.546,-0.602 0.569,-0.492L0.593,-0.492Z" style="fill:rgb(106,6,6);fill-rule:nonzero;"/>
        </g>
        <g transform="matrix(83.3333,0,0,83.3333,543.637,493.867)">
            <path d="M0.688,-0.327C0.688,-0.426 0.659,-0.511 0.604,-0.571C0.541,-0.64 0.457,-0.676 0.361,-0.676C0.17,-0.676 0.034,-0.532 0.034,-0.331C0.034,-0.237 0.066,-0.146 0.12,-0.088C0.178,-0.025 0.267,0.014 0.355,0.014C0.552,0.014 0.688,-0.126 0.688,-0.327ZM0.574,-0.328C0.574,-0.269 0.561,-0.2 0.541,-0.148C0.532,-0.123 0.515,-0.098 0.492,-0.075C0.457,-0.04 0.412,-0.022 0.359,-0.022C0.313,-0.022 0.268,-0.04 0.233,-0.071C0.181,-0.117 0.148,-0.218 0.148,-0.329C0.148,-0.431 0.176,-0.528 0.218,-0.575C0.257,-0.618 0.306,-0.64 0.361,-0.64C0.407,-0.64 0.453,-0.622 0.489,-0.59C0.543,-0.541 0.574,-0.447 0.574,-0.328Z" style="fill:rgb(106,6,6);fill-rule:nonzero;"/>
        </g>
        <g transform="matrix(83.3333,0,0,83.3333,245.095,573.034)">
            <path d="M0.932,-0.643L0.932,-0.662L0.734,-0.662L0.734,-0.643C0.785,-0.638 0.803,-0.627 0.803,-0.6C0.803,-0.579 0.797,-0.553 0.787,-0.525L0.662,-0.186L0.53,-0.527L0.518,-0.557C0.509,-0.578 0.503,-0.597 0.503,-0.608C0.503,-0.632 0.526,-0.642 0.58,-0.643L0.58,-0.662L0.313,-0.662L0.313,-0.643C0.37,-0.642 0.38,-0.633 0.414,-0.553L0.447,-0.471L0.34,-0.189L0.196,-0.565C0.189,-0.583 0.185,-0.6 0.185,-0.611C0.185,-0.633 0.199,-0.64 0.25,-0.643L0.25,-0.662L0.005,-0.662L0.005,-0.643C0.056,-0.638 0.071,-0.62 0.108,-0.526L0.301,0.011L0.316,0.011L0.47,-0.412L0.63,0.011L0.645,0.011L0.849,-0.572C0.868,-0.624 0.879,-0.633 0.932,-0.643Z" style="fill:rgb(106,6,6);fill-rule:nonzero;"/>
        </g>
        <g transform="matrix(83.3333,0,0,83.3333,323.762,573.034)">
            <path d="M0.315,0L0.315,-0.019C0.233,-0.022 0.217,-0.036 0.217,-0.109L0.217,-0.553C0.217,-0.626 0.231,-0.639 0.315,-0.643L0.315,-0.662L0.018,-0.662L0.018,-0.643C0.103,-0.638 0.115,-0.627 0.115,-0.553L0.115,-0.109C0.115,-0.034 0.102,-0.022 0.018,-0.019L0.018,0L0.315,0Z" style="fill:rgb(106,6,6);fill-rule:nonzero;"/>
        </g>
        <g transform="matrix(83.3333,0,0,83.3333,351.512,573.034)">
            <path d="M0.707,-0.643L0.707,-0.662L0.472,-0.662L0.472,-0.643C0.51,-0.64 0.524,-0.636 0.539,-0.627C0.559,-0.613 0.568,-0.577 0.568,-0.515L0.568,-0.178L0.183,-0.662L0.012,-0.662L0.012,-0.643C0.055,-0.643 0.069,-0.635 0.109,-0.588L0.109,-0.147C0.109,-0.044 0.095,-0.025 0.012,-0.019L0.012,0L0.247,0L0.247,-0.019C0.17,-0.023 0.153,-0.046 0.153,-0.147L0.153,-0.539L0.595,0.011L0.612,0.011L0.612,-0.515C0.612,-0.575 0.622,-0.612 0.641,-0.625C0.655,-0.635 0.669,-0.639 0.707,-0.643Z" style="fill:rgb(106,6,6);fill-rule:nonzero;"/>
        </g>
        <g transform="matrix(83.3333,0,0,83.3333,432.512,573.034)">
            <path d="M0.593,-0.492L0.587,-0.662L0.023,-0.662L0.017,-0.492L0.041,-0.492C0.065,-0.602 0.088,-0.62 0.2,-0.62L0.254,-0.62L0.254,-0.12C0.254,-0.035 0.243,-0.024 0.16,-0.019L0.16,0L0.452,0L0.452,-0.019C0.37,-0.023 0.356,-0.036 0.356,-0.109L0.356,-0.62L0.41,-0.62C0.524,-0.62 0.546,-0.602 0.569,-0.492L0.593,-0.492Z" style="fill:rgb(106,6,6);fill-rule:nonzero;"/>
        </g>
        <g transform="matrix(83.3333,0,0,83.3333,483.428,573.034)">
            <path d="M0.702,0L0.702,-0.019C0.627,-0.025 0.614,-0.038 0.614,-0.109L0.614,-0.553C0.614,-0.625 0.625,-0.636 0.702,-0.643L0.702,-0.662L0.424,-0.662L0.424,-0.643C0.501,-0.636 0.512,-0.625 0.512,-0.553L0.512,-0.359L0.209,-0.359L0.209,-0.553C0.209,-0.625 0.22,-0.636 0.297,-0.643L0.297,-0.662L0.019,-0.662L0.019,-0.643C0.096,-0.636 0.107,-0.625 0.107,-0.553L0.107,-0.12C0.107,-0.036 0.097,-0.024 0.019,-0.019L0.019,0L0.297,0L0.297,-0.019C0.222,-0.025 0.209,-0.038 0.209,-0.109L0.209,-0.315L0.512,-0.315L0.512,-0.12C0.512,-0.036 0.502,-0.024 0.424,-0.019L0.424,0L0.702,0Z" style="fill:rgb(106,6,6);fill-rule:nonzero;"/>
        </g>
        <g transform="matrix(83.3333,0,0,83.3333,543.595,573.034)">
            <path d="M0.597,-0.169L0.569,-0.169C0.519,-0.061 0.476,-0.037 0.333,-0.037L0.306,-0.037C0.258,-0.037 0.218,-0.041 0.209,-0.048C0.203,-0.052 0.201,-0.061 0.201,-0.08L0.201,-0.327L0.355,-0.327C0.437,-0.327 0.452,-0.314 0.465,-0.231L0.488,-0.231L0.488,-0.463L0.465,-0.463C0.452,-0.381 0.436,-0.368 0.355,-0.368L0.201,-0.368L0.201,-0.59C0.201,-0.618 0.207,-0.624 0.234,-0.624L0.369,-0.624C0.482,-0.624 0.504,-0.609 0.521,-0.519L0.546,-0.519L0.543,-0.662L0.012,-0.662L0.012,-0.643C0.086,-0.637 0.099,-0.624 0.099,-0.553L0.099,-0.109C0.099,-0.038 0.085,-0.024 0.012,-0.019L0.012,0L0.552,0L0.597,-0.169Z" style="fill:rgb(106,6,6);fill-rule:nonzero;"/>
        </g>
        <g transform="matrix(83.3333,0,0,83.3333,277.47,652.2)">
            <path d="M0.863,0L0.863,-0.019C0.79,-0.024 0.776,-0.038 0.776,-0.109L0.776,-0.553C0.776,-0.624 0.789,-0.637 0.863,-0.643L0.863,-0.662L0.664,-0.662L0.443,-0.157L0.212,-0.662L0.014,-0.662L0.014,-0.643C0.096,-0.638 0.109,-0.626 0.109,-0.553L0.109,-0.147C0.109,-0.044 0.095,-0.025 0.012,-0.019L0.012,0L0.247,0L0.247,-0.019C0.17,-0.023 0.153,-0.046 0.153,-0.147L0.153,-0.55L0.404,0L0.418,0L0.674,-0.573L0.674,-0.12C0.674,-0.037 0.662,-0.024 0.583,-0.019L0.583,0L0.863,0Z" style="fill:rgb(106,6,6);fill-rule:nonzero;"/>
        </g>
        <g transform="matrix(83.3333,0,0,83.3333,351.553,652.2)">
            <path d="M0.688,-0.327C0.688,-0.426 0.659,-0.511 0.604,-0.571C0.541,-0.64 0.457,-0.676 0.361,-0.676C0.17,-0.676 0.034,-0.532 0.034,-0.331C0.034,-0.237 0.066,-0.146 0.12,-0.088C0.178,-0.025 0.267,0.014 0.355,0.014C0.552,0.014 0.688,-0.126 0.688,-0.327ZM0.574,-0.328C0.574,-0.269 0.561,-0.2 0.541,-0.148C0.532,-0.123 0.515,-0.098 0.492,-0.075C0.457,-0.04 0.412,-0.022 0.359,-0.022C0.313,-0.022 0.268,-0.04 0.233,-0.071C0.181,-0.117 0.148,-0.218 0.148,-0.329C0.148,-0.431 0.176,-0.528 0.218,-0.575C0.257,-0.618 0.306,-0.64 0.361,-0.64C0.407,-0.64 0.453,-0.622 0.489,-0.59C0.543,-0.541 0.574,-0.447 0.574,-0.328Z" style="fill:rgb(106,6,6);fill-rule:nonzero;"/>
        </g>
        <g transform="matrix(83.3333,0,0,83.3333,411.72,652.2)">
            <path d="M0.707,-0.643L0.707,-0.662L0.472,-0.662L0.472,-0.643C0.51,-0.64 0.524,-0.636 0.539,-0.627C0.559,-0.613 0.568,-0.577 0.568,-0.515L0.568,-0.178L0.183,-0.662L0.012,-0.662L0.012,-0.643C0.055,-0.643 0.069,-0.635 0.109,-0.588L0.109,-0.147C0.109,-0.044 0.095,-0.025 0.012,-0.019L0.012,0L0.247,0L0.247,-0.019C0.17,-0.023 0.153,-0.046 0.153,-0.147L0.153,-0.539L0.595,0.011L0.612,0.011L0.612,-0.515C0.612,-0.575 0.622,-0.612 0.641,-0.625C0.655,-0.635 0.669,-0.639 0.707,-0.643Z" style="fill:rgb(106,6,6);fill-rule:nonzero;"/>
        </g>
        <g transform="matrix(83.3333,0,0,83.3333,471.887,652.2)">
            <path d="M0.597,-0.169L0.569,-0.169C0.519,-0.061 0.476,-0.037 0.333,-0.037L0.306,-0.037C0.258,-0.037 0.218,-0.041 0.209,-0.048C0.203,-0.052 0.201,-0.061 0.201,-0.08L0.201,-0.327L0.355,-0.327C0.437,-0.327 0.452,-0.314 0.465,-0.231L0.488,-0.231L0.488,-0.463L0.465,-0.463C0.452,-0.381 0.436,-0.368 0.355,-0.368L0.201,-0.368L0.201,-0.59C0.201,-0.618 0.207,-0.624 0.234,-0.624L0.369,-0.624C0.482,-0.624 0.504,-0.609 0.521,-0.519L0.546,-0.519L0.543,-0.662L0.012,-0.662L0.012,-0.643C0.086,-0.637 0.099,-0.624 0.099,-0.553L0.099,-0.109C0.099,-0.038 0.085,-0.024 0.012,-0.019L0.012,0L0.552,0L0.597,-0.169Z" style="fill:rgb(106,6,6);fill-rule:nonzero;"/>
        </g>
        <g transform="matrix(83.3333,0,0,83.3333,522.803,652.2)">
            <path d="M0.703,-0.643L0.703,-0.662L0.484,-0.662L0.484,-0.643C0.536,-0.642 0.553,-0.634 0.553,-0.61C0.553,-0.6 0.548,-0.588 0.539,-0.573L0.396,-0.347L0.248,-0.569C0.237,-0.585 0.231,-0.602 0.231,-0.613C0.231,-0.631 0.245,-0.64 0.277,-0.642C0.281,-0.642 0.291,-0.642 0.302,-0.643L0.302,-0.662L0.022,-0.662L0.022,-0.643C0.07,-0.641 0.084,-0.627 0.184,-0.486L0.315,-0.294L0.315,-0.12C0.315,-0.033 0.305,-0.023 0.214,-0.019L0.214,0L0.52,0L0.52,-0.019C0.431,-0.021 0.417,-0.033 0.417,-0.109L0.417,-0.303L0.565,-0.529C0.626,-0.617 0.652,-0.639 0.703,-0.643Z" style="fill:rgb(106,6,6);fill-rule:nonzero;"/>
        </g>
    </g>
    <g id="person_2" transform="matrix(1,0,0,1,-13.2472,-85.8873)">
        <g transform="matrix(1.24222,0,0,1.24222,776.204,-569.526)">
            <ellipse cx="385.121" cy="1482.52" rx="116.67" ry="18.063" style="fill:rgb(255,240,74);"/>
        </g>
        <g id="person_2_right_arm">
            <g transform="matrix(-0.273893,-0.64662,0.64662,-0.273893,870.785,961.698)">
                <g transform="matrix(0.417981,1.0185,-0.814369,0.334208,-37.8455,-961.301)">
                    <rect x="1219.45" y="168.305" width="15.554" height="125.896" style="fill:rgb(90,72,72);"/>
                </g>
                <g transform="matrix(1,0,0,1,17.5366,8.24157)">
                    <circle cx="341.181" cy="326.518" r="29.605" style="fill:rgb(255,240,74);"/>
                </g>
            </g>
            <path d="M1138.31,751.204C1185.72,705.564 1180.05,652.232 1149.68,656.61C1140.07,657.996 1121.91,688.696 1108.7,706.269C1099.4,718.632 1077.32,750.843 1070.91,765.916C1064.51,780.989 1062.51,786.311 1058.31,768.855C1054.52,753.109 1047.67,749.071 1045.96,717.651C1044.59,692.415 1043.81,699.86 1042.36,694.511C1040.9,689.162 1048.6,684.91 1043.85,679.668C1041.59,675.529 1043.99,671.348 1036.18,668.738C1034.7,663.791 1036.28,662.096 1029.67,659.624C1028.76,656.268 1026.16,651.14 1019.64,652.851C1013.95,654.342 1012.52,661.855 1010.74,663.988C1008.96,666.122 1011.21,680.939 1010.84,684.896C1010.46,688.852 1017.65,694.013 1020.66,699.382C1023.67,704.751 1030.58,709.836 1030.12,726.404C1029.66,742.973 1030.22,775.55 1034.93,792.658C1039.64,809.767 1041.25,815.228 1043.95,819.341C1046.65,823.453 1060.52,825.665 1066.82,820.881C1073.13,816.098 1113.58,775.018 1138.31,751.204Z" style="fill:rgb(90,72,72);"/>
        </g>
        <path id="person_2_torso" d="M1096.63,707.945C1096.04,702.123 1102.62,686.373 1110.71,673.122C1114.63,666.701 1134.31,643.593 1139.46,641.852C1139.33,648.585 1140.31,651.276 1140.89,654.624C1143.9,652.905 1161.64,655.421 1171.18,661.6C1180.43,667.599 1194.04,678.92 1197.3,685.719C1200.56,692.518 1206.91,702.792 1209.03,722.115C1210.21,732.947 1216.34,755.302 1219.9,761.076C1223.45,766.851 1232.9,791.53 1242.57,798.678C1252.25,805.827 1266.85,822.097 1270.69,833.067C1273.46,840.957 1206.18,894.605 1197.45,889.141C1188.71,883.677 1192.38,892.435 1179.32,874.675C1166.26,856.916 1171.65,866.64 1160.64,851.73C1149.64,836.82 1135.75,812.878 1129.26,797.545C1121.25,778.614 1125.98,799.893 1110.24,762.31C1104.35,748.24 1099.6,732.398 1102.81,710.718C1100.93,709.628 1100.67,708.045 1096.63,707.945Z" style="fill:rgb(90,72,72);"/>
        <g id="person_2_left_arm">
            <g transform="matrix(0.447171,-0.410541,0.410541,0.447171,533.982,696.466)">
                <path d="M753.068,650.936C769.018,641.663 804.836,637.463 824.113,731.733C828.778,754.546 842.588,849.005 846.385,859.068C850.182,869.131 884.409,936.361 894.097,953.142C903.785,969.923 918.212,1017.12 913.07,1021.4C907.929,1025.69 962.141,1071.72 955.221,1091.57C948.301,1111.42 935.429,1142.09 921.38,1133.16C907.331,1124.24 886.682,1042.58 871.248,1027.83C855.813,1013.08 801.22,913.948 789.79,895.198C778.36,876.447 706.542,677.984 753.068,650.936Z" style="fill:rgb(90,72,72);"/>
            </g>
            <g transform="matrix(0.516664,0.123619,-0.123619,0.516664,1189.81,112.726)">
                <path d="M934.213,1127.04L677.771,1127.04" style="fill:none;stroke:rgb(166,162,118);stroke-width:11.76px;stroke-linejoin:round;"/>
                <g transform="matrix(1,0,0,1,0,124.617)">
                    <path d="M934.213,1127.04L677.771,1127.04" style="fill:none;stroke:rgb(166,162,118);stroke-width:11.76px;stroke-linejoin:round;"/>
                </g>
                <g transform="matrix(1,0,0,1,0,62.3982)">
                    <path d="M934.213,1127.04L677.771,1127.04" style="fill:none;stroke:rgb(166,162,118);stroke-width:11.76px;stroke-linejoin:round;"/>
                </g>
                <g transform="matrix(1,0,0,1,0,187.015)">
                    <path d="M934.213,1127.04L677.771,1127.04" style="fill:none;stroke:rgb(166,162,118);stroke-width:11.76px;stroke-linejoin:round;"/>
                </g>
                <g transform="matrix(1,0,0,1,0,30.9254)">
                    <path d="M934.213,1127.04L677.771,1127.04" style="fill:none;stroke:rgb(166,162,118);stroke-width:11.76px;stroke-linejoin:round;"/>
                </g>
                <g transform="matrix(1,0,0,1,0,155.542)">
                    <path d="M934.213,1127.04L677.771,1127.04" style="fill:none;stroke:rgb(166,162,118);stroke-width:11.76px;stroke-linejoin:round;"/>
                </g>
                <g transform="matrix(1,0,0,1,0,93.3236)">
                    <path d="M934.213,1127.04L677.771,1127.04" style="fill:none;stroke:rgb(166,162,118);stroke-width:11.76px;stroke-linejoin:round;"/>
                </g>
                <g transform="matrix(1,0,0,1,0,217.94)">
                    <path d="M934.213,1127.04L677.771,1127.04" style="fill:none;stroke:rgb(166,162,118);stroke-width:11.76px;stroke-linejoin:round;"/>
                </g>
                <g transform="matrix(1,0,0,1,0,249.689)">
                    <path d="M934.213,1127.04L677.771,1127.04" style="fill:none;stroke:rgb(166,162,118);stroke-width:11.76px;stroke-linejoin:round;"/>
                </g>
                <g transform="matrix(1,0,0,1,0,280.689)">
                    <path d="M934.213,1127.04L677.771,1127.04" style="fill:none;stroke:rgb(166,162,118);stroke-width:11.76px;stroke-linejoin:round;"/>
                </g>
                <g transform="matrix(0.568004,0,0,1,278.289,-3.66017)">
                    <circle cx="729.88" cy="1130.69" r="11.803" style="fill:rgb(178,3,3);"/>
                </g>
                <g transform="matrix(0.568004,0,0,1,278.289,27.0855)">
                    <circle cx="729.88" cy="1130.69" r="11.803" style="fill:rgb(178,3,3);"/>
                </g>
                <g transform="matrix(0.568004,0,0,1,278.289,58.6234)">
                    <circle cx="729.88" cy="1130.69" r="11.803" style="fill:rgb(178,3,3);"/>
                </g>
                <g transform="matrix(0.568004,0,0,1,278.289,88.9407)">
                    <circle cx="729.88" cy="1130.69" r="11.803" style="fill:rgb(178,3,3);"/>
                </g>
                <g transform="matrix(0.568004,0,0,1,278.289,120.551)">
                    <circle cx="729.88" cy="1130.69" r="11.803" style="fill:rgb(178,3,3);"/>
                </g>
                <g transform="matrix(0.568004,0,0,1,278.289,151.428)">
                    <circle cx="729.88" cy="1130.69" r="11.803" style="fill:rgb(178,3,3);"/>
                </g>
                <g transform="matrix(0.568004,0,0,1,278.289,183.123)">
                    <circle cx="729.88" cy="1130.69" r="11.803" style="fill:rgb(178,3,3);"/>
                </g>
                <g transform="matrix(0.568004,0,0,1,278.289,214.449)">
                    <circle cx="729.88" cy="1130.69" r="11.803" style="fill:rgb(178,3,3);"/>
                </g>
                <g transform="matrix(0.568004,0,0,1,278.289,245.841)">
                    <circle cx="729.88" cy="1130.69" r="11.803" style="fill:rgb(178,3,3);"/>
                </g>
                <g transform="matrix(0.568004,0,0,1,278.289,276.4)">
                    <circle cx="729.88" cy="1130.69" r="11.803" style="fill:rgb(178,3,3);"/>
                </g>
                <g transform="matrix(0.568004,0,0,1,343.917,-3.66017)">
                    <circle cx="729.88" cy="1130.69" r="11.803" style="fill:rgb(178,134,3);"/>
                </g>
                <g transform="matrix(0.568004,0,0,1,343.917,27.0855)">
                    <circle cx="729.88" cy="1130.69" r="11.803" style="fill:rgb(178,134,3);"/>
                </g>
                <g transform="matrix(0.568004,0,0,1,343.917,58.6234)">
                    <circle cx="729.88" cy="1130.69" r="11.803" style="fill:rgb(178,134,3);"/>
                </g>
                <g transform="matrix(0.568004,0,0,1,343.917,88.9407)">
                    <circle cx="729.88" cy="1130.69" r="11.803" style="fill:rgb(178,134,3);"/>
                </g>
                <g transform="matrix(0.568004,0,0,1,343.917,120.551)">
                    <circle cx="729.88" cy="1130.69" r="11.803" style="fill:rgb(178,134,3);"/>
                </g>
                <g transform="matrix(0.568004,0,0,1,343.917,151.428)">
                    <circle cx="729.88" cy="1130.69" r="11.803" style="fill:rgb(178,134,3);"/>
                </g>
                <g transform="matrix(0.568004,0,0,1,343.917,183.123)">
                    <circle cx="729.88" cy="1130.69" r="11.803" style="fill:rgb(178,134,3);"/>
                </g>
                <g transform="matrix(0.568004,0,0,1,343.917,214.449)">
                    <circle cx="729.88" cy="1130.69" r="11.803" style="fill:rgb(178,134,3);"/>
                </g>
                <g transform="matrix(0.568004,0,0,1,343.917,245.841)">
                    <circle cx="729.88" cy="1130.69" r="11.803" style="fill:rgb(178,134,3);"/>
                </g>
                <g transform="matrix(0.568004,0,0,1,343.917,276.4)">
                    <circle cx="729.88" cy="1130.69" r="11.803" style="fill:rgb(178,134,3);"/>
                </g>
                <g transform="matrix(0.568004,0,0,1,291.086,-3.66017)">
                    <circle cx="729.88" cy="1130.69" r="11.803" style="fill:rgb(178,3,3);"/>
                </g>
                <g transform="matrix(0.568004,0,0,1,291.086,27.0855)">
                    <circle cx="729.88" cy="1130.69" r="11.803" style="fill:rgb(178,3,3);"/>
                </g>
                <g transform="matrix(0.568004,0,0,1,291.086,58.6234)">
                    <circle cx="729.88" cy="1130.69" r="11.803" style="fill:rgb(178,3,3);"/>
                </g>
                <g transform="matrix(0.568004,0,0,1,291.086,88.9407)">
                    <circle cx="729.88" cy="1130.69" r="11.803" style="fill:rgb(178,3,3);"/>
                </g>
                <g transform="matrix(0.568004,0,0,1,291.086,120.551)">
                    <circle cx="729.88" cy="1130.69" r="11.803" style="fill:rgb(178,3,3);"/>
                </g>
                <g transform="matrix(0.568004,0,0,1,291.086,151.428)">
                    <circle cx="729.88" cy="1130.69" r="11.803" style="fill:rgb(178,3,3);"/>
                </g>
                <g transform="matrix(0.568004,0,0,1,291.086,183.123)">
                    <circle cx="729.88" cy="1130.69" r="11.803" style="fill:rgb(178,3,3);"/>
                </g>
                <g transform="matrix(0.568004,0,0,1,291.086,214.449)">
                    <circle cx="729.88" cy="1130.69" r="11.803" style="fill:rgb(178,3,3);"/>
                </g>
                <g transform="matrix(0.568004,0,0,1,291.086,245.841)">
                    <circle cx="729.88" cy="1130.69" r="11.803" style="fill:rgb(178,3,3);"/>
                </g>
                <g transform="matrix(0.568004,0,0,1,291.086,276.4)">
                    <circle cx="729.88" cy="1130.69" r="11.803" style="fill:rgb(178,3,3);"/>
                </g>
                <g transform="matrix(0.568004,0,0,1,356.714,-3.66017)">
                    <circle cx="729.88" cy="1130.69" r="11.803" style="fill:rgb(178,134,3);"/>
                </g>
                <g transform="matrix(0.568004,0,0,1,356.714,27.0855)">
                    <circle cx="729.88" cy="1130.69" r="11.803" style="fill:rgb(178,134,3);"/>
                </g>
                <g transform="matrix(0.568004,0,0,1,356.714,58.6234)">
                    <circle cx="729.88" cy="1130.69" r="11.803" style="fill:rgb(178,134,3);"/>
                </g>
                <g transform="matrix(0.568004,0,0,1,356.714,88.9407)">
                    <circle cx="729.88" cy="1130.69" r="11.803" style="fill:rgb(178,134,3);"/>
                </g>
                <g transform="matrix(0.568004,0,0,1,356.714,120.551)">
                    <circle cx="729.88" cy="1130.69" r="11.803" style="fill:rgb(178,134,3);"/>
                </g>
                <g transform="matrix(0.568004,0,0,1,356.714,151.428)">
                    <circle cx="729.88" cy="1130.69" r="11.803" style="fill:rgb(178,134,3);"/>
                </g>
                <g transform="matrix(0.568004,0,0,1,356.714,183.123)">
                    <circle cx="729.88" cy="1130.69" r="11.803" style="fill:rgb(178,134,3);"/>
                </g>
                <g transform="matrix(0.568004,0,0,1,356.714,214.449)">
                    <circle cx="729.88" cy="1130.69" r="11.803" style="fill:rgb(178,134,3);"/>
                </g>
                <g transform="matrix(0.568004,0,0,1,356.714,245.841)">
                    <circle cx="729.88" cy="1130.69" r="11.803" style="fill:rgb(178,134,3);"/>
                </g>
                <g transform="matrix(0.568004,0,0,1,356.714,276.4)">
                    <circle cx="729.88" cy="1130.69" r="11.803" style="fill:rgb(178,134,3);"/>
                </g>
                <g transform="matrix(0.568004,0,0,1,303.792,-3.66017)">
                    <circle cx="729.88" cy="1130.69" r="11.803" style="fill:rgb(178,3,3);"/>
                </g>
                <g transform="matrix(0.568004,0,0,1,303.792,27.0855)">
                    <circle cx="729.88" cy="1130.69" r="11.803" style="fill:rgb(178,3,3);"/>
                </g>
                <g transform="matrix(0.568004,0,0,1,303.792,58.6234)">
                    <circle cx="729.88" cy="1130.69" r="11.803" style="fill:rgb(178,3,3);"/>
                </g>
                <g transform="matrix(0.568004,0,0,1,303.792,88.9407)">
                    <circle cx="729.88" cy="1130.69" r="11.803" style="fill:rgb(178,3,3);"/>
                </g>
                <g transform="matrix(0.568004,0,0,1,303.792,120.551)">
                    <circle cx="729.88" cy="1130.69" r="11.803" style="fill:rgb(178,3,3);"/>
                </g>
                <g transform="matrix(0.568004,0,0,1,303.792,151.428)">
                    <circle cx="729.88" cy="1130.69" r="11.803" style="fill:rgb(178,3,3);"/>
                </g>
                <g transform="matrix(0.568004,0,0,1,303.792,183.123)">
                    <circle cx="729.88" cy="1130.69" r="11.803" style="fill:rgb(178,3,3);"/>
                </g>
                <g transform="matrix(0.568004,0,0,1,303.792,214.449)">
                    <circle cx="729.88" cy="1130.69" r="11.803" style="fill:rgb(178,3,3);"/>
                </g>
                <g transform="matrix(0.568004,0,0,1,303.792,245.841)">
                    <circle cx="729.88" cy="1130.69" r="11.803" style="fill:rgb(178,3,3);"/>
                </g>
                <g transform="matrix(0.568004,0,0,1,303.792,276.4)">
                    <circle cx="729.88" cy="1130.69" r="11.803" style="fill:rgb(178,3,3);"/>
                </g>
                <g transform="matrix(0.568004,0,0,1,369.42,-3.66017)">
                    <circle cx="729.88" cy="1130.69" r="11.803" style="fill:rgb(178,134,3);"/>
                </g>
                <g transform="matrix(0.568004,0,0,1,369.42,27.0855)">
                    <circle cx="729.88" cy="1130.69" r="11.803" style="fill:rgb(178,134,3);"/>
                </g>
                <g transform="matrix(0.568004,0,0,1,369.42,58.6234)">
                    <circle cx="729.88" cy="1130.69" r="11.803" style="fill:rgb(178,134,3);"/>
                </g>
                <g transform="matrix(0.568004,0,0,1,369.42,88.9407)">
                    <circle cx="729.88" cy="1130.69" r="11.803" style="fill:rgb(178,134,3);"/>
                </g>
                <g transform="matrix(0.568004,0,0,1,369.42,120.551)">
                    <circle cx="729.88" cy="1130.69" r="11.803" style="fill:rgb(178,134,3);"/>
                </g>
                <g transform="matrix(0.568004,0,0,1,369.42,151.428)">
                    <circle cx="729.88" cy="1130.69" r="11.803" style="fill:rgb(178,134,3);"/>
                </g>
                <g transform="matrix(0.568004,0,0,1,369.42,183.123)">
                    <circle cx="729.88" cy="1130.69" r="11.803" style="fill:rgb(178,134,3);"/>
                </g>
                <g transform="matrix(0.568004,0,0,1,369.42,214.449)">
                    <circle cx="729.88" cy="1130.69" r="11.803" style="fill:rgb(178,134,3);"/>
                </g>
                <g transform="matrix(0.568004,0,0,1,369.42,245.841)">
                    <circle cx="729.88" cy="1130.69" r="11.803" style="fill:rgb(178,134,3);"/>
                </g>
                <g transform="matrix(0.568004,0,0,1,369.42,276.4)">
                    <circle cx="729.88" cy="1130.69" r="11.803" style="fill:rgb(178,134,3);"/>
                </g>
                <g transform="matrix(0.568004,0,0,1,316.45,-3.66017)">
                    <circle cx="729.88" cy="1130.69" r="11.803" style="fill:rgb(178,3,3);"/>
                </g>
                <g transform="matrix(0.568004,0,0,1,316.45,27.0855)">
                    <circle cx="729.88" cy="1130.69" r="11.803" style="fill:rgb(178,3,3);"/>
                </g>
                <g transform="matrix(0.568004,0,0,1,316.45,58.6234)">
                    <circle cx="729.88" cy="1130.69" r="11.803" style="fill:rgb(178,3,3);"/>
                </g>
                <g transform="matrix(0.568004,0,0,1,316.45,88.9407)">
                    <circle cx="729.88" cy="1130.69" r="11.803" style="fill:rgb(178,3,3);"/>
                </g>
                <g transform="matrix(0.568004,0,0,1,316.45,120.551)">
                    <circle cx="729.88" cy="1130.69" r="11.803" style="fill:rgb(178,3,3);"/>
                </g>
                <g transform="matrix(0.568004,0,0,1,316.45,151.428)">
                    <circle cx="729.88" cy="1130.69" r="11.803" style="fill:rgb(178,3,3);"/>
                </g>
                <g transform="matrix(0.568004,0,0,1,316.45,183.123)">
                    <circle cx="729.88" cy="1130.69" r="11.803" style="fill:rgb(178,3,3);"/>
                </g>
                <g transform="matrix(0.568004,0,0,1,316.45,214.449)">
                    <circle cx="729.88" cy="1130.69" r="11.803" style="fill:rgb(178,3,3);"/>
                </g>
                <g transform="matrix(0.568004,0,0,1,316.45,245.841)">
                    <circle cx="729.88" cy="1130.69" r="11.803" style="fill:rgb(178,3,3);"/>
                </g>
                <g transform="matrix(0.568004,0,0,1,316.45,276.4)">
                    <circle cx="729.88" cy="1130.69" r="11.803" style="fill:rgb(178,3,3);"/>
                </g>
                <g transform="matrix(0.568004,0,0,1,382.078,-3.66017)">
                    <circle cx="729.88" cy="1130.69" r="11.803" style="fill:rgb(178,134,3);"/>
                </g>
                <g transform="matrix(0.568004,0,0,1,382.078,27.0855)">
                    <circle cx="729.88" cy="1130.69" r="11.803" style="fill:rgb(178,134,3);"/>
                </g>
                <g transform="matrix(0.568004,0,0,1,382.078,58.6234)">
                    <circle cx="729.88" cy="1130.69" r="11.803" style="fill:rgb(178,134,3);"/>
                </g>
                <g transform="matrix(0.568004,0,0,1,382.078,88.9407)">
                    <circle cx="729.88" cy="1130.69" r="11.803" style="fill:rgb(178,134,3);"/>
                </g>
                <g transform="matrix(0.568004,0,0,1,382.078,120.551)">
                    <circle cx="729.88" cy="1130.69" r="11.803" style="fill:rgb(178,134,3);"/>
                </g>
                <g transform="matrix(0.568004,0,0,1,382.078,151.428)">
                    <circle cx="729.88" cy="1130.69" r="11.803" style="fill:rgb(178,134,3);"/>
                </g>
                <g transform="matrix(0.568004,0,0,1,382.078,183.123)">
                    <circle cx="729.88" cy="1130.69" r="11.803" style="fill:rgb(178,134,3);"/>
                </g>
                <g transform="matrix(0.568004,0,0,1,382.078,214.449)">
                    <circle cx="729.88" cy="1130.69" r="11.803" style="fill:rgb(178,134,3);"/>
                </g>
                <g transform="matrix(0.568004,0,0,1,382.078,245.841)">
                    <circle cx="729.88" cy="1130.69" r="11.803" style="fill:rgb(178,134,3);"/>
                </g>
                <g transform="matrix(0.568004,0,0,1,382.078,276.4)">
                    <circle cx="729.88" cy="1130.69" r="11.803" style="fill:rgb(178,134,3);"/>
                </g>
                <g transform="matrix(0.568004,0,0,1,329.636,-3.66017)">
                    <circle cx="729.88" cy="1130.69" r="11.803" style="fill:rgb(178,3,3);"/>
                </g>
                <g transform="matrix(0.568004,0,0,1,329.636,27.0855)">
                    <circle cx="729.88" cy="1130.69" r="11.803" style="fill:rgb(178,3,3);"/>
                </g>
                <g transform="matrix(0.568004,0,0,1,329.636,58.6234)">
                    <circle cx="729.88" cy="1130.69" r="11.803" style="fill:rgb(178,3,3);"/>
                </g>
                <g transform="matrix(0.568004,0,0,1,329.636,88.9407)">
                    <circle cx="729.88" cy="1130.69" r="11.803" style="fill:rgb(178,3,3);"/>
                </g>
                <g transform="matrix(0.568004,0,0,1,329.636,120.551)">
                    <circle cx="729.88" cy="1130.69" r="11.803" style="fill:rgb(178,3,3);"/>
                </g>
                <g transform="matrix(0.568004,0,0,1,329.636,151.428)">
                    <circle cx="729.88" cy="1130.69" r="11.803" style="fill:rgb(178,3,3);"/>
                </g>
                <g transform="matrix(0.568004,0,0,1,329.636,183.123)">
                    <circle cx="729.88" cy="1130.69" r="11.803" style="fill:rgb(178,3,3);"/>
                </g>
                <g transform="matrix(0.568004,0,0,1,329.636,214.449)">
                    <circle cx="729.88" cy="1130.69" r="11.803" style="fill:rgb(178,3,3);"/>
                </g>
                <g transform="matrix(0.568004,0,0,1,329.636,245.841)">
                    <circle cx="729.88" cy="1130.69" r="11.803" style="fill:rgb(178,3,3);"/>
                </g>
                <g transform="matrix(0.568004,0,0,1,329.636,276.4)">
                    <circle cx="729.88" cy="1130.69" r="11.803" style="fill:rgb(178,3,3);"/>
                </g>
                <g transform="matrix(0.568004,0,0,1,395.264,-3.66017)">
                    <circle cx="729.88" cy="1130.69" r="11.803" style="fill:rgb(178,134,3);"/>
                </g>
                <g transform="matrix(0.568004,0,0,1,395.264,27.0855)">
                    <circle cx="729.88" cy="1130.69" r="11.803" style="fill:rgb(178,134,3);"/>
                </g>
                <g transform="matrix(0.568004,0,0,1,395.264,58.6234)">
                    <circle cx="729.88" cy="1130.69" r="11.803" style="fill:rgb(178,134,3);"/>
                </g>
                <g transform="matrix(0.568004,0,0,1,395.264,88.9407)">
                    <circle cx="729.88" cy="1130.69" r="11.803" style="fill:rgb(178,134,3);"/>
                </g>
                <g transform="matrix(0.568004,0,0,1,395.264,120.551)">
                    <circle cx="729.88" cy="1130.69" r="11.803" style="fill:rgb(178,134,3);"/>
                </g>
                <g transform="matrix(0.568004,0,0,1,395.264,151.428)">
                    <circle cx="729.88" cy="1130.69" r="11.803" style="fill:rgb(178,134,3);"/>
                </g>
                <g transform="matrix(0.568004,0,0,1,395.264,183.123)">
                    <circle cx="729.88" cy="1130.69" r="11.803" style="fill:rgb(178,134,3);"/>
                </g>
                <g transform="matrix(0.568004,0,0,1,395.264,214.449)">
                    <circle cx="729.88" cy="1130.69" r="11.803" style="fill:rgb(178,134,3);"/>
                </g>
                <g transform="matrix(0.568004,0,0,1,395.264,245.841)">
                    <circle cx="729.88" cy="1130.69" r="11.803" style="fill:rgb(178,134,3);"/>
                </g>
                <g transform="matrix(0.568004,0,0,1,395.264,276.4)">
                    <circle cx="729.88" cy="1130.69" r="11.803" style="fill:rgb(178,134,3);"/>
                </g>
                <g transform="matrix(1,0,0,1.18867,0,-231.701)">
                    <path d="M935.711,1127.04L935.711,1407.72L935.711,1145.98" style="fill:none;stroke:rgb(166,162,118);stroke-width:21.42px;stroke-linejoin:round;"/>
                </g>
                <g transform="matrix(1,0,0,1.18867,-258.838,-231.701)">
                    <path d="M935.711,1127.04L935.711,1407.72L935.711,1145.98" style="fill:none;stroke:rgb(166,162,118);stroke-width:21.42px;stroke-linejoin:round;"/>
                </g>
            </g>
        </g>
        <path id="person_2_right_leg" d="M1199.5,884.434C1185.05,888.101 1197.43,941.337 1199.05,947.206C1200.68,953.075 1205.36,1013.94 1211.09,1040.75C1212.81,1048.79 1210.9,1072.21 1220.29,1089.46C1223.32,1111.58 1236.13,1147.98 1240.83,1161.08C1244.41,1171.05 1236.69,1184.56 1242.44,1208.29C1245.13,1219.38 1241.03,1228.91 1235.26,1236.16C1229.5,1243.41 1231.55,1249.17 1194.69,1256.61C1183.69,1258.83 1182.83,1281.32 1195.04,1281.22C1213.52,1281.06 1244.47,1281.79 1251.66,1274.76C1255.3,1271.21 1259.46,1276.95 1270.78,1276.16C1294.16,1274.53 1314.49,1279.99 1307.86,1253.12C1301.22,1226.24 1303.52,1214.05 1302.46,1206.62C1301.41,1199.19 1292.15,1162.5 1286.26,1136.5C1280.37,1110.5 1275.23,1093.18 1274.29,1077.34C1273.54,1064.86 1284.18,1034.05 1286.79,951.221C1287.37,932.773 1320.3,929.664 1296.49,871.183C1282.06,835.735 1274.11,835.557 1268.66,830.562C1264.74,826.963 1200.97,884.059 1199.5,884.434Z" style="fill:rgb(90,72,72);"/>
        <path id="person_2_left_leg" d="M1269,829.163C1274.11,828.576 1283.33,843.298 1286.26,850.508C1289.19,857.718 1299.35,873.183 1303.01,894.618C1306.68,916.054 1302.63,931.118 1310.44,943.677C1318.26,956.236 1326.93,988.758 1327.25,996.456C1327.56,1004.15 1341.12,1001.22 1373.44,990.738C1405.77,980.257 1434.63,974.142 1441.9,974.589C1447.17,965.098 1465.65,956.878 1475.28,953.728C1479.67,952.291 1477.49,956.051 1477.49,956.051C1477.49,956.051 1483.31,946.785 1509.46,943.677C1514.8,943.043 1525.91,970.567 1526.2,971.308C1526.2,971.308 1519.16,979.978 1529.4,989.581C1539.64,999.183 1545.14,1011.48 1546.97,1023.07C1548.8,1034.66 1548.76,1041.89 1547.39,1050.5C1546.03,1059.11 1542.8,1061.79 1538.15,1061.64C1533.51,1061.49 1526.17,1063.55 1514.16,1042.66C1502.15,1021.77 1491.97,1019.34 1493.73,1021.16C1495.5,1022.99 1487.91,1018.02 1480.09,1021.16C1466.43,1026.65 1374.16,1051.01 1359.53,1055.68C1344.89,1060.35 1310.16,1077.85 1286.26,1049.19C1262.36,1020.53 1233.52,968.603 1226.34,938.729C1219.15,908.855 1199.8,898.315 1199.28,887.598C1198.86,879.001 1263.88,829.75 1269,829.163Z" style="fill:rgb(90,72,72);"/>
        <path id="person_2_head" d="M1075.29,580.385C1087.94,575.073 1112.16,575.437 1125.04,590.524C1137.3,604.883 1137.3,621.193 1135.71,631.701C1134.12,642.21 1137.83,648.664 1137.42,664.416C1137.02,680.169 1116.81,697.985 1116.81,697.985C1116.81,697.985 1100.19,689.023 1096.56,686.941C1092.91,684.858 1093.27,683.778 1091.14,675.927C1090.5,673.59 1084.72,677.658 1080.89,671.257C1077.06,664.856 1077.79,665.163 1073.22,658.652C1068.65,652.141 1063.95,646.189 1063.17,633.227C1062.62,623.971 1056.84,624.402 1058.05,614.598C1059.25,604.816 1052.18,590.088 1075.29,580.385Z" style="fill:rgb(90,72,72);"/>
    </g>
    <g id="person_1" transform="matrix(1,0,0,1,241.125,-135.723)">
        <g id="circle_1" transform="matrix(1.24222,0,0,1.24222,-102.855,-422.432)">
            <ellipse cx="385.121" cy="1482.52" rx="116.67" ry="18.063" style="fill:rgb(121,161,255);"/>
        </g>
        <path id="person_1_head" d="M434.962,718.469C441.013,718.768 454.295,712.079 468.618,723.622C482.942,735.166 484.478,752.692 481.85,773.34C480.304,785.483 479.013,793.681 466.494,807.61C464.891,809.393 465.54,816.152 455.469,815.783C449.768,815.574 453.678,825.591 453.039,829.143C447.549,859.632 419.956,841.041 412.63,824.255C405.303,807.47 385.177,824.116 377.174,816.774C372.977,812.924 384.597,803.786 394.49,800.383C404.383,796.981 406.888,787.892 402.147,782.642C397.406,777.393 390.475,774.699 399.264,751.045C408.053,727.391 416.329,717.547 434.962,718.469Z" style="fill:rgb(64,64,64);"/>
        <path id="person_1_torso" d="M424.629,818.435C415.604,806.241 390.899,795.148 382.492,829.355C374.085,863.562 366.676,860.393 375.191,896.938C382.621,928.829 381.882,925.236 379.874,938.264C377.847,951.416 382.814,964.733 377.369,971.328C371.052,978.98 358.699,983.281 352.05,988.179C345.401,993.077 332.907,1007.13 327.761,1018.75C322.641,1030.31 312.038,1044.25 313.856,1059.77C310.93,1071.07 298.121,1098.16 293.31,1106.86C288.5,1115.57 273.544,1138.06 270.819,1142.25C268.095,1146.44 264.036,1154.51 252.357,1162.5C240.677,1170.49 220.488,1182.28 212.272,1186.47C204.056,1190.66 189.368,1196.69 180.204,1207.99C171.04,1219.28 143.489,1244.63 137.426,1251.92C131.814,1258.66 122.412,1261.49 119.969,1262.72C117.526,1263.96 103.288,1256.56 94.809,1261.51C88.289,1269.87 72.853,1286.84 62.564,1289.83C60.651,1293.29 63.121,1297.89 63.01,1298.45C62.899,1299.02 65.203,1295.68 85.359,1288.19C88.721,1286.94 87.915,1287.03 87.531,1289.86C87.147,1292.7 84.184,1307.57 74.646,1314.95C66.354,1321.37 67.812,1329.54 71.093,1339.08C73.906,1347.27 85.449,1362.12 89.624,1364.91C91.693,1366.56 96.619,1366.34 98.812,1366.11C101.023,1365.31 104.75,1362.52 104.845,1359.77C104.94,1357.01 104.844,1336.29 104.844,1334.87C104.844,1332.21 124.351,1313.37 126.724,1307.43C128.73,1305.37 142.385,1290.08 153.127,1281.02C156.227,1278.41 172.542,1264.93 178.117,1261.94C183.692,1258.95 206.289,1245.31 209.892,1241.78C213.495,1238.25 248.877,1219.7 253.437,1216.92C259.543,1216.15 275.358,1213.22 297.468,1198.33C319.578,1183.44 325.476,1174.89 325.476,1174.89C325.476,1174.89 356.884,1193.55 399.341,1194C400.421,1173.21 408.778,1131.43 408.778,1131.43C408.778,1131.43 423.489,1087.47 428.092,1076.42C432.695,1065.37 437.428,1059.57 439.655,1043.92C448.256,1033.75 461.561,983.394 463.24,973.38C464.92,963.367 465.944,956.117 471.561,939.703C477.932,926.254 491.823,903.321 479.167,883.351C466.286,863.026 461.746,836.809 459.989,831.328C451.914,815.715 441.636,841.417 424.629,818.435Z" style="fill:rgb(64,64,64);"/>
        <path id="person_1_left_leg" d="M405.687,1071.43C412.666,1067.54 430.452,1068.83 430.452,1090.24C430.452,1111.65 431.045,1189.35 424.573,1200.02C421.811,1212.76 417.759,1224 409.831,1237.24C406.66,1252.78 399.251,1282.8 397.138,1288.25C395.024,1293.69 386.521,1320.27 385.047,1324.62C383.573,1328.96 378.811,1351.35 378.802,1363.43C379.374,1372.23 386.665,1385.35 388.26,1387.46C389.854,1389.57 402.86,1399.14 407.236,1402.7C411.967,1406.56 419.387,1412.44 414.042,1420.23C412.262,1422.83 409.778,1424.87 400.445,1423.75C382.984,1421.67 374.987,1423.45 369.546,1411.15C364.526,1399.81 365.987,1398.05 352.566,1386.67C349.174,1383.8 350.813,1391.09 350.822,1407.8C350.836,1409.76 346.582,1408.53 343.84,1407.37C343.469,1399.58 341.609,1387.14 333.671,1373.19C330.91,1368.34 334.621,1360.02 339.164,1355.1C343.707,1350.17 348.281,1348.69 350.064,1338.61C351.668,1329.54 354.803,1294.64 353.756,1280.42C352.708,1266.2 367.602,1227.95 373.979,1218.26C378.292,1211.7 357.065,1098.51 405.687,1071.43Z" style="fill:rgb(64,64,64);"/>
        <path id="person_1_left_arm" d="M456.172,870.887C456.172,870.887 467.934,866.504 476.446,864.908C479.074,861.748 503.008,855.035 513.36,848.924C516.509,846.721 513.414,843.567 512.368,839.827C511.322,836.086 510.107,833.128 509.539,830.855C508.97,828.583 509.888,824.261 512.491,830.09C513.284,831.758 513.743,833.316 514.497,834.916C515.25,836.515 516.699,835.395 514.284,828.86C513.512,826.772 512.732,822.735 512.226,819.672C511.719,816.61 514.683,814.891 515.788,819.923C516.587,823.563 517.149,826.708 517.671,828.15C518.579,830.661 519.874,828.528 519.759,826.259C519.555,822.243 518.809,816.61 518.883,814.627C519.008,811.261 521.406,808.959 522.458,814.156C522.458,814.156 522.758,816.445 523.594,825.075C523.862,827.843 526.427,826.375 526.573,824.611C526.669,823.446 526.554,820.348 526.512,817.836C526.49,816.544 526.488,815.407 526.544,814.766C526.891,810.802 529.632,811.965 529.883,814.552C530.134,817.14 530.597,824.45 531.171,826.94C531.745,829.43 532.066,833.127 534.689,833.283C537.311,833.438 535.747,834.961 538.497,832.349C541.248,829.738 542.922,832.17 541.277,837.142C539.639,842.091 537.953,846.091 534.528,847.672C531.103,849.253 529.273,851.199 525.642,855.366C522.01,859.532 501.108,880.096 498.383,882.545C495.658,884.995 488.852,891.547 484.79,891.443C440.193,890.308 456.172,870.887 456.172,870.887Z" style="fill:rgb(64,64,64);"/>
        <g id="person_1_right_arm">
            <g transform="matrix(0.742713,0,0,0.742713,-405.421,95.4524)">
                <path d="M860.071,1187.21C860.071,1188.45 860.067,1189.69 860.058,1190.93C859.382,1291.84 831.223,1373.16 796.637,1373.16C761.626,1373.16 733.202,1289.84 733.202,1187.21C733.202,1084.58 761.626,1001.26 796.637,1001.26" style="fill:none;stroke:rgb(121,161,255);stroke-width:8.42px;stroke-linejoin:round;"/>
            </g>
            <path id="_-Kurve-" serif:id="(Kurve)" d="M405.478,808.922C403.088,808.569 377.532,814.929 370.544,823.717C362.634,825.399 354.955,825.991 348.159,836.832C344.135,841.772 338.074,841.7 331.593,844.497C325.111,847.294 314.887,848.604 307.578,847.907C300.269,847.209 288.62,847.099 268.301,852.773C247.982,858.446 231.463,856.943 223.491,858.347C215.519,859.75 205.6,857.163 201.037,853.252C196.475,849.341 193.755,846.492 168.401,835.323C167.349,833.514 160.777,826.541 160.707,834.558C154.008,832.795 143.426,827.683 141.37,827.112C139.314,826.542 130.976,825.29 135.563,832.616C132.614,832.053 133.035,836.084 136.084,837.719C139.608,839.61 139.517,840.251 141.759,841.586C144.958,843.492 162.398,853.832 142.286,844.809C139.592,843.6 134.411,845.946 140.51,849.355C145.389,852.082 153.531,855.773 155.111,856.367C156.692,856.961 159.478,858.325 154.25,857.388C149.023,856.452 147.665,860.019 152.132,861.386C156.599,862.754 162.248,865.358 163.84,866.012C165.432,866.665 166.95,866.9 171.228,872.86C175.506,878.82 179.773,880.466 191.605,882.359C201.488,883.94 205.279,883.351 209.319,883.351C213.36,883.351 239.286,884.231 251.04,885.522C262.794,886.812 286.569,885.186 295.145,885.936C313.112,887.507 321.264,883.462 334.604,881.673C347.944,879.885 353.573,877.824 360.32,876.064C363.581,877.814 378.952,876.192 383.727,875.72C388.501,875.248 399.805,870.67 411.784,865.416C435.795,854.884 453.658,816.037 405.478,808.922Z" style="fill:rgb(64,64,64);"/>
            <g transform="matrix(0.742713,0,0,0.742713,-405.421,95.4524)">
                <path d="M796.637,1001.26C831.647,1001.26 860.071,1084.58 860.071,1187.21" style="fill:none;stroke:rgb(121,161,255);stroke-width:8.42px;stroke-linejoin:round;"/>
            </g>
        </g>
    </g>
</svg>
