<?xml version="1.0" encoding="UTF-8" standalone="no"?>
<!DOCTYPE svg PUBLIC "-//W3C//DTD SVG 1.1//EN" "http://www.w3.org/Graphics/SVG/1.1/DTD/svg11.dtd">
<svg width="100%" height="100%" viewBox="0 0 420 341" version="1.1" xmlns="http://www.w3.org/2000/svg" xmlns:xlink="http://www.w3.org/1999/xlink" xml:space="preserve" xmlns:serif="http://www.serif.com/" style="fill-rule:evenodd;clip-rule:evenodd;stroke-linecap:round;stroke-linejoin:bevel;stroke-miterlimit:1.5;">
    <style type="text/css" >
      <![CDATA[
      @keyframes rotate5 {
        0%  {transform: rotate(0)}
        50% {transform: rotate(5deg);}
        0%  {transform: rotate(0)}
      }
      @keyframes rotatem4 {
        0%  {transform: rotate(0)}
        50% {transform: rotate(-4deg);}
        0%  {transform: rotate(0)}
      }
      #person_1_free_body{
        transform-origin: 150px 230px;
        animation: rotate5 4.6s ease infinite;
      }
      #person_1_right_arm{
        transform-origin: 145px 160px;
        animation: rotatem4 4.6s ease infinite;
      }
      #person_2_free_body{
        transform-origin: 285px 200px;
        animation: rotate5 3.7s ease infinite;
      }
      #person_2_left_leg{
        transform-origin: 285px 200px;
        animation: rotatem4 3.7s ease infinite;
      }
    ]]>
    </style>
    <g id="background">
        <rect x="131.59" y="40.867" width="77.144" height="181.731" style="fill:#f7f7f7;stroke:#fff;stroke-width:1px;"/>
        <rect x="210.748" y="40.867" width="77.144" height="181.731" style="fill:#f7f7f7;stroke:#fff;stroke-width:1px;"/>
    </g>
    <g id="pedestal">
        <rect x="170.185" y="152.327" width="77.49" height="48.872" style="fill:#e4e1dd;"/>
        <path d="M241.85,144.208l-65.219,0l-6.446,8.119l77.49,0l-5.825,-8.119Z" style="fill:#eeebe8;"/>
    </g>
    <g id="money">
        <g>
            <path d="M179.891,147.217l-0.034,-0.927c3.253,0.787 2.943,0.633 3.618,0.74l1.827,0.24c0.736,0.052 0,0.071 4.229,0.202l-0.051,1.023l-9.589,-1.278Z" style="fill:#b7b09c;"/>
            <path d="M181.726,144.63l-1.869,1.66c3.253,0.787 2.943,0.633 3.618,0.74l1.827,0.24c0.736,0.052 0,0.071 4.229,0.202l-0.051,1.023l0.657,-2.119l0.119,-0.881c-1.916,0.055 -2.658,-0.036 -3.773,-0.081l-1.507,-0.194c-1.071,-0.134 -2.081,-0.282 -3.25,-0.59Z" style="fill:#e5dccb;"/>
            <path d="M183.532,147.704l0.015,-0.685l1.455,-1.795l1.406,0.177l-1.228,1.862l0.007,0.659l-1.655,-0.218Z" style="fill:#fff;"/>
            <clipPath id="_clip1">
                <path d="M183.532,147.704l0.015,-0.685l1.455,-1.795l1.406,0.177l-1.228,1.862l0.007,0.659l-1.655,-0.218Z"/>
            </clipPath>
            <g clip-path="url(#_clip1)">
                <path d="M183.532,147.704l0.015,-0.685l1.455,-1.795l1.406,0.177l-1.228,1.862l0.007,0.659l-1.655,-0.218Z" style="fill:#fec573;"/>
                <path d="M183.644,147.72l0.015,-0.658l1.45,-1.838l1.208,0.156l-1.26,1.866l0.002,0.668l-1.415,-0.194Z" style="fill:#fff;"/>
            </g>
        </g>
        <g>
            <path d="M192.614,149.706l-0.036,-1.023c3.455,0.869 3.125,0.7 3.842,0.817l1.941,0.265c0.782,0.057 -0.001,0.078 4.491,0.223l-0.055,1.129l-10.183,-1.411Z" style="fill:#b7b09c;"/>
            <path d="M194.563,146.851l-1.985,1.832c3.455,0.869 3.125,0.7 3.842,0.817l1.941,0.265c0.782,0.057 -0.001,0.078 4.491,0.223l-0.055,1.129l0.698,-2.339l0.127,-0.972c-2.035,0.061 -2.823,-0.04 -4.007,-0.09l-1.601,-0.213c-1.137,-0.149 -2.21,-0.312 -3.451,-0.652Z" style="fill:#e5dccb;"/>
            <path d="M196.48,150.244l0.017,-0.756l1.545,-1.981l1.493,0.195l-1.304,2.055l0.007,0.728l-1.758,-0.241Z" style="fill:#fff;"/>
            <clipPath id="_clip2">
                <path d="M196.48,150.244l0.017,-0.756l1.545,-1.981l1.493,0.195l-1.304,2.055l0.007,0.728l-1.758,-0.241Z"/>
            </clipPath>
            <g clip-path="url(#_clip2)">
                <path d="M196.48,150.244l0.017,-0.756l1.545,-1.981l1.493,0.195l-1.304,2.055l0.007,0.728l-1.758,-0.241Z" style="fill:#fec573;"/>
                <path d="M196.6,150.261l0.016,-0.726l1.54,-2.028l1.282,0.172l-1.337,2.06l0.002,0.737l-1.503,-0.215Z" style="fill:#fff;"/>
            </g>
        </g>
        <g>
            <path d="M222.749,149.574l0.037,-1.033c-3.534,0.877 -3.197,0.706 -3.93,0.825l-1.985,0.267c-0.799,0.058 0.001,0.079 -4.593,0.226l0.056,1.141l10.415,-1.426Z" style="fill:#b7b09c;"/>
            <path d="M220.756,146.689l2.03,1.852c-3.534,0.877 -3.197,0.706 -3.93,0.825l-1.985,0.267c-0.799,0.058 0.001,0.079 -4.593,0.226l0.056,1.141l-0.714,-2.364l-0.13,-0.981c2.081,0.061 2.887,-0.041 4.099,-0.091l1.637,-0.216c1.163,-0.15 2.261,-0.315 3.53,-0.659Z" style="fill:#e5dccb;"/>
            <path d="M218.795,150.117l-0.017,-0.763l-1.581,-2.002l-1.526,0.198l1.334,2.076l-0.008,0.735l1.798,-0.244Z" style="fill:#fff;"/>
            <clipPath id="_clip3">
                <path d="M218.795,150.117l-0.017,-0.763l-1.581,-2.002l-1.526,0.198l1.334,2.076l-0.008,0.735l1.798,-0.244Z"/>
            </clipPath>
            <g clip-path="url(#_clip3)">
                <path d="M218.795,150.117l-0.017,-0.763l-1.581,-2.002l-1.526,0.198l1.334,2.076l-0.008,0.735l1.798,-0.244Z" style="fill:#fec573;"/>
                <path d="M218.672,150.135l-0.016,-0.734l-1.575,-2.049l-1.311,0.174l1.367,2.081l-0.002,0.745l1.537,-0.217Z" style="fill:#fff;"/>
            </g>
        </g>
        <g>
            <path d="M190.835,145.943l0.036,-0.976c-3.427,0.829 -3.1,0.668 -3.811,0.78l-1.925,0.252c-0.776,0.055 0,0.075 -4.455,0.213l0.054,1.078l10.101,-1.347Z" style="fill:#b7b09c;"/>
            <path d="M188.902,143.219l1.969,1.748c-3.427,0.829 -3.1,0.668 -3.811,0.78l-1.925,0.252c-0.776,0.055 0,0.075 -4.455,0.213l0.054,1.078l-0.692,-2.233l-0.126,-0.927c2.018,0.058 2.8,-0.038 3.975,-0.086l1.588,-0.204c1.128,-0.141 2.192,-0.297 3.423,-0.621Z" style="fill:#e5dccb;"/>
            <path d="M187,146.457l-0.016,-0.722l-1.533,-1.89l-1.481,0.186l1.294,1.961l-0.008,0.694l1.744,-0.229Z" style="fill:#fff;"/>
            <clipPath id="_clip4">
                <path d="M187,146.457l-0.016,-0.722l-1.533,-1.89l-1.481,0.186l1.294,1.961l-0.008,0.694l1.744,-0.229Z"/>
            </clipPath>
            <g clip-path="url(#_clip4)">
                <path d="M187,146.457l-0.016,-0.722l-1.533,-1.89l-1.481,0.186l1.294,1.961l-0.008,0.694l1.744,-0.229Z" style="fill:#fec573;"/>
                <path d="M186.882,146.473l-0.016,-0.693l-1.528,-1.935l-1.272,0.164l1.327,1.966l-0.002,0.703l1.491,-0.205Z" style="fill:#fff;"/>
            </g>
        </g>
        <g>
            <path d="M203.805,148.546l0.037,-1.036c-3.501,0.88 -3.167,0.708 -3.893,0.827l-1.967,0.269c-0.792,0.058 0.001,0.079 -4.551,0.226l0.056,1.144l10.318,-1.43Z" style="fill:#b7b09c;"/>
            <path d="M201.831,145.653l2.011,1.857c-3.501,0.88 -3.167,0.708 -3.893,0.827l-1.967,0.269c-0.792,0.058 0.001,0.079 -4.551,0.226l0.056,1.144l-0.707,-2.37l-0.129,-0.985c2.062,0.062 2.86,-0.041 4.06,-0.091l1.622,-0.217c1.153,-0.15 2.24,-0.315 3.498,-0.66Z" style="fill:#e5dccb;"/>
            <path d="M199.887,149.091l-0.016,-0.766l-1.566,-2.007l-1.512,0.198l1.321,2.082l-0.008,0.737l1.781,-0.244Z" style="fill:#fff;"/>
            <clipPath id="_clip5">
                <path d="M199.887,149.091l-0.016,-0.766l-1.566,-2.007l-1.512,0.198l1.321,2.082l-0.008,0.737l1.781,-0.244Z"/>
            </clipPath>
            <g clip-path="url(#_clip5)">
                <path d="M199.887,149.091l-0.016,-0.766l-1.566,-2.007l-1.512,0.198l1.321,2.082l-0.008,0.737l1.781,-0.244Z" style="fill:#fec573;"/>
                <path d="M199.766,149.109l-0.016,-0.736l-1.56,-2.055l-1.299,0.174l1.355,2.088l-0.002,0.746l1.522,-0.217Z" style="fill:#fff;"/>
            </g>
        </g>
        <g>
            <path d="M238.445,149.006l0.035,-0.964c-3.382,0.819 -3.059,0.659 -3.761,0.77l-1.9,0.249c-0.765,0.054 0.001,0.074 -4.396,0.21l0.053,1.064l9.969,-1.329Z" style="fill:#b7b09c;"/>
            <path d="M236.538,146.317l1.942,1.725c-3.382,0.819 -3.059,0.659 -3.761,0.77l-1.9,0.249c-0.765,0.054 0.001,0.074 -4.396,0.21l0.053,1.064l-0.683,-2.204l-0.124,-0.915c1.992,0.057 2.763,-0.038 3.923,-0.084l1.567,-0.202c1.113,-0.14 2.164,-0.293 3.379,-0.613Z" style="fill:#e5dccb;"/>
            <path d="M234.66,149.512l-0.016,-0.712l-1.513,-1.865l-1.461,0.183l1.277,1.936l-0.008,0.685l1.721,-0.227Z" style="fill:#fff;"/>
            <clipPath id="_clip6">
                <path d="M234.66,149.512l-0.016,-0.712l-1.513,-1.865l-1.461,0.183l1.277,1.936l-0.008,0.685l1.721,-0.227Z"/>
            </clipPath>
            <g clip-path="url(#_clip6)">
                <path d="M234.66,149.512l-0.016,-0.712l-1.513,-1.865l-1.461,0.183l1.277,1.936l-0.008,0.685l1.721,-0.227Z" style="fill:#fec573;"/>
                <path d="M234.543,149.528l-0.015,-0.683l-1.508,-1.911l-1.255,0.163l1.309,1.94l-0.002,0.694l1.471,-0.203Z" style="fill:#fff;"/>
            </g>
        </g>
        <g>
            <path d="M212.452,148.807l-0.035,-0.981c3.354,0.834 3.034,0.671 3.73,0.784l1.884,0.253c0.759,0.056 0,0.076 4.361,0.215l-0.053,1.082l-9.887,-1.353Z" style="fill:#b7b09c;"/>
            <path d="M214.344,146.069l-1.927,1.757c3.354,0.834 3.034,0.671 3.73,0.784l1.884,0.253c0.759,0.056 0,0.076 4.361,0.215l-0.053,1.082l0.677,-2.243l0.124,-0.932c-1.976,0.058 -2.741,-0.038 -3.891,-0.086l-1.554,-0.205c-1.104,-0.143 -2.146,-0.299 -3.351,-0.625Z" style="fill:#e5dccb;"/>
            <path d="M216.206,149.323l0.016,-0.725l1.5,-1.9l1.449,0.188l-1.266,1.97l0.007,0.698l-1.706,-0.231Z" style="fill:#fff;"/>
            <clipPath id="_clip7">
                <path d="M216.206,149.323l0.016,-0.725l1.5,-1.9l1.449,0.188l-1.266,1.97l0.007,0.698l-1.706,-0.231Z"/>
            </clipPath>
            <g clip-path="url(#_clip7)">
                <path d="M216.206,149.323l0.016,-0.725l1.5,-1.9l1.449,0.188l-1.266,1.97l0.007,0.698l-1.706,-0.231Z" style="fill:#fec573;"/>
                <path d="M216.322,149.34l0.015,-0.697l1.495,-1.945l1.245,0.165l-1.298,1.976l0.002,0.707l-1.459,-0.206Z" style="fill:#fff;"/>
            </g>
        </g>
        <g>
            <path d="M227.477,148.454l-0.035,-0.963c3.382,0.818 3.059,0.658 3.761,0.769l1.9,0.249c0.765,0.054 -0.001,0.074 4.396,0.21l-0.053,1.064l-9.969,-1.329Z" style="fill:#b7b09c;"/>
            <path d="M229.384,145.765l-1.942,1.726c3.382,0.818 3.059,0.658 3.761,0.769l1.9,0.249c0.765,0.054 -0.001,0.074 4.396,0.21l-0.053,1.064l0.683,-2.203l0.124,-0.915c-1.992,0.057 -2.763,-0.038 -3.922,-0.085l-1.568,-0.202c-1.113,-0.139 -2.163,-0.293 -3.379,-0.613Z" style="fill:#e5dccb;"/>
            <path d="M231.262,148.961l0.016,-0.712l1.513,-1.866l1.461,0.184l-1.277,1.935l0.008,0.685l-1.721,-0.226Z" style="fill:#fff;"/>
            <clipPath id="_clip8">
                <path d="M231.262,148.961l0.016,-0.712l1.513,-1.866l1.461,0.184l-1.277,1.935l0.008,0.685l-1.721,-0.226Z"/>
            </clipPath>
            <g clip-path="url(#_clip8)">
                <path d="M231.262,148.961l0.016,-0.712l1.513,-1.866l1.461,0.184l-1.277,1.935l0.008,0.685l-1.721,-0.226Z" style="fill:#fec573;"/>
                <path d="M231.379,148.977l0.016,-0.684l1.507,-1.91l1.255,0.162l-1.309,1.94l0.002,0.694l-1.471,-0.202Z" style="fill:#fff;"/>
            </g>
        </g>
    </g>
    <g id="door">
        <rect x="130.59" y="41.171" width="77.38" height="181.731" style="fill:none;stroke:#c0c0c0;stroke-width:1px;"/>
        <rect x="209.512" y="41.171" width="77.38" height="181.731" style="fill:none;stroke:#c0c0c0;stroke-width:1px;"/>
    </g>
    <g id="wall">
        <path id="inner_wall" d="M5.661,8.608l0.469,242.221l125.42,0l10.837,-26.752c0,0 -0.531,-126.409 -0.531,-127.646c0,-6.185 13.866,-36.052 42.778,-44.383l48.122,0c28.912,8.331 42.779,38.198 42.779,44.383c0,1.237 -0.531,127.646 -0.531,127.646l12.368,26.752l124.358,0l0,-242.221l-406.069,0Z" style="fill:#f3f0eb;"/>
        <path id="front_wall" d="M6.13,8.608l-0.471,242.221l125.891,0c0,0 -0.618,-147.068 -0.618,-148.507c0,-7.196 16.133,-41.945 49.77,-51.637l55.987,0c33.637,9.692 49.77,44.441 49.77,51.637c0,1.439 -0.618,148.507 -0.618,148.507l125.889,0l-0.469,-242.221l-405.131,0Z" style="fill:#f8f7f4;"/>
    </g>
    <g id="counter">
        <rect id="screen" x="181.89" y="23.926" width="54.081" height="23.705" style="fill:#1a1a1a;stroke:#000;stroke-width:1.5px;stroke-linejoin:round;"/>
        <text id="score" x="205.279px" y="45.051px" style="font-family:'Segment7Standard', 'Segment7', monospace;font-weight:600;font-style:italic;font-size:24px;fill:#f20d0d;">42</text>
    </g>
    <g transform="matrix(0.24,0,0,0.24,-34.1173,-17.799)">
        <text x="285.928px" y="335.534px" style="font-family:'TeXGyreTermes-Regular', 'TeX Gyre Termes';font-size:83.333px;fill:#6a0606;">SC<tspan x="387.012px " y="335.534px ">O</tspan>RE</text>
        <text x="201.053px" y="414.7px" style="font-family:'TeXGyreTermes-Regular', 'TeX Gyre Termes';font-size:83.333px;fill:#6a0606;">100 POINTS</text>
        <text x="215.012px" y="493.867px" style="font-family:'TeXGyreTermes-Regular', 'TeX Gyre Termes';font-size:83.333px;fill:#6a0606;">WITHIN 30</text>
        <text x="234.637px" y="573.034px" style="font-family:'TeXGyreTermes-Regular', 'TeX Gyre Termes';font-size:83.333px;fill:#6a0606;">MINUTES</text>
        <text x="245.053px" y="652.2px" style="font-family:'TeXGyreTermes-Regular', 'TeX Gyre Termes';font-size:83.333px;fill:#6a0606;">TO OPEN</text>
        <text x="210.345px" y="731.367px" style="font-family:'TeXGyreTermes-Regular', 'TeX Gyre Termes';font-size:83.333px;fill:#6a0606;">THE DOOR</text>
    </g>
    <g transform="matrix(0.24,0,0,0.24,250.997,-17.799)">
        <text x="219.595px" y="414.7px" style="font-family:'TeXGyreTermes-Regular', 'TeX Gyre Termes';font-size:83.333px;fill:#6a0606;">OPEN THE</text>
        <text x="235.803px" y="493.867px" style="font-family:'TeXGyreTermes-Regular', 'TeX Gyre Termes';font-size:83.333px;fill:#6a0606;">DOOR TO</text>
        <text x="245.095px" y="573.034px" style="font-family:'TeXGyreTermes-Regular', 'TeX Gyre Termes';font-size:83.333px;fill:#6a0606;">WIN THE</text>
        <text x="277.47px" y="652.2px" style="font-family:'TeXGyreTermes-Regular', 'TeX Gyre Termes';font-size:83.333px;fill:#6a0606;">MONEY</text>
    </g>
    <g id="person_2">
        <ellipse cx="297.927" cy="284.688" rx="34.783" ry="5.385" style="fill:#fff04a;"/>
        <g id="person_2_free_body">
            <g id="person_2_right_arm">
                <g>
                    <path d="M238.125,134.037l-2.031,2.05l13.269,13.145l2.031,-2.05l-13.269,-13.145Z" style="fill:#5a4848;"/>
                    <path d="M229.586,134.466c-1.074,-2.535 0.112,-5.466 2.648,-6.54c2.535,-1.074 5.466,0.113 6.54,2.648c1.074,2.536 -0.112,5.467 -2.648,6.541c-2.536,1.074 -5.466,-0.113 -6.54,-2.649Z" style="fill:#fff04a;"/>
                </g>
                <path d="M270.015,159.676c11.378,-10.954 10.018,-23.753 2.729,-22.703c-2.307,0.333 -6.665,7.701 -9.836,11.919c-2.231,2.967 -7.53,10.697 -9.068,14.315c-1.537,3.617 -2.017,4.895 -3.025,0.705c-0.91,-3.779 -2.554,-4.748 -2.964,-12.289c-0.33,-6.056 -0.516,-4.27 -0.865,-5.553c-0.349,-1.284 1.499,-2.304 0.358,-3.563c-0.541,-0.993 0.033,-1.996 -1.841,-2.623c-0.354,-1.187 0.026,-1.594 -1.562,-2.187c-0.218,-0.806 -0.841,-2.036 -2.407,-1.626c-1.365,0.358 -1.71,2.161 -2.136,2.673c-0.427,0.512 0.114,4.068 0.023,5.018c-0.09,0.95 1.636,2.188 2.358,3.477c0.721,1.288 2.38,2.509 2.27,6.485c-0.109,3.977 0.025,11.795 1.155,15.901c1.129,4.106 1.516,5.417 2.164,6.404c0.648,0.987 3.976,1.518 5.49,0.37c1.513,-1.148 11.221,-11.008 17.157,-16.723Z" style="fill:#5a4848;"/>
            </g>
            <path id="person_2_torso" d="M260.013,149.294c-0.142,-1.397 1.436,-5.177 3.377,-8.358c0.941,-1.541 5.664,-7.087 6.9,-7.504c-0.031,1.615 0.204,2.261 0.343,3.065c0.723,-0.413 4.982,0.191 7.27,1.674c2.221,1.44 5.488,4.157 6.27,5.789c0.782,1.631 2.306,4.097 2.814,8.735c0.285,2.599 1.756,7.964 2.609,9.35c0.853,1.386 3.121,7.309 5.442,9.025c2.321,1.715 5.826,5.62 6.749,8.253c0.663,1.894 -15.482,14.769 -17.579,13.458c-2.097,-1.312 -1.217,0.79 -4.351,-3.472c-3.134,-4.262 -1.841,-1.928 -4.482,-5.507c-2.641,-3.578 -5.975,-9.324 -7.532,-13.004c-1.923,-4.544 -0.788,0.563 -4.565,-8.457c-1.414,-3.376 -2.553,-7.178 -1.784,-12.382c-0.451,-0.261 -0.511,-0.641 -1.481,-0.665Z" style="fill:#5a4848;"/>
            <g id="person_2_left_arm">
                <path d="M269.933,142.198c0.798,-2.566 4.228,-6.546 15.585,1.672c2.749,1.988 13.538,10.765 14.937,11.471c1.399,0.706 11.696,4.549 14.39,5.395c2.693,0.846 8.891,4.49 8.762,5.456c-0.13,0.967 10.224,0.566 11.437,3.378c1.213,2.812 2.853,7.371 0.466,7.798c-2.387,0.426 -12.649,-6.303 -15.759,-6.365c-3.109,-0.062 -18.736,-5.322 -21.81,-6.208c-3.074,-0.887 -30.336,-15.11 -28.008,-22.597Z" style="fill:#5a4848;"/>
                <g>
                    <path d="M364.779,173.91l-31.798,-7.609" style="fill:none;stroke:#a6a276;stroke-width:1.5px;stroke-linejoin:round;"/>
                    <path d="M361.082,189.362l-31.798,-7.608" style="fill:none;stroke:#a6a276;stroke-width:1.5px;stroke-linejoin:round;"/>
                    <path d="M362.928,181.647l-31.798,-7.608" style="fill:none;stroke:#a6a276;stroke-width:1.5px;stroke-linejoin:round;"/>
                    <path d="M359.231,197.099l-31.799,-7.608" style="fill:none;stroke:#a6a276;stroke-width:1.5px;stroke-linejoin:round;"/>
                    <path d="M363.862,177.744l-31.799,-7.608" style="fill:none;stroke:#a6a276;stroke-width:1.5px;stroke-linejoin:round;"/>
                    <path d="M360.165,193.197l-31.799,-7.608" style="fill:none;stroke:#a6a276;stroke-width:1.5px;stroke-linejoin:round;"/>
                    <path d="M362.011,185.482l-31.799,-7.609" style="fill:none;stroke:#a6a276;stroke-width:1.5px;stroke-linejoin:round;"/>
                    <path d="M358.313,200.934l-31.798,-7.608" style="fill:none;stroke:#a6a276;stroke-width:1.5px;stroke-linejoin:round;"/>
                    <path d="M357.372,204.871l-31.799,-7.608" style="fill:none;stroke:#a6a276;stroke-width:1.5px;stroke-linejoin:round;"/>
                    <path d="M356.452,208.715l-31.799,-7.608" style="fill:none;stroke:#a6a276;stroke-width:1.5px;stroke-linejoin:round;"/>
                    <path d="M335.202,165.286c0.459,0.109 0.675,0.854 0.482,1.662c-0.194,0.808 -0.723,1.374 -1.182,1.265c-0.459,-0.11 -0.674,-0.855 -0.481,-1.663c0.193,-0.807 0.723,-1.374 1.181,-1.264Z" style="fill:#b20303;"/>
                    <path d="M334.29,169.098c0.459,0.11 0.675,0.855 0.481,1.663c-0.193,0.807 -0.722,1.374 -1.181,1.264c-0.459,-0.11 -0.674,-0.855 -0.481,-1.662c0.193,-0.808 0.722,-1.375 1.181,-1.265Z" style="fill:#b20303;"/>
                    <path d="M333.355,173.009c0.458,0.11 0.674,0.854 0.481,1.662c-0.194,0.808 -0.723,1.375 -1.182,1.265c-0.459,-0.11 -0.674,-0.855 -0.481,-1.663c0.193,-0.807 0.723,-1.374 1.182,-1.264Z" style="fill:#b20303;"/>
                    <path d="M332.455,176.768c0.459,0.11 0.674,0.855 0.481,1.663c-0.193,0.807 -0.722,1.374 -1.181,1.264c-0.459,-0.11 -0.675,-0.855 -0.481,-1.662c0.193,-0.808 0.722,-1.375 1.181,-1.265Z" style="fill:#b20303;"/>
                    <path d="M331.517,180.688c0.459,0.11 0.675,0.855 0.481,1.662c-0.193,0.808 -0.722,1.375 -1.181,1.265c-0.459,-0.11 -0.674,-0.855 -0.481,-1.663c0.193,-0.807 0.722,-1.374 1.181,-1.264Z" style="fill:#b20303;"/>
                    <path d="M330.601,184.516c0.459,0.11 0.675,0.855 0.481,1.663c-0.193,0.808 -0.722,1.374 -1.181,1.265c-0.459,-0.11 -0.675,-0.855 -0.481,-1.663c0.193,-0.808 0.722,-1.374 1.181,-1.265Z" style="fill:#b20303;"/>
                    <path d="M329.661,188.447c0.459,0.109 0.674,0.854 0.481,1.662c-0.193,0.808 -0.723,1.374 -1.181,1.265c-0.459,-0.11 -0.675,-0.855 -0.482,-1.663c0.194,-0.807 0.723,-1.374 1.182,-1.264Z" style="fill:#b20303;"/>
                    <path d="M328.731,192.331c0.459,0.11 0.675,0.855 0.482,1.662c-0.194,0.808 -0.723,1.375 -1.182,1.265c-0.459,-0.11 -0.674,-0.855 -0.481,-1.662c0.193,-0.808 0.723,-1.375 1.181,-1.265Z" style="fill:#b20303;"/>
                    <path d="M327.8,196.224c0.459,0.109 0.674,0.854 0.481,1.662c-0.193,0.808 -0.722,1.374 -1.181,1.265c-0.459,-0.11 -0.675,-0.855 -0.481,-1.663c0.193,-0.807 0.722,-1.374 1.181,-1.264Z" style="fill:#b20303;"/>
                    <path d="M326.893,200.013c0.459,0.11 0.675,0.855 0.482,1.662c-0.194,0.808 -0.723,1.375 -1.182,1.265c-0.459,-0.11 -0.674,-0.855 -0.481,-1.662c0.193,-0.808 0.723,-1.375 1.181,-1.265Z" style="fill:#b20303;"/>
                    <path d="M343.34,167.233c0.459,0.11 0.675,0.854 0.481,1.662c-0.193,0.808 -0.722,1.375 -1.181,1.265c-0.459,-0.11 -0.674,-0.855 -0.481,-1.663c0.193,-0.807 0.722,-1.374 1.181,-1.264Z" style="fill:#b28603;"/>
                    <path d="M342.428,171.045c0.459,0.11 0.674,0.855 0.481,1.663c-0.193,0.807 -0.723,1.374 -1.181,1.264c-0.459,-0.11 -0.675,-0.854 -0.481,-1.662c0.193,-0.808 0.722,-1.375 1.181,-1.265Z" style="fill:#b28603;"/>
                    <path d="M341.492,174.956c0.459,0.11 0.675,0.855 0.481,1.662c-0.193,0.808 -0.722,1.375 -1.181,1.265c-0.459,-0.11 -0.674,-0.855 -0.481,-1.662c0.193,-0.808 0.723,-1.375 1.181,-1.265Z" style="fill:#b28603;"/>
                    <path d="M340.593,178.715c0.459,0.11 0.674,0.855 0.481,1.663c-0.193,0.807 -0.723,1.374 -1.181,1.264c-0.459,-0.11 -0.675,-0.854 -0.482,-1.662c0.194,-0.808 0.723,-1.375 1.182,-1.265Z" style="fill:#b28603;"/>
                    <path d="M339.655,182.635c0.459,0.11 0.674,0.855 0.481,1.662c-0.193,0.808 -0.723,1.375 -1.181,1.265c-0.459,-0.11 -0.675,-0.855 -0.481,-1.662c0.193,-0.808 0.722,-1.375 1.181,-1.265Z" style="fill:#b28603;"/>
                    <path d="M338.739,186.464c0.459,0.109 0.674,0.854 0.481,1.662c-0.193,0.808 -0.723,1.374 -1.181,1.265c-0.459,-0.11 -0.675,-0.855 -0.481,-1.663c0.193,-0.808 0.722,-1.374 1.181,-1.264Z" style="fill:#b28603;"/>
                    <path d="M337.799,190.394c0.458,0.109 0.674,0.854 0.481,1.662c-0.194,0.808 -0.723,1.375 -1.182,1.265c-0.459,-0.11 -0.674,-0.855 -0.481,-1.663c0.193,-0.807 0.723,-1.374 1.182,-1.264Z" style="fill:#b28603;"/>
                    <path d="M336.869,194.278c0.459,0.11 0.675,0.855 0.481,1.663c-0.193,0.807 -0.722,1.374 -1.181,1.264c-0.459,-0.11 -0.674,-0.855 -0.481,-1.662c0.193,-0.808 0.722,-1.375 1.181,-1.265Z" style="fill:#b28603;"/>
                    <path d="M335.938,198.171c0.459,0.11 0.674,0.854 0.481,1.662c-0.193,0.808 -0.723,1.375 -1.181,1.265c-0.459,-0.11 -0.675,-0.855 -0.482,-1.663c0.194,-0.807 0.723,-1.374 1.182,-1.264Z" style="fill:#b28603;"/>
                    <path d="M335.031,201.96c0.459,0.11 0.675,0.855 0.481,1.662c-0.193,0.808 -0.722,1.375 -1.181,1.265c-0.459,-0.11 -0.674,-0.855 -0.481,-1.662c0.193,-0.808 0.722,-1.375 1.181,-1.265Z" style="fill:#b28603;"/>
                    <path d="M336.789,165.665c0.459,0.11 0.675,0.855 0.481,1.663c-0.193,0.807 -0.722,1.374 -1.181,1.264c-0.459,-0.109 -0.674,-0.854 -0.481,-1.662c0.193,-0.808 0.722,-1.374 1.181,-1.265Z" style="fill:#b20303;"/>
                    <path d="M335.877,169.478c0.459,0.11 0.674,0.854 0.481,1.662c-0.193,0.808 -0.722,1.375 -1.181,1.265c-0.459,-0.11 -0.675,-0.855 -0.481,-1.663c0.193,-0.807 0.722,-1.374 1.181,-1.264Z" style="fill:#b20303;"/>
                    <path d="M334.941,173.388c0.459,0.11 0.675,0.855 0.482,1.663c-0.194,0.808 -0.723,1.374 -1.182,1.264c-0.459,-0.109 -0.674,-0.854 -0.481,-1.662c0.193,-0.808 0.723,-1.374 1.181,-1.265Z" style="fill:#b20303;"/>
                    <path d="M334.042,177.148c0.459,0.11 0.674,0.854 0.481,1.662c-0.193,0.808 -0.723,1.375 -1.181,1.265c-0.459,-0.11 -0.675,-0.855 -0.482,-1.663c0.194,-0.807 0.723,-1.374 1.182,-1.264Z" style="fill:#b20303;"/>
                    <path d="M333.104,181.068c0.459,0.109 0.674,0.854 0.481,1.662c-0.193,0.808 -0.722,1.374 -1.181,1.265c-0.459,-0.11 -0.675,-0.855 -0.481,-1.663c0.193,-0.808 0.722,-1.374 1.181,-1.264Z" style="fill:#b20303;"/>
                    <path d="M332.188,184.896c0.459,0.11 0.674,0.855 0.481,1.663c-0.193,0.807 -0.723,1.374 -1.181,1.264c-0.459,-0.11 -0.675,-0.854 -0.481,-1.662c0.193,-0.808 0.722,-1.375 1.181,-1.265Z" style="fill:#b20303;"/>
                    <path d="M331.248,188.826c0.458,0.11 0.674,0.855 0.481,1.663c-0.193,0.807 -0.723,1.374 -1.182,1.264c-0.458,-0.109 -0.674,-0.854 -0.481,-1.662c0.193,-0.808 0.723,-1.374 1.182,-1.265Z" style="fill:#b20303;"/>
                    <path d="M330.318,192.711c0.459,0.11 0.675,0.854 0.481,1.662c-0.193,0.808 -0.722,1.375 -1.181,1.265c-0.459,-0.11 -0.674,-0.855 -0.481,-1.663c0.193,-0.807 0.722,-1.374 1.181,-1.264Z" style="fill:#b20303;"/>
                    <path d="M329.387,196.603c0.459,0.11 0.674,0.855 0.481,1.663c-0.193,0.808 -0.723,1.374 -1.181,1.264c-0.459,-0.109 -0.675,-0.854 -0.482,-1.662c0.194,-0.808 0.723,-1.374 1.182,-1.265Z" style="fill:#b20303;"/>
                    <path d="M328.48,200.393c0.459,0.109 0.675,0.854 0.481,1.662c-0.193,0.808 -0.722,1.374 -1.181,1.265c-0.459,-0.11 -0.674,-0.855 -0.481,-1.663c0.193,-0.807 0.722,-1.374 1.181,-1.264Z" style="fill:#b20303;"/>
                    <path d="M344.927,167.612c0.459,0.11 0.674,0.855 0.481,1.663c-0.193,0.808 -0.722,1.374 -1.181,1.264c-0.459,-0.109 -0.675,-0.854 -0.481,-1.662c0.193,-0.808 0.722,-1.374 1.181,-1.265Z" style="fill:#b28603;"/>
                    <path d="M344.015,171.425c0.459,0.11 0.674,0.855 0.481,1.662c-0.193,0.808 -0.723,1.375 -1.181,1.265c-0.459,-0.11 -0.675,-0.855 -0.482,-1.663c0.194,-0.807 0.723,-1.374 1.182,-1.264Z" style="fill:#b28603;"/>
                    <path d="M343.079,175.336c0.459,0.109 0.675,0.854 0.481,1.662c-0.193,0.808 -0.722,1.374 -1.181,1.265c-0.459,-0.11 -0.675,-0.855 -0.481,-1.663c0.193,-0.808 0.722,-1.374 1.181,-1.264Z" style="fill:#b28603;"/>
                    <path d="M342.18,179.095c0.458,0.11 0.674,0.855 0.481,1.662c-0.193,0.808 -0.723,1.375 -1.182,1.265c-0.458,-0.11 -0.674,-0.855 -0.481,-1.662c0.194,-0.808 0.723,-1.375 1.182,-1.265Z" style="fill:#b28603;"/>
                    <path d="M341.242,183.015c0.459,0.109 0.674,0.854 0.481,1.662c-0.193,0.808 -0.723,1.374 -1.181,1.265c-0.459,-0.11 -0.675,-0.855 -0.482,-1.663c0.194,-0.808 0.723,-1.374 1.182,-1.264Z" style="fill:#b28603;"/>
                    <path d="M340.326,186.843c0.459,0.11 0.674,0.855 0.481,1.663c-0.193,0.807 -0.723,1.374 -1.182,1.264c-0.458,-0.11 -0.674,-0.854 -0.481,-1.662c0.194,-0.808 0.723,-1.375 1.182,-1.265Z" style="fill:#b28603;"/>
                    <path d="M339.385,190.773c0.459,0.11 0.675,0.855 0.482,1.663c-0.194,0.808 -0.723,1.374 -1.182,1.264c-0.459,-0.109 -0.674,-0.854 -0.481,-1.662c0.193,-0.808 0.723,-1.374 1.181,-1.265Z" style="fill:#b28603;"/>
                    <path d="M338.456,194.658c0.459,0.11 0.674,0.854 0.481,1.662c-0.193,0.808 -0.722,1.375 -1.181,1.265c-0.459,-0.11 -0.675,-0.855 -0.481,-1.663c0.193,-0.807 0.722,-1.374 1.181,-1.264Z" style="fill:#b28603;"/>
                    <path d="M337.525,198.55c0.458,0.11 0.674,0.855 0.481,1.663c-0.193,0.808 -0.723,1.374 -1.182,1.264c-0.458,-0.109 -0.674,-0.854 -0.481,-1.662c0.193,-0.808 0.723,-1.374 1.182,-1.265Z" style="fill:#b28603;"/>
                    <path d="M336.618,202.34c0.459,0.109 0.674,0.854 0.481,1.662c-0.193,0.808 -0.723,1.375 -1.181,1.265c-0.459,-0.11 -0.675,-0.855 -0.481,-1.663c0.193,-0.807 0.722,-1.374 1.181,-1.264Z" style="fill:#b28603;"/>
                    <path d="M338.365,166.042c0.459,0.11 0.674,0.855 0.481,1.663c-0.193,0.807 -0.723,1.374 -1.182,1.264c-0.458,-0.109 -0.674,-0.854 -0.481,-1.662c0.194,-0.808 0.723,-1.374 1.182,-1.265Z" style="fill:#b20303;"/>
                    <path d="M337.453,169.855c0.458,0.11 0.674,0.854 0.481,1.662c-0.194,0.808 -0.723,1.375 -1.182,1.265c-0.458,-0.11 -0.674,-0.855 -0.481,-1.663c0.193,-0.807 0.723,-1.374 1.182,-1.264Z" style="fill:#b20303;"/>
                    <path d="M336.517,173.765c0.459,0.11 0.674,0.855 0.481,1.663c-0.193,0.808 -0.723,1.374 -1.181,1.264c-0.459,-0.109 -0.675,-0.854 -0.481,-1.662c0.193,-0.808 0.722,-1.374 1.181,-1.265Z" style="fill:#b20303;"/>
                    <path d="M335.617,177.525c0.459,0.11 0.675,0.854 0.482,1.662c-0.194,0.808 -0.723,1.375 -1.182,1.265c-0.459,-0.11 -0.674,-0.855 -0.481,-1.663c0.193,-0.807 0.723,-1.374 1.181,-1.264Z" style="fill:#b20303;"/>
                    <path d="M334.68,181.444c0.458,0.11 0.674,0.855 0.481,1.663c-0.194,0.808 -0.723,1.374 -1.182,1.264c-0.458,-0.109 -0.674,-0.854 -0.481,-1.662c0.193,-0.808 0.723,-1.374 1.182,-1.265Z" style="fill:#b20303;"/>
                    <path d="M333.764,185.273c0.458,0.11 0.674,0.855 0.481,1.663c-0.194,0.807 -0.723,1.374 -1.182,1.264c-0.459,-0.11 -0.674,-0.855 -0.481,-1.662c0.193,-0.808 0.723,-1.375 1.182,-1.265Z" style="fill:#b20303;"/>
                    <path d="M332.823,189.203c0.459,0.11 0.675,0.855 0.481,1.663c-0.193,0.807 -0.722,1.374 -1.181,1.264c-0.459,-0.109 -0.674,-0.854 -0.481,-1.662c0.193,-0.808 0.722,-1.374 1.181,-1.265Z" style="fill:#b20303;"/>
                    <path d="M331.894,193.088c0.459,0.109 0.674,0.854 0.481,1.662c-0.193,0.808 -0.723,1.375 -1.182,1.265c-0.458,-0.11 -0.674,-0.855 -0.481,-1.663c0.194,-0.807 0.723,-1.374 1.182,-1.264Z" style="fill:#b20303;"/>
                    <path d="M330.962,196.98c0.459,0.11 0.675,0.855 0.482,1.663c-0.194,0.807 -0.723,1.374 -1.182,1.264c-0.459,-0.109 -0.674,-0.854 -0.481,-1.662c0.193,-0.808 0.723,-1.374 1.181,-1.265Z" style="fill:#b20303;"/>
                    <path d="M330.056,200.77c0.459,0.109 0.674,0.854 0.481,1.662c-0.193,0.808 -0.723,1.374 -1.182,1.265c-0.458,-0.11 -0.674,-0.855 -0.481,-1.663c0.194,-0.808 0.723,-1.374 1.182,-1.264Z" style="fill:#b20303;"/>
                    <path d="M346.503,167.989c0.458,0.11 0.674,0.855 0.481,1.663c-0.194,0.808 -0.723,1.374 -1.182,1.264c-0.459,-0.109 -0.674,-0.854 -0.481,-1.662c0.193,-0.808 0.723,-1.374 1.182,-1.265Z" style="fill:#b28603;"/>
                    <path d="M345.59,171.802c0.459,0.11 0.675,0.855 0.482,1.662c-0.194,0.808 -0.723,1.375 -1.182,1.265c-0.459,-0.11 -0.674,-0.855 -0.481,-1.663c0.193,-0.807 0.723,-1.374 1.181,-1.264Z" style="fill:#b28603;"/>
                    <path d="M344.655,175.713c0.459,0.109 0.674,0.854 0.481,1.662c-0.193,0.808 -0.723,1.374 -1.182,1.265c-0.458,-0.11 -0.674,-0.855 -0.481,-1.663c0.194,-0.808 0.723,-1.374 1.182,-1.264Z" style="fill:#b28603;"/>
                    <path d="M343.755,179.472c0.459,0.11 0.675,0.855 0.481,1.662c-0.193,0.808 -0.722,1.375 -1.181,1.265c-0.459,-0.11 -0.674,-0.855 -0.481,-1.663c0.193,-0.807 0.722,-1.374 1.181,-1.264Z" style="fill:#b28603;"/>
                    <path d="M342.817,183.392c0.459,0.109 0.675,0.854 0.482,1.662c-0.194,0.808 -0.723,1.374 -1.182,1.265c-0.459,-0.11 -0.674,-0.855 -0.481,-1.663c0.193,-0.808 0.723,-1.374 1.181,-1.264Z" style="fill:#b28603;"/>
                    <path d="M341.901,187.22c0.459,0.11 0.675,0.855 0.481,1.663c-0.193,0.807 -0.722,1.374 -1.181,1.264c-0.459,-0.11 -0.674,-0.854 -0.481,-1.662c0.193,-0.808 0.723,-1.375 1.181,-1.265Z" style="fill:#b28603;"/>
                    <path d="M340.961,191.15c0.459,0.11 0.674,0.855 0.481,1.663c-0.193,0.808 -0.723,1.374 -1.181,1.264c-0.459,-0.109 -0.675,-0.854 -0.481,-1.662c0.193,-0.808 0.722,-1.374 1.181,-1.265Z" style="fill:#b28603;"/>
                    <path d="M340.032,195.035c0.458,0.11 0.674,0.854 0.481,1.662c-0.194,0.808 -0.723,1.375 -1.182,1.265c-0.459,-0.11 -0.674,-0.855 -0.481,-1.663c0.193,-0.807 0.723,-1.374 1.182,-1.264Z" style="fill:#b28603;"/>
                    <path d="M339.1,198.927c0.459,0.11 0.675,0.855 0.481,1.663c-0.193,0.808 -0.722,1.374 -1.181,1.264c-0.459,-0.109 -0.674,-0.854 -0.481,-1.662c0.193,-0.808 0.722,-1.374 1.181,-1.265Z" style="fill:#b28603;"/>
                    <path d="M338.194,202.717c0.458,0.109 0.674,0.854 0.481,1.662c-0.194,0.808 -0.723,1.374 -1.182,1.265c-0.459,-0.11 -0.674,-0.855 -0.481,-1.663c0.193,-0.807 0.723,-1.374 1.182,-1.264Z" style="fill:#b28603;"/>
                    <path d="M339.934,166.418c0.459,0.11 0.675,0.855 0.482,1.662c-0.194,0.808 -0.723,1.375 -1.182,1.265c-0.459,-0.11 -0.674,-0.855 -0.481,-1.663c0.193,-0.807 0.723,-1.374 1.181,-1.264Z" style="fill:#b20303;"/>
                    <path d="M339.022,170.23c0.459,0.11 0.675,0.855 0.481,1.663c-0.193,0.807 -0.722,1.374 -1.181,1.264c-0.459,-0.109 -0.674,-0.854 -0.481,-1.662c0.193,-0.808 0.722,-1.374 1.181,-1.265Z" style="fill:#b20303;"/>
                    <path d="M338.087,174.141c0.458,0.11 0.674,0.855 0.481,1.662c-0.194,0.808 -0.723,1.375 -1.182,1.265c-0.459,-0.11 -0.674,-0.855 -0.481,-1.662c0.193,-0.808 0.723,-1.375 1.182,-1.265Z" style="fill:#b20303;"/>
                    <path d="M337.187,177.9c0.459,0.11 0.674,0.855 0.481,1.663c-0.193,0.807 -0.722,1.374 -1.181,1.264c-0.459,-0.109 -0.675,-0.854 -0.481,-1.662c0.193,-0.808 0.722,-1.374 1.181,-1.265Z" style="fill:#b20303;"/>
                    <path d="M336.249,181.82c0.459,0.11 0.675,0.855 0.481,1.662c-0.193,0.808 -0.722,1.375 -1.181,1.265c-0.459,-0.11 -0.674,-0.855 -0.481,-1.662c0.193,-0.808 0.722,-1.375 1.181,-1.265Z" style="fill:#b20303;"/>
                    <path d="M335.333,185.649c0.459,0.109 0.675,0.854 0.481,1.662c-0.193,0.808 -0.722,1.374 -1.181,1.265c-0.459,-0.11 -0.675,-0.855 -0.481,-1.663c0.193,-0.807 0.722,-1.374 1.181,-1.264Z" style="fill:#b20303;"/>
                    <path d="M334.393,189.579c0.459,0.11 0.674,0.855 0.481,1.662c-0.193,0.808 -0.723,1.375 -1.182,1.265c-0.458,-0.11 -0.674,-0.855 -0.481,-1.663c0.194,-0.807 0.723,-1.374 1.182,-1.264Z" style="fill:#b20303;"/>
                    <path d="M333.463,193.463c0.459,0.11 0.675,0.855 0.482,1.663c-0.194,0.807 -0.723,1.374 -1.182,1.264c-0.459,-0.109 -0.674,-0.854 -0.481,-1.662c0.193,-0.808 0.723,-1.375 1.181,-1.265Z" style="fill:#b20303;"/>
                    <path d="M332.532,197.356c0.459,0.11 0.674,0.855 0.481,1.662c-0.193,0.808 -0.722,1.375 -1.181,1.265c-0.459,-0.11 -0.675,-0.855 -0.481,-1.662c0.193,-0.808 0.722,-1.375 1.181,-1.265Z" style="fill:#b20303;"/>
                    <path d="M331.625,201.145c0.459,0.11 0.675,0.855 0.482,1.663c-0.194,0.807 -0.723,1.374 -1.182,1.264c-0.459,-0.11 -0.674,-0.854 -0.481,-1.662c0.193,-0.808 0.723,-1.375 1.181,-1.265Z" style="fill:#b20303;"/>
                    <path d="M348.072,168.365c0.459,0.11 0.675,0.855 0.481,1.662c-0.193,0.808 -0.722,1.375 -1.181,1.265c-0.459,-0.11 -0.675,-0.855 -0.481,-1.662c0.193,-0.808 0.722,-1.375 1.181,-1.265Z" style="fill:#b28603;"/>
                    <path d="M347.16,172.177c0.459,0.11 0.674,0.855 0.481,1.663c-0.193,0.808 -0.723,1.374 -1.181,1.264c-0.459,-0.109 -0.675,-0.854 -0.481,-1.662c0.193,-0.808 0.722,-1.374 1.181,-1.265Z" style="fill:#b28603;"/>
                    <path d="M346.224,176.088c0.459,0.11 0.675,0.855 0.481,1.662c-0.193,0.808 -0.722,1.375 -1.181,1.265c-0.459,-0.11 -0.674,-0.855 -0.481,-1.662c0.193,-0.808 0.723,-1.375 1.181,-1.265Z" style="fill:#b28603;"/>
                    <path d="M345.325,179.847c0.459,0.11 0.674,0.855 0.481,1.663c-0.193,0.808 -0.723,1.374 -1.181,1.264c-0.459,-0.109 -0.675,-0.854 -0.482,-1.662c0.194,-0.808 0.723,-1.374 1.182,-1.265Z" style="fill:#b28603;"/>
                    <path d="M344.387,183.767c0.459,0.11 0.674,0.855 0.481,1.663c-0.193,0.807 -0.723,1.374 -1.181,1.264c-0.459,-0.11 -0.675,-0.855 -0.481,-1.662c0.193,-0.808 0.722,-1.375 1.181,-1.265Z" style="fill:#b28603;"/>
                    <path d="M343.471,187.596c0.459,0.11 0.674,0.854 0.481,1.662c-0.193,0.808 -0.723,1.375 -1.181,1.265c-0.459,-0.11 -0.675,-0.855 -0.481,-1.663c0.193,-0.807 0.722,-1.374 1.181,-1.264Z" style="fill:#b28603;"/>
                    <path d="M342.531,191.526c0.458,0.11 0.674,0.855 0.481,1.662c-0.194,0.808 -0.723,1.375 -1.182,1.265c-0.459,-0.11 -0.674,-0.855 -0.481,-1.662c0.193,-0.808 0.723,-1.375 1.182,-1.265Z" style="fill:#b28603;"/>
                    <path d="M341.601,195.41c0.459,0.11 0.675,0.855 0.481,1.663c-0.193,0.807 -0.722,1.374 -1.181,1.264c-0.459,-0.109 -0.675,-0.854 -0.481,-1.662c0.193,-0.808 0.722,-1.374 1.181,-1.265Z" style="fill:#b28603;"/>
                    <path d="M340.67,199.303c0.459,0.11 0.674,0.855 0.481,1.662c-0.193,0.808 -0.723,1.375 -1.182,1.265c-0.458,-0.11 -0.674,-0.855 -0.481,-1.662c0.194,-0.808 0.723,-1.375 1.182,-1.265Z" style="fill:#b28603;"/>
                    <path d="M339.763,203.092c0.459,0.11 0.675,0.855 0.481,1.663c-0.193,0.807 -0.722,1.374 -1.181,1.264c-0.459,-0.11 -0.675,-0.854 -0.481,-1.662c0.193,-0.808 0.722,-1.375 1.181,-1.265Z" style="fill:#b28603;"/>
                    <path d="M341.569,166.809c0.459,0.11 0.675,0.855 0.482,1.662c-0.194,0.808 -0.723,1.375 -1.182,1.265c-0.459,-0.11 -0.674,-0.855 -0.481,-1.662c0.193,-0.808 0.723,-1.375 1.181,-1.265Z" style="fill:#b20303;"/>
                    <path d="M340.657,170.622c0.459,0.109 0.675,0.854 0.481,1.662c-0.193,0.808 -0.722,1.374 -1.181,1.265c-0.459,-0.11 -0.674,-0.855 -0.481,-1.663c0.193,-0.808 0.722,-1.374 1.181,-1.264Z" style="fill:#b20303;"/>
                    <path d="M339.722,174.532c0.458,0.11 0.674,0.855 0.481,1.663c-0.194,0.807 -0.723,1.374 -1.182,1.264c-0.459,-0.11 -0.674,-0.854 -0.481,-1.662c0.193,-0.808 0.723,-1.375 1.182,-1.265Z" style="fill:#b20303;"/>
                    <path d="M338.822,178.292c0.459,0.109 0.674,0.854 0.481,1.662c-0.193,0.808 -0.722,1.374 -1.181,1.265c-0.459,-0.11 -0.675,-0.855 -0.481,-1.663c0.193,-0.808 0.722,-1.374 1.181,-1.264Z" style="fill:#b20303;"/>
                    <path d="M337.884,182.211c0.459,0.11 0.675,0.855 0.481,1.663c-0.193,0.807 -0.722,1.374 -1.181,1.264c-0.459,-0.11 -0.674,-0.854 -0.481,-1.662c0.193,-0.808 0.722,-1.375 1.181,-1.265Z" style="fill:#b20303;"/>
                    <path d="M336.968,186.04c0.459,0.11 0.675,0.855 0.481,1.662c-0.193,0.808 -0.722,1.375 -1.181,1.265c-0.459,-0.11 -0.675,-0.855 -0.481,-1.663c0.193,-0.807 0.722,-1.374 1.181,-1.264Z" style="fill:#b20303;"/>
                    <path d="M336.028,189.97c0.459,0.11 0.674,0.855 0.481,1.662c-0.193,0.808 -0.723,1.375 -1.181,1.265c-0.459,-0.11 -0.675,-0.855 -0.482,-1.662c0.194,-0.808 0.723,-1.375 1.182,-1.265Z" style="fill:#b20303;"/>
                    <path d="M335.098,193.854c0.459,0.11 0.675,0.855 0.482,1.663c-0.194,0.808 -0.723,1.374 -1.182,1.264c-0.459,-0.109 -0.674,-0.854 -0.481,-1.662c0.193,-0.808 0.723,-1.374 1.181,-1.265Z" style="fill:#b20303;"/>
                    <path d="M334.167,197.747c0.459,0.11 0.674,0.855 0.481,1.662c-0.193,0.808 -0.722,1.375 -1.181,1.265c-0.459,-0.11 -0.675,-0.855 -0.481,-1.662c0.193,-0.808 0.722,-1.375 1.181,-1.265Z" style="fill:#b20303;"/>
                    <path d="M333.26,201.536c0.459,0.11 0.675,0.855 0.482,1.663c-0.194,0.808 -0.723,1.374 -1.182,1.264c-0.459,-0.109 -0.674,-0.854 -0.481,-1.662c0.193,-0.808 0.723,-1.374 1.181,-1.265Z" style="fill:#b20303;"/>
                    <path d="M349.707,168.756c0.459,0.11 0.675,0.855 0.481,1.663c-0.193,0.807 -0.722,1.374 -1.181,1.264c-0.459,-0.11 -0.674,-0.854 -0.481,-1.662c0.193,-0.808 0.722,-1.375 1.181,-1.265Z" style="fill:#b28603;"/>
                    <path d="M348.795,172.569c0.459,0.109 0.674,0.854 0.481,1.662c-0.193,0.808 -0.723,1.374 -1.181,1.265c-0.459,-0.11 -0.675,-0.855 -0.481,-1.663c0.193,-0.808 0.722,-1.374 1.181,-1.264Z" style="fill:#b28603;"/>
                    <path d="M347.859,176.479c0.459,0.11 0.675,0.855 0.481,1.663c-0.193,0.807 -0.722,1.374 -1.181,1.264c-0.459,-0.109 -0.674,-0.854 -0.481,-1.662c0.193,-0.808 0.723,-1.374 1.181,-1.265Z" style="fill:#b28603;"/>
                    <path d="M346.96,180.239c0.459,0.109 0.674,0.854 0.481,1.662c-0.193,0.808 -0.723,1.374 -1.181,1.265c-0.459,-0.11 -0.675,-0.855 -0.482,-1.663c0.194,-0.807 0.723,-1.374 1.182,-1.264Z" style="fill:#b28603;"/>
                    <path d="M346.022,184.158c0.459,0.11 0.674,0.855 0.481,1.663c-0.193,0.807 -0.723,1.374 -1.181,1.264c-0.459,-0.109 -0.675,-0.854 -0.481,-1.662c0.193,-0.808 0.722,-1.374 1.181,-1.265Z" style="fill:#b28603;"/>
                    <path d="M345.106,187.987c0.459,0.11 0.674,0.855 0.481,1.662c-0.193,0.808 -0.723,1.375 -1.181,1.265c-0.459,-0.11 -0.675,-0.855 -0.481,-1.662c0.193,-0.808 0.722,-1.375 1.181,-1.265Z" style="fill:#b28603;"/>
                    <path d="M344.166,191.917c0.458,0.11 0.674,0.855 0.481,1.663c-0.194,0.807 -0.723,1.374 -1.182,1.264c-0.459,-0.11 -0.674,-0.855 -0.481,-1.662c0.193,-0.808 0.723,-1.375 1.182,-1.265Z" style="fill:#b28603;"/>
                    <path d="M343.236,195.802c0.459,0.109 0.675,0.854 0.481,1.662c-0.193,0.808 -0.722,1.374 -1.181,1.265c-0.459,-0.11 -0.674,-0.855 -0.481,-1.663c0.193,-0.808 0.722,-1.374 1.181,-1.264Z" style="fill:#b28603;"/>
                    <path d="M342.305,199.694c0.459,0.11 0.674,0.855 0.481,1.663c-0.193,0.807 -0.723,1.374 -1.181,1.264c-0.459,-0.11 -0.675,-0.854 -0.482,-1.662c0.194,-0.808 0.723,-1.375 1.182,-1.265Z" style="fill:#b28603;"/>
                    <path d="M341.398,203.483c0.459,0.11 0.675,0.855 0.481,1.663c-0.193,0.808 -0.722,1.374 -1.181,1.264c-0.459,-0.109 -0.675,-0.854 -0.481,-1.662c0.193,-0.808 0.722,-1.374 1.181,-1.265Z" style="fill:#b28603;"/>
                    <path d="M365.531,171.591l-9.899,41.372l9.231,-38.58" style="fill:none;stroke:#a6a276;stroke-width:3px;stroke-linejoin:round;"/>
                    <path d="M333.435,163.911l-9.899,41.372l9.231,-38.58" style="fill:none;stroke:#a6a276;stroke-width:3px;stroke-linejoin:round;"/>
                </g>
            </g>
            <path id="person_2_left_leg" d="M301.38,178.386c1.228,-0.141 3.44,3.393 4.143,5.123c0.703,1.73 3.141,5.442 4.021,10.586c0.88,5.145 -0.093,8.76 1.783,11.775c1.877,3.014 3.958,10.819 4.033,12.666c0.075,1.848 3.33,1.144 11.087,-1.372c7.757,-2.515 14.684,-3.983 16.431,-3.876c1.264,-2.277 5.699,-4.25 8.009,-5.006c1.054,-0.345 0.532,0.557 0.532,0.557c0,0 1.396,-2.224 7.673,-2.969c1.282,-0.153 3.946,6.453 4.018,6.631c0,0 -1.691,2.081 0.766,4.385c2.458,2.305 3.778,5.257 4.217,8.038c0.438,2.781 0.429,4.517 0.102,6.583c-0.326,2.067 -1.102,2.711 -2.217,2.674c-1.116,-0.036 -2.877,0.458 -5.759,-4.555c-2.882,-5.013 -5.326,-5.598 -4.903,-5.16c0.424,0.439 -1.397,-0.754 -3.274,0c-3.278,1.316 -25.423,7.164 -28.935,8.285c-3.512,1.12 -11.848,5.321 -17.584,-1.558c-5.736,-6.878 -12.657,-19.341 -14.381,-26.511c-1.725,-7.17 -6.37,-9.699 -6.495,-12.271c-0.099,-2.064 15.505,-13.884 16.733,-14.025Z" style="fill:#5a4848;"/>
            <path id="person_2_head" d="M254.89,118.68c3.037,-1.275 8.85,-1.188 11.941,2.433c2.942,3.446 2.941,7.36 2.56,9.882c-0.382,2.522 0.509,4.071 0.411,7.852c-0.098,3.781 -4.948,8.056 -4.948,8.056c0,0 -3.987,-2.15 -4.86,-2.65c-0.874,-0.5 -0.789,-0.759 -1.3,-2.644c-0.152,-0.56 -1.541,0.416 -2.46,-1.12c-0.919,-1.536 -0.744,-1.463 -1.841,-3.025c-1.097,-1.563 -2.225,-2.992 -2.411,-6.103c-0.134,-2.221 -1.52,-2.118 -1.23,-4.471c0.288,-2.347 -1.409,-5.882 4.138,-8.21Z" style="fill:#5a4848;"/>
        </g>
        <path id="person_2_right_leg" d="M284.7,191.651c-3.467,0.88 -0.497,13.657 -0.107,15.065c0.391,1.409 1.514,16.016 2.889,22.451c0.412,1.929 -0.045,7.55 2.208,11.69c0.727,5.308 3.801,14.044 4.93,17.19c0.86,2.392 -0.994,5.635 0.386,11.329c0.646,2.662 -0.339,4.949 -1.722,6.69c-1.384,1.741 -0.892,3.121 -9.738,4.907c-2.64,0.533 -2.846,5.932 0.084,5.907c4.436,-0.038 11.863,0.137 13.59,-1.551c0.872,-0.852 1.872,0.526 4.587,0.337c5.613,-0.391 10.491,0.919 8.899,-5.531c-1.592,-6.45 -1.042,-9.376 -1.295,-11.16c-0.253,-1.783 -2.474,-10.589 -3.888,-16.829c-1.414,-6.239 -2.647,-10.395 -2.874,-14.197c-0.178,-2.996 2.376,-10.389 3,-30.269c0.139,-4.427 8.043,-5.173 2.33,-19.209c-3.464,-8.507 -5.373,-8.55 -6.68,-9.749c-0.941,-0.864 -16.245,12.839 -16.599,12.929Z" style="fill:#5a4848;"/>
    </g>
    <g id="person_1">
        <ellipse id="circle_1" cx="148.002" cy="308.03" rx="34.783" ry="5.385" style="fill:#79a1ff;"/>
        <g id="person_1_free_body">
            <path id="person_1_head" d="M162.261,139.859c1.452,0.072 4.64,-1.534 8.077,1.237c3.438,2.77 3.807,6.977 3.176,11.932c-0.371,2.914 -0.681,4.882 -3.685,8.225c-0.385,0.428 -0.229,2.05 -2.646,1.961c-1.369,-0.05 -0.43,2.354 -0.584,3.207c-1.317,7.317 -7.94,2.855 -9.698,-1.173c-1.758,-4.029 -6.588,-0.034 -8.509,-1.796c-1.007,-0.924 1.781,-3.117 4.156,-3.933c2.374,-0.817 2.975,-2.998 1.837,-4.258c-1.138,-1.26 -2.801,-1.907 -0.692,-7.584c2.11,-5.677 4.096,-8.039 8.568,-7.818Z" style="fill:#404040;"/>
            <path id="person_1_body" d="M159.781,163.851c-2.166,-2.927 -8.095,-5.589 -10.113,2.621c-2.017,8.209 -3.796,7.449 -1.752,16.22c1.783,7.653 1.606,6.791 1.124,9.918c-0.487,3.156 0.705,6.352 -0.601,7.935c-1.516,1.837 -4.481,2.869 -6.077,4.045c-1.596,1.175 -4.594,4.547 -5.829,7.336c-1.229,2.775 -3.774,6.119 -3.337,9.846c-0.703,2.711 -3.777,9.212 -4.931,11.302c-1.155,2.089 -4.744,7.487 -5.398,8.492c-0.654,1.005 -1.628,2.943 -4.431,4.86c-2.803,1.918 -7.649,4.747 -9.621,5.753c-1.971,1.006 -5.497,2.453 -7.696,5.164c-2.199,2.712 -8.812,8.795 -10.267,10.544c-1.347,1.619 -3.603,2.296 -4.189,2.593c-0.587,0.298 -4.004,-1.48 -6.039,-0.29c-1.565,2.006 -5.269,6.077 -7.739,6.796c-0.459,0.831 0.134,1.933 0.107,2.069c-0.026,0.136 0.527,-0.664 5.364,-2.462c0.807,-0.3 0.614,-0.279 0.522,0.401c-0.093,0.68 -0.804,4.25 -3.093,6.021c-1.99,1.54 -1.64,3.5 -0.853,5.791c0.676,1.965 3.446,5.53 4.448,6.199c0.496,0.396 1.679,0.343 2.205,0.287c0.531,-0.19 1.425,-0.86 1.448,-1.521c0.023,-0.661 0,-5.635 0,-5.976c0,-0.638 4.681,-5.16 5.251,-6.584c0.481,-0.496 3.758,-4.165 6.336,-6.339c0.745,-0.628 4.66,-3.862 5.998,-4.58c1.338,-0.718 6.761,-3.992 7.626,-4.839c0.865,-0.848 9.356,-5.298 10.451,-5.966c1.465,-0.184 5.261,-0.887 10.567,-4.46c5.307,-3.574 6.722,-5.627 6.722,-5.627c0,0 7.538,4.478 17.728,4.586c0.259,-4.989 2.265,-15.017 2.265,-15.017c0,0 3.53,-10.55 4.635,-13.202c1.105,-2.652 2.241,-4.045 2.775,-7.8c2.065,-2.441 5.258,-14.526 5.661,-16.929c0.403,-2.403 0.649,-4.143 1.997,-8.083c1.529,-3.228 4.863,-8.731 1.825,-13.524c-3.091,-4.878 -4.181,-11.17 -4.603,-12.486c-1.938,-3.747 -4.404,2.422 -8.486,-3.094Z" style="fill:#404040;"/>
            <path id="person_1_left_arm" d="M167.351,176.44c0,0 2.823,-1.052 4.866,-1.436c0.631,-0.758 6.375,-2.369 8.86,-3.836c0.755,-0.528 0.012,-1.285 -0.239,-2.183c-0.251,-0.898 -0.542,-1.608 -0.679,-2.153c-0.136,-0.546 0.084,-1.583 0.709,-0.184c0.19,0.401 0.301,0.774 0.481,1.158c0.181,0.384 0.529,0.115 -0.051,-1.453c-0.185,-0.501 -0.372,-1.47 -0.494,-2.205c-0.121,-0.735 0.59,-1.148 0.855,0.06c0.192,0.874 0.327,1.629 0.452,1.975c0.218,0.602 0.529,0.09 0.501,-0.454c-0.049,-0.964 -0.228,-2.316 -0.21,-2.792c0.03,-0.808 0.605,-1.36 0.858,-0.113c0,0 0.072,0.549 0.273,2.621c0.064,0.664 0.679,0.311 0.714,-0.112c0.024,-0.28 -0.004,-1.023 -0.014,-1.626c-0.005,-0.31 -0.006,-0.583 0.008,-0.737c0.083,-0.951 0.741,-0.672 0.801,-0.051c0.06,0.621 0.171,2.376 0.309,2.973c0.138,0.598 0.215,1.485 0.844,1.522c0.63,0.038 0.254,0.403 0.914,-0.224c0.66,-0.626 1.062,-0.043 0.667,1.15c-0.393,1.188 -0.797,2.148 -1.619,2.528c-0.822,0.379 -1.261,0.846 -2.133,1.846c-0.872,1 -5.888,5.936 -6.542,6.523c-0.654,0.588 -2.287,2.161 -3.262,2.136c-10.704,-0.273 -6.869,-4.933 -6.869,-4.933Z" style="fill:#404040;"/>
            <g id="person_1_right_arm">
                <path d="M113.878,201.957c0,0.221 -0.001,0.442 -0.003,0.662c-0.12,17.989 -5.14,32.484 -11.305,32.484c-6.24,0 -11.307,-14.852 -11.307,-33.146c0,-18.294 5.067,-33.146 11.307,-33.146" style="fill:none;stroke:#79a1ff;stroke-width:1.5px;stroke-linejoin:round;"/>
                <path id="_-Kurve-" serif:id="(Kurve)" d="M155.185,161.568c-0.574,-0.085 -6.707,1.441 -8.384,3.551c-1.899,0.403 -3.742,0.545 -5.373,3.147c-0.965,1.186 -2.42,1.168 -3.976,1.84c-1.555,0.671 -4.009,0.985 -5.763,0.818c-1.754,-0.167 -4.55,-0.194 -9.427,1.168c-4.876,1.362 -8.841,1.001 -10.754,1.338c-1.913,0.337 -4.294,-0.284 -5.389,-1.223c-1.095,-0.939 -1.748,-1.622 -7.833,-4.303c-0.252,-0.434 -1.83,-2.108 -1.846,-0.184c-1.608,-0.423 -4.148,-1.65 -4.641,-1.786c-0.494,-0.137 -2.495,-0.438 -1.394,1.32c-0.708,-0.135 -0.606,0.833 0.125,1.225c0.846,0.454 0.824,0.608 1.362,0.928c0.768,0.458 4.954,2.939 0.127,0.774c-0.647,-0.29 -1.89,0.273 -0.426,1.091c1.17,0.654 3.124,1.54 3.504,1.683c0.379,0.142 1.048,0.47 -0.207,0.245c-1.254,-0.225 -1.58,0.631 -0.508,0.959c1.072,0.328 2.428,0.953 2.81,1.11c0.382,0.157 0.746,0.214 1.773,1.644c1.026,1.43 2.051,1.825 4.89,2.28c2.372,0.379 3.282,0.238 4.252,0.238c0.969,0 7.192,0.211 10.013,0.521c2.821,0.309 8.527,-0.081 10.585,0.099c4.312,0.377 6.268,-0.594 9.47,-1.023c3.202,-0.429 4.553,-0.924 6.172,-1.346c0.783,0.42 4.472,0.031 5.618,-0.083c1.145,-0.113 3.858,-1.212 6.733,-2.473c5.763,-2.527 10.05,-11.851 -1.513,-13.558Z" style="fill:#404040;"/>
                <path d="M102.57,168.811c6.241,0 11.308,14.852 11.308,33.146" style="fill:none;stroke:#79a1ff;stroke-width:1.5px;stroke-linejoin:round;"/>
            </g>
        </g>
        <path id="person_1_left_leg" d="M155.235,224.57c1.675,-0.933 5.944,-0.623 5.944,4.514c0,5.138 0.142,23.787 -1.411,26.348c-0.663,3.057 -1.636,5.755 -3.538,8.932c-0.762,3.729 -2.54,10.935 -3.047,12.242c-0.507,1.306 -2.548,7.686 -2.902,8.729c-0.353,1.042 -1.496,6.415 -1.498,9.316c0.137,2.11 1.887,5.26 2.269,5.767c0.383,0.506 3.505,2.802 4.555,3.657c1.135,0.925 2.916,2.338 1.633,4.207c-0.427,0.623 -1.023,1.112 -3.263,0.845c-4.191,-0.499 -6.11,-0.072 -7.416,-3.023c-1.205,-2.724 -0.854,-3.146 -4.075,-5.876c-0.814,-0.69 -0.421,1.061 -0.419,5.071c0.004,0.471 -1.017,0.175 -1.675,-0.105c-0.089,-1.867 -0.536,-4.854 -2.441,-8.202c-0.663,-1.165 0.228,-3.16 1.318,-4.342c1.091,-1.182 2.189,-1.537 2.616,-3.956c0.385,-2.177 1.138,-10.553 0.886,-13.966c-0.251,-3.413 3.323,-12.593 4.854,-14.92c1.035,-1.572 -4.059,-28.739 7.61,-35.238Z" style="fill:#404040;"/>
    </g>
</svg>
