<?xml version="1.0" encoding="UTF-8" standalone="no"?><!DOCTYPE svg PUBLIC "-//W3C//DTD SVG 1.1//EN" "http://www.w3.org/Graphics/SVG/1.1/DTD/svg11.dtd"><svg width="100%" height="100%" viewBox="0 0 420 363" version="1.1" xmlns="http://www.w3.org/2000/svg" xmlns:xlink="http://www.w3.org/1999/xlink" xml:space="preserve" xmlns:serif="http://www.serif.com/" style="fill-rule:evenodd;clip-rule:evenodd;stroke-linecap:round;stroke-linejoin:round;stroke-miterlimit:1.5;"><g id="aquarium"><g id="backside"><rect x="62.424" y="19.192" width="300.771" height="271.025" style="fill:none;stroke:#c2c2c2;stroke-opacity:0.53;stroke-width:1px;"/><path d="M363.195,19.192l20.932,8.49" style="fill:none;stroke:#c2c2c2;stroke-opacity:0.53;stroke-width:1px;"/><path d="M42.961,27.682l19.463,-8.49" style="fill:none;stroke:#c2c2c2;stroke-opacity:0.53;stroke-width:1px;"/></g><path id="sand" d="M42.125,335.147l0,-71.43c0,0 16.589,-16.251 20.299,-15.812c3.709,0.44 47.358,2.607 61.137,-1.23c20.21,-5.628 80.789,9.035 103.703,8.831c22.913,-0.204 61.333,-5.938 83.44,-12.66c20.845,-6.338 48.357,5.029 52.491,3.665c3.99,-1.316 20.299,11.745 20.299,11.745l0,76.891l-341.369,0Z" style="fill:#b89c81;"/><path id="sand1" serif:id="sand" d="M42.125,335.147l0,-71.43c0,0 58.86,5.987 81.051,-0.192c20.211,-5.628 53.102,9.56 75.736,13.134c29.46,4.651 94.953,-1.828 116.999,-14.803c18.489,-10.882 67.583,-3.6 67.583,-3.6l0,76.891l-341.369,0Z" style="fill:#c5aa91;"/><rect id="front" x="42.125" y="27.539" width="341.368" height="307.608" style="fill:none;stroke:#c2c2c2;stroke-opacity:0.53;stroke-width:1px;"/><g id="water_surface"><path d="M384.035,55.467c-0.313,9.922 -211.58,11.683 -301.555,5.54c-24.314,-1.66 -39.77,-3.897 -39.814,-6.707l19.758,-10.033c0.781,0.378 10.605,1.683 27.767,2.274c74.413,2.564 272.719,1.986 273.004,-1.838l20.84,10.764Z" style="fill:#0b4c5c;fill-opacity:0.07;stroke:#7f7f7f;stroke-opacity:0.23;stroke-width:1px;"/><path d="M384.035,55.467c-0.313,9.922 -211.58,11.683 -301.555,5.54c-24.314,-1.66 -39.77,-3.897 -39.814,-6.707l0,280.847l341.369,0l0,-279.68Z" style="fill:#0b4c5c;fill-opacity:0.04;"/></g></g><g id="fish"><g id="lower_fins"><path d="M125.89,151.859c0.984,-0.827 -5.543,-4.41 -7.315,-2.803c-3.833,3.477 -2.958,4.189 -1.309,5.374c1.648,1.185 0.675,4.102 8.624,-2.571Z" style="fill:#f8dcd4;"/><path d="M135.114,153.779c-4.076,3.124 -1.579,4.283 -0.136,4.86c1.442,0.578 1.352,5.155 9.289,-3.945c-0.546,-2.324 -5.077,-4.039 -9.153,-0.915Z" style="fill:#f8dcd4;"/><path d="M149.403,154.145c-1.715,1.932 -2.854,8.287 5.514,0.33c8.368,-7.957 -3.8,-2.262 -5.514,-0.33Z" style="fill:#f8dcd4;"/></g><path id="body" d="M141.94,124.859c17.979,0 32.575,6.788 32.575,15.149c0,8.361 -14.596,15.148 -32.575,15.148c-6.623,0 -12.786,-0.921 -17.93,-2.502c-3.546,-1.09 -6.607,-2.493 -9.001,-4.125c-1.407,-0.959 -2.583,-1.997 -3.491,-3.097c-28.964,11.594 -21.286,9.502 -21.286,-3.554c0,-17.456 -7.172,-15.689 21.241,-7.24c1.075,-1.317 2.533,-2.546 4.312,-3.658c11.729,-22.739 4.135,-24.476 24.143,-6.092c0.665,-0.019 1.336,-0.029 2.012,-0.029Z" style="fill:none;"/><clipPath id="fish_outline"><path d="M141.94,124.859c17.979,0 32.575,6.788 32.575,15.149c0,8.361 -14.596,15.148 -32.575,15.148c-6.623,0 -12.786,-0.921 -17.93,-2.502c-3.546,-1.09 -6.607,-2.493 -9.001,-4.125c-1.407,-0.959 -2.583,-1.997 -3.491,-3.097c-28.964,11.594 -21.286,9.502 -21.286,-3.554c0,-17.456 -7.172,-15.689 21.241,-7.24c1.075,-1.317 2.533,-2.546 4.312,-3.658c11.729,-22.739 4.135,-24.476 24.143,-6.092c0.665,-0.019 1.336,-0.029 2.012,-0.029Z"/></clipPath><g clip-path="url(#fish_outline)"><rect x="75.386" y="107.037" width="108.333" height="59.864" style="fill:#f8dcd4;"/><path d="M113.216,142.104l-19.306,4.143" style="fill:none;stroke:#ea967f;stroke-width:0.25px;"/><path d="M94.036,135.228l18.934,2.645" style="fill:none;stroke:#ea967f;stroke-width:0.25px;"/><path d="M113.04,140.059l-18.189,0.185" style="fill:none;stroke:#ea967f;stroke-width:0.25px;"/><path d="M141.94,124.859c17.979,0 32.575,6.788 32.575,15.149c0,8.361 -14.596,15.148 -32.575,15.148c-13.87,0 -25.726,-4.039 -30.422,-9.724c-2.231,-2.701 -1.985,-8.418 -0.045,-10.794c4.665,-5.714 16.553,-9.779 30.467,-9.779Z" style="fill:#e0442c;"/><ellipse cx="128.536" cy="145.642" rx="16.841" ry="8.584" style="fill:#f4f1ee;"/><ellipse cx="160.482" cy="139.52" rx="14.053" ry="10.963" style="fill:#f4f1ee;"/><ellipse cx="165.94" cy="140.008" rx="13.541" ry="10.523" style="fill:#e0442c;"/><ellipse cx="166.048" cy="139.982" rx="8.697" ry="9.565" style="fill:#f4f1ee;"/><ellipse cx="170.366" cy="140.535" rx="8.693" ry="9.492" style="fill:#e0442c;"/><ellipse cx="138.719" cy="152.578" rx="30.832" ry="8.584" style="fill:#a64629;"/><ellipse cx="174.515" cy="140.008" rx="4.966" ry="4.805" style="fill:#f4f1ee;"/><ellipse cx="166.842" cy="137.447" rx="2.094" ry="2.193" style="fill:#261f18;stroke:#f8dcd4;stroke-width:0.4px;"/></g></g><g id="sensor"><path d="M216.537,20.898c0,-0.941 -0.764,-1.706 -1.706,-1.706l-3.411,0c-0.941,0 -1.705,0.765 -1.705,1.706l0,312.468c0,0.941 0.764,1.706 1.705,1.706l3.411,0c0.942,0 1.706,-0.765 1.706,-1.706l0,-312.468Z" style="fill:#292929;"/><ellipse cx="213.126" cy="291.609" rx="2.543" ry="2.489" style="fill:#d31500;"/><ellipse cx="213.126" cy="281.586" rx="2.543" ry="2.489" style="fill:#d31500;"/><ellipse cx="213.126" cy="261.058" rx="2.543" ry="2.489" style="fill:#d31500;"/><ellipse cx="213.126" cy="271.563" rx="2.543" ry="2.489" style="fill:#d31500;"/><ellipse cx="213.126" cy="251.036" rx="2.543" ry="2.489" style="fill:#d31500;"/></g></svg>