<?xml version="1.0" encoding="UTF-8" standalone="no"?>
<!DOCTYPE svg PUBLIC "-//W3C//DTD SVG 1.1//EN" "http://www.w3.org/Graphics/SVG/1.1/DTD/svg11.dtd">
<svg width="100%" height="100%" viewBox="0 0 1749 1512" version="1.1" xmlns="http://www.w3.org/2000/svg" xmlns:xlink="http://www.w3.org/1999/xlink" xml:space="preserve" xmlns:serif="http://www.serif.com/" style="fill-rule:evenodd;clip-rule:evenodd;stroke-linecap:round;stroke-linejoin:round;stroke-miterlimit:1.5;">
    <g id="aquarium" transform="matrix(1.54403,0,0,1.54403,-146.151,24.6712)">
        <g id="backside">
            <g transform="matrix(0.872143,0,0,0.881074,82.1034,-15.5852)">
                <rect x="207.543" y="58.336" width="930.639" height="830.1" style="fill:none;stroke:rgb(194,194,194);stroke-opacity:0.53;stroke-width:3.08px;"/>
            </g>
            <g transform="matrix(0.950385,0,0,0.578241,53.3243,24.7673)">
                <path d="M1074.76,19.103L1134.19,58.724" style="fill:none;stroke:rgb(194,194,194);stroke-opacity:0.53;stroke-width:3.43px;"/>
            </g>
            <g transform="matrix(1,0,0,0.851358,2.84217e-14,9.78975)">
                <path d="M210.588,57.477L263.11,30.567" style="fill:none;stroke:rgb(194,194,194);stroke-opacity:0.53;stroke-width:2.91px;"/>
            </g>
        </g>
        <path id="sand" d="M208.333,888.436L208.333,695.679C208.333,695.679 253.1,651.825 263.11,653.01C273.121,654.196 390.91,660.044 428.092,649.69C482.631,634.504 646.107,674.073 707.941,673.521C769.776,672.97 873.455,657.497 933.111,639.358C989.362,622.254 1063.61,652.928 1074.76,649.248C1085.53,645.695 1129.54,680.942 1129.54,680.942L1129.54,888.436L208.333,888.436Z" style="fill:rgb(184,156,129);"/>
        <path id="sand1" serif:id="sand" d="M208.333,888.436L208.333,695.679C208.333,695.679 367.17,711.835 427.055,695.16C481.594,679.973 570.353,720.96 631.433,730.604C710.933,743.155 887.67,725.671 947.163,690.657C997.056,661.292 1129.54,680.942 1129.54,680.942L1129.54,888.436L208.333,888.436Z" style="fill:rgb(197,170,145);"/>
        <g id="front" transform="matrix(0.989863,0,0,1,2.89375,-5.68434e-14)">
            <rect x="207.543" y="58.336" width="930.639" height="830.1" style="fill:none;stroke:rgb(194,194,194);stroke-opacity:0.53;stroke-width:2.71px;"/>
        </g>
        <g id="water_surface">
            <path d="M1131,133.704C1130.15,160.478 560.038,165.231 317.234,148.653C251.621,144.173 209.91,138.136 209.793,130.554L263.11,103.48C265.218,104.5 291.73,108.021 338.041,109.616C538.849,116.535 1073.99,114.976 1074.76,104.656L1131,133.704Z" style="fill:rgb(11,76,92);fill-opacity:0.07;stroke:rgb(127,127,127);stroke-opacity:0.23;stroke-width:2.7px;"/>
            <path d="M1131,133.704C1130.15,160.478 560.038,165.231 317.234,148.653C251.621,144.173 209.91,138.136 209.793,130.554L209.793,888.436L1131,888.436L1131,133.704Z" style="fill:rgb(11,76,92);fill-opacity:0.04;"/>
        </g>
    </g>
    <g id="fish" transform="matrix(1.80399,0,0,1.84879,-353.115,-243.309)">
        <g id="lower_fins">
            <path d="M486.173,468.344C488.415,466.507 473.547,458.542 469.51,462.114C460.777,469.842 462.77,471.425 466.526,474.059C470.282,476.694 468.064,483.179 486.173,468.344Z" style="fill:rgb(248,220,212);"/>
            <path d="M507.187,472.613C497.902,479.558 503.59,482.133 506.877,483.417C510.163,484.701 509.957,494.876 528.039,474.648C526.795,469.481 516.472,465.668 507.187,472.613Z" style="fill:rgb(248,220,212);"/>
            <g transform="matrix(0.986716,0,0,1,7.12794,0)">
                <path d="M539.781,473.426C535.823,477.72 533.194,491.848 552.513,474.159C571.833,456.471 543.74,469.132 539.781,473.426Z" style="fill:rgb(248,220,212);"/>
            </g>
        </g>
        <g id="body" transform="matrix(0.996191,0,0,1.05597,-0.0040853,-21.2265)">
            <path d="M527.928,412.219C567.284,412.219 599.237,425.291 599.237,441.392C599.237,457.492 567.284,470.564 527.928,470.564C513.431,470.564 499.94,468.79 488.679,465.745C480.918,463.647 474.217,460.944 468.977,457.801C465.897,455.954 463.322,453.955 461.334,451.838C397.931,474.164 414.74,470.135 414.74,444.992C414.74,411.377 399.039,414.78 461.236,431.051C463.589,428.515 466.782,426.148 470.675,424.007C496.35,380.217 479.727,376.872 523.524,412.274C524.981,412.238 526.449,412.219 527.928,412.219Z" style="fill:none;"/>
            <clipPath id="_clip1">
                <path d="M527.928,412.219C567.284,412.219 599.237,425.291 599.237,441.392C599.237,457.492 567.284,470.564 527.928,470.564C513.431,470.564 499.94,468.79 488.679,465.745C480.918,463.647 474.217,460.944 468.977,457.801C465.897,455.954 463.322,453.955 461.334,451.838C397.931,474.164 414.74,470.135 414.74,444.992C414.74,411.377 399.039,414.78 461.236,431.051C463.589,428.515 466.782,426.148 470.675,424.007C496.35,380.217 479.727,376.872 523.524,412.274C524.981,412.238 526.449,412.219 527.928,412.219Z"/>
            </clipPath>
            <g clip-path="url(#_clip1)">
                <g transform="matrix(1.00382,0,0,0.946997,0.00410092,20.1015)">
                    <rect x="380.78" y="377.822" width="236.239" height="121.734" style="fill:rgb(248,220,212);"/>
                </g>
                <g transform="matrix(1.00382,0,0,0.946997,-0.336072,19.3771)">
                    <path d="M463.614,449.897L421.514,458.323" style="fill:none;stroke:rgb(234,150,127);stroke-width:0.57px;"/>
                </g>
                <g transform="matrix(1.00382,0,0,0.946997,0.239896,19.0507)">
                    <path d="M421.215,436.258L462.504,441.637" style="fill:none;stroke:rgb(234,150,127);stroke-width:0.57px;"/>
                </g>
                <g transform="matrix(1.00382,0,0,0.946997,0.0138515,20.5508)">
                    <path d="M462.882,444.5L423.218,444.876" style="fill:none;stroke:rgb(234,150,127);stroke-width:0.57px;"/>
                </g>
                <path d="M527.928,412.219C567.284,412.219 599.237,425.291 599.237,441.392C599.237,457.492 567.284,470.564 527.928,470.564C497.567,470.564 471.613,462.785 461.334,451.838C456.45,446.637 456.989,435.626 461.236,431.051C471.447,420.048 497.47,412.219 527.928,412.219Z" style="fill:rgb(224,68,44);"/>
                <g transform="matrix(2.29091,0,0,1.69177,-889.027,-293.83)">
                    <ellipse cx="605.704" cy="440.999" rx="16.092" ry="9.771" style="fill:rgb(244,241,238);"/>
                </g>
                <g transform="matrix(1.91164,0,0,2.16062,-589.374,-512.38)">
                    <ellipse cx="605.704" cy="440.999" rx="16.092" ry="9.771" style="fill:rgb(244,241,238);"/>
                </g>
                <g transform="matrix(1.84193,0,0,2.0738,-535.201,-473.152)">
                    <ellipse cx="605.704" cy="440.999" rx="16.092" ry="9.771" style="fill:rgb(224,68,44);"/>
                </g>
                <g transform="matrix(1.183,0,0,1.88505,-135.846,-389.962)">
                    <ellipse cx="605.704" cy="440.999" rx="16.092" ry="9.771" style="fill:rgb(244,241,238);"/>
                </g>
                <g transform="matrix(1.18246,0,0,1.87067,-126.068,-382.557)">
                    <ellipse cx="605.704" cy="440.999" rx="16.092" ry="9.771" style="fill:rgb(224,68,44);"/>
                </g>
                <g transform="matrix(1.08278,0,0,1.67198,-44.2292,-313.19)">
                    <ellipse cx="521.905" cy="465.787" rx="62.332" ry="9.887" style="fill:rgb(166,70,41);"/>
                </g>
                <g transform="matrix(0.675497,0,0,0.946997,190.085,23.7669)">
                    <ellipse cx="605.704" cy="440.999" rx="16.092" ry="9.771" style="fill:rgb(244,241,238);"/>
                </g>
                <g transform="matrix(0.974886,0,0,0.77832,23.4636,138.171)">
                    <ellipse cx="573.376" cy="383.248" rx="4.701" ry="5.426" style="fill:rgb(38,31,24);stroke:rgb(248,220,212);stroke-width:1.02px;"/>
                </g>
            </g>
        </g>
    </g>
    <g id="sensor" transform="matrix(1.54403,0,0,1.51123,-148.428,-8.19162)">
        <g transform="matrix(0.1775,0,0,1.00182,553.384,39.1985)">
            <path d="M715.969,23.796C715.969,21.206 704.351,19.103 690.041,19.103L638.184,19.103C623.874,19.103 612.256,21.206 612.256,23.796L612.256,883.743C612.256,886.333 623.874,888.436 638.184,888.436L690.041,888.436C704.351,888.436 715.969,886.333 715.969,883.743L715.969,23.796Z" style="fill:rgb(41,41,41);"/>
        </g>
        <g transform="matrix(0.738219,0,0,0.738219,168.861,210.212)">
            <circle cx="680.561" cy="811.698" r="9.297" style="fill:rgb(211,21,0);"/>
        </g>
        <g transform="matrix(0.738219,0,0,0.738219,168.861,182.577)">
            <circle cx="680.561" cy="811.698" r="9.297" style="fill:rgb(211,21,0);"/>
        </g>
        <g transform="matrix(0.738219,0,0,0.738219,168.861,125.981)">
            <circle cx="680.561" cy="811.698" r="9.297" style="fill:rgb(211,21,0);"/>
        </g>
        <g transform="matrix(0.738219,0,0,0.738219,168.861,154.943)">
            <circle cx="680.561" cy="811.698" r="9.297" style="fill:rgb(211,21,0);"/>
        </g>
        <g transform="matrix(0.738219,0,0,0.738219,168.861,98.3464)">
            <circle cx="680.561" cy="811.698" r="9.297" style="fill:rgb(211,21,0);"/>
        </g>
    </g>
</svg>
