<?xml version="1.0" encoding="UTF-8" standalone="no"?>
<!DOCTYPE svg PUBLIC "-//W3C//DTD SVG 1.1//EN" "http://www.w3.org/Graphics/SVG/1.1/DTD/svg11.dtd">
<svg width="100%" height="100%" viewBox="0 0 420 363" version="1.1" xmlns="http://www.w3.org/2000/svg" xmlns:xlink="http://www.w3.org/1999/xlink" xml:space="preserve" xmlns:serif="http://www.serif.com/" style="fill-rule:evenodd;clip-rule:evenodd;stroke-linecap:round;stroke-linejoin:round;stroke-miterlimit:1.5;">
    <style type="text/css" >
      <![CDATA[
      @keyframes swim {
        0%   {transform: translateX(0) rotateY(0);}
        40%   {transform: translateX(0) rotateY(0);}
        45%  {transform: translateX(170px) rotateY(0);}
        50%  {transform: translateX(170px) rotateY(180deg);}
        70%  {transform: translateX(170px) rotateY(180deg);}
        75%  {transform: translateX(0px) rotateY(180deg);}
        80% {transform: translateX(0px) rotateY(0deg);}
        100% {transform: translateX(0px) rotateY(0deg);}
      }
      @keyframes hover {
        0% {transform: translateY(0)}
        50% {transform: translateY(5px)}
        0% {transform: translateY(0)}
      }
      #fish_wrapper {
        transform-origin: 130px 0;
        animation: swim 20s ease infinite;
      }
      #fish {
        animation: hover 4s ease infinite;
      }
      @keyframes blink {
        0%   {fill:#d31500;}
        42%  {fill:#d31500;}
        44%  {fill:#ffff00;}
        46%  {fill:#d31500;}
        72%  {fill:#d31500;}
        74%  {fill:#ffff00;}
        76%  {fill:#d31500;}
        100% {fill:#d31500;}
      }
      #sensor ellipse {
        animation: blink 20s ease infinite;
      }
      ]]>
    </style>
    <g id="aquarium">
        <g id="backside">
            <rect x="62.424" y="19.192" width="300.771" height="271.025" style="fill:none;stroke:#c2c2c2;stroke-opacity:0.53;stroke-width:1px;"/>
            <path d="M363.195,19.192l20.932,8.49" style="fill:none;stroke:#c2c2c2;stroke-opacity:0.53;stroke-width:1px;"/>
            <path d="M42.961,27.682l19.463,-8.49" style="fill:none;stroke:#c2c2c2;stroke-opacity:0.53;stroke-width:1px;"/>
        </g>
        <path id="sand" d="M42.125,335.147l0,-71.43c0,0 16.589,-16.251 20.299,-15.812c3.709,0.44 47.358,2.607 61.137,-1.23c20.21,-5.628 80.789,9.035 103.703,8.831c22.913,-0.204 61.333,-5.938 83.44,-12.66c20.845,-6.338 48.357,5.029 52.491,3.665c3.99,-1.316 20.299,11.745 20.299,11.745l0,76.891l-341.369,0Z" style="fill:#b89c81;"/>
        <path id="sand1" serif:id="sand" d="M42.125,335.147l0,-71.43c0,0 58.86,5.987 81.051,-0.192c20.211,-5.628 53.102,9.56 75.736,13.134c29.46,4.651 94.953,-1.828 116.999,-14.803c18.489,-10.882 67.583,-3.6 67.583,-3.6l0,76.891l-341.369,0Z" style="fill:#c5aa91;"/>
        <rect id="front" x="42.125" y="27.539" width="341.368" height="307.608" style="fill:none;stroke:#c2c2c2;stroke-opacity:0.53;stroke-width:1px;"/>
        <g id="water_surface">
            <path d="M384.035,55.467c-0.313,9.922 -211.58,11.683 -301.555,5.54c-24.314,-1.66 -39.77,-3.897 -39.814,-6.707l19.758,-10.033c0.781,0.378 10.605,1.683 27.767,2.274c74.413,2.564 272.719,1.986 273.004,-1.838l20.84,10.764Z" style="fill:#0b4c5c;fill-opacity:0.07;stroke:#7f7f7f;stroke-opacity:0.23;stroke-width:1px;"/>
            <path d="M384.035,55.467c-0.313,9.922 -211.58,11.683 -301.555,5.54c-24.314,-1.66 -39.77,-3.897 -39.814,-6.707l0,280.847l341.369,0l0,-279.68Z" style="fill:#0b4c5c;fill-opacity:0.04;"/>
        </g>
    </g>
    <g id="fish_wrapper">
        <g id="fish">
            <g id="lower_fins">
                <path d="M121.619,129.318c0.984,-0.826 -5.543,-4.409 -7.315,-2.802c-3.833,3.476 -2.958,4.189 -1.309,5.374c1.648,1.185 0.675,4.102 8.624,-2.572Z" style="fill:#f8dcd4;"/>
                <path d="M130.843,131.239c-4.076,3.124 -1.579,4.282 -0.137,4.86c1.443,0.578 1.353,5.155 9.29,-3.945c-0.546,-2.324 -5.078,-4.039 -9.153,-0.915Z" style="fill:#f8dcd4;"/>
                <path d="M145.131,131.605c-1.714,1.932 -2.853,8.287 5.515,0.33c8.367,-7.957 -3.8,-2.262 -5.515,-0.33Z" style="fill:#f8dcd4;"/>
            </g>
            <path id="body" d="M137.668,102.319c17.979,0 32.576,6.788 32.576,15.149c0,8.36 -14.597,15.148 -32.576,15.148c-6.622,0 -12.785,-0.921 -17.929,-2.502c-3.546,-1.09 -6.607,-2.493 -9.001,-4.125c-1.407,-0.959 -2.583,-1.997 -3.491,-3.097c-28.964,11.594 -21.286,9.502 -21.286,-3.555c0,-17.456 -7.172,-15.688 21.241,-7.239c1.075,-1.317 2.533,-2.546 4.312,-3.658c11.729,-22.739 4.135,-24.476 24.143,-6.093c0.665,-0.018 1.336,-0.028 2.011,-0.028Z" style="fill:none;"/>
            <clipPath id="siluette">
                <path d="M137.668,102.319c17.979,0 32.576,6.788 32.576,15.149c0,8.36 -14.597,15.148 -32.576,15.148c-6.622,0 -12.785,-0.921 -17.929,-2.502c-3.546,-1.09 -6.607,-2.493 -9.001,-4.125c-1.407,-0.959 -2.583,-1.997 -3.491,-3.097c-28.964,11.594 -21.286,9.502 -21.286,-3.555c0,-17.456 -7.172,-15.688 21.241,-7.239c1.075,-1.317 2.533,-2.546 4.312,-3.658c11.729,-22.739 4.135,-24.476 24.143,-6.093c0.665,-0.018 1.336,-0.028 2.011,-0.028Z"/>
            </clipPath>
            <g clip-path="url(#siluette)">
                <rect x="71.115" y="84.497" width="108.333" height="59.864" style="fill:#f8dcd4;"/>
                <path d="M108.945,119.564l-19.307,4.143" style="fill:none;stroke:#ea967f;stroke-width:0.25px;"/>
                <path d="M89.765,112.687l18.933,2.645" style="fill:none;stroke:#ea967f;stroke-width:0.25px;"/>
                <path d="M108.768,117.519l-18.188,0.185" style="fill:none;stroke:#ea967f;stroke-width:0.25px;"/>
                <path d="M137.668,102.319c17.979,0 32.576,6.788 32.576,15.149c0,8.36 -14.597,15.148 -32.576,15.148c-13.869,0 -25.725,-4.039 -30.421,-9.724c-2.231,-2.701 -1.985,-8.418 -0.045,-10.794c4.665,-5.714 16.553,-9.779 30.466,-9.779Z" style="fill:#e0442c;"/>
                <ellipse cx="124.265" cy="123.101" rx="16.841" ry="8.584" style="fill:#f4f1ee;"/>
                <ellipse cx="156.211" cy="116.98" rx="14.053" ry="10.963" style="fill:#f4f1ee;"/>
                <ellipse cx="161.669" cy="117.468" rx="13.541" ry="10.523" style="fill:#e0442c;"/>
                <ellipse cx="161.777" cy="117.441" rx="8.697" ry="9.565" style="fill:#f4f1ee;"/>
                <ellipse cx="166.095" cy="117.995" rx="8.693" ry="9.492" style="fill:#e0442c;"/>
                <ellipse cx="134.448" cy="130.038" rx="30.832" ry="8.584" style="fill:#a64629;"/>
                <ellipse cx="170.244" cy="117.468" rx="4.966" ry="4.805" style="fill:#f4f1ee;"/>
                <ellipse cx="162.571" cy="114.907" rx="2.094" ry="2.193" style="fill:#261f18;stroke:#f8dcd4;stroke-width:0.4px;"/>
            </g>
        </g>
    </g>
    <g id="sensor">
        <path d="M216.537,20.898c0,-0.941 -0.764,-1.706 -1.706,-1.706l-3.411,0c-0.941,0 -1.705,0.765 -1.705,1.706l0,312.468c0,0.941 0.764,1.706 1.705,1.706l3.411,0c0.942,0 1.706,-0.765 1.706,-1.706l0,-312.468Z" style="fill:#292929;"/>
        <ellipse cx="213.126" cy="291.609" rx="2.543" ry="2.489" style="fill:#d31500;"/>
        <ellipse cx="213.126" cy="281.586" rx="2.543" ry="2.489" style="fill:#d31500;"/>
        <ellipse cx="213.126" cy="261.058" rx="2.543" ry="2.489" style="fill:#d31500;"/>
        <ellipse cx="213.126" cy="271.563" rx="2.543" ry="2.489" style="fill:#d31500;"/>
        <ellipse cx="213.126" cy="251.036" rx="2.543" ry="2.489" style="fill:#d31500;"/>
    </g>
</svg>
