<?xml version="1.0" encoding="UTF-8" standalone="no"?>
<!DOCTYPE svg PUBLIC "-//W3C//DTD SVG 1.1//EN" "http://www.w3.org/Graphics/SVG/1.1/DTD/svg11.dtd">
<svg width="100%" height="100%" viewBox="0 0 312 157" version="1.1" xmlns="http://www.w3.org/2000/svg" xmlns:xlink="http://www.w3.org/1999/xlink" xml:space="preserve" xmlns:serif="http://www.serif.com/" style="fill-rule:evenodd;clip-rule:evenodd;stroke-linejoin:round;stroke-miterlimit:2;">
    <g id="Layer1">
        <path d="M4.344,156.503l42.101,-0.013c3.384,-0.023 6.77,-0.042 10.153,-0.123c2.27,-0.055 4.539,-0.137 6.803,-0.267c3.386,-0.193 6.815,-0.351 10.21,-0.662c2.319,-0.212 4.621,-0.496 6.884,-0.907c3.407,-0.62 6.995,-1.329 10.441,-2.297c2.391,-0.672 4.715,-1.469 6.869,-2.441c2.899,-1.309 6.025,-2.968 9.036,-4.841c2.998,-1.864 5.881,-3.941 8.322,-6.091c2.938,-2.589 6.07,-5.848 9.098,-9.331c2.869,-3.3 5.645,-6.801 8.074,-10.116c2.357,-3.221 4.755,-6.882 7.142,-10.718c3.345,-5.374 6.671,-11.094 9.84,-16.419c4.472,-7.525 8.948,-16.061 13.418,-23.896c1.146,-2.008 2.29,-3.969 3.435,-5.855c3.074,-5.064 6.379,-10.52 9.711,-15.61c2.343,-3.577 4.697,-6.972 6.996,-9.915c2.325,-2.976 5.02,-6.093 7.814,-9.013c2.895,-3.025 5.895,-5.838 8.697,-8.052c2.302,-1.819 5.007,-3.512 7.812,-5.015c2.846,-1.526 5.795,-2.855 8.54,-3.918c2.024,-0.783 4.175,-1.4 6.376,-1.913c3.332,-0.776 6.777,-1.313 10.08,-1.812c2.174,-0.328 4.374,-0.549 6.585,-0.714c3.356,-0.25 6.735,-0.371 10.085,-0.532l7.816,-0.24l8.992,-0.104l42.625,-0.777c0.953,-0.016 1.715,-0.803 1.699,-1.756c-0.015,-0.954 -0.802,-1.715 -1.756,-1.7l-42.618,0.614c0,-0 -9.004,0.068 -9.004,0.068l-7.923,0.213c-3.383,0.148 -6.797,0.257 -10.187,0.497c-2.305,0.164 -4.6,0.389 -6.868,0.724c-3.4,0.503 -6.946,1.049 -10.378,1.837c-2.378,0.546 -4.702,1.209 -6.891,2.048c-2.885,1.107 -5.985,2.494 -8.977,4.086c-3.015,1.603 -5.92,3.417 -8.396,5.362c-2.937,2.305 -6.085,5.232 -9.12,8.386c-2.895,3.008 -5.687,6.221 -8.095,9.29c-2.368,3.017 -4.797,6.497 -7.209,10.167c-3.367,5.121 -6.705,10.613 -9.81,15.71c-1.165,1.915 -2.331,3.906 -3.496,5.946c-4.461,7.814 -8.917,16.333 -13.376,23.84c-3.148,5.307 -6.454,11.008 -9.778,16.364c-2.329,3.75 -4.666,7.331 -6.965,10.481c-2.359,3.237 -5.056,6.657 -7.844,9.881c-2.899,3.353 -5.895,6.495 -8.709,8.989c-2.284,2.023 -4.986,3.975 -7.792,5.731c-2.858,1.788 -5.824,3.374 -8.576,4.626c-1.984,0.901 -4.125,1.638 -6.327,2.264c-3.329,0.947 -6.796,1.644 -10.088,2.256c-2.153,0.401 -4.345,0.678 -6.551,0.889c-3.352,0.32 -6.738,0.488 -10.081,0.693c-2.223,0.135 -4.451,0.225 -6.68,0.287c-3.362,0.094 -6.727,0.126 -10.09,0.162l-42.07,0.181c-0.953,0 -1.727,0.775 -1.727,1.729c0,0.953 0.775,1.728 1.728,1.727Z" style="fill:#3c7385;"/>
        <path d="M308.262,1.428c-2.035,0.007 -11.557,0.176 -21.43,0.387c-8.31,0.177 -16.87,0.384 -21.42,0.546c-3.4,0.122 -6.816,0.238 -10.207,0.487c-2.303,0.17 -4.594,0.401 -6.862,0.736c-3.4,0.502 -6.946,1.047 -10.377,1.834c-2.379,0.546 -4.702,1.208 -6.891,2.047c-2.885,1.106 -5.985,2.491 -8.977,4.082c-3.014,1.604 -5.918,3.419 -8.394,5.364c-2.935,2.306 -6.082,5.234 -9.116,8.388c-2.894,3.007 -5.686,6.221 -8.094,9.289c-2.368,3.016 -4.798,6.495 -7.211,10.165c-3.367,5.12 -6.704,10.613 -9.808,15.71c-1.165,1.914 -2.331,3.906 -3.496,5.946c-4.465,7.811 -8.929,16.326 -13.393,23.83c-3.15,5.306 -6.458,11.005 -9.783,16.36c-2.329,3.75 -4.665,7.331 -6.964,10.48c-2.36,3.236 -5.058,6.655 -7.847,9.878c-2.9,3.35 -5.897,6.49 -8.712,8.982c-2.282,2.023 -4.983,3.974 -7.789,5.729c-2.856,1.788 -5.821,3.373 -8.572,4.624c-1.983,0.901 -4.123,1.638 -6.324,2.263c-3.328,0.946 -6.795,1.64 -10.087,2.25c-2.152,0.399 -4.343,0.675 -6.548,0.884c-3.352,0.319 -6.738,0.484 -10.08,0.687c-2.222,0.134 -4.448,0.216 -6.676,0.273c-3.367,0.086 -6.738,0.115 -10.104,0.171l-16.837,0.118l-41.919,0.083c-0.968,-0.001 -1.755,0.785 -1.755,1.754c0,0.968 0.786,1.755 1.755,1.755l41.925,0.063l16.887,-0.057c3.377,-0.045 6.76,-0.06 10.138,-0.135c2.272,-0.051 4.543,-0.129 6.808,-0.26c3.387,-0.195 6.816,-0.355 10.212,-0.668c2.319,-0.214 4.622,-0.499 6.885,-0.912c3.408,-0.622 6.996,-1.334 10.443,-2.303c2.392,-0.673 4.717,-1.47 6.872,-2.443c2.901,-1.309 6.027,-2.968 9.039,-4.842c2.999,-1.865 5.884,-3.943 8.325,-6.094c2.937,-2.591 6.069,-5.852 9.096,-9.337c2.868,-3.301 5.643,-6.804 8.071,-10.119c2.357,-3.222 4.756,-6.883 7.143,-10.719c3.344,-5.375 6.668,-11.097 9.835,-16.423c4.467,-7.528 8.935,-16.069 13.402,-23.905c1.145,-2.009 2.29,-3.97 3.434,-5.855c3.074,-5.065 6.38,-10.52 9.713,-15.611c2.342,-3.577 4.696,-6.973 6.994,-9.917c2.325,-2.976 5.021,-6.094 7.815,-9.013c2.896,-3.025 5.897,-5.838 8.7,-8.051c2.303,-1.819 5.01,-3.511 7.815,-5.014c2.846,-1.526 5.794,-2.857 8.54,-3.92c2.024,-0.784 4.175,-1.402 6.377,-1.915c3.332,-0.777 6.777,-1.316 10.08,-1.815c2.177,-0.329 4.378,-0.558 6.59,-0.729c3.344,-0.258 6.713,-0.383 10.067,-0.515c4.538,-0.179 13.076,-0.415 21.365,-0.621c9.843,-0.246 19.335,-0.449 21.364,-0.462c0.968,-0.005 1.751,-0.795 1.746,-1.764c-0.005,-0.968 -0.795,-1.75 -1.763,-1.746Z" style="fill:#62a0b5;"/>
    </g>
</svg>
