<?xml version="1.0" encoding="UTF-8" standalone="no"?><!DOCTYPE svg PUBLIC "-//W3C//DTD SVG 1.1//EN" "http://www.w3.org/Graphics/SVG/1.1/DTD/svg11.dtd"><svg width="100%" height="100%" viewBox="0 0 55 34" version="1.1" xmlns="http://www.w3.org/2000/svg" xmlns:xlink="http://www.w3.org/1999/xlink" xml:space="preserve" xmlns:serif="http://www.serif.com/" style="fill-rule:evenodd;clip-rule:evenodd;stroke-linecap:round;stroke-linejoin:round;stroke-miterlimit:10;"><path d="M3.801,29.983c0.657,-0.005 1.972,-0.015 2.954,-0.073c0.985,-0.058 1.991,-0.098 2.955,-0.274c0.984,-0.18 2.057,-0.402 2.954,-0.805c0.985,-0.443 2.122,-1.122 2.955,-1.852c0.984,-0.864 2.095,-2.166 2.954,-3.332c0.985,-1.338 2.01,-3.117 2.955,-4.695c0.984,-1.646 1.969,-3.57 2.954,-5.178c0.925,-1.511 1.97,-3.222 2.955,-4.471c0.846,-1.074 1.969,-2.251 2.954,-3.021c0.839,-0.656 1.97,-1.222 2.955,-1.599c0.914,-0.35 1.969,-0.516 2.954,-0.662c0.97,-0.144 1.97,-0.17 2.955,-0.215c0.424,-0.019 0.91,-0.031 1.378,-0.039c0.617,-0.01 9.969,-0.013 10.343,-0.015" style="fill:none;stroke:#3c7385;stroke-width:4px;"/><path d="M51,3.75c-0.566,0.003 -2.552,0.006 -3.332,0.015c-0.99,0.011 -1.984,0.105 -2.955,0.256c-0.985,0.153 -2.04,0.312 -2.954,0.662c-0.985,0.377 -2.116,0.943 -2.955,1.599c-0.985,0.77 -2.107,1.947 -2.954,3.021c-0.985,1.249 -2.03,2.96 -2.955,4.471c-0.985,1.608 -1.97,3.532 -2.954,5.178c-0.945,1.578 -1.97,3.357 -2.955,4.695c-0.859,1.166 -1.97,2.468 -2.954,3.332c-0.833,0.73 -1.97,1.409 -2.955,1.852c-0.897,0.403 -1.97,0.625 -2.954,0.805c-0.964,0.176 -1.97,0.216 -2.955,0.274c-0.982,0.058 -1.97,0.058 -2.954,0.073c-0.985,0.015 -1.97,0.013 -2.955,0.015c-1.41,0.003 -5.509,0.002 -5.509,0.002" style="fill:none;stroke:#62a0b5;stroke-width:4px;"/></svg>