<svg xmlns="http://www.w3.org/2000/svg" font-family="open sans" font-size="14" viewBox="0 0 1040 410"><defs><clipPath id="a"><path d="M0 0h837v197H0z"/></clipPath></defs><path fill="#FFF" class="highcharts-background" d="M0 0h1040v410H0z"/><g class="highcharts-grid" fill="none" stroke="#D8D8D8"><path d="M98 333.5h837M98 267.5h837M98 202.5h837M98 135.5h837"/></g><g class="highcharts-axis" fill="none" stroke="#C0D0E0"><path d="M173.5 333v10M249.5 333v10M325.5 333v10M401.5 333v10M477.5 333v10M554.5 333v10M630.5 333v10M706.5 333v10M782.5 333v10M858.5 333v10M935.5 333v10M97.5 333v10M98 333.5h837"/></g><g class="highcharts-axis" fill="none" stroke="#C0D0E0"><path d="M173.5 136v-10M249.5 136v-10M325.5 136v-10M401.5 136v-10M477.5 136v-10M554.5 136v-10M630.5 136v-10M706.5 136v-10M782.5 136v-10M858.5 136v-10M935.5 136v-10M97.5 136v-10M98 135.5h837"/></g><g class="highcharts-axis"><text x="1013.281" text-anchor="middle" transform="rotate(90 1013.281 234.5)" class="highcharts-yaxis-title" y="220" color="#000"><tspan>Murders by steam</tspan></text></g><g class="highcharts-axis"><text x="26.766" text-anchor="middle" transform="rotate(-90 26.766 234.5)" class="highcharts-yaxis-title" y="220" color="#ba0f27" fill="#ba0f27"><tspan>Age of Miss America</tspan></text></g><g class="highcharts-series-group"><g class="highcharts-series" transform="translate(98 136)" clip-path="url(#a)"><path fill="none" d="M38.045 32.833h152.182c30.437 0 45.655 131.334 76.091 131.334 30.437 0 45.655-32.834 76.091-32.834 30.436 0 45.655 32.834 76.091 32.834C448.936 164.167 464.155 0 494.59 0c30.437 0 45.655 91.933 76.092 131.333 30.436 39.4 45.654 65.667 76.09 65.667 30.437 0 45.655-32.833 76.092-32.833 30.436 0 76.09 32.833 76.09 32.833" stroke="#000" stroke-width="2" stroke-linejoin="round" stroke-linecap="round"/></g><g class="highcharts-markers"><path d="M896 329c5.328 0 5.328 8 0 8s-5.328-8 0-8zM820 296.167c5.328 0 5.328 8 0 8s-5.328-8 0-8zM744 329c5.328 0 5.328 8 0 8s-5.328-8 0-8zM668 263.333c5.328 0 5.328 8 0 8s-5.328-8 0-8zM592 132c5.328 0 5.328 8 0 8s-5.328-8 0-8zM516 296.167c5.328 0 5.328 8 0 8s-5.328-8 0-8zM440 263.333c5.328 0 5.328 8 0 8s-5.328-8 0-8zM364 296.167c5.328 0 5.328 8 0 8s-5.328-8 0-8zM288 164.833c5.328 0 5.328 8 0 8s-5.328-8 0-8zM212 164.833c5.328 0 5.328 8 0 8s-5.328-8 0-8zM136 164.833c5.328 0 5.328 8 0 8s-5.328-8 0-8z"/></g><g class="highcharts-series" transform="translate(98 136)" clip-path="url(#a)"><path fill="none" d="M38.045 31.52h152.182c30.437 0 45.655 94.56 76.091 94.56 30.437 0 45.655-31.52 76.091-31.52 30.436 0 45.655 31.52 76.091 31.52 30.436 0 45.655-94.56 76.09-94.56 30.437 0 45.655 37.824 76.092 63.04 30.436 25.216 45.654 44.128 76.09 63.04 30.437 18.912 45.655 31.52 76.092 31.52 30.436 0 76.09-94.56 76.09-94.56" stroke="#ba0f27" stroke-width="2" stroke-linejoin="round" stroke-linecap="round"/></g><g class="highcharts-markers" fill="#ba0f27"><path d="M896 226.56l4 4-4 4-4-4zM820 321.12l4 4-4 4-4-4zM744 289.6l4 4-4 4-4-4zM668 226.56l4 4-4 4-4-4zM592 163.52l4 4-4 4-4-4zM516 258.08l4 4-4 4-4-4zM440 226.56l4 4-4 4-4-4zM364 258.08l4 4-4 4-4-4zM288 163.52l4 4-4 4-4-4zM212 163.52l4 4-4 4-4-4zM136 163.52l4 4-4 4-4-4z"/></g></g><text x="520" text-anchor="middle" class="highcharts-title" y="24" style="width:976px" color="#777" font-size="18" fill="#777"><tspan fill="#ba0f27" font-size="24" font-weight="700" font-family="lora">Age of Miss America</tspan><tspan x="520" dy="21" font-family="lora"> correlates with </tspan><tspan x="520" dy="29" fill="#000" font-size="24" font-weight="700" font-family="lora">Murders by steam, hot vapours and hot objects</tspan></text><g class="highcharts-legend"><g class="highcharts-legend-item"><path fill="none" d="M378 382h16" stroke="#000" stroke-width="2"/><path d="M386 378c5.328 0 5.328 8 0 8s-5.328-8 0-8z"/><text x="21" y="15" color="#333" font-weight="700" cursor="pointer" fill="#333" transform="translate(378 371)"><tspan>Murders by steam</tspan></text></g><g class="highcharts-legend-item"><path fill="none" d="M524.328 382h16" stroke="#ba0f27" stroke-width="2"/><path fill="#ba0f27" d="M532.328 378l4 4-4 4-4-4z"/><text x="21" y="15" color="#333" font-weight="700" cursor="pointer" fill="#333" transform="translate(524.328 371)"><tspan>Age of Miss America</tspan></text></g></g><g class="highcharts-axis-labels highcharts-xaxis-labels" text-anchor="middle" color="#000" cursor="default" font-size="16"><text x="136.045" y="352" style="width:76.0909090909091" text-overflow="ellipsis"><tspan>1999</tspan></text><text x="212.136" y="352" style="width:76.0909090909091" text-overflow="ellipsis"><tspan>2000</tspan></text><text x="288.227" y="352" style="width:76.0909090909091" text-overflow="ellipsis"><tspan>2001</tspan></text><text x="364.318" y="352" style="width:76.0909090909091" text-overflow="ellipsis"><tspan>2002</tspan></text><text x="440.409" y="352" style="width:76.0909090909091" text-overflow="ellipsis"><tspan>2003</tspan></text><text x="516.5" y="352" style="width:76.0909090909091" text-overflow="ellipsis"><tspan>2004</tspan></text><text x="592.591" y="352" style="width:76.0909090909091" text-overflow="ellipsis"><tspan>2005</tspan></text><text x="668.682" y="352" style="width:76.0909090909091" text-overflow="ellipsis"><tspan>2006</tspan></text><text x="744.773" y="352" style="width:76.0909090909091" text-overflow="ellipsis"><tspan>2007</tspan></text><text x="820.864" y="352" style="width:76.0909090909091" text-overflow="ellipsis"><tspan>2008</tspan></text><text x="896.955" y="352" style="width:76.0909090909091" text-overflow="ellipsis"><tspan>2009</tspan></text></g><g class="highcharts-axis-labels highcharts-xaxis-labels" text-anchor="middle" color="#ba0f27" cursor="default" font-size="16" fill="#ba0f27"><text x="136.045" y="121" style="width:76.0909090909091" text-overflow="ellipsis"><tspan>1999</tspan></text><text x="212.136" y="121" style="width:76.0909090909091" text-overflow="ellipsis"><tspan>2000</tspan></text><text x="288.227" y="121" style="width:76.0909090909091" text-overflow="ellipsis"><tspan>2001</tspan></text><text x="364.318" y="121" style="width:76.0909090909091" text-overflow="ellipsis"><tspan>2002</tspan></text><text x="440.409" y="121" style="width:76.0909090909091" text-overflow="ellipsis"><tspan>2003</tspan></text><text x="516.5" y="121" style="width:76.0909090909091" text-overflow="ellipsis"><tspan>2004</tspan></text><text x="592.591" y="121" style="width:76.0909090909091" text-overflow="ellipsis"><tspan>2005</tspan></text><text x="668.682" y="121" style="width:76.0909090909091" text-overflow="ellipsis"><tspan>2006</tspan></text><text x="744.773" y="121" style="width:76.0909090909091" text-overflow="ellipsis"><tspan>2007</tspan></text><text x="820.864" y="121" style="width:76.0909090909091" text-overflow="ellipsis"><tspan>2008</tspan></text><text x="896.955" y="121" style="width:76.0909090909091" text-overflow="ellipsis"><tspan>2009</tspan></text></g><g class="highcharts-axis-labels highcharts-yaxis-labels" color="#000" cursor="default" font-size="16"><text x="950" y="337" style="width:333px"><tspan>2 murders</tspan></text><text x="950" y="271" style="width:333px"><tspan>4 murders</tspan></text><text x="950" y="205" style="width:333px"><tspan>6 murders</tspan></text><text x="950" y="140" style="width:333px"><tspan>8 murders</tspan></text></g><g class="highcharts-axis-labels highcharts-yaxis-labels" text-anchor="end" color="#ba0f27" cursor="default" font-size="16" fill="#ba0f27"><text x="83" y="337" style="width:333px"><tspan>18.75 yrs</tspan></text><text x="83" y="297" style="width:333px"><tspan>20 yrs</tspan></text><text x="83" y="258" style="width:333px"><tspan>21.25 yrs</tspan></text><text x="83" y="218" style="width:333px"><tspan>22.5 yrs</tspan></text><text x="83" y="179" style="width:333px"><tspan>23.75 yrs</tspan></text><text x="83" y="140" style="width:333px"><tspan>25 yrs</tspan></text></g><g class="highcharts-tooltip" style="padding:0;white-space:nowrap" cursor="default"><path fill="none" d="M4-9998h10c3 0 3 0 3 3v10c0 3 0 3-3 3H4c-3 0-3 0-3-3v-10c0-3 0-3 3-3" stroke="#000" stroke-opacity=".05" stroke-width="5"/><path fill="none" d="M4-9998h10c3 0 3 0 3 3v10c0 3 0 3-3 3H4c-3 0-3 0-3-3v-10c0-3 0-3 3-3" stroke="#000" stroke-opacity=".1" stroke-width="3"/><path fill="none" d="M4-9998h10c3 0 3 0 3 3v10c0 3 0 3-3 3H4c-3 0-3 0-3-3v-10c0-3 0-3 3-3" stroke="#000" stroke-opacity=".15"/><path fill="#F9F9F9" fill-opacity=".85" d="M3-9999h10c3 0 3 0 3 3v10c0 3 0 3-3 3H3c-3 0-3 0-3-3v-10c0-3 0-3 3-3"/></g><a href="//tylervigen.com"><text x="1030" text-anchor="end" y="405" cursor="pointer" color="#909090" font-size="11" fill="#909090">tylervigen.com</text></a></svg>